<svg width="71" height="35" viewBox="0 0 71 35" fill="none" xmlns="http://www.w3.org/2000/svg">
<path d="M0 11.3813H10.57L0 21.6038V25.7383H17.1364V21.4217H6.76149L17.1364 11.3463V7.06473H0V11.3813ZM39.0682 6.59911C38.079 6.5937 37.1011 6.79568 36.2068 7.19017C35.3125 7.58463 34.5246 8.16148 33.9013 8.87814V7.06473H29.0234V25.7383H34.1527V14.8261C34.1527 12.7256 35.7474 11.1257 38.0401 11.1257C41.4171 11.1257 41.7698 13.7374 41.7698 14.8261V25.7383H46.8991V14.8261C46.8803 9.89343 43.7697 6.59911 39.0682 6.59911ZM65.6602 6.66914L60.5422 11.0907H65.6564V16.7516C65.5026 19.5102 63.2775 21.7018 60.5422 21.7018C57.7055 21.7018 55.4128 19.4192 55.4128 16.4505C55.4128 13.4048 57.7055 11.0837 60.5422 11.0837V6.70064C60.287 6.68314 60.0319 6.66563 59.7654 6.66563C54.5574 6.66563 50.246 10.8666 50.246 16.419C50.246 21.9714 54.5574 26.1374 59.7654 26.1374C61.9636 26.1601 64.0837 25.3784 65.6715 23.9598V24.8666C65.6715 28.2029 64.0392 30.4154 60.4184 30.4154C59.0188 30.4154 57 29.8343 56.3397 28.3464H50.7114C51.488 32.2988 55.6455 34.872 60.4258 34.872C66.8384 34.872 70.8008 30.9931 70.8008 24.7931V6.66563L65.6602 6.66914ZM23.0724 0.0175107C22.5151 0.0175107 21.9703 0.171704 21.5069 0.460599C21.0435 0.749494 20.6823 1.16011 20.469 1.64052C20.2557 2.12094 20.1999 2.64957 20.3086 3.15957C20.4174 3.66957 20.6858 4.13804 21.0799 4.50574C21.474 4.87343 21.976 5.12382 22.5227 5.22526C23.0693 5.32671 23.6359 5.27465 24.1508 5.07566C24.6657 4.87667 25.1058 4.53968 25.4155 4.10732C25.7251 3.67496 25.8904 3.16664 25.8904 2.64665C25.8923 2.30004 25.8209 1.95648 25.6802 1.63569C25.5395 1.31489 25.3324 1.02316 25.0706 0.777267C24.8087 0.531362 24.4975 0.336119 24.1546 0.202735C23.8117 0.0693512 23.444 0.000456013 23.0724 0V0.0175107ZM20.5059 25.7558H25.6465V7.06473H20.5059V25.7558Z" fill="#2E6EFE"/>
</svg>
