<?xml version="1.0" encoding="utf-8"?>
<!-- Generator: Adobe Illustrator 26.0.1, SVG Export Plug-In . SVG Version: 6.00 Build 0)  -->
<svg version="1.1" id="Layer_1" xmlns="http://www.w3.org/2000/svg" xmlns:xlink="http://www.w3.org/1999/xlink" x="0px" y="0px"
	 viewBox="0 0 198 100" style="enable-background:new 0 0 198 100;" xml:space="preserve">
<g>
	<path d="M46.8,42.9c-1.6-1.1-3.2-2.2-4.9-3.2c-1.5-1-3.1-2-4.7-3.1c-3.5-2.3-7-4.5-10.4-6.8c-2.5-1.7-5.3-2.2-8.2-1.2
		c-1.8,0.7-3.2,1.8-4.3,3.5c-0.7,1.2-1.1,2.5-1.4,3.8c0,0.1,0,0.3,0,0.4c0,9.2,0,18.3,0,27.5c0,0.2,0,0.4,0.1,0.6
		c0.1,0.3,0,0.6,0.2,0.9c0.1,0.2,0.1,0.5,0.2,0.7c0.1,0.2,0.3,0.4,0.3,0.7c0.6,1.4,1.5,2.5,2.7,3.4c2.3,1.7,4.8,2.3,7.6,1.4
		c1.4-0.4,2.6-1.2,3.8-2.1l0,0c0.6-0.3,1.1-0.8,1.7-1c0.1-0.1,0.2-0.2,0.3-0.3c0.3-0.2,0.6-0.4,0.9-0.5c1.1-0.7,2.2-1.6,3.4-2.2
		c0.2-0.2,0.4-0.3,0.6-0.5c2.5-1.6,5.1-3.3,7.6-4.9c1.8-1.2,3.8-2.3,5.5-3.8c0.2-0.1,0.4-0.3,0.5-0.4c0.5-0.6,0.9-1.2,1.2-1.9
		c0.6-1.5,1.1-3.1,0.9-4.8C49.9,46.6,48.9,44.4,46.8,42.9z M18.6,34.4c0.6-0.6,1.2-1.2,2.1-1.4c1.5-0.4,3.4,0.3,4.2,1.6
		c0.9,1.5,0.9,2.9,0,4.4c-0.4,0.7-1.1,1.1-1.7,1.5l0,0c-2.4,0.9-4.5-0.5-5.2-2.4C17.5,36.7,17.7,35.5,18.6,34.4z M25.9,63.2
		c-0.1,0.3-0.1,0.6-0.1,0.9c-0.1,0.2-0.1,0.5-0.3,0.7c-0.5,0.8-1,1.6-1.8,2.1c-2.8,1.4-6-0.4-6-3.5c0-4.4,0-8.8,0-13.2
		c0-2.4,0-4.9,0-7.3c0-0.7,0-0.7,0.7-0.4c1.1,0.5,2.3,0.7,3.5,0.7c1.9-0.1,3.2,0.7,3.8,2.5c0.3,0.4,0.3,0.9,0.3,1.4
		C26,52.3,26,57.7,25.9,63.2z M30.8,39.7c1.5-0.5,3.1,0.2,4.1,1.8c1.5,2.4-0.2,5.3-2.7,5.7c-0.3,0.1-0.7,0.1-1,0
		c-1.7-0.1-3.2-1.6-3.4-3.4C27.6,41.5,28.9,40.3,30.8,39.7z M35.7,52.4c-0.1,1.8,0,3.2-0.1,4.7c-0.2,2.1-1.9,3.6-4,3.5
		c-2.1,0-3.8-1.6-3.8-3.7c-0.1-1.4-0.1-2.9,0-4.3c0.1-1.8,1.4-3.1,3.2-3.1c1.5,0,2.9-0.1,4.3-0.8c0.4-0.2,0.5,0,0.5,0.4
		C35.7,50.4,35.7,51.6,35.7,52.4z M45.4,50.8c-0.2,0.6-0.5,1.2-0.9,1.7c-0.1,0.2-0.4,0.4-0.5,0.6c-1.4,0.8-2.9,0.9-4.4,0.1
		c-1-0.6-1.5-1.4-1.7-2.5c-0.1-0.4-0.1-0.9,0-1.3c0.3-2.1,2.2-3.5,4.4-3.1c1.7,0.3,2.4,1.5,3.1,2.9C45.5,49.7,45.5,50.3,45.4,50.8z"
		/>
	<path d="M141.7,50.8c-0.9-1.2-2.2-2-3.4-2.8c-0.6-0.3-1.3-0.5-1.9-0.8c-2-0.8-4.2-1.2-6.2-2.1c-0.7-0.3-1.3-0.6-1.8-1.2
		c-1.5-1.7-0.6-4.2,1.7-4.9c0.2-0.2,0.4-0.2,0.6-0.2c1.7-0.3,3.4-0.2,5,0.6c0.8,0.3,1.5,0.8,2.2,1.2c1.3,0.7,2.4,0.4,3.1-0.9
		c0.5-0.9,1-1.9,1.5-2.8c0.3-0.5,0.2-0.8-0.2-1.1c-3.5-2.7-7.5-3.6-11.9-3.1c-2.2,0.2-4.3,1-6.1,2.3c-0.1,0.1-0.2,0.2-0.3,0.3
		c-3.1,2.5-3.9,5.8-3.3,9.6c0.3,1.6,1,2.9,2.1,4.1c0,0,0.1,0.1,0.1,0.1c0.2,0.2,0.4,0.4,0.5,0.6c0.6,0.6,1.4,1,2.1,1.4
		c1.3,0.6,2.5,1.1,3.9,1.4c1.6,0.4,3.2,0.8,4.7,1.6c1,0.5,1.8,1.2,1.9,2.5c0.1,1.4-0.8,3.2-2.2,3.6c-1.2,0.3-2.4,0.4-3.7,0.3
		c-0.9-0.1-1.8-0.3-2.6-0.7c-0.8-0.4-1.6-0.9-2.4-1.4c0,0-0.1-0.1-0.1-0.1c-1-0.6-2-0.6-3,0c-0.4,0.3-0.6,0.6-0.8,1
		c-0.3,0.6-0.7,1.2-1,1.8c-0.9,1.4-0.8,1.6,0.5,2.6c2.4,1.8,5,2.9,7.9,3.3c2.2,0.3,4.4,0.3,6.6-0.2c0.9-0.2,1.8-0.6,2.6-1
		c0.2-0.1,0.5-0.2,0.6-0.5c0,0,0,0,0,0c0.6-0.3,1.2-0.7,1.7-1.2c1.2-1,2-2.4,2.6-3.7c0.6-1.7,0.8-3.4,0.7-5.2
		C143.1,53.5,142.6,52.1,141.7,50.8z M140.9,36.1C140.9,36.1,140.9,36.1,140.9,36.1C140.9,36.1,140.9,36.1,140.9,36.1
		C140.9,36.1,140.9,36.1,140.9,36.1z M122.7,48.5C122.7,48.5,122.7,48.5,122.7,48.5C122.7,48.5,122.7,48.5,122.7,48.5
		C122.7,48.5,122.7,48.5,122.7,48.5z M127.3,41C127.3,41,127.3,41,127.3,41C127.3,41,127.3,41,127.3,41C127.3,41,127.3,41,127.3,41z
		 M134.2,46.8C134.2,46.8,134.2,46.8,134.2,46.8C134.2,46.8,134.2,46.8,134.2,46.8C134.2,46.8,134.2,46.8,134.2,46.8z M136.7,65.1
		C136.7,65.1,136.7,65.1,136.7,65.1C136.7,65.1,136.7,65.1,136.7,65.1C136.7,65.1,136.7,65.1,136.7,65.1z"/>
	<path d="M152.5,32.1c-2.2,0-4,1.7-4,3.8c0,2.3,1.8,4,4.1,4c2.2,0,4-1.7,4-4C156.5,33.9,154.6,32.1,152.5,32.1z"/>
	<path d="M155.3,42.4c-1.9,0-3.7,0-5.6,0c-0.5,0-0.7,0.2-0.7,0.7c0,7.6,0,15.2,0,22.8c0,0.6,0.2,0.7,0.7,0.7c1.6,0,3.2,0,4.8,0
		c1.4,0,1.3,0,1.4-1.3c0.1-3.5,0-7.1,0.1-10.8c0-3.7,0-7.5,0-11.3C155.9,42.7,155.8,42.4,155.3,42.4z"/>
	<path d="M183.9,63c-1.8-2.9-3.6-5.8-5.5-8.7c-0.1-0.2-0.4-0.4-0.1-0.7c0.5-0.7,0.9-1.5,1.5-2.2c0-0.1,0.1-0.2,0.1-0.3
		c1.8-2.6,3.6-5.3,5.3-7.9c0.1-0.2,0.4-0.4,0.4-0.8c-0.3,0-0.5,0-0.8,0c-1.7,0-3.3,0-5,0c-1,0-1.8,0.4-2.3,1.2c-1,1.6-2,3.2-3,4.8
		c-0.1,0-0.1,0-0.2,0c-0.1,0.2-0.3,0.4-0.2,0.7c-0.3,0.1-0.3,0.3-0.4,0.5c0,0,0,0,0,0.1c0,0-0.1,0.1-0.1,0.1c-0.3,0.2-0.4,0-0.5-0.2
		c-0.2-0.4-0.5-0.7-0.7-1.1c-1-1.7-2-3.4-3.1-5.1c-0.5-0.8-1.2-1.1-2.1-1.1c-0.7,0-1.5,0-2.2,0c-1.3,0-2.6-0.1-3.9,0.1
		c-0.6,0.3-0.1,0.6,0,0.8c1.6,2.5,3.3,4.9,4.9,7.4c0.2,0.3,0.4,0.6,0.6,0.8c0.6,0.9,1.3,1.8,1.7,2.8c0,0,0,0,0,0
		c-0.1,0-0.2,0.1-0.2,0.3c-1.9,3-4,6-5.9,9.1c-0.5,0.8-1.1,1.6-1.6,2.4c-0.3,0.5-0.3,0.6,0.4,0.6c2,0.1,3.9,0,5.9,0
		c0.3,0,0.6-0.1,0.9-0.3c0.4-0.3,0.7-0.7,1-1.1c1.4-2.3,2.7-4.6,4.1-7c0.2,0,0.3,0.2,0.4,0.3c0.3,0.4,0.5,0.9,0.8,1.3
		c1,1.7,1.9,3.3,2.9,5c0.5,0.9,1.2,1.7,2.4,1.7c1.3,0,2.5,0,3.8,0c0.8,0,1.6,0.1,2.4-0.1C185.3,65.2,184.6,64.1,183.9,63z"/>
	<path d="M115.3,53.8c0-0.4-0.2-0.5-0.6-0.5c-1.1,0-2.1,0-3.2,0c0-6.5,0-13,0-19.5c0-0.6-0.1-0.8-0.7-0.8c-1.8,0-3.5,0-5.3,0
		c-0.6,0-1,0.2-1.4,0.7c-1.2,1.6-2.4,3.2-3.7,4.9c-0.5,0.8-1.1,1.5-1.6,2.3c-3,4.1-6,8.2-9.1,12.3c-0.4,0.5-0.5,1-0.3,1.6
		c0.2,0.7,0.3,1.4,0.4,2.1c0.3,1.4,0.9,1.9,2.3,1.9c4.3,0,8.6,0,12.9,0c0.1,0.3,0.1,0.5,0.1,0.8c0,2.1,0,4.1,0,6.2
		c0,0.6,0.2,0.7,0.7,0.7c0.3,0,0.7,0,1,0c1.5-0.1,3.1,0.1,4.6-0.1c0-2.3,0-4.6,0-6.9c0-0.6,0.2-0.8,0.7-0.7c0.5,0,1,0,1.5,0
		c0.8,0,1.3-0.4,1.4-1.3C115.4,56.3,115.3,55,115.3,53.8z M97.2,51.1C97.2,51.1,97.2,51.1,97.2,51.1C97.2,51.1,97.2,51.1,97.2,51.1
		C97.2,51.1,97.2,51.1,97.2,51.1z M105.3,58.7C105.2,58.7,105.2,58.7,105.3,58.7C105.2,58.7,105.2,58.7,105.3,58.7
		C105.2,58.7,105.2,58.7,105.3,58.7L105.3,58.7C105.3,58.7,105.3,58.7,105.3,58.7C105.3,58.7,105.3,58.7,105.3,58.7z M105.3,41.8
		c-0.2,3.6-0.1,7.1-0.1,10.7c0,0.6-0.1,0.8-0.7,0.8c-2.3,0-4.6,0-6.9,0c-0.2,0-0.5,0.1-0.7-0.1c-0.1-0.2,0.1-0.4,0.3-0.6
		c0.1-0.2,0.3-0.3,0.4-0.5c0,0,0,0,0,0v0c0.7-1.1,1.4-2.2,2.3-3.2c1.3-1.9,2.6-3.7,3.9-5.6c0.5-0.6,0.9-1.3,1.4-1.9
		C105.4,41.5,105.4,41.7,105.3,41.8z M108.2,62.1C108.2,62.1,108.2,62.1,108.2,62.1C108.2,62.1,108.2,62.1,108.2,62.1
		C108.2,62.1,108.2,62.1,108.2,62.1z"/>
	<path d="M85.1,60.2c-3.7,0.1-7.5-0.3-11.4,0.4c0.9-1.1,2-2,2.9-3c0.6-0.6,1.2-1.2,1.8-1.8c0,0,0,0-0.1-0.1c0,0,0,0,0,0
		c0,0,0,0,0,0.1c0.2-0.1,0.4-0.2,0.4-0.4h0c0.7-0.7,1.5-1.5,2.2-2.2c0,0,0,0,0,0c0,0,0,0,0,0c0.2-0.2,0.4-0.3,0.6-0.5
		c0,0,0-0.1,0-0.1c0,0,0.1-0.1,0.1-0.1c1.7-1.4,3-3.2,4-5.1c0-0.1,0-0.1,0-0.2c0.8-1.5,1.1-3.1,1-4.8c0-2-0.5-3.9-1.7-5.5
		c-0.7-1-1.5-1.8-2.6-2.3c0,0,0,0-0.1,0c0,0,0,0,0,0c-1.7-1.2-3.6-1.6-5.6-1.8c-1.4-0.2-2.7,0.1-4.1,0.2c-0.8,0.3-1.7,0.5-2.5,0.8
		c-1.7,0.7-3.1,1.7-4.2,3.2c-0.3,0.3-0.5,0.7-0.8,1.1c-0.8,1.5-1.3,3.1-1.5,4.7c0.2,0.2,0.5,0.2,0.7,0.3c1.2,0.2,2.3,0.4,3.5,0.6
		c1.5,0.3,2.4-0.2,2.9-1.7c0.9-2.4,2.3-3.4,4.9-3.3c2,0.1,3.4,1.4,3.7,3.4c0.2,1.3-0.1,2.6-0.5,3.8c-0.4,0.8-0.8,1.6-1.4,2.2
		c-0.1,0.1-0.2,0.3-0.3,0.4c-2,2.4-4.3,4.6-6.6,6.8c-0.8,0.8-1.5,1.7-2.4,2.4c-0.9,0.9-1.8,1.9-2.7,2.8c-2.6,2.6-2.2,2.2-2.2,5.3
		c0,0.9,0,0.9,0.9,0.9c7,0,14,0,21,0c0.5,0,1,0,1.5,0c0.3,0,0.5-0.1,0.5-0.4c0-1.4,0.1-2.7-0.1-4.1C87,60.6,86.5,60.2,85.1,60.2z
		 M74.5,54.4C74.5,54.4,74.5,54.4,74.5,54.4C74.5,54.4,74.5,54.4,74.5,54.4C74.5,54.4,74.5,54.4,74.5,54.4z"/>
</g>
</svg>
