<?xml version="1.0" encoding="utf-8"?>
<!-- Generator: Adobe Illustrator 26.0.1, SVG Export Plug-In . SVG Version: 6.00 Build 0)  -->
<svg version="1.1" id="Layer_1" xmlns="http://www.w3.org/2000/svg" xmlns:xlink="http://www.w3.org/1999/xlink" x="0px" y="0px"
	 viewBox="0 0 198 100" style="enable-background:new 0 0 198 100;" xml:space="preserve">
<g>
	<path d="M42.7,71.8c-1.2-0.1-2.4-0.1-3.7,0v0C38.9,72,39,72.2,39,72.3c0,1.6,0,3.2,0,4.7c0,0,0.1,0,0.1,0c0.8,0,1.7,0,2.5,0
		c0.1,0,0.3,0,0.4,0c0.3,0,0.5,0,0.8,0c0,0,0.1,0,0.1,0c0-1.6,0-3.2,0-4.8C42.8,72.2,42.9,72,42.7,71.8z"/>
	<path d="M23.4,55.4c0.8,0.1,1.6,0.3,2.3,0.4c0.3,0,0.4,0,0.5-0.3c0.2-0.7,0.5-1.5,0.8-2.2c0.2-0.4,0.1-0.5-0.3-0.5
		c-1.1-0.2-2.3-0.4-3.4-0.6c-1.2-0.2-2.4-0.5-3.5-0.7c-2.1-0.4-4.1-0.7-6.2-1.1c-0.2,0-0.4-0.1-0.5,0.1c0,0.1,0,0.2,0,0.3
		c0,0.4,0,0.8,0,1.1c0,0.3,0,0.5,0,0.8c0,0.1,0,0.1,0,0.2c0,0.2,0,0.3,0,0.5l0,0l0,0c0,0,0,0,0,0.1c0.1,0.1,0.2,0.2,0.3,0.2
		c1.6,0.2,3.1,0.6,4.7,0.8C19.8,54.8,21.6,55.1,23.4,55.4z"/>
	<path d="M36.9,71.8c-0.7,0-1.4,0-2.1,0c-0.1,0-0.1,0-0.2,0c-0.2,0-0.5-0.1-0.7-0.1c-0.4-0.1-0.6,0.1-0.7,0.4
		c-0.4,1.3-0.9,2.5-1.3,3.8c-0.2,0.5,0,0.6,0.4,0.7c0.5,0.2,1.1,0.2,1.6,0.5c0.1,0,0.3,0,0.4,0c0.4,0,0.8,0,1.2,0c0,0,0.1,0,0.1,0
		c0.1-0.2,0.1-0.4,0.2-0.6c0.5-1.4,0.9-2.8,1.4-4.2C37.4,71.9,37.3,71.8,36.9,71.8z M37,72.3C37,72.3,37,72.3,37,72.3
		C37,72.3,37,72.3,37,72.3C37,72.3,37,72.3,37,72.3z M37,72.3C37,72.3,37,72.3,37,72.3C37,72.3,37,72.3,37,72.3
		C37,72.3,37,72.3,37,72.3z"/>
	<path d="M48.4,71.8c-0.1-0.2-0.2-0.3-0.4-0.2c-0.2,0.1-0.4,0.1-0.6,0.2c0,0,0,0,0,0c-0.8,0.1-1.7,0.1-2.5,0.1
		c-0.5,0-0.5,0.1-0.3,0.5c0.6,1.6,1.1,3.2,1.7,4.8c0.1,0,0.1,0,0.2,0c0.3,0,0.6,0,0.8,0c0.2,0,0.3,0,0.5,0c0.2-0.2,0.4-0.2,0.6-0.3
		c0.4-0.1,0.9-0.3,1.3-0.4c0.2-0.1,0.3-0.2,0.2-0.4C49.3,74.6,48.8,73.2,48.4,71.8z M48.1,71.8C48.2,71.8,48.2,71.8,48.1,71.8
		C48.1,71.8,48.1,71.8,48.1,71.8C48.1,71.8,48.1,71.8,48.1,71.8z M48.2,71.9C48.2,71.9,48.2,71.9,48.2,71.9
		C48.2,71.9,48.2,71.9,48.2,71.9C48.2,71.9,48.2,71.9,48.2,71.9C48.2,71.9,48.2,71.9,48.2,71.9C48.2,71.9,48.2,71.9,48.2,71.9
		C48.2,71.9,48.2,71.9,48.2,71.9z M45.2,73.3C45.2,73.3,45.2,73.3,45.2,73.3C45.2,73.3,45.2,73.3,45.2,73.3
		C45.2,73.3,45.2,73.3,45.2,73.3z"/>
	<path d="M40.2,46.6c0.3,0,0.7,0,1,0c0.6,0,0.6,0,0.6-0.6c0-3.7,0-7.4,0-11.2c0,0,0,0,0,0c0-3.4,0-6.8,0-10.2c0-0.5,0.2-1.1-0.1-1.4
		c-0.3-0.3-1-0.1-1.5-0.1c-0.4,0-0.5,0.1-0.5,0.5c0,5.5,0,10.9,0,16.4c0,2.1,0,4.1,0,6.2C39.8,46.5,39.9,46.6,40.2,46.6z"/>
	<path d="M55.1,70.8c-0.3-0.4-0.6-0.9-1-1.2c0,0,0,0,0,0c0-0.1-0.1-0.2-0.2-0.3l0,0c-0.3-0.4-0.5-0.7-0.9-1c0,0-0.1,0-0.1,0
		c-0.7,0.8-1.4,1.5-2.2,2.2c-0.2,0.1-0.4,0.2-0.4,0.4l0,0c0.1,0.2,0.2,0.4,0.4,0.4c0,0,0,0,0,0c0.2,0.4,0.6,0.7,0.8,1.1l0,0
		c0.4,0.5,0.8,1,1.2,1.5c0.1,0.2,0.3,0.3,0.4,0.5c0.4,0.5,0.4,0.5,0.9,0.3c0.3-0.1,0.5-0.3,0.7-0.5l0,0c0.6-0.3,1.2-0.7,1.7-1.1
		c0.3-0.2,0.1-0.4,0-0.5C56,71.9,55.6,71.4,55.1,70.8z M50.8,71.2C50.8,71.2,50.8,71.2,50.8,71.2C50.8,71.2,50.8,71.2,50.8,71.2
		C50.8,71.2,50.8,71.2,50.8,71.2z"/>
	<polygon points="58.6,69.1 58.6,69.1 58.6,69.1 	"/>
	<path d="M62.1,67c-1.6-0.9-3.2-1.9-4.7-2.8c-0.1-0.1-0.2-0.1-0.3-0.1c0,0,0,0,0,0c-0.3-0.2-0.7-0.4-1-0.6c-0.5-0.3-0.5-0.3-0.7,0.2
		c-0.2,0.5-0.3,0.9-0.6,1.4c-0.1,0.4-0.3,0.7-0.5,1c-0.1,0.2-0.1,0.3,0.1,0.5c0.5,0.3,1,0.6,1.5,0.9c0.2,0.1,0.3,0.1,0.5,0.2
		c0.7,0.4,1.3,0.8,2,1.1c0,0,0,0,0,0c0,0.2,0.1,0.2,0.2,0.3c0.2,0.1,0.4,0.3,0.6,0.3c0.4,0.1,0.6,0.5,1.1,0.5l0,0
		c0.2-0.1,0.3-0.2,0.4-0.4c0.1-0.1,0.1-0.1,0.2-0.2c0.2-0.3,0.5-0.5,0.7-0.7l0,0c0.3-0.3,0.5-0.6,0.8-0.9c0-0.1,0.1-0.1,0.1-0.2
		C62.6,67.1,62.3,67.1,62.1,67z"/>
	<path d="M80.1,49.6c0.4,0,0.8,0,1.2,0c2.1,0,4.2,0,6.3,0c0.6,0,1.2,0,1.8-0.1c1.8-0.1,3.5-0.5,5-1.6c1.2-0.9,1.9-2.1,2.1-3.6
		c0.1-0.5,0.1-1,0-1.5c0-0.8-0.3-1.5-0.7-2.2c-0.2-0.4-0.4-0.7-0.7-0.9c-0.9-1-2.1-1.4-3.4-1.7c1.1-0.5,2.1-0.9,2.8-1.9
		c0.2-0.2,0.4-0.5,0.5-0.8c0.9-1.9,0.8-3.8-0.5-5.4c-1-1.2-2.4-1.7-3.9-2c-0.2-0.1-0.3-0.1-0.5,0c-0.1-0.1-0.3-0.2-0.4-0.1
		c-0.2-0.1-0.5-0.1-0.7-0.1c-0.2,0-0.4-0.1-0.6,0c-0.2-0.1-0.4-0.1-0.6-0.1c-2.5,0-5,0-7.6,0c-0.4,0-0.5,0.1-0.5,0.5
		c0,3.6,0,7.2,0,10.7c0,3.4,0,6.9,0,10.3C79.6,49.4,79.7,49.6,80.1,49.6z M91.4,40.7c0.1,0.4,0.4,0.8,0.7,1.1c0,0-0.1,0.1-0.1,0.1
		c0,0.2,0,0.3,0.1,0.5c0.1,0.6,0.2,1.2,0.1,1.9c-0.2,1.1-0.8,2-1.8,2.4c-0.4,0.2-0.8,0.3-1.3,0.4c-1.7,0.2-3.4,0.1-5.1,0.1
		c-0.2,0-0.3-0.1-0.4-0.2c-0.1-0.1-0.1-0.3-0.1-0.4c0-2.2,0-4.3,0-6.5c0-0.1,0-0.3,0.1-0.4c0-0.1,0.1-0.1,0.1-0.2
		c0.2-0.1,0.3-0.1,0.5-0.1c0.1,0,0.3,0,0.4,0c0.6,0,1.2,0,1.8,0c0,0,0.1,0,0.1,0c0.2,0,0.5,0,0.7,0c0.1,0,0.1,0,0.2,0c0,0,0,0,0.1,0
		c0.1,0.2,0.1,0.2,0.5,0.2c0.9,0,1.8,0.3,2.6,0.7C90.9,40.4,91.1,40.6,91.4,40.7C91.4,40.7,91.4,40.7,91.4,40.7z M87.6,39.3
		C87.6,39.3,87.7,39.3,87.6,39.3C87.7,39.3,87.7,39.3,87.6,39.3C87.6,39.3,87.6,39.3,87.6,39.3z M83.6,30.6c0-0.2,0-0.3,0.1-0.5
		c0.2-0.2,0.4-0.2,0.6-0.2c0.9,0,1.9,0,2.8,0c0.5,0,1,0.1,1.5,0.2c1.5,0.4,2.5,1.4,2.7,3c0.1,0.5-0.1,0.9,0,1.4c0,0,0,0.1,0,0.1
		c-0.2,0.1-0.2,0.2-0.1,0.4c0,0-0.1,0-0.1,0.1c-0.9,1.5-2.3,1.9-4,1.9c-1,0-2,0-3,0c-0.2,0-0.4,0-0.5-0.1c-0.1-0.1-0.1-0.3-0.1-0.5
		C83.5,34.5,83.6,32.6,83.6,30.6z"/>
	<path d="M186,27.8c0-0.3-0.3-0.2-0.4-0.2c-5.8,0-11.5,0-17.3,0c-0.1,0-0.3-0.1-0.4,0.1c-0.1,0.6,0,1.3-0.1,1.9
		c0,0.4,0.1,0.5,0.5,0.5c2.1,0,4.2,0,6.2,0c0.3,0,0.5,0,0.5,0.4c0,6.2,0,12.3,0,18.5c0,0.2-0.1,0.4,0,0.5c0,0,0,0,0,0l0,0
		c0,0,0,0,0,0c0.1,0.2,0.3,0.1,0.4,0.1c1,0,1.9,0,2.9,0c0.4,0,0.6-0.1,0.6-0.6c0-6.2,0-12.3,0-18.5c0-0.4,0.1-0.5,0.5-0.5
		c2.1,0,4.2,0,6.2,0c0.4,0,0.4-0.1,0.4-0.4C186,29,186,28.4,186,27.8z M167.9,29.6c0,0.1,0.1,0.2,0.1,0.2
		C168,29.8,167.9,29.7,167.9,29.6z"/>
	<path d="M118.3,49.6c1,0,2,0,3.1,0c0.4,0,0.5-0.1,0.5-0.5c0-3.5,0-7,0-10.5c0,0,0,0,0,0c0-3.5,0-7,0-10.6c0-0.4-0.1-0.5-0.5-0.5
		c-1,0-2,0-3,0c-0.3,0-0.5,0.1-0.4,0.4c0,7.1,0,14.1,0,21.2C118,49.5,118.1,49.6,118.3,49.6z"/>
	<path d="M142.1,48.8c0.6-0.2,1.1-0.4,1.6-0.7c0.5-0.1,0.7-0.4,0.6-0.9c0-0.3,0-0.7,0-1c0-2.7,0-5.5,0-8.2c-0.1-0.3-0.3-0.1-0.5-0.1
		c-3,0-5.9,0-8.9,0c-0.3,0-0.5,0-0.8,0c-0.2,0.1-0.1,0.2-0.1,0.3c0,0.5,0,1.1,0,1.6c0,0.3,0.1,0.4,0.4,0.4c1.8,0,3.7,0,5.5,0
		c0.3,0,0.4,0.1,0.4,0.4c0,1.9,0,3.8,0,5.8c0,0.3-0.1,0.4-0.4,0.5c-1.1,0.4-2.3,0.4-3.5,0.4c0,0,0,0,0,0c0,0,0,0,0,0c0,0,0,0,0,0
		c-0.1,0-0.2,0-0.3,0c-0.4,0-0.8-0.1-1.1-0.1c-0.9-0.2-1.7-0.5-2.5-0.9c-0.5-0.3-0.9-0.6-1.4-1c-0.4-0.5-0.8-0.9-1.3-1.4
		c-0.2-0.4-0.5-0.8-0.7-1.2c-0.2-0.6-0.4-1.2-0.7-1.8c-0.1-0.5-0.2-0.9-0.3-1.4c0,0,0,0,0,0c0,0,0,0,0,0c-0.2-2.1,0-4.1,0.8-6
		c0.2-0.3,0.4-0.6,0.5-1c0.4-0.4,0.8-0.8,1.1-1.2c0.4-0.2,0.7-0.5,1.1-0.7c1.8-0.9,3.7-1.1,5.7-0.8c1.5,0.2,3,0.6,4.4,1.2
		c0.4,0.2,0.9,0.4,1.3,0.7c0.2,0.2,0.3,0.1,0.3-0.1c0-0.9,0.1-1.7,0.1-2.6c0-0.2,0-0.3-0.2-0.4c-1.5-0.6-3.1-1-4.7-1.2
		c-0.9-0.2-1.8-0.1-2.7-0.1c-2.6,0.1-5,0.8-7.2,2.2c-0.4,0.3-0.7,0.5-1,0.9c-0.4,0.3-0.7,0.6-0.9,0.9c-0.3,0.3-0.5,0.6-0.7,1
		c-2,2.9-2.4,6.1-1.6,9.5c0,0.1,0,0.2,0.1,0.2c0.1,0.7,0.4,1.5,0.8,2.1c0.3,0.6,0.6,1.1,1,1.6c0.3,0.4,0.6,0.7,0.9,1
		c0.4,0.4,0.8,0.8,1.3,1.1c0.5,0.4,1.1,0.8,1.8,1c0.6,0.3,1.2,0.5,1.8,0.6c0.1,0,0.3,0.1,0.4,0.1c1.7,0.4,3.5,0.4,5.3,0.2
		C139.3,49.6,140.7,49.4,142.1,48.8z M137,47.5C137,47.5,137,47.5,137,47.5C137,47.4,137,47.4,137,47.5C137,47.4,137,47.5,137,47.5z
		"/>
	<path d="M161.9,40c0,3,0,6.1,0,9.1c0,0.4,0.1,0.5,0.5,0.5c1,0,2,0,3,0c0.1,0,0.3,0.1,0.4-0.1c0-0.2,0-0.3,0-0.5
		c0-6.8,0-13.6,0-20.4c0-0.3,0.1-0.6,0-0.9c-0.5-0.2-1.1-0.1-1.6-0.1c-0.7,0-1.4-0.1-2.1,0.1c0,0,0,0,0,0c0,0,0,0,0,0c0,0,0,0,0-0.1
		c-0.1,0.2-0.1,0.3-0.1,0.5c0,2.8,0,5.7,0,8.5c0,0.4-0.1,0.4-0.4,0.4c-3.3,0-6.5,0-9.8,0c-0.3,0-0.4-0.1-0.4-0.4c0-2.8,0-5.6,0-8.4
		c0-0.2,0.1-0.4-0.1-0.6c-0.1-0.1-0.2-0.1-0.3-0.1c-1.1,0-2.1,0-3.2,0c-0.1,0-0.3-0.1-0.3,0.1c-0.1,0.1,0,0.2,0,0.3c0,7,0,14,0,21
		c0,0.2,0,0.3,0,0.5c0.1,0.2,0.3,0.1,0.4,0.1c1,0,2,0,3,0c0.4,0,0.5-0.1,0.5-0.5c0-3,0-6.1,0-9.1c0-0.4,0.1-0.5,0.5-0.5
		c3.2,0,6.5,0,9.7,0C161.8,39.5,161.9,39.6,161.9,40z M151,36.9C151,36.9,151,36.9,151,36.9C151,36.9,151,36.9,151,36.9
		C151,36.9,151,36.9,151,36.9z"/>
	<path d="M98.8,47.6c0,0.6,0,1.2,0,1.8c0.1,0.2,0.2,0.1,0.4,0.1c1,0,2,0,3,0c0.4,0,0.5-0.1,0.5-0.5c0-2.7,0-5.3,0-8
		c0-0.4,0.1-0.4,0.4-0.4c0.7,0,1.3,0,2,0c0.6,0,1,0,1.3,0.6c0,0,0,0.1,0.1,0.1c1.8,2.7,3.6,5.3,5.5,8c0.1,0.2,0.3,0.2,0.5,0.2
		c1.3,0,2.5,0,3.8,0c0.1,0,0.2,0.1,0.2-0.1c-2.2-3.1-4.4-6.3-6.6-9.4c0.4-0.1,0.7-0.2,1-0.3c4.9-1.9,4.7-7.5,2.4-9.7
		c-1.6-1.6-3.6-2.1-5.7-2.3c-0.2,0-0.4,0-0.5,0c-0.3-0.1-0.7-0.1-1-0.1c-2.2,0-4.5,0-6.7,0c-0.2,0-0.3,0-0.4,0.1c0,0,0,0,0,0
		c0,0,0,0,0,0c-0.1,0.1-0.2,0.2-0.2,0.5C98.8,34.6,98.8,41.1,98.8,47.6z M103,29.9c1,0,2.1,0,3.1,0c0.7,0.1,1.4,0.2,2,0.5
		c1.7,0.7,2.5,2,2.6,3.7c0.1,1.6-0.5,2.9-1.9,3.7c-0.7,0.4-1.5,0.6-2.2,0.6c-1.2,0-2.4,0-3.6,0c-0.2,0-0.3-0.1-0.3-0.3
		c0-2.6,0-5.3,0-7.9C102.7,29.9,102.8,29.9,103,29.9z M101.5,27.7c0.1,0,0.1,0,0.2,0c-0.7,0-1.4,0-2.1,0c0,0-0.1,0-0.1,0
		C100.2,27.7,100.9,27.7,101.5,27.7z M99.2,27.7c0.1,0,0.1,0,0.2,0C99.3,27.7,99.3,27.7,99.2,27.7C99.2,27.8,99.2,27.8,99.2,27.7
		C99.2,27.8,99.1,27.7,99.2,27.7z"/>
	<path d="M68,50.4c-1.3,0.2-2.7,0.5-4,0.7c-1.1,0.2-2.1,0.3-3.2,0.6c0,0,0,0,0,0c0,0,0,0,0,0l0,0c0,0,0,0,0,0c0,0-0.1,0-0.1,0
		c-2,0.4-3.9,0.7-5.9,1.1c-0.2,0-0.3,0.1-0.2,0.4c0.3,0.7,0.6,1.5,0.8,2.2c0.1,0.3,0.2,0.3,0.4,0.2c2.4-0.5,4.8-0.9,7.3-1.4
		c1.6-0.3,3.3-0.6,4.9-0.9c0.2,0,0.4-0.1,0.4-0.4c0-0.7,0.1-1.4,0.1-2.1C68.6,50.3,68.6,50.3,68,50.4z"/>
	<path d="M36.7,53.3c-0.6,0.1-1.2,0.2-1.7,0.4c-0.4,0.1-0.5,0.3-0.5,0.8c0,3,0,6,0,9c0,1.2,0.1,1.3,1.2,1.5c0.3,0.1,0.5,0.1,0.8,0.1
		c0.4,0.1,0.6,0,0.6-0.5c0-1.8,0-3.6,0-5.4c0,0,0,0,0,0c0-1.8,0-3.7,0-5.5C37,53.6,37,53.3,36.7,53.3z"/>
	<path d="M25.8,60.8c-0.1-0.5-0.1-0.9-0.1-1.3c0-0.4,0-0.8,0-1.1c0-0.2,0-0.4-0.3-0.3c-0.4,0.1-0.8,0.1-1.2,0.2
		c-3,0.5-5.9,1-8.9,1.5c-0.3,0.1-0.3,0.2-0.2,0.4c0.3,0.7,0.6,1.5,0.9,2.2c0.1,0.3,0.3,0.3,0.5,0.3c3-0.5,5.9-1,8.9-1.5
		C25.7,61.2,25.8,61.1,25.8,60.8z"/>
	<path d="M46.8,54.9c-0.5-0.2-1.1-0.2-1.6-0.3c-0.4-0.1-0.5,0-0.5,0.4c0,1.4,0,2.8,0,4.3c0,1.4,0,2.7,0,4.1c0,0.7,0,0.7,0.7,0.6
		c0.5,0,1-0.2,1.5-0.3c0.3-0.1,0.4-0.3,0.4-0.6c0-2.5,0-5,0-7.4C47.3,55.2,47.2,55,46.8,54.9z"/>
	<path d="M34.6,36.3c-1.3-3.6-2.7-7.3-4-10.9c-0.1-0.3-0.3-0.4-0.5-0.2c-0.4,0.2-0.9,0.4-1.3,0.6c-0.3,0.2-0.3,0.4-0.2,0.7
		c0.7,1.9,1.4,3.8,2.1,5.7c0.4,1.1,0.8,2.1,1.1,3.2c0.1,0.1,0.2,0.3,0.2,0.5c0.3,0.9,0.6,1.7,0.9,2.6c0.4,1.2,0.9,2.4,1.3,3.6
		c0.5,1.4,1.1,2.8,1.6,4.1c0.1,0.3,0.3,0.5,0.7,0.5c0.6,0,1.2,0,1.9,0c0.1-0.2,0-0.4-0.1-0.6C37,42.7,35.8,39.5,34.6,36.3z"/>
	<path d="M66.3,59.6c-0.5-0.1-1.1-0.2-1.6-0.2c-1-0.2-2.1-0.3-3.1-0.5c-1.7-0.3-3.5-0.6-5.2-0.9c-0.4-0.1-0.4,0-0.4,0.4
		c0.1,0.7,0.1,1.5,0,2.2c-0.1,0.5,0.1,0.6,0.5,0.6c0.1,0.1,0.3,0.1,0.5,0.1c0,0,0,0,0,0c1,0.2,1.9,0.4,2.9,0.5c0,0,0,0,0,0
		c0.2,0.1,0.4,0.1,0.5,0.1c0.2,0.1,0.4,0.1,0.6,0.1c1.4,0.3,2.9,0.5,4.3,0.7c0.2,0,0.3-0.1,0.4-0.2c0.2-0.5,0.5-1,0.7-1.5
		c0.2-0.2,0.2-0.5,0.3-0.7C66.8,59.7,66.6,59.6,66.3,59.6z M66.3,60.6C66.3,60.6,66.3,60.6,66.3,60.6C66.3,60.6,66.3,60.6,66.3,60.6
		C66.3,60.6,66.3,60.6,66.3,60.6z"/>
	<path d="M45.9,46.3c0-0.1,0.1-0.3,0.1-0.4c0.5-1.4,1-2.8,1.5-4.2c0.3-0.6,0.4-1.2,0.7-1.7c0.6-1.6,1.2-3.1,1.7-4.7c0,0,0,0,0,0
		c0.4-1.2,0.9-2.3,1.3-3.5c0.4-1,0.7-1.9,1-2.9c0.2-0.6,0.5-1.2,0.7-1.8c0.1-0.4,0.4-0.8,0.4-1.2c-0.4-0.1-0.7-0.4-1-0.5
		c-0.2-0.1-0.5-0.2-0.7-0.3C51.4,25,51.3,25,51.2,25c0,0.1,0,0.1,0,0.2l0,0c-0.2,0.6-0.5,1.2-0.7,1.9c-1.8,5-3.7,10-5.5,15
		c-0.3,0.9-0.7,1.8-1,2.8c-0.2,0.6-0.5,1.1-0.5,1.7c0.7,0,1.3,0,2,0C45.6,46.6,45.8,46.5,45.9,46.3z M52.3,28.2
		C52.3,28.2,52.3,28.2,52.3,28.2C52.3,28.2,52.3,28.2,52.3,28.2C52.3,28.2,52.3,28.2,52.3,28.2z M43.9,45.3
		C43.9,45.3,43.9,45.3,43.9,45.3C43.9,45.3,43.9,45.3,43.9,45.3C43.9,45.3,43.9,45.3,43.9,45.3z"/>
	<path d="M150.5,74c0-0.4-0.1-0.5-0.5-0.5c-3.4,0-6.8,0-10.2,0c-0.2,0-0.4,0.1-0.5-0.1c0-2.5,0-5,0-7.5c0-0.2,0.1-0.3,0.3-0.3
		c0.3,0,0.7,0,1,0c2.3,0,4.6,0,6.9,0c0.6,0,1.2,0,1.8,0c0,0,0.1,0,0.1,0c0.2-0.6,0-1.2,0.1-1.7c0-0.4-0.1-0.5-0.5-0.5
		c-3.1,0-6.1,0-9.2,0c-0.2,0-0.4,0.1-0.5-0.2c0-2.3,0-4.5,0-6.8c0-0.3,0.2-0.3,0.4-0.3c0.5,0,1,0,1.5,0c1.4,0,2.7,0,4.1,0
		c1.6,0,3.1,0,4.7,0c0.2,0,0.4,0.1,0.4-0.2c0-0.7,0.1-1.4-0.1-2.1c-0.1-0.1-0.3-0.1-0.5-0.1c-4.5,0-9,0-13.5,0c-0.9,0-0.9,0-0.8,0.9
		c0,0,0,0.1,0,0.1c0,6.9,0,13.8,0,20.7c0,0.3,0.2,0.3,0.4,0.3c1.5,0,3,0,4.5,0c3.2,0,6.5,0,9.7,0c0.3,0,0.5,0,0.4-0.4
		C150.4,75,150.4,74.4,150.5,74z M149.2,63.6c0,0.1,0,0.1,0,0.2C149.2,63.7,149.2,63.7,149.2,63.6C149.2,63.6,149.2,63.6,149.2,63.6
		z"/>
	<path d="M94.4,66.6c-0.6-1.2-1.5-1.9-2.7-2.4c-1.8-0.8-3.6-1.2-5.5-1.7c0,0,0,0,0,0c-0.7-0.3-1.4-0.5-2-0.9c-0.4-0.4-0.8-0.8-1-1.2
		C83,59.7,83,59.1,83,58.5c0.1-0.5,0.3-0.9,0.6-1.3c0.3-0.3,0.6-0.6,1-0.9c0.7-0.3,1.3-0.5,2.1-0.5c2.4-0.2,4.6,0.5,6.6,1.8
		c0.1,0.1,0.2,0.2,0.5,0.2c0-0.9,0-1.9,0-2.8c0-0.2-0.1-0.3-0.2-0.3c-1.6-0.7-3.2-1.1-4.9-1.1c-0.6-0.1-1.2-0.1-1.8,0
		c-1.8,0.1-3.4,0.5-4.9,1.5c-0.5,0.3-1,0.7-1.3,1.2c-0.3,0.3-0.6,0.7-0.7,1.2c-0.4,0.6-0.5,1.3-0.6,2.1c-0.1,0.4-0.1,0.7,0,1.1
		c0,0.3,0,0.7,0.2,1c0,0,0,0,0,0c0.1,0.7,0.4,1.2,0.8,1.7c0.1,0.1,0.1,0.2,0.2,0.3c0.1,0.1,0.2,0.3,0.3,0.4c1.2,1.1,2.6,1.8,4.2,2.1
		c0.4,0.2,0.8,0.2,1.2,0.3c0.2,0.1,0.4,0.1,0.6,0.2c1.3,0.3,2.5,0.7,3.6,1.5c0,0,0,0,0,0c0.2,0.3,0.4,0.5,0.7,0.8
		c0.5,1.2,0.4,2.4-0.4,3.5c-0.6,0.7-1.4,1.1-2.4,1.3c-1.3,0.3-2.7,0.2-4-0.2c-1.1-0.3-2.2-0.8-3.2-1.3c-0.4-0.2-0.8-0.6-1.2-0.8
		c-0.1,0-0.1-0.2-0.2-0.2c-0.1,0.1-0.1,0.2-0.1,0.3c0,0.9,0,1.7,0,2.6c0,0.1-0.1,0.3,0.1,0.4c0.4,0.3,0.8,0.5,1.3,0.6
		c0.6,0.3,1.3,0.5,2,0.6c0.1,0,0.2,0.1,0.3,0.1c1.5,0.3,2.9,0.4,4.4,0.3c1.2-0.1,2.4-0.3,3.5-0.8c0.4-0.1,0.7-0.3,1-0.6
		c0.1-0.1,0.3-0.1,0.4-0.2c0.4-0.2,0.8-0.4,0.9-0.8c0-0.1,0.1-0.1,0.1-0.2c0.3-0.2,0.4-0.5,0.6-0.8C95.3,70.7,95.4,68.7,94.4,66.6z
		 M82.9,58.6C82.9,58.6,82.9,58.6,82.9,58.6C82.9,58.6,82.9,58.6,82.9,58.6C82.9,58.6,82.9,58.6,82.9,58.6z M86,62.7
		C86,62.6,86.1,62.6,86,62.7C86.1,62.6,86.1,62.6,86,62.7C86.1,62.6,86,62.7,86,62.7z"/>
	<path d="M114.9,72.7c0-0.1-0.1-0.2-0.1-0.3c-0.8-1.9-1.5-3.9-2.3-5.8c0-0.2-0.1-0.3-0.2-0.5c-0.2-0.5-0.4-1-0.6-1.5
		c-0.6-1.6-1.3-3.2-1.9-4.8c-0.1-0.4-0.3-0.8-0.5-1.2c-0.6-1.5-1.2-3.1-1.8-4.6c-0.1-0.2-0.2-0.2-0.4-0.2c-1.2,0-2.3,0-3.5,0
		c-0.2,0-0.3,0.1-0.4,0.2c-0.6,1.6-1.2,3.2-1.8,4.8c-0.2,0.4-0.4,0.8-0.5,1.2c-0.2,0.3-0.3,0.6-0.4,0.9c-0.2,0.5-0.4,1-0.6,1.5
		c-0.8,1.8-1.5,3.7-2.1,5.5c-0.2,0.4-0.4,0.8-0.5,1.3c-0.2,0.6-0.4,1.1-0.7,1.7c-0.2,0.4-0.4,0.8-0.5,1.2c-0.3,0.7-0.5,1.3-0.8,2
		c-0.1,0-0.1,0.1-0.1,0.2c0,0,0,0.1,0,0.1c-0.1,0.3-0.2,0.5-0.4,0.8c0,0.1-0.1,0.2-0.1,0.3c0.1,0.1-0.2,0.3,0.1,0.3
		c0.9,0,1.7,0.1,2.6,0c0.4-1,0.7-1.9,1.1-2.9c0.1-0.3,0.2-0.6,0.3-0.9c0.2-0.5,0.4-1,0.6-1.5c0.1-0.3,0.2-0.4,0.5-0.4
		c3,0,6.1,0,9.1,0c0.3,0,0.4,0.1,0.5,0.3c0.4,1.1,0.9,2.2,1.3,3.4c0.2,0.7,0.4,1.3,0.7,2c0.1,0.1,0.2,0.1,0.2,0.1c1.2,0,2.5,0,3.7,0
		c0.4,0,0.3-0.2,0.2-0.4C115.7,74.5,115.3,73.6,114.9,72.7z M95.3,75.6C95.3,75.6,95.3,75.6,95.3,75.6
		C95.3,75.6,95.3,75.6,95.3,75.6C95.3,75.6,95.3,75.6,95.3,75.6z M102.8,62C102.8,62,102.8,62,102.8,62C102.8,62,102.8,62,102.8,62
		C102.8,62,102.8,62,102.8,62z M107.3,68C107.3,68,107.3,68,107.3,68C107.3,68,107.3,68,107.3,68C107.3,68,107.3,68,107.3,68z
		 M108.2,67.6c-2.3,0-4.5,0-6.8,0c-0.1,0-0.3,0-0.4,0c0,0,0,0,0,0c0.4-0.9,0.7-1.9,1.1-2.8c0.2-0.5,0.5-1,0.5-1.6c0,0,0-0.1,0-0.1
		c0.3-0.3,0.5-0.6,0.4-1.1c0,0,0,0,0,0c0,0,0,0,0.1,0c0.3-0.4,0.5-0.9,0.6-1.4c0,0,0-0.1,0-0.1c0.3-0.4,0.5-0.8,0.4-1.3c0,0,0,0,0,0
		c0.4-0.6,0.7-1.3,0.8-2.1c0,0,0,0,0,0c0.1-0.1,0-0.2,0.2-0.3c0.1,0.3,0.2,0.5,0.3,0.8c0,0-0.1,0.1-0.1,0.1c0.2,0.6,0.3,1.3,0.8,1.9
		c0,0,0,0,0,0c0,0.4,0.1,0.8,0.4,1.1c0,0,0,0.1,0,0.1c0,0.1,0,0.2,0,0.2c0.8,2.1,1.5,4.2,2.3,6.3c0.1,0.1,0.1,0.3,0.2,0.4
		C108.6,67.6,108.4,67.6,108.2,67.6z"/>
	<path d="M167.5,70.7c-1-1.5-2.1-3-3.1-4.5c2.1-0.6,3.8-1.7,4.6-3.8c0.7-2,0.6-4-0.7-5.8c-0.2-0.4-0.5-0.7-0.9-0.9
		c-0.8-0.8-1.8-1.1-2.8-1.4c-0.5-0.1-1-0.2-1.6-0.3c-0.2-0.1-0.4-0.1-0.6-0.1c-0.5-0.1-1-0.1-1.5-0.1c-2.4,0-4.7,0-7.1,0
		c-0.4,0-0.5,0.1-0.5,0.5c0,2.6,0,5.3,0,7.9c0,4.4,0,8.8,0,13.2c0,0.4,0.1,0.5,0.5,0.5c1,0,2,0,3,0c0.2,0,0.4,0,0.4-0.3
		c0-2.9,0-5.8,0-8.7c0,0,0,0,0,0l0,0l0,0l0,0c0.7,0,1.5,0,2.2-0.1c0,0,0.1,0,0.1,0c0.2,0,0.4,0,0.6,0c0.3,0,0.4,0.2,0.6,0.4
		c1.1,1.6,2.2,3.2,3.4,4.8c0.8,1.3,1.7,2.5,2.6,3.8c0,0,0.1,0.1,0.1,0.1c1.4,0,2.8,0,4.3,0c0.2,0,0.1-0.2,0-0.2
		C169.8,73.9,168.7,72.3,167.5,70.7z M161,64.4c-1.1,0.1-2.2,0-3.3,0c-0.2,0-0.3,0-0.4-0.1c-0.1-0.1-0.1-0.3-0.1-0.5
		c0-2.4,0-4.7,0-7.1c0-0.2,0-0.3,0.1-0.4c0.1-0.1,0.2-0.1,0.3-0.1c1.2,0,2.4-0.2,3.6,0c0.9,0.1,1.6,0.5,2.4,0.8c0,0,0.1,0,0.1,0
		c0.2,0.4,0.5,0.7,0.9,0.9c0,0,0,0.1,0,0.1c0,0.2,0.1,0.3,0.2,0.4c0.6,1.6,0.6,3.1-0.4,4.4C163.5,64,162.3,64.4,161,64.4z"/>
	<path d="M130.9,53.8c-0.2,0-0.3,0.1-0.3,0.3c0,0,0,0,0,0c-0.2,0.6-0.4,1.2-0.6,1.7c-0.1,0.2-0.2,0.5-0.3,0.7
		c-0.3,0.7-0.6,1.4-0.8,2.1c-0.1,0.3-0.2,0.6-0.4,1c-0.3,0.7-0.6,1.4-0.8,2.1c-0.1,0.2-0.2,0.5-0.3,0.8c-0.2,0.5-0.4,1-0.6,1.6
		c-0.4,0.9-0.7,1.9-1,2.8c-0.3,0.6-0.5,1.2-0.7,1.9c-0.1,0.1-0.1,0.3-0.2,0.5l0,0c-0.4,1-0.7,2-1.1,3c-0.1,0.1-0.1,0.4-0.2,0.4
		c-0.2,0-0.1-0.2-0.1-0.3c-0.1-0.2,0-0.4-0.3-0.6c0-0.2-0.1-0.3-0.1-0.5c-0.1-0.4-0.3-0.8-0.4-1.3c-0.1-0.5-0.3-0.9-0.5-1.4
		c-0.1-0.4-0.2-0.7-0.4-1.1c-0.7-1.9-1.4-3.8-2.1-5.8c-0.1-0.5-0.3-0.9-0.5-1.4c-0.1-0.4-0.3-0.8-0.4-1.1c0,0,0-0.1,0-0.1
		c-0.4-1.4-0.9-2.7-1.4-4c-0.1-0.2-0.2-0.5-0.3-0.7c0,0,0,0,0,0c0,0,0,0,0,0c0,0,0,0,0.1-0.1c0-0.2-0.1-0.4-0.2-0.5c0,0,0,0,0,0l0,0
		c0,0,0,0,0,0c0-0.1-0.1-0.1-0.1-0.1c-1.4,0-2.7,0-4.2,0c0.2,0.6,0.4,1.1,0.7,1.7c0.1,0.2,0.1,0.5,0.3,0.7c0.5,1.4,1,2.7,1.5,4.1
		c0.2,0.5,0.4,1,0.5,1.4c0.1,0.5,0.3,0.9,0.5,1.3c0.1,0.3,0.2,0.5,0.3,0.8c0.8,2.2,1.6,4.3,2.4,6.5c0.1,0.5,0.3,0.9,0.5,1.3
		c0.1,0.4,0.3,0.8,0.4,1.2c0,0.4,0.2,0.7,0.4,1.1c0.2,0.6,0.5,1.3,0.7,1.9c0.1,0.2,0.1,0.2,0.3,0.2c1.2,0,2.4,0,3.7,0
		c0.2,0,0.3,0,0.3-0.2c0.4-1.2,0.9-2.5,1.4-3.7c0.3-0.7,0.5-1.4,0.8-2.1c0.1-0.1,0.2-0.3,0.2-0.5c0.2-0.4,0.4-0.9,0.5-1.3
		c0.4-1.1,0.8-2.1,1.2-3.2c0.1-0.5,0.4-0.9,0.5-1.4c0.2-0.5,0.4-1,0.5-1.4c0.2-0.4,0.4-0.8,0.5-1.3c0.2-0.5,0.4-1,0.5-1.4
		c0.2-0.4,0.3-0.9,0.5-1.3c0.2-0.6,0.4-1.1,0.6-1.7c0.2-0.4,0.4-0.9,0.5-1.4c0.2-0.3,0.3-0.6,0.4-1c0.1-0.2,0.1-0.3-0.1-0.3
		C132.5,53.8,131.7,53.8,130.9,53.8z M120.1,70.5C120.1,70.5,120.1,70.4,120.1,70.5C120.1,70.4,120.1,70.5,120.1,70.5
		C120.1,70.5,120.1,70.5,120.1,70.5z"/>
	<path d="M14.5,43.2c1.6,0.9,3.3,1.9,4.9,2.8c1.3,0.7,2.5,1.5,3.8,2.2c0.1,0.1,0.3,0.1,0.4,0.2c1.4,0.8,2.8,1.6,4.3,2.5
		c0.3,0.2,0.5,0.2,0.7-0.2c0.4-0.6,0.8-1.3,1.4-1.8c-0.1-0.1-0.2-0.2-0.3-0.3c-2.1-1.2-4.3-2.5-6.4-3.7c-1.2-0.7-2.4-1.4-3.6-2.1
		c-0.2-0.1-0.4-0.2-0.5-0.3c-1.2-0.7-2.3-1.3-3.5-2c-0.3-0.2-0.4-0.1-0.5,0.2c-0.2,0.6-0.5,1.2-0.7,1.8
		C14.1,42.9,14.2,43.1,14.5,43.2z"/>
	<path d="M61.3,43.4c-1,0.5-1.9,1.1-2.9,1.6c-1.2,0.7-2.5,1.4-3.7,2.1c-0.1,0.1-0.2,0.2-0.4,0.3c-0.7,0.4-1.4,0.9-2.2,1.3
		c-0.3,0.2-0.3,0.3-0.1,0.6c0.3,0.3,0.5,0.6,0.7,0.9c0.2,0.3,0.4,0.7,0.7,0.8c0.3,0.2,0.6-0.3,0.9-0.4c0.5-0.3,1.1-0.7,1.6-1
		c1.3-0.8,2.6-1.5,3.9-2.3v0c2.4-1.4,4.9-2.8,7.3-4.2c0.2-0.1,0.2-0.3,0.1-0.5c-0.2-0.5-0.4-1-0.5-1.5c0-0.1-0.1-0.2-0.1-0.2
		c-0.1-0.5-0.3-0.4-0.7-0.2c-0.4,0.3-0.9,0.5-1.3,0.7C63.6,42.1,62.5,42.8,61.3,43.4C61.3,43.4,61.3,43.4,61.3,43.4z M61.5,43.5
		C61.5,43.5,61.5,43.5,61.5,43.5C61.5,43.5,61.5,43.5,61.5,43.5C61.5,43.5,61.5,43.5,61.5,43.5z"/>
	<path d="M26.6,67c0.2-0.1,0.5-0.3,0.7-0.4c0.2-0.1,0.2-0.3,0.1-0.5c-0.4-0.7-0.7-1.4-1-2.2c-0.3-0.7-0.3-0.7-0.9-0.3
		c-0.2,0.1-0.4,0.2-0.5,0.3c-1.3,0.8-2.6,1.5-4,2.3c-0.5,0.3-1,0.6-1.5,0.9c-0.2,0.1-0.3,0.2-0.1,0.5c0.6,0.7,1.2,1.4,1.8,2.1
		c0.2,0.2,0.3,0.2,0.5,0.1c0.3-0.2,0.7-0.5,1.1-0.6c0.1-0.2,0.3-0.2,0.5-0.3C24.4,68.3,25.5,67.7,26.6,67L26.6,67z"/>
	<path d="M31.2,70.7C31.2,70.7,31.2,70.7,31.2,70.7C31.2,70.7,31.2,70.7,31.2,70.7c-0.7-0.5-1.3-1-1.8-1.6c-0.2-0.2-0.4-0.6-0.6-0.6
		c-0.3-0.1-0.4,0.4-0.6,0.6c-0.2,0.3-0.4,0.6-0.6,0.8c-0.7,0.8-1.4,1.7-2.1,2.5v0c-0.6,0.5-0.6,0.5,0.1,1c0.7,0.5,1.4,0.9,2.1,1.3
		c0.4,0.2,0.6,0.2,0.8-0.2c0.7-0.9,1.4-1.8,2.1-2.7c0.2-0.2,0.4-0.4,0.5-0.7c0,0,0,0,0.1,0c0.1,0,0.1-0.1,0.2-0.1
		C31.4,70.8,31.4,70.7,31.2,70.7z M28.7,73.8c0,0.1-0.1,0.1-0.1,0.1C28.6,73.9,28.6,73.8,28.7,73.8z"/>
	<path d="M53,40.3C53,40.3,53,40.3,53,40.3c-0.5,0.5-0.9,1-1.3,1.5c0,0-0.1,0-0.1,0c-0.3,0.5-0.7,0.9-1.1,1.3
		c-0.4,0.6-1,1.1-1.3,1.7l0,0c-0.2,0.3-0.5,0.5-0.7,0.8c-0.1,0.1-0.2,0.3-0.3,0.4c-0.2,0.2-0.2,0.3,0.1,0.4c0.4,0.1,0.7,0.3,1,0.4
		c0.4,0.1,0.7,0.4,1.1,0.5c0-0.1,0.1-0.1,0.1-0.2c0.8-1,1.7-2,2.5-3v0c0.5-0.5,1-1.1,1.5-1.6c1-1.3,2.1-2.6,3.2-3.8
		c0.2-0.2,0.3-0.4,0.5-0.7c0.8-1,1.6-1.9,2.4-2.9c0,0,0,0,0,0c0.5-0.5,1-1.2,1.5-1.7c0.1-0.2,0.2-0.3,0-0.5c-0.4-0.5-0.8-1-1.3-1.3
		c0-0.1-0.1-0.1-0.1-0.2c-0.1,0-0.2,0.1-0.3,0.2h0c-0.3,0.4-0.6,0.7-0.9,1.1c-1.2,1.4-2.4,2.9-3.7,4.3c-0.1,0.1-0.2,0.3-0.3,0.4
		c-0.5,0.6-1,1.2-1.6,1.9c0,0,0,0,0,0C53.7,39.5,53.3,39.9,53,40.3z M53.9,39.6C53.9,39.6,53.9,39.6,53.9,39.6
		C53.9,39.6,53.9,39.6,53.9,39.6C53.9,39.6,53.9,39.6,53.9,39.6z M52.1,41.7C52.1,41.7,52.1,41.7,52.1,41.7
		C52.1,41.7,52.1,41.7,52.1,41.7C52.1,41.7,52.1,41.7,52.1,41.7z"/>
	<path d="M33.6,46.1c-0.9-1.1-1.8-2.2-2.8-3.3c-0.1,0-0.1,0.1-0.1,0.1c0,0,0,0,0,0h0c0,0,0.1-0.1,0.1-0.1c-0.1-0.2-0.3-0.4-0.4-0.5
		c-0.1-0.2-0.3-0.3-0.4-0.5c-0.9-1-1.7-2-2.5-2.9c0,0,0,0,0,0c-0.2-0.3-0.5-0.6-0.7-0.9c-1-1-1.8-2.1-2.7-3.1
		c-0.6-0.6-1.1-1.3-1.6-1.9c-0.4-0.4-0.8-0.8-1.2-1.3c-0.3-0.3-0.5-0.3-0.7,0c-0.4,0.4-0.8,0.8-1.2,1.3c0,0.2,0.1,0.3,0.2,0.4
		c1,1.2,2,2.4,3,3.5c0,0,0,0,0,0c0.2,0.2,0.3,0.5,0.5,0.7c0.9,1,1.8,2,2.6,3.1c0.2,0.2,0.4,0.3,0.5,0.5c0.6,0.7,1.3,1.5,1.9,2.2
		c0.8,0.9,1.5,1.8,2.2,2.7c0.3,0.3,0.5,0.6,0.8,0.9c0.1,0.3,0.3,0.4,0.6,0.2c0.6-0.4,1.3-0.6,2-0.8C33.7,46.3,33.7,46.2,33.6,46.1z
		 M22.5,36.7C22.5,36.7,22.5,36.7,22.5,36.7C22.5,36.7,22.5,36.7,22.5,36.7C22.5,36.7,22.5,36.7,22.5,36.7z M27.4,39.1
		C27.4,39.1,27.4,39.1,27.4,39.1C27.4,39.1,27.4,39.1,27.4,39.1C27.4,39.1,27.4,39.1,27.4,39.1z M31.2,47C31.2,47,31.2,47,31.2,47
		C31.2,47,31.2,47,31.2,47C31.2,47,31.2,47,31.2,47z"/>
</g>
</svg>
