<svg width="198" height="100" viewBox="0 0 198 100" fill="none" xmlns="http://www.w3.org/2000/svg">
<path d="M34.1413 50.1297L25.1953 47.4037V35.8734C25.1953 33.8043 26.3144 31.8949 28.132 30.8757C31.9837 28.7145 36.7503 31.4774 36.7503 35.8734V41.1105H34.1351C31.792 41.1105 30.3329 43.6278 31.5138 45.6416L34.1413 50.1297Z" fill="#17171B"/>
<path d="M14 40.6912C14 38.2599 15.9846 36.2891 18.4328 36.2891C20.881 36.2891 22.8656 38.2599 22.8656 40.6912V45.0934H18.4328C15.9846 45.0934 14 43.1225 14 40.6912Z" fill="#17171B"/>
<path d="M34.1409 50.1323L31.5256 58.8814H19.9212C17.8378 58.8814 15.915 57.7701 14.8887 55.965C12.7125 52.14 15.4946 47.4062 19.9212 47.4062H25.1949L25.1948 50.034C25.1948 52.3549 27.7172 53.8038 29.7451 52.6496L34.1408 50.1384L34.1409 50.1323Z" fill="#323232"/>
<path d="M24.7688 69.9996C22.3205 69.9996 20.3359 68.0288 20.3359 65.5974C20.3359 63.1661 22.3205 61.1953 24.7688 61.1953H29.2016V65.5974C29.2016 68.0288 27.217 69.9996 24.7688 69.9996Z" fill="#323232"/>
<path d="M34.1403 50.1328L43.0863 52.5948V64.1252C43.0863 66.1943 41.9672 68.1037 40.1495 69.1229C36.2979 71.2841 31.5312 68.5212 31.5312 64.1252V58.888H34.066C36.4215 58.888 37.8806 56.3339 36.6688 54.3262L34.1403 50.1389V50.1328Z" fill="#17171B"/>
<path d="M54.2875 59.3083C54.2875 61.7396 52.303 63.7105 49.8547 63.7105C47.4065 63.7105 45.4219 61.7396 45.4219 59.3083V54.9062H49.8547C52.303 54.9062 54.2875 56.877 54.2875 59.3083Z" fill="#17171B"/>
<path d="M34.1406 50.1303L36.7564 41.1172H48.367C50.4505 41.1172 52.3732 42.2285 53.3995 44.0336C55.5757 47.8586 52.7936 52.5923 48.367 52.5923H43.0934V50.0996C43.0934 47.7542 40.5091 46.3053 38.4875 47.5209L34.1474 50.1303H34.1406Z" fill="#323232"/>
<path d="M43.5187 30C45.9669 30 47.9515 31.9708 47.9515 34.4022C47.9515 36.8335 45.9669 38.8043 43.5187 38.8043H39.0859V34.4022C39.0859 31.9708 41.0704 30 43.5187 30Z" fill="#323232"/>
<path d="M63.781 62.5562L57.4375 39.0703H61.8305L65.9447 56.7945H66.0267L70.7638 39.0703H74.5994L79.3366 56.7945H79.4186L83.5328 39.0703H87.9258L81.5822 62.5562H77.5008L72.7308 45.7108H72.6325L67.8625 62.5562H63.781Z" fill="#17171B"/>
<path d="M92.4659 42.8339C91.1874 42.8339 90.1875 41.8248 90.1875 40.6204C90.1875 39.3834 91.1874 38.3906 92.4659 38.3906C93.7445 38.3906 94.7279 39.3834 94.7279 40.6204C94.7279 41.8248 93.7445 42.8339 92.4659 42.8339ZM90.417 62.5601V45.3078H94.4985V62.5601H90.417Z" fill="#17171B"/>
<path d="M97.9766 62.5557V45.3034H102.058V48.0052H102.14C103.041 46.1497 104.812 44.9453 107.451 44.9453C111.27 44.9453 113.45 47.3867 113.45 51.3905V62.5557H109.369V52.2043C109.369 49.7467 108.221 48.3632 105.894 48.3632C103.55 48.3632 102.058 50.0559 102.058 52.5461V62.5557H97.9766Z" fill="#17171B"/>
<path d="M123.187 62.8979C118.795 62.8979 116.008 59.48 116.008 53.93V53.9138C116.008 48.3475 118.811 44.9458 123.171 44.9458C125.63 44.9458 127.613 46.1991 128.597 48.2661H128.695V39.0703H132.776V62.5562H128.695V59.6265H128.597C127.613 61.661 125.695 62.8979 123.187 62.8979ZM124.417 59.48C126.941 59.48 128.695 57.3154 128.695 53.93V53.9138C128.695 50.5447 126.925 48.3637 124.417 48.3637C121.811 48.3637 120.171 50.4796 120.171 53.9138V53.93C120.171 57.3642 121.794 59.48 124.417 59.48Z" fill="#17171B"/>
<path d="M136.203 62.5557V45.3034H140.285V48.0703H140.367C141.104 46.1823 142.891 44.9453 145.186 44.9453C147.612 44.9453 149.366 46.2148 150.005 48.4283H150.103C150.939 46.2799 153.005 44.9453 155.513 44.9453C158.938 44.9453 161.184 47.2565 161.184 50.7069V62.5557H157.102V51.716C157.102 49.5839 155.988 48.3632 153.988 48.3632C152.021 48.3632 150.677 49.8118 150.677 51.8951V62.5557H146.71V51.5044C146.71 49.5676 145.53 48.3632 143.629 48.3632C141.662 48.3632 140.285 49.8932 140.285 51.9927V62.5557H136.203Z" fill="#17171B"/>
<path d="M166.622 42.8339C165.343 42.8339 164.344 41.8248 164.344 40.6204C164.344 39.3834 165.343 38.3906 166.622 38.3906C167.901 38.3906 168.884 39.3834 168.884 40.6204C168.884 41.8248 167.901 42.8339 166.622 42.8339ZM164.573 62.5601V45.3078H168.655V62.5601H164.573Z" fill="#17171B"/>
<path d="M172.25 62.5562V39.0703H176.332V62.5562H172.25Z" fill="#17171B"/>
<path d="M179.922 62.5562V39.0703H184.004V62.5562H179.922Z" fill="#17171B"/>
</svg>
