<svg width="198" height="100" viewBox="0 0 198 100" fill="none" xmlns="http://www.w3.org/2000/svg">
<g clip-path="url(#clip0_9896_7924)">
<path d="M85.8649 30.4169C85.8649 32.9245 85.9053 35.4345 85.8246 37.9421C85.8246 38.36 85.3306 38.8064 84.9911 39.165C82.17 42.1452 79.3323 45.1016 76.3973 48.1886L87.6483 59.7055V58.1406C87.6483 46.2564 87.6435 34.3706 87.634 22.4833C87.634 21.626 87.8406 20.9873 88.4841 20.4102C90.0538 18.9854 91.5712 17.5346 93.3189 15.8984V73.7775L68.4922 48.2479L85.5325 30.31L85.8649 30.4169Z" fill="black"/>
<path d="M111.43 59.4731L122.365 48.2506C121.923 47.7519 121.553 47.3007 121.154 46.8852C118.653 44.2517 116.117 41.661 113.674 38.9658C113.189 38.3825 112.903 37.6596 112.857 36.9023C112.752 34.7437 112.819 32.5804 112.819 30.4172L113.173 30.2058L130.315 48.253L105.531 73.7422V16.1172C105.8 16.2757 106.057 16.4535 106.301 16.6491C107.571 17.8364 108.801 19.0641 110.1 20.211C110.877 20.8973 111.138 21.6714 111.138 22.6996C111.12 34.4604 111.126 46.2234 111.154 57.9889V59.3519L111.43 59.4731Z" fill="black"/>
<path d="M102.366 7V8.50076C102.366 30.3616 102.378 52.2231 102.401 74.0855C102.401 75.5388 101.969 76.5052 100.86 77.3957C98.9914 78.8941 98.9938 78.9867 97.4242 77.1464C96.963 76.5908 96.6969 75.8992 96.6667 75.1778C96.6271 54.6183 96.6113 34.0588 96.6192 13.4993C96.6192 12.5495 96.8566 11.8632 97.588 11.2363C98.9059 10.1084 100.145 8.89021 101.425 7.71714C101.642 7.51767 101.893 7.35619 102.366 7Z" fill="black"/>
<path d="M100.522 88.8809C101.448 87.6057 102.184 86.4802 103.044 85.4615C103.338 85.11 103.951 85.0293 104.421 84.8227C104.556 85.2335 104.803 85.6419 104.81 86.0551C104.848 88.2564 104.829 90.46 104.829 92.6281C103.459 93.0223 103.336 92.9439 103.324 91.7067C103.31 90.3888 103.324 89.0685 103.324 87.392C102.557 88.4606 101.997 89.2514 101.424 90.035C100.755 90.954 100.301 90.9635 99.6029 90.035C99.014 89.2585 98.4584 88.4582 97.6747 87.3707C97.6747 89.0733 97.6747 90.4244 97.6747 91.7756C97.6747 92.2743 97.7745 92.8323 96.9624 92.8608C96.0647 92.894 96.1859 92.2861 96.1835 91.7447C96.1835 89.8118 96.1574 87.8788 96.1835 85.9459C96.1835 85.5683 96.4209 85.1955 96.5563 84.8203C97.0312 85.0127 97.6486 85.0791 97.9455 85.4235C98.8359 86.4731 99.5958 87.62 100.522 88.8809Z" fill="black"/>
<path d="M50.8925 87.3456C50.1113 88.4142 49.5461 89.2002 48.9691 89.9815C48.2282 90.9836 47.8696 90.9907 47.0884 89.9815C46.4876 89.2073 45.9153 88.4142 45.0984 87.3195C45.0984 89.053 45.0984 90.4398 45.0984 91.8313C45.0984 92.3347 45.1768 93.0186 44.386 92.8215C44.1082 92.7574 43.771 92.2041 43.7615 91.8717C43.7021 89.8604 43.7116 87.849 43.7473 85.8377C43.7473 85.5029 44.0132 84.8879 44.1296 84.8879C44.5499 84.9116 45.1008 85.0256 45.3454 85.3201C46.2454 86.4053 47.0432 87.5783 48.005 88.882L49.5224 86.8327C49.9474 86.2652 50.3155 85.6454 50.8236 85.1562C51.0825 84.9188 51.6001 84.8641 51.992 84.8879C52.1368 84.8879 52.3624 85.3628 52.3648 85.6288C52.3956 87.7992 52.4075 89.9696 52.3458 92.1376C52.3458 92.387 51.8709 92.736 51.555 92.8191C51.4054 92.8571 50.9376 92.3822 50.9281 92.1257C50.8616 90.6487 50.8925 89.1717 50.8925 87.3456Z" fill="black"/>
<path d="M130.823 87.2406C130.823 88.9029 130.842 90.3609 130.823 91.8094C130.806 92.8875 130.733 92.9255 129.367 92.7118C129.367 90.3063 129.367 87.8747 129.386 85.443C129.386 85.2364 129.666 84.847 129.79 84.8565C130.189 84.8921 130.695 84.9586 130.949 85.2174C132.136 86.4333 133.235 87.7179 134.371 88.9789L135.783 90.5509V86.5401C135.783 86.1863 135.691 85.7897 135.819 85.4882C135.947 85.1866 136.294 84.8423 136.546 84.8518C136.797 84.8613 137.234 85.2697 137.241 85.5143C137.298 87.7203 137.294 89.9311 137.263 92.1371C137.263 92.3746 136.973 92.8186 136.833 92.8115C136.396 92.7925 135.833 92.7355 135.558 92.4577C134.423 91.3107 133.376 90.0831 132.295 88.872C131.846 88.3757 131.4 87.8889 130.823 87.2406Z" fill="black"/>
<path d="M56.4099 88.9055C56.4099 87.8393 56.3482 86.7683 56.4455 85.7093C56.4764 85.3816 56.9205 84.8401 57.1983 84.8283C58.4976 84.7406 59.8023 84.7756 61.0951 84.9328C63.2322 85.2486 64.5288 86.9298 64.4195 89.0076C64.315 91.1448 62.8072 92.674 60.6462 92.8545C56.4099 93.2107 56.4099 93.2107 56.4099 88.9055ZM57.9036 86.2697C57.9036 87.8844 57.8869 89.4089 57.9249 90.9311C57.9249 91.121 58.2336 91.4772 58.3809 91.4677C59.4661 91.3965 60.6106 91.4321 61.6104 91.0807C62.6718 90.7078 63.0351 89.6274 62.9045 88.5327C62.7763 87.3739 62.1161 86.4953 60.9454 86.3005C60.0003 86.1438 59.0078 86.2697 57.9036 86.2697Z" fill="black"/>
<path d="M88.1876 84.7111C90.7735 84.7253 92.6993 86.5158 92.6708 88.8809C92.6471 91.1772 90.5693 93.0507 88.0902 93.0104C85.5185 92.97 83.6093 91.1653 83.633 88.7978C83.6568 86.4303 85.5921 84.6944 88.1876 84.7111ZM88.1876 91.5975C89.8664 91.5975 91.1226 90.4315 91.1487 88.869C91.1748 87.3065 89.7786 86.0408 88.1068 86.0575C86.4351 86.0741 85.1528 87.2899 85.1528 88.8097C85.148 90.3722 86.4802 91.5975 88.1828 91.5903L88.1876 91.5975Z" fill="black"/>
<path d="M151.93 91.5488H155.527C156.002 91.5488 156.608 91.5298 156.427 92.2398C156.361 92.5058 155.86 92.8216 155.546 92.8335C154.086 92.8976 152.623 92.8335 151.163 92.8739C150.417 92.8952 150.213 92.577 150.227 91.8884C150.253 89.8367 150.258 87.7827 150.227 85.731C150.227 84.9972 150.529 84.755 151.215 84.7669C152.64 84.7883 154.065 84.7289 155.489 84.8096C155.817 84.8286 156.121 85.2727 156.439 85.522C156.102 85.7452 155.774 86.1347 155.421 86.1608C154.285 86.2439 153.139 86.1917 151.887 86.1917V88.032C152.882 88.032 153.898 87.9798 154.903 88.0629C155.204 88.089 155.475 88.4879 155.76 88.7159C155.478 88.9534 155.223 89.2929 154.903 89.376C154.459 89.4924 153.953 89.4093 153.478 89.4117C151.597 89.4164 151.548 89.4876 151.93 91.5488Z" fill="black"/>
<path d="M160.7 90.4014C161.593 91.3988 162.742 91.8666 164.07 91.5721C164.483 91.4795 164.813 91.0141 165.181 90.7196C164.853 90.3919 164.578 89.917 164.181 89.7698C163.452 89.4991 162.635 89.473 161.883 89.2498C160.933 88.9672 160.182 88.4329 160.135 87.2883C160.085 86.0844 160.683 85.3506 161.773 84.9826C163.143 84.5195 164.514 84.5195 165.737 85.3577C166.045 85.5667 166.361 86.2292 166.245 86.5023C165.969 87.1435 165.478 86.8728 165.01 86.5261C164.62 86.2171 164.149 86.0274 163.653 85.9798C163.158 85.9322 162.659 86.0287 162.217 86.2577C162.074 86.3409 161.95 86.4546 161.854 86.5908C161.759 86.727 161.695 86.8824 161.666 87.0461C161.645 87.2598 161.951 87.6445 162.189 87.7229C162.934 87.9603 163.716 88.0862 164.478 88.2714C166.121 88.6656 166.746 89.3115 166.713 90.5582C166.679 91.8048 165.836 92.617 164.338 92.9067C162.956 93.1726 161.659 92.9779 160.517 92.1349C159.553 91.4273 159.589 91.1946 160.7 90.4014Z" fill="black"/>
<path d="M110.313 92.7943H108.964C108.964 90.2938 108.947 87.8574 108.995 85.4329C108.995 85.2168 109.413 84.8345 109.643 84.8298C110.941 84.773 112.242 84.8127 113.535 84.9485C114.869 85.129 115.534 86.0313 115.56 87.3231C115.587 88.6149 114.896 89.5861 113.566 89.8592C112.869 89.9871 112.16 90.0333 111.452 89.9969C110.7 89.9732 110.36 90.2344 110.396 91.0085C110.422 91.5761 110.346 92.1626 110.313 92.7943ZM111.839 88.5366C112.226 88.5366 112.462 88.5366 112.697 88.5366C113.461 88.5176 114.022 88.2326 114.019 87.3754C114.017 86.5181 113.421 86.2522 112.68 86.2118C112.288 86.1904 111.889 86.2332 111.493 86.1952C110.685 86.1168 110.429 86.4469 110.367 87.2614C110.272 88.6007 111.042 88.6387 111.839 88.5366Z" fill="black"/>
<path d="M117.617 92.7083C118.049 91.7204 118.463 90.7611 118.888 89.8065C119.524 88.3651 120.141 86.9165 120.818 85.4941C121.238 84.6132 122.383 84.4517 122.763 85.2567C123.922 87.6978 124.981 90.1888 126.087 92.6893C125.043 93.0977 124.425 92.8792 124.162 91.8985C123.965 91.1576 123.485 90.9202 122.737 90.9938C122.184 91.0538 121.627 91.0538 121.075 90.9938C120.201 90.8893 119.65 91.1671 119.412 92.0529C119.175 92.9386 118.558 93.0265 117.617 92.7083ZM121.804 86.5342C121.329 87.7619 120.963 88.6548 120.59 89.5999H123.15C122.706 88.5764 122.321 87.7025 121.804 86.5247V86.5342Z" fill="black"/>
<path d="M80.6361 86.229L79.9071 87.0292C77.6227 85.8134 76.0958 85.8538 75.0724 87.129C74.6589 87.6138 74.434 88.2313 74.4388 88.8685C74.4436 89.5056 74.6778 90.1197 75.0985 90.5983C76.1695 91.8592 77.6275 91.9138 79.8145 90.7645C80.6979 91.3463 80.6789 91.8877 79.7361 92.3887C78.1594 93.2246 76.5708 93.2745 74.9869 92.3887C73.6025 91.6146 72.8853 90.4297 72.9067 88.8126C72.9328 86.9936 73.9064 85.6424 75.7017 84.9965C77.5634 84.3411 79.3609 84.7567 80.6361 86.229Z" fill="black"/>
<path d="M40.3879 85.0412C39.2694 87.5559 38.2032 90.0422 37.0634 92.4904C36.7333 93.1885 35.6101 93.0888 35.2658 92.3455C34.1616 89.9519 33.1096 87.5345 32.0078 85.0602C32.9363 84.6019 33.5252 84.7325 33.9075 85.6776C34.6199 87.3731 35.356 89.0496 36.2061 91.0205C37.042 89.0662 37.7853 87.3873 38.4787 85.6871C38.8372 84.8037 39.3881 84.5971 40.3879 85.0412Z" fill="black"/>
<path d="M146.024 91.543V92.8728C144.599 92.8728 143.227 92.9227 141.864 92.8301C141.593 92.8111 141.358 92.2507 140.938 91.733L142.811 91.4765V86.3901C142.741 86.3402 142.668 86.2965 142.59 86.2595C142.082 86.0695 141.149 86.497 141.256 85.4117C141.348 84.4809 142.139 84.8347 142.654 84.8015C143.519 84.7349 144.389 84.7445 145.252 84.83C145.551 84.8632 145.81 85.2693 146.086 85.5067C145.848 85.7442 145.611 86.1503 145.354 86.1574C144.604 86.1811 144.404 86.5183 144.442 87.1927C144.498 88.137 144.498 89.0837 144.442 90.028C144.352 91.1156 144.571 91.8351 146.024 91.543Z" fill="black"/>
</g>
<defs>
<clipPath id="clip0_9896_7924">
<rect width="134.71" height="86.035" fill="white" transform="translate(32 7)"/>
</clipPath>
</defs>
</svg>
