<svg width="198" height="100" viewBox="0 0 198 100" fill="none" xmlns="http://www.w3.org/2000/svg">
<g clip-path="url(#clip0_9896_7936)">
<path d="M19.0013 59.6075C19.0544 59.509 19.122 59.4157 19.1588 59.3113C19.4688 58.4358 20.0977 57.973 21.0121 57.9131C21.3391 57.8939 21.6672 57.9152 21.989 57.9764C22.7511 58.1173 23.4378 58.8326 23.4647 59.6079C23.5075 60.8597 23.4776 62.1136 23.475 63.3671C23.475 63.4194 23.4416 63.472 23.4091 63.5662C23.2862 63.5439 23.1646 63.5153 23.0447 63.4806C22.7489 63.377 22.4557 63.2665 22.1637 63.1539C21.8144 63.0191 21.8109 63.0165 21.8092 62.6261C21.8062 61.8285 21.8092 61.0305 21.8092 60.233C21.8152 60.1188 21.8124 60.0042 21.8007 59.8905C21.7883 59.8117 21.7579 59.7167 21.7009 59.6662C21.4959 59.4825 21.2428 59.5279 21.0108 59.584C20.8224 59.6298 20.7672 59.8091 20.7565 59.9898C20.7501 60.1037 20.7505 60.2176 20.7505 60.3323C20.7505 64.2067 20.7505 68.0809 20.7505 71.9549C20.7505 72.0406 20.7484 72.1262 20.7505 72.2118C20.7715 72.6463 20.9004 72.7641 21.334 72.7499C21.6988 72.738 21.805 72.6361 21.805 72.2508C21.8092 70.8406 21.7981 69.4304 21.8109 68.0202C21.8182 67.1918 22.2151 66.5844 22.9523 66.2068C23.0863 66.1383 23.24 66.1092 23.4283 66.0475C23.4523 66.1995 23.4836 66.3044 23.4836 66.4105C23.4866 68.4329 23.493 70.4557 23.4836 72.4781C23.4817 72.9247 23.3216 73.3562 23.0315 73.6957C22.7415 74.0353 22.3404 74.261 21.8996 74.3327C21.5802 74.3853 21.2446 74.4183 20.9256 74.3823C20.0412 74.28 19.4234 73.8176 19.1481 72.9443C19.1194 72.8531 19.0501 72.7731 19 72.69L19.0013 59.6075Z" fill="black"/>
<path d="M71.4805 31.0271C71.6946 31.1179 71.8269 31.1658 71.9514 31.227C74.4716 32.4631 76.9915 33.7001 79.5114 34.9379C79.588 34.9755 79.6698 35.0046 79.7425 35.0487C79.9262 35.1592 80.0825 35.1262 80.2511 35.0004C80.7995 34.5915 81.3574 34.1947 81.9101 33.7918L92.2758 26.2345C92.3237 26.2036 92.3694 26.1695 92.4128 26.1326C92.6041 25.9493 92.7801 25.984 92.9822 26.1326C93.6727 26.6377 94.3722 27.1296 95.0675 27.6275L111.197 39.1834C111.719 39.5571 112.254 39.9112 112.756 40.3115C113.79 41.1334 114.249 42.2208 114.02 43.5223C113.786 44.8571 112.977 45.745 111.67 46.1406C111.356 46.234 111.031 46.2817 110.704 46.2823C97.8118 46.2891 84.9194 46.2908 72.0268 46.2874C71.4557 46.2874 71.4531 46.2874 71.4531 45.7193C71.4531 41.0038 71.4531 36.2881 71.4531 31.5721C71.4536 31.4188 71.4685 31.2669 71.4805 31.0271ZM92.7103 28.8605C92.5271 28.9915 92.3764 29.0964 92.2278 29.203C88.3689 32.0156 84.5117 34.8306 80.6561 37.6478C80.3646 37.8618 80.1424 37.8914 79.8145 37.7261C77.9809 36.8065 76.1328 35.9114 74.2919 35.0098C74.1725 34.9516 74.0453 34.9083 73.9113 34.854C73.7991 35.4884 73.836 43.5976 73.9575 43.9392H110.342C110.456 43.9392 110.57 43.9427 110.685 43.9392C111.138 43.9178 111.498 43.658 111.632 43.2637C111.769 42.8561 111.645 42.4567 111.271 42.1639C111.025 41.9704 110.766 41.7923 110.511 41.6073L95.2164 30.6517C94.3936 30.0643 93.5712 29.4761 92.7103 28.8605Z" fill="black"/>
<path d="M127.1 31.0391C127.112 31.2818 127.127 31.4351 127.127 31.5883C127.127 36.3032 127.127 41.0181 127.127 45.733C127.127 45.7758 127.127 45.8186 127.127 45.8614C127.115 46.2604 127.089 46.2938 126.675 46.2938C123.239 46.2964 119.803 46.2964 116.367 46.2938C116.245 46.2938 116.125 46.2685 115.955 46.251C116.024 46.09 116.077 45.9791 116.121 45.8657C116.314 45.3622 116.522 44.8631 116.691 44.3515C116.82 43.9662 116.796 43.9533 117.205 43.9529C119.073 43.9512 120.941 43.9512 122.809 43.9529C123.365 43.9529 123.922 43.9529 124.478 43.9499C124.546 43.9462 124.614 43.938 124.68 43.9255C124.777 43.6126 124.813 35.6091 124.723 34.9066C124.559 34.8467 124.429 34.952 124.297 35.0166C123.041 35.6311 121.788 36.2473 120.538 36.8652C119.95 37.1542 119.353 37.4273 118.776 37.7368C118.458 37.908 118.225 37.8815 117.93 37.6632C115.671 35.9966 113.398 34.3479 111.13 32.6937C109.495 31.5016 107.859 30.3097 106.224 29.1182C106.121 29.0433 106.014 28.9739 105.884 28.8857C105.756 28.9713 105.623 29.0522 105.499 29.1426C105.011 29.4898 104.527 29.8417 104.038 30.1876C103.735 30.4016 103.728 30.4059 103.439 30.2021C102.882 29.8096 102.33 29.4084 101.727 28.9735C101.867 28.8553 101.963 28.7594 102.072 28.6832C103.229 27.8518 104.387 27.0219 105.547 26.1934C105.893 25.9455 105.896 25.9438 106.25 26.2015C109.072 28.2564 111.894 30.3132 114.714 32.3718C115.889 33.228 117.069 34.0795 118.234 34.9473C118.484 35.1335 118.684 35.1451 118.966 35.0055C121.506 33.7497 124.051 32.5021 126.601 31.2626C126.735 31.1906 126.876 31.1354 127.1 31.0391Z" fill="black"/>
<path d="M165.634 64.5856C165.963 62.3838 166.292 60.1821 166.625 57.9474C167.169 57.8767 167.679 57.8947 168.186 57.926C168.396 57.9392 168.405 58.1203 168.409 58.2804C168.423 58.7642 168.43 59.2484 168.445 59.7321C168.517 62.0088 168.594 64.285 168.664 66.5617C168.715 68.227 168.757 69.8924 168.804 71.5573C168.826 72.3707 168.856 73.1794 168.876 73.9906C168.885 74.343 168.838 74.3956 168.499 74.4085C168.185 74.4205 167.871 74.4209 167.557 74.4085C167.262 74.3956 167.224 74.3473 167.208 74.0442C167.18 73.4902 167.15 72.9362 167.133 72.3814C167.096 71.1866 167.069 69.9913 167.034 68.7964C167.031 68.6898 167.006 68.5824 166.982 68.415C166.875 68.4976 166.784 68.5314 166.765 68.5888C166.723 68.7392 166.692 68.8928 166.674 69.0482C166.483 70.3445 166.293 71.6408 166.104 72.9371C166.036 73.3964 166.028 73.4059 165.572 73.4037C165.433 73.4037 165.294 73.3896 165.108 73.3793C164.863 71.7191 164.62 70.0803 164.38 68.4471C164.12 68.4116 164.115 68.5755 164.108 68.7121C164.084 69.1244 164.071 69.5371 164.056 69.9498C164.011 71.273 163.969 72.5963 163.92 73.9192C163.904 74.364 163.859 74.4033 163.416 74.4132C163.174 74.4183 162.932 74.4209 162.689 74.4132C162.552 74.4076 162.416 74.3759 162.254 74.3524C162.254 73.8609 162.243 73.4071 162.257 72.9538C162.284 72.0008 162.324 71.0483 162.358 70.0957C162.415 68.4318 162.472 66.7679 162.529 65.104C162.586 63.4401 162.643 61.7762 162.7 60.1123C162.721 59.5129 162.743 58.9179 162.767 58.3211C162.782 57.9619 162.816 57.9238 163.161 57.9127C163.489 57.902 163.817 57.9033 164.146 57.9127C164.511 57.9212 164.549 57.9504 164.607 58.328C164.764 59.3554 164.911 60.3829 165.062 61.4133C165.209 62.4122 165.357 63.4124 165.505 64.4139C165.515 64.4786 165.534 64.5423 165.547 64.6048L165.634 64.5856Z" fill="black"/>
<path d="M55.311 68.4524C55.0508 68.5436 55.0919 68.744 55.0683 68.8942C54.9091 69.9217 54.7601 70.9492 54.6085 71.9792C54.5657 72.275 54.5293 72.5721 54.4801 72.8675C54.4531 73.0332 54.4086 73.1963 54.3679 73.3812H53.5117C53.4666 73.2346 53.429 73.0857 53.3991 72.9351C53.1936 71.5429 52.9911 70.1506 52.7916 68.7581C52.7814 68.6879 52.7835 68.6113 52.754 68.55C52.7405 68.5271 52.7219 68.5076 52.6996 68.4931C52.6773 68.4787 52.652 68.4696 52.6255 68.4666C52.5992 68.4702 52.5741 68.4801 52.5524 68.4956C52.5307 68.511 52.513 68.5315 52.501 68.5552C52.4754 68.6363 52.4627 68.721 52.4633 68.8061C52.4045 70.4851 52.3474 72.1641 52.292 73.8432C52.289 73.9288 52.2865 74.0144 52.2831 74.1C52.2741 74.3081 52.1615 74.4112 51.9568 74.4121C51.6002 74.4121 51.244 74.4121 50.8866 74.4091C50.6725 74.4061 50.5869 74.2897 50.5942 74.0786C50.6331 73.0978 50.667 72.1166 50.7042 71.1358C50.7089 71.0074 50.7269 70.8789 50.7303 70.7531C50.7731 69.3442 50.8065 67.9357 50.851 66.5272C50.9038 64.8633 50.9609 63.1994 51.0223 61.5355C51.0621 60.455 51.113 59.3749 51.1601 58.2948C51.1644 58.1971 51.1811 58.1 51.1961 57.9604C51.3827 57.9433 51.5617 57.9176 51.7411 57.9125C51.9979 57.9048 52.2548 57.906 52.5117 57.9125C52.8893 57.9223 52.9196 57.9463 52.9757 58.3179C53.0935 59.0923 53.2043 59.8676 53.3182 60.6429C53.5177 62.0086 53.7168 63.3747 53.9762 64.7442C54.0661 64.1568 54.1577 63.5699 54.2455 62.9821C54.4321 61.7312 54.6177 60.48 54.802 59.2285C54.8478 58.9189 54.8911 58.6094 54.9356 58.2999C54.9823 57.9758 55.0212 57.9262 55.3312 57.9146C55.6737 57.903 56.0161 57.9039 56.3586 57.9146C56.7122 57.9244 56.7521 57.963 56.7653 58.3115C56.7987 59.1934 56.8244 60.0757 56.8531 60.958C56.9262 63.2347 56.9992 65.5113 57.0723 67.788C57.1232 69.4529 57.1648 71.1183 57.2118 72.7836C57.223 73.1817 57.2487 73.5803 57.2521 73.9784C57.2551 74.3483 57.1994 74.4031 56.839 74.4147C56.5536 74.4241 56.2682 74.4241 55.9827 74.4147C55.6296 74.404 55.5855 74.3637 55.5632 74.0234C55.5452 73.7396 55.5444 73.4544 55.5371 73.1697C55.5046 71.846 55.4719 70.5226 55.4391 69.1995C55.4292 68.9495 55.4082 68.7012 55.311 68.4524Z" fill="black"/>
<path d="M68.1171 74.3415C68.088 73.8201 68.0486 73.3115 68.0337 72.8003C67.9938 71.4629 67.9652 70.1251 67.9318 68.7877C67.9361 68.7168 67.9303 68.6456 67.9146 68.5762C67.9056 68.5515 67.8909 68.5293 67.8718 68.5111C67.8528 68.493 67.8298 68.4795 67.8046 68.4718C67.7618 68.4658 67.6762 68.5039 67.6668 68.5398C67.6247 68.6754 67.5936 68.8141 67.5739 68.9547C67.3778 70.2647 67.186 71.5751 66.9887 72.8847C66.9638 73.0491 66.915 73.21 66.8761 73.377H65.9924C65.7467 71.7189 65.504 70.0806 65.2647 68.4486C65.063 68.3986 65.0031 68.503 64.9911 68.6469C64.9748 68.8455 64.9693 69.045 64.9624 69.2462C64.9116 70.7686 64.8607 72.291 64.8096 73.8137C64.8081 73.9273 64.8004 74.0408 64.7865 74.1536C64.7668 74.2953 64.6846 74.3963 64.536 74.401C64.0848 74.4152 63.6314 74.4537 63.1627 74.3655C63.1537 74.2439 63.1387 74.1485 63.1408 74.0534C63.1789 72.588 63.2149 71.1226 63.2607 69.6572C63.3129 67.979 63.3746 66.3008 63.4319 64.6231C63.489 62.9592 63.5461 61.2953 63.6032 59.6314C63.6186 59.1904 63.6409 58.7503 63.6601 58.3098C63.6751 57.9712 63.7029 57.9245 64.0206 57.9147C64.3905 57.9014 64.7616 57.9147 65.1337 57.9117C65.3366 57.9117 65.4526 58.0024 65.4762 58.2113C65.4946 58.3667 65.525 58.5209 65.5476 58.6758C65.8473 60.7188 66.1427 62.7617 66.4809 64.8072C66.5948 64.0678 66.713 63.3289 66.8234 62.5887C67.0327 61.1687 67.2352 59.7474 67.4454 58.3269C67.4994 57.9609 67.5473 57.9207 67.9095 57.9125C68.237 57.9048 68.5654 57.9035 68.8942 57.9125C69.2229 57.9215 69.264 57.9553 69.2773 58.2828C69.3098 59.065 69.3312 59.8476 69.3561 60.6301C69.4303 62.9493 69.5039 65.2687 69.577 67.5882C69.6421 69.6941 69.7056 71.8 69.7675 73.9057C69.7812 74.3488 69.7367 74.4139 69.2966 74.4117C68.9143 74.4092 68.5273 74.4712 68.1171 74.3415Z" fill="black"/>
<path d="M32.337 65.7848C31.9721 66.1201 31.6651 66.5134 31.4285 66.9489C31.3553 67.088 31.369 67.2811 31.3686 67.4493C31.3652 69.5573 31.3643 71.6653 31.366 73.7733C31.366 74.4155 31.366 74.4155 30.7273 74.4155C30.485 74.4155 30.2424 74.4135 29.9995 74.4095C29.7949 74.4061 29.6802 74.311 29.6879 74.094C29.6917 73.9801 29.6879 73.8662 29.6879 73.7515V57.9672C30.2183 57.8713 30.6991 57.8966 31.1772 57.9407C31.2432 57.9466 31.3297 58.0631 31.3506 58.1431C31.3823 58.2639 31.3665 58.3974 31.3669 58.5255C31.3669 60.2915 31.3669 62.0576 31.3669 63.8237V64.3426C31.7239 64.1413 32.0198 63.9834 32.3045 63.8083C32.364 63.7715 32.4033 63.6739 32.417 63.5981C32.4299 63.4844 32.4327 63.3698 32.4256 63.2556C32.4256 61.6745 32.4256 60.0935 32.4256 58.5126V58.022C32.7484 57.8379 33.0536 57.9154 33.3456 57.9107C34.2159 57.8953 34.1034 57.9107 34.1034 58.6783C34.1059 63.6923 34.1059 68.706 34.1034 73.7194C34.1034 74.4138 34.1034 74.4138 33.3888 74.4146C33.2176 74.4146 33.0464 74.418 32.8751 74.4146C32.4616 74.4026 32.4342 74.3744 32.4247 73.9758C32.4218 73.8619 32.4247 73.7481 32.4247 73.6333V65.8195L32.337 65.7848Z" fill="black"/>
<path d="M126.052 66.152C126.052 68.6878 126.052 71.2235 126.052 73.759C126.052 74.4157 126.051 74.4252 125.38 74.4149C124.786 74.4063 124.185 74.429 123.601 74.3404C122.544 74.1794 121.854 73.3181 121.854 72.2397C121.851 68.1085 121.851 63.9771 121.854 59.8456C121.854 59.3318 121.85 58.8181 121.856 58.3074C121.861 57.9538 121.893 57.9221 122.255 57.9127C122.554 57.9045 122.854 57.9028 123.154 57.9152C123.453 57.9277 123.496 57.9769 123.515 58.2689C123.524 58.411 123.519 58.5536 123.519 58.697C123.519 63.0562 123.519 67.4155 123.519 71.7748C123.513 71.9736 123.528 72.1725 123.562 72.3685C123.61 72.6061 123.804 72.7598 123.969 72.7384C124.135 72.717 124.312 72.5291 124.333 72.3146C124.345 72.1579 124.348 72.0007 124.344 71.8437C124.344 67.4273 124.344 63.0111 124.344 58.5951C124.344 57.9101 124.344 57.9101 125.022 57.9101C125.264 57.9101 125.507 57.9131 125.75 57.9161C125.938 57.9187 126.041 58.0111 126.046 58.2034C126.048 58.3459 126.052 58.4881 126.052 58.6315C126.052 61.1382 126.052 63.645 126.052 66.152Z" fill="black"/>
<path d="M42.8584 57.9569C43.3841 57.8713 43.8649 57.8939 44.3435 57.935C44.4103 57.9406 44.4993 58.0549 44.5207 58.1341C44.5528 58.2544 44.5374 58.3884 44.5374 58.5164C44.5374 63.6023 44.5374 68.6882 44.5374 73.7741C44.5374 74.4099 44.5374 74.4197 43.8952 74.4094C43.2878 74.4 42.6726 74.4184 42.0745 74.3311C41.1203 74.1915 40.4576 73.4248 40.3745 72.4594C40.3441 72.1058 40.324 71.7496 40.3236 71.3943C40.3201 67.1346 40.3194 62.875 40.3214 58.6153C40.3214 57.9059 40.3214 57.9055 41.0192 57.9051C41.2474 57.9051 41.4756 57.9094 41.7042 57.9094C41.9183 57.9094 42.0146 58.0194 42.0141 58.2274C42.0141 58.37 42.018 58.5121 42.018 58.6555C42.018 63.0291 42.018 67.4028 42.018 71.7766C42.0133 71.9614 42.0243 72.1463 42.051 72.3293C42.0938 72.5604 42.2702 72.73 42.4363 72.7347C42.6131 72.7394 42.8096 72.5459 42.8447 72.304C42.861 72.1476 42.8658 71.9902 42.8592 71.8331C42.8592 67.4167 42.8592 63.0004 42.8592 58.5841L42.8584 57.9569Z" fill="black"/>
<path d="M152.059 66.107C152.059 64.1006 152.059 62.0938 152.059 60.0865C152.059 58.8878 152.838 58.0029 154.024 57.9263C154.947 57.8672 155.915 58.3972 156.186 59.5531C156.236 59.7898 156.259 60.0313 156.254 60.2732C156.258 64.2155 156.258 68.158 156.254 72.1009C156.254 73.166 155.771 73.9144 154.887 74.2543C153.495 74.789 152.05 73.7217 152.055 72.3432C152.064 70.2635 152.059 68.1867 152.059 66.107ZM154.549 66.1635C154.549 64.2285 154.549 62.2933 154.549 60.3579C154.553 60.2295 154.55 60.1008 154.541 59.9727C154.518 59.765 154.34 59.5818 154.164 59.5685C154.007 59.557 153.812 59.7008 153.77 59.8994C153.736 60.0806 153.721 60.2649 153.725 60.4491C153.722 62.6833 153.722 64.9173 153.725 67.1511C153.725 68.7591 153.725 70.3671 153.728 71.975C153.724 72.1445 153.746 72.3136 153.793 72.4764C153.85 72.6502 154.003 72.7611 154.191 72.7289C154.366 72.6994 154.507 72.5842 154.534 72.3933C154.55 72.2512 154.555 72.1081 154.55 71.9652C154.55 70.0327 154.55 68.0988 154.549 66.1635Z" fill="black"/>
<path d="M115.655 66.0674C115.669 66.2553 115.689 66.394 115.69 66.5327C115.691 68.4558 115.691 70.379 115.69 72.3023C115.69 73.1658 115.329 73.8255 114.538 74.1928C113.597 74.6312 112.236 74.439 111.633 73.5678C111.344 73.1504 111.245 72.6876 111.244 72.1944C111.242 70.9555 111.242 69.7163 111.244 68.4768C111.244 65.7417 111.244 63.0066 111.244 60.2712C111.24 60.0579 111.254 59.8447 111.286 59.6338C111.458 58.6453 112.089 58.0391 113.088 57.9248C113.572 57.8696 114.059 57.8897 114.514 58.096C115.226 58.4218 115.644 58.9882 115.67 59.7597C115.713 60.9408 115.684 62.1241 115.682 63.3061C115.682 63.3862 115.646 63.4662 115.615 63.5985C115.382 63.524 115.169 63.4602 114.961 63.3879C114.758 63.3177 114.559 63.2406 114.361 63.1631C113.988 63.018 113.984 63.0167 113.982 62.6032C113.979 61.7769 113.966 60.9507 113.986 60.1248C114 59.546 113.751 59.5366 113.328 59.558C113.114 59.5692 112.985 59.6865 112.963 59.9005C112.95 60.0289 112.951 60.1574 112.951 60.2858C112.951 64.189 112.951 68.092 112.951 71.9949C112.951 72.0806 112.951 72.1662 112.951 72.2518C112.971 72.6504 113.08 72.7527 113.475 72.7518C113.878 72.7518 113.976 72.6615 113.978 72.2454C113.982 70.8493 113.974 69.4533 113.982 68.0576C113.988 67.1586 114.526 66.4 115.336 66.1213C115.417 66.0969 115.503 66.0935 115.655 66.0674Z" fill="black"/>
<path d="M92.705 66.8561C93.5026 66.9734 94.2162 67.6695 94.3185 68.4226C94.3395 68.6066 94.3482 68.7918 94.3447 68.977C94.3472 70.0018 94.3447 71.0272 94.3481 72.0525C94.3481 72.1929 94.3532 72.3423 94.4003 72.4707C94.4628 72.6398 94.6058 72.7618 94.7967 72.7255C94.968 72.6929 95.1131 72.5867 95.1422 72.3911C95.1543 72.2917 95.159 72.1915 95.1563 72.0914C95.1563 70.525 95.1521 68.9585 95.1615 67.3921C95.1663 67.2729 95.1453 67.1542 95.0998 67.0439C95.0544 66.9336 94.9856 66.8345 94.8982 66.7534C94.2166 66.0658 93.5557 65.3573 92.8792 64.6646C92.8083 64.5961 92.7526 64.5133 92.7157 64.4218C92.6788 64.3302 92.6616 64.232 92.6652 64.1334C92.6712 62.7382 92.6601 61.3425 92.6708 59.9469C92.6789 58.8955 93.4521 58.0632 94.5656 57.9348C95.0448 57.8806 95.5278 57.9977 95.929 58.2654C96.3302 58.533 96.6238 58.9339 96.7579 59.3972C96.8256 59.644 96.8606 59.8986 96.8619 60.1545C96.8731 61.2368 96.8683 62.319 96.8649 63.4013C96.8649 63.5374 96.8401 63.6731 96.826 63.8127C95.8015 63.6184 95.1696 62.882 95.1598 61.9064C95.1546 61.3652 95.1598 60.8241 95.1598 60.283C95.1638 60.1687 95.1598 60.0542 95.1478 59.9405C95.1221 59.7564 94.947 59.586 94.786 59.5697C94.6251 59.5535 94.4294 59.6982 94.3789 59.887C94.3569 59.984 94.3476 60.0834 94.3511 60.1828C94.3511 61.265 94.3549 62.3473 94.3455 63.4295C94.3455 63.677 94.4281 63.8577 94.5994 64.0315C95.2578 64.7027 95.8965 65.3929 96.5588 66.0594C96.7759 66.2782 96.8752 66.5051 96.8735 66.8142C96.8632 68.5938 96.8735 70.3739 96.8662 72.1539C96.8632 73.0902 96.4809 73.8094 95.5994 74.2037C94.2625 74.8031 92.6939 73.8407 92.6755 72.3928C92.6536 70.6419 92.6695 68.8901 92.6716 67.1387C92.6768 67.0439 92.6879 66.9495 92.705 66.8561Z" fill="black"/>
<path d="M132.236 66.8387C133.274 67.0883 133.871 67.7985 133.882 68.7875C133.895 69.8556 133.885 70.9237 133.888 71.9918C133.882 72.1338 133.892 72.2759 133.917 72.4157C133.96 72.6087 134.167 72.7706 134.319 72.7333C134.507 72.6879 134.662 72.586 134.686 72.3681C134.695 72.2685 134.698 72.1685 134.697 72.0685C134.697 70.5162 134.692 68.9638 134.702 67.412C134.704 67.1337 134.617 66.9346 134.421 66.7373C133.749 66.06 133.1 65.36 132.432 64.6794C132.356 64.6063 132.296 64.5178 132.257 64.4199C132.217 64.3219 132.199 64.2167 132.204 64.1113C132.21 62.7298 132.2 61.3483 132.209 59.9672C132.216 58.8734 133.022 58.0107 134.168 57.9286C134.657 57.889 135.144 58.0262 135.54 58.3151C135.937 58.6041 136.216 59.0256 136.328 59.5031C136.375 59.6969 136.399 59.8954 136.401 60.0948C136.408 61.2053 136.406 62.3162 136.404 63.4267C136.404 63.5509 136.381 63.6746 136.369 63.7987C135.466 63.7131 134.724 62.9126 134.7 62.0144C134.685 61.415 134.697 60.8183 134.694 60.2202C134.701 60.1065 134.693 59.9925 134.671 59.8807C134.623 59.6983 134.471 59.5669 134.301 59.5845C134.173 59.5977 134.025 59.7206 133.944 59.8353C133.88 59.9274 133.888 60.0802 133.887 60.2061C133.883 61.2742 133.887 62.3423 133.882 63.4104C133.882 63.6519 133.941 63.8386 134.118 64.0201C134.789 64.6986 135.438 65.399 136.108 66.078C136.313 66.2852 136.408 66.5022 136.408 66.7955C136.399 68.5756 136.406 70.3556 136.402 72.1357C136.402 73.0711 136.031 73.8015 135.152 74.1966C133.742 74.8293 132.207 73.7963 132.205 72.3326C132.203 70.6236 132.203 68.9146 132.205 67.2056C132.208 67.0947 132.224 66.983 132.236 66.8387Z" fill="black"/>
<path d="M174.86 66.8227C176.133 67.2336 176.549 67.9199 176.544 68.8133C176.538 69.8673 176.542 70.9213 176.544 71.9753C176.54 72.1175 176.549 72.2598 176.571 72.4005C176.583 72.4867 176.625 72.5661 176.688 72.6261C176.751 72.686 176.833 72.7229 176.919 72.7309C177.106 72.7536 177.252 72.6453 177.312 72.4672C177.358 72.3338 177.382 72.1939 177.385 72.0528C177.39 70.5001 177.381 68.9478 177.395 67.3955C177.397 67.118 177.266 66.9447 177.095 66.7679C176.432 66.0829 175.779 65.3842 175.106 64.7074C174.897 64.4963 174.826 64.2728 174.828 63.9843C174.839 62.7308 174.826 61.4773 174.838 60.2242C174.84 59.9399 174.88 59.6571 174.957 59.3834C175.197 58.5508 175.896 57.9857 176.821 57.9339C177.669 57.8864 178.348 58.2434 178.774 58.9956C178.887 59.1923 178.952 59.4137 178.962 59.6407C178.979 60.9794 178.971 62.3181 178.97 63.6572C178.965 63.6987 178.957 63.7396 178.944 63.7792C178.131 63.6859 177.399 62.9153 177.389 62.1319C177.381 61.5197 177.391 60.9071 177.383 60.2949C177.383 60.1416 177.373 59.9674 177.3 59.8428C177.231 59.7251 177.08 59.6044 176.949 59.5859C176.771 59.559 176.63 59.7007 176.58 59.8796C176.551 60.0042 176.538 60.132 176.543 60.2598C176.541 61.2997 176.55 62.3395 176.536 63.379C176.532 63.6752 176.637 63.8927 176.836 64.0973C177.435 64.7065 178.021 65.3294 178.625 65.9352C178.869 66.1809 178.984 66.4408 178.981 66.8017C178.965 68.6391 178.941 70.4774 178.992 72.3131C179.024 73.5118 178.104 74.3753 176.967 74.3911C175.979 74.4044 175.173 73.8038 174.922 72.8298C174.865 72.5949 174.836 72.3538 174.837 72.1119C174.829 70.5022 174.832 68.893 174.834 67.2833C174.835 67.1433 174.851 67.0037 174.86 66.8227Z" fill="black"/>
<path d="M75.4999 57.9527C75.9759 57.8713 76.4558 57.894 76.9332 57.9394C76.9995 57.9458 77.0852 58.0635 77.107 58.1445C77.1391 58.2647 77.1254 58.3983 77.1254 58.5263C77.1254 60.1643 77.1151 61.8026 77.1344 63.4401C77.1383 63.8036 77.2226 64.1722 77.3163 64.5262C77.3464 64.6559 77.4031 64.7778 77.4828 64.8843C77.5626 64.9908 77.6636 65.0795 77.7796 65.1448C78.1563 64.8563 78.301 64.4487 78.3661 64.0082C78.3944 63.7679 78.4054 63.5258 78.399 63.2839C78.4016 61.731 78.4016 60.1784 78.399 58.6261C78.399 58.4976 78.3939 58.3692 78.4042 58.2408C78.426 57.9719 78.4684 57.9223 78.7466 57.912C79.0891 57.8996 79.4316 57.912 79.7741 57.912C79.9817 57.912 80.0939 58.0066 80.093 58.2211C80.093 58.2921 80.0973 58.3632 80.0973 58.4351C80.0973 60.1441 80.0973 61.8533 80.0973 63.5626C80.1007 64.1487 79.9815 64.7291 79.7471 65.2664C79.5485 65.7177 79.2762 66.1226 78.8798 66.4129C78.6114 66.6077 78.5527 66.8346 78.554 67.1407C78.5626 69.3339 78.5587 71.5275 78.5583 73.7207C78.5583 74.4168 78.5583 74.4172 77.8416 74.4176C77.6276 74.4176 77.4135 74.4253 77.1995 74.4108C76.937 74.3924 76.8878 74.3363 76.8664 74.0683C76.8561 73.9399 76.8608 73.8114 76.8608 73.683C76.8608 71.4894 76.8553 69.2958 76.8668 67.1026C76.8668 66.7644 76.7812 66.5285 76.5179 66.2892C75.8432 65.677 75.4905 64.8687 75.4746 63.9748C75.4361 62.0526 75.4609 60.1296 75.4618 58.2065C75.469 58.1212 75.4817 58.0364 75.4999 57.9527Z" fill="black"/>
<path d="M143.409 59.5457H141.953C142.062 59.0178 142.152 58.5499 142.26 58.0858C142.275 58.0225 142.371 57.9608 142.443 57.9326C142.515 57.9043 142.612 57.9086 142.697 57.9082C143.709 57.9082 144.722 57.9039 145.736 57.9082C146.164 57.9103 146.189 57.9364 146.264 58.3538C146.331 58.7276 146.387 59.1034 146.458 59.5375H145.127C145.11 59.7756 145.084 59.9656 145.084 60.1579C145.082 64.6598 145.082 69.1615 145.084 73.6629C145.084 73.8196 145.082 73.9766 145.076 74.1338C145.071 74.2819 144.994 74.3847 144.845 74.3932C144.393 74.4198 143.94 74.4523 143.451 74.3581C143.377 73.5216 143.427 72.7001 143.418 71.8811C143.408 71.0677 143.418 70.2569 143.418 69.4448V59.5457H143.409Z" fill="black"/>
<path d="M85.7484 56.6328H87.043C87.0246 56.7912 87.0212 56.9162 86.9942 57.0361C86.888 57.507 86.7848 57.9779 86.6577 58.4454C86.6205 58.582 86.5263 58.7815 86.424 58.8055C86.2133 58.8547 85.9783 58.8127 85.7561 58.7879C85.718 58.7836 85.6636 58.6753 85.6641 58.6167C85.6641 57.9784 85.6773 57.34 85.6889 56.7022C85.6893 56.6816 85.7244 56.6611 85.7484 56.6328Z" fill="black"/>
<path d="M85.1484 41.0888C85.309 40.7351 85.5436 40.5292 85.7957 40.346C86.8232 39.6017 87.8518 38.8606 88.8815 38.1228C90.7104 36.81 92.5403 35.4997 94.3711 34.192C94.4872 34.1089 94.5972 34.0122 94.7243 33.9539C94.8018 33.9184 94.9337 33.9064 94.9957 33.9492C95.6139 34.3773 96.2227 34.8183 96.8696 35.2806C96.7274 35.3984 96.6354 35.484 96.5344 35.5568C94.0342 37.3511 91.5322 39.1424 89.0284 40.9308C88.8572 41.0541 88.6546 41.1263 88.444 41.1393C87.4594 41.1602 86.4777 41.1504 85.4939 41.147C85.3997 41.1466 85.3051 41.1162 85.1484 41.0888Z" fill="black"/>
</g>
<defs>
<clipPath id="clip0_9896_7936">
<rect width="159.996" height="48.4244" fill="white" transform="translate(19 26)"/>
</clipPath>
</defs>
</svg>
