<svg width="198" height="100" viewBox="0 0 198 100" fill="none" xmlns="http://www.w3.org/2000/svg">
<g clip-path="url(#clip0_9896_7942)">
<path d="M140.686 24.4666C140.84 24.2655 140.999 24.0563 141.162 23.8495C143.808 20.4848 147.268 18.5519 151.541 18.0831C159.191 17.2453 166.775 22.8279 167.845 31.0443C168.148 33.3737 167.961 35.6984 167.691 38.0185C166.882 45.0352 165.051 51.821 162.95 58.5458C161.254 63.987 159.39 69.3696 157.219 74.6442C156.442 76.5311 155.447 78.3008 153.919 79.7074C152.3 81.2013 150.443 81.723 148.342 80.837C147.061 80.2969 146.261 79.2156 145.556 78.0905C144.502 76.4082 143.808 74.5695 143.296 72.6528C143.111 71.8922 142.85 71.1519 142.517 70.4429C141.697 68.802 139.944 68.5664 138.65 69.8684C137.93 70.5958 137.643 71.5277 137.417 72.4815C136.912 74.619 136.166 76.6575 134.906 78.4801C134.036 79.7442 132.952 80.7635 131.428 81.1714C129.837 81.5978 128.462 81.0404 127.257 80.0418C125.522 78.5985 124.388 76.7093 123.5 74.6776C123.049 73.6433 122.68 72.5758 122.316 71.5094C122.016 70.6337 122.049 70.613 122.963 70.6211C123.946 70.6303 124.951 70.7118 125.796 70.0775C126.217 69.7604 126.583 69.3696 127.044 68.9491C127.832 71.2474 128.701 73.5089 130.306 75.5773C130.589 75.1361 130.874 74.8166 131.02 74.4454C131.482 73.2538 131.951 72.0587 132.326 70.8371C132.994 68.6537 133.945 66.6691 135.807 65.2235C137.038 64.2686 138.434 63.7354 140.038 63.5722C139.991 63.4215 139.935 63.2741 139.869 63.1309C139.196 61.9191 138.213 60.9045 137.021 60.1891C136.196 59.6846 135.276 59.6754 134.338 59.7053C133.656 59.7271 132.922 59.7846 132.296 59.5743C131.14 59.187 130.547 58.1953 130.579 57.0519C130.614 55.843 131.263 54.9524 132.363 54.6249C133.377 54.336 134.433 54.2233 135.485 54.2916C138.414 54.4709 140.804 55.8062 142.753 57.9574C144.883 60.3086 146.222 63.0861 147.147 66.0727C147.817 68.2446 148.362 70.4556 149.043 72.6229C149.35 73.5962 149.853 74.5075 150.264 75.4475L150.482 75.482C150.713 75.1809 151.016 74.9074 151.175 74.573C151.92 73.0446 152.751 71.5415 153.324 69.9488C154.996 65.289 156.634 60.6143 158.147 55.9016C159.849 50.6017 161.227 45.2145 162.078 39.6986C162.443 37.3359 162.75 34.9595 162.607 32.5635C162.219 26.0812 155.594 21.5535 149.338 24.185C145.543 25.7847 143.577 28.7713 143.354 32.8554C143.238 34.8515 142.177 35.9684 140.42 35.8271C138.999 35.7122 138.057 34.8067 137.985 33.3897C137.895 31.6132 137.638 29.8768 136.682 28.3335C134.63 25.017 131.666 23.2152 127.699 23.4956C123.731 23.776 120.942 25.9088 119.323 29.5114C119.129 29.9423 119.037 30.4215 118.92 30.8903C118.753 31.5546 118.457 31.7154 117.84 31.3891C117.19 31.0443 116.504 30.8593 115.784 30.98C115.304 31.0604 114.849 31.2845 114.38 31.4293C114.195 31.4856 113.917 31.5959 113.822 31.5166C113.66 31.3833 113.494 31.0972 113.528 30.911C113.695 29.9917 113.861 29.0632 114.149 28.1772C115.947 22.6521 121.202 18.5324 127.044 18.0808C132.535 17.6567 136.903 19.739 140.253 24.0288C140.346 24.1494 140.439 24.2724 140.536 24.3896C140.558 24.4103 140.601 24.4195 140.686 24.4666Z" fill="black"/>
<path d="M89.5788 45.6306C89.9627 44.5355 90.3304 43.4357 90.7351 42.3486C91.7318 39.6585 92.7297 36.9671 94.27 34.5195C94.418 34.2959 94.5794 34.0814 94.7533 33.8771C95.2159 33.3129 95.809 33.0842 96.4994 33.3324C97.1103 33.5585 97.703 33.8309 98.272 34.1471C98.7056 34.3827 98.8282 34.8297 98.7577 35.2963C98.5264 36.8442 98.2454 38.3852 98.0257 39.9354C97.6164 42.8267 97.1932 45.7191 96.8694 48.6207C96.7746 49.4734 96.9434 50.3697 97.1007 51.2281C97.1989 51.7808 97.5435 52.2531 98.176 52.3773C98.8085 52.5014 99.2954 52.198 99.6793 51.7257C100.558 50.6483 101.064 49.3188 101.125 47.9335C101.356 43.5081 102.408 39.2827 104.399 35.317C104.885 34.3845 105.517 33.5353 106.273 32.8015C107.555 31.5374 109.355 31.8822 110.253 33.4462C110.904 34.5827 111.042 35.8387 111.07 37.1028C111.127 39.6481 110.759 42.1314 109.77 44.501C109.426 45.3616 108.813 46.0896 108.021 46.5775C106.808 47.321 105.593 47.1096 104.679 46.0248C104.583 45.9098 104.479 45.8041 104.293 45.5996C104.184 46.119 104.083 46.535 104.012 46.9579C103.752 48.5081 103.564 50.0675 103.797 51.6361C104.065 53.4448 105.463 54.2791 107.218 53.6861C108.677 53.1886 109.553 52.0394 110.277 50.7753C111.288 49.0114 111.655 47.0716 111.787 45.0618C111.963 42.3762 112.111 39.678 112.842 37.066C113.089 36.2047 113.425 35.371 113.844 34.5781C114.228 33.8438 114.876 33.6116 115.588 33.7599C116.111 33.8679 116.427 34.1402 116.349 34.7125C116.166 36.0547 115.972 37.3946 115.788 38.7345C115.47 41.062 115.155 43.389 114.843 45.7156C114.817 45.9003 114.858 46.0881 114.959 46.2454C115.293 45.2043 115.61 44.1574 115.965 43.1243C117.09 39.8515 118.201 36.5741 119.781 33.4772C120.303 32.451 120.831 32.2327 121.943 32.5659C122.345 32.695 122.729 32.8738 123.087 33.098C123.648 33.4427 123.896 33.9587 123.77 34.6171C123.434 36.4374 123.118 38.2622 122.749 40.0756C122.171 42.9232 121.528 45.7627 121.462 48.6816C121.459 49.4817 121.528 50.2806 121.669 51.0684C121.759 51.6429 122.09 52.1026 122.724 52.2256C123.357 52.3485 123.839 52.0624 124.149 51.5614C124.549 50.9155 124.867 50.218 125.232 49.5492C125.316 49.3941 125.451 49.1481 125.559 49.1516C125.658 49.161 125.755 49.1917 125.841 49.2415C125.927 49.2912 126.002 49.359 126.06 49.44C126.217 49.6775 126.307 49.9532 126.32 50.2375C126.276 51.8176 124.976 54.5066 122.613 54.9904C121.052 55.311 119.674 54.6629 119.011 53.2092C118.317 51.7016 118.191 50.0939 118.327 48.4897C118.524 46.1914 118.856 43.8931 119.129 41.6017C119.152 41.404 119.16 41.2041 119.176 41.0053L119.027 40.9444C118.928 41.0825 118.84 41.2286 118.766 41.381C117.378 44.9112 116.215 48.5058 115.586 52.2577C115.456 53.0288 115.417 53.8148 115.322 54.5917C115.212 55.4869 114.584 55.95 113.681 55.8109C113.374 55.7702 113.082 55.6544 112.831 55.4739C112.58 55.2934 112.378 55.0539 112.243 54.7767C112.119 54.5469 112.011 54.2975 111.859 53.9723C110.544 56.1028 108.842 57.5128 106.223 57.1187C103.664 56.7348 102.379 54.9353 101.561 52.6117C101.305 52.8771 101.098 53.092 100.893 53.3081C100.084 54.1561 99.093 54.6871 97.9228 54.8204C96.0935 55.0238 94.6365 54.0079 93.8826 52.0624C93.2952 50.5478 93.1483 48.9654 93.2929 47.3773C93.4883 45.2295 93.797 43.0921 94.0595 40.9501C94.0907 40.6961 94.137 40.4445 94.1752 40.1905L94.0225 40.1342C93.9035 40.3113 93.7935 40.4942 93.693 40.6824C92.421 43.353 91.5364 46.1638 90.8022 49.016C90.357 50.7512 90.0806 52.5289 89.7522 54.2917C89.6031 55.0961 89.3972 55.3087 88.5635 55.2628C87.5436 55.2065 86.8094 54.6503 86.2173 53.8712C86.1017 53.7206 86.0011 53.562 85.8508 53.3448C84.1094 55.2317 82.161 56.6349 79.4344 56.1028C76.7632 55.5857 75.341 53.7229 74.4275 51.2396C74.224 51.6177 74.0806 51.9164 73.906 52.2037C73.3278 53.1725 72.6664 54.0527 71.5933 54.5239C70.0277 55.2134 68.521 54.6836 67.7393 53.1805C67.6098 52.9311 67.4872 52.6783 67.3253 52.3566C67.0767 52.7105 66.8825 53.0093 66.6662 53.292C64.8705 55.6535 61.4813 55.6454 59.6751 53.292C58.4517 51.6981 58.0401 49.8549 57.9661 47.9128C57.8169 44.0057 58.4598 40.2457 60.2949 36.758C61.1413 35.1492 62.2606 33.7392 63.9813 32.9221C65.7019 32.1051 67.641 32.2959 68.8609 33.3967C69.4819 33.9564 69.9016 34.6263 69.8854 35.4928C69.8854 35.8088 70.0092 35.941 70.3156 35.9685C70.4876 35.9901 70.6559 36.0341 70.8163 36.0995C71.3713 36.3041 71.569 36.6362 71.4338 37.2096C70.9458 39.2781 70.3572 41.3178 69.9745 43.4001C69.6368 45.2387 69.49 47.1073 69.3304 48.97C69.2807 49.5653 69.4033 50.1927 69.5455 50.7822C69.8126 51.8923 70.8498 52.3049 71.8408 51.7199C72.8317 51.135 73.3116 50.1789 73.4989 49.1344C73.7533 47.7106 73.8354 46.2615 74.0066 44.8181C74.4159 41.3707 75.3132 38.1037 77.5438 35.3285C78.9233 33.6128 81.0127 33.0669 82.7877 33.9759C84.1013 34.6493 84.7211 35.8088 84.8783 37.2119C85.0205 38.476 84.9454 39.7343 84.5095 40.949C84.1718 41.8936 83.6757 42.7187 82.6963 43.1381C82.0025 43.4346 81.2498 43.2817 80.793 42.7692C80.5452 42.4994 80.3907 42.1579 80.3522 41.7946C80.3137 41.4313 80.3932 41.0653 80.5791 40.7502C81.2613 39.609 81.6984 38.3944 81.6337 37.0545C81.6198 36.7557 81.451 36.3156 81.2267 36.2133C81.0023 36.111 80.5329 36.2305 80.2866 36.4064C79.4956 36.9626 79.1719 37.8543 78.8342 38.7047C77.8837 41.0903 77.4316 43.5932 77.3113 46.1408C77.2183 47.721 77.2516 49.3061 77.4108 50.8811C77.6663 53.1288 79.6726 54.0217 81.6533 52.8668C83.2826 51.9164 84.2157 50.3754 85.0876 48.7862C85.9109 47.2842 86.0821 45.6409 86.2439 43.9758C86.8082 38.3703 87.4007 32.7674 88.0212 27.1672C88.1253 26.2214 88.3681 25.2883 88.5901 24.3575C88.7774 23.5531 89.4111 23.136 90.2356 23.3015C90.6483 23.3884 91.047 23.5311 91.4208 23.7255C91.9365 23.9875 92.2568 24.4334 92.1932 25.0275C92.0776 26.1468 91.9943 27.2798 91.7446 28.3727C90.5085 33.7909 89.9176 39.2976 89.3903 44.8147C89.366 45.0698 89.3903 45.3284 89.3903 45.5858L89.5788 45.6306ZM61.3391 48.8655C61.4281 49.4814 61.4963 50.4191 61.7149 51.32C61.9334 52.221 62.7359 52.4186 63.4551 51.8314C63.6383 51.6925 63.795 51.522 63.9177 51.3281C64.3709 50.534 64.9468 49.7698 65.207 48.9149C65.8545 46.7809 66.3933 44.6124 66.8975 42.4406C67.1449 41.3753 67.0501 41.3305 66.0592 40.8915C65.3515 40.5789 65.2798 40.3491 65.6614 39.6688C66.2939 38.5461 66.657 37.3464 66.5714 36.0547C66.5506 35.7295 66.3887 35.2308 66.1632 35.1457C65.8765 35.0377 65.4278 35.2067 65.1087 35.3756C64.8278 35.5424 64.5933 35.7762 64.4264 36.0559C64.085 36.5631 63.7868 37.0978 63.5349 37.6543C62.0433 41.1282 61.6108 44.817 61.3391 48.8655ZM108.205 36.6408C108.205 36.296 108.252 35.9456 108.192 35.6066C108.129 35.2503 107.961 34.9171 107.845 34.5723C107.604 34.8631 107.246 35.117 107.14 35.4503C106.404 37.7394 105.705 40.04 105.041 42.3521C104.923 42.8117 104.923 43.2933 105.041 43.7529C105.206 44.4091 105.827 44.5573 106.269 44.0425C106.651 43.5922 106.956 43.0819 107.17 42.5325C107.896 40.6387 108.129 38.6472 108.205 36.6408Z" fill="black"/>
<path d="M51.0963 30.9649C50.5482 32.4082 49.9585 33.8377 49.4624 35.3006C48.6218 37.7793 47.7811 40.2615 47.0492 42.7701C46.0618 46.0912 45.4578 49.5131 45.2488 52.9699C45.1933 53.9674 45.0638 54.0835 44.0612 54.0111C42.6737 53.9099 41.8538 53.0918 41.7417 51.7128C41.4468 48.0952 41.0479 44.4823 40.8975 40.859C40.7761 37.9046 40.9554 34.9386 40.9993 31.9784C40.9993 31.9106 40.9889 31.844 40.9692 31.6061C37.8888 38.4102 36.189 45.4016 35.2836 52.5999C36.2318 52.8665 36.3567 53.0205 36.0618 53.9031C35.7531 54.8224 35.3564 55.7187 34.9679 56.6116C34.7367 57.1437 34.3111 57.3356 33.7376 57.1402C33.6289 57.1034 33.5144 57.0827 33.4046 57.0471C31.7129 56.4967 31.4249 56.0841 31.6123 54.3317C32.1931 48.8943 33.3164 43.5278 34.9656 38.3114C36.0606 34.8432 37.2412 31.4038 39.0463 28.2241C39.6557 27.1508 40.4396 26.1672 41.2051 25.1892C41.737 24.5101 42.0874 24.463 42.8772 24.756C43.5455 25.0031 43.9976 25.4455 44.0104 26.1901C44.0208 26.8187 43.9757 27.4542 43.9364 28.0793C43.6129 33.4232 43.7258 38.7843 44.274 44.11C44.2801 44.2217 44.3294 44.3267 44.4116 44.403C44.6729 43.4228 44.9111 42.4345 45.2014 41.4635C46.0386 38.6619 46.8387 35.8476 47.7649 33.0747C48.5952 30.5925 49.5538 28.1517 50.4985 25.7098C50.7725 25.0019 51.1853 24.3446 51.5496 23.6735C51.7947 23.2219 52.1971 23.0323 52.7059 23.0989C52.9929 23.1243 53.2775 23.1719 53.557 23.2414C54.6601 23.5528 54.8648 23.8654 54.8289 24.9939C54.7133 28.9665 54.5317 32.9391 54.5248 36.9117C54.5294 43.1631 55.0768 49.4023 56.161 55.5601C56.3842 56.846 56.3194 56.9276 55.0047 56.9023C54.6973 56.8973 54.3913 56.8615 54.0912 56.7955C52.8701 56.5243 52.4006 56.052 52.2619 54.8327C51.9832 52.385 51.6502 49.9385 51.5103 47.4782C51.3091 43.9158 51.2339 40.3373 51.1553 36.7658C51.1206 35.2006 51.2119 33.632 51.2432 32.0657C51.2501 31.7072 51.2432 31.3487 51.2432 30.9901L51.0963 30.9649Z" fill="black"/>
<path d="M71.4448 63.128C71.4448 62.2087 71.4599 61.2951 71.4379 60.3793C71.4287 59.9621 71.5755 59.8047 72.0034 59.8047C73.5806 59.8231 75.1578 59.7886 76.7327 59.8265C78.503 59.869 79.501 60.8228 79.6721 62.5718C79.7048 62.9137 79.7122 63.2574 79.6941 63.6003C79.6143 65.2091 78.6846 66.2951 77.0669 66.4157C75.3451 66.5433 73.6106 66.487 71.8808 66.5123C71.5165 66.5123 71.4379 66.2997 71.4402 65.9883C71.4472 65.0345 71.4402 64.0795 71.4402 63.1246L71.4448 63.128ZM74.0489 63.1027V63.3326C74.0489 64.6794 74.0489 64.6794 75.4261 64.6518C76.5997 64.6288 77.0889 64.1014 77.0229 62.9281C76.9593 61.8191 76.3453 61.448 74.6178 61.5204C73.5771 61.5652 74.2304 62.3776 74.0535 62.8155C74.0353 62.9102 74.0337 63.0074 74.0489 63.1027Z" fill="black"/>
<path d="M48.1803 61.692C49.3944 60.8968 50.2617 60.929 51.3602 61.9219C51.921 61.3921 52.5917 61.1048 53.3849 61.1519C54.4429 61.214 55.1194 61.8311 55.1726 62.8814C55.2258 63.9317 55.1888 64.982 55.2003 66.0324C55.2003 66.3771 55.0327 66.5093 54.7031 66.5035C54.2614 66.4966 53.8174 66.4897 53.3757 66.5035C52.964 66.5208 52.8414 66.3208 52.8484 65.945C52.8611 65.1809 52.8553 64.4167 52.8484 63.6467C52.8484 63.2882 52.7998 62.9343 52.3049 62.9331C51.81 62.932 51.6111 63.2066 51.6053 63.6559C51.5949 64.4201 51.5857 65.1843 51.5961 65.9542C51.5961 66.3415 51.4492 66.5081 51.0503 66.5001C48.9585 66.461 49.3632 66.7724 49.3031 64.8419C49.2904 64.4408 49.3031 64.0374 49.3031 63.6387C49.3031 63.2779 49.2915 62.9021 48.7885 62.9216C48.341 62.94 48.0716 63.2066 48.0566 63.6525C48.0346 64.3581 48.0496 65.0659 48.0462 65.7727C48.0427 66.4794 48.0288 66.4978 47.2934 66.5012C47.0043 66.5012 46.7152 66.4817 46.4285 66.5012C45.9197 66.5449 45.6977 66.3748 45.7115 65.8278C45.7451 64.5109 45.7358 63.1917 45.7231 61.8736C45.7231 61.4312 45.8838 61.2439 46.3348 61.2795C46.6817 61.3059 47.0344 61.2496 47.3755 61.3059C47.6021 61.3588 47.8218 61.5266 48.1803 61.692Z" fill="black"/>
<path d="M44.7111 66.4815C44.0335 66.4332 43.194 66.7963 42.3799 66.1804C41.4769 66.6708 40.429 66.8299 39.4197 66.6297C38.9491 66.5424 38.4184 66.3642 38.0819 66.0551C37.2019 65.2369 37.5881 63.8246 38.7757 63.527C39.6267 63.3167 40.5287 63.3167 41.3994 63.173C41.722 63.119 42.299 62.8777 42.2851 62.8007C42.2007 62.2974 41.722 62.3514 41.3682 62.4112C41.0143 62.4709 40.6524 62.6766 40.2951 62.818C40.1794 62.8651 40.0569 62.949 39.9355 62.9524C39.4359 62.9674 38.9352 62.9524 38.4322 62.9582C38.1108 62.9582 38.0287 62.8053 38.1224 62.5157C38.2012 62.247 38.3476 62.0027 38.5476 61.8057C38.7477 61.6087 38.9949 61.4655 39.266 61.3896C40.6151 60.9672 42.0602 60.9536 43.4172 61.3505C44.1954 61.5803 44.6972 62.125 44.703 62.9915C44.7111 64.1314 44.7111 65.2725 44.7111 66.4815ZM42.388 64.1832C41.7567 64.2624 41.1646 64.3119 40.5865 64.4268C40.4315 64.4589 40.1875 64.7198 40.2118 64.8255C40.2511 65.0002 40.4651 65.2496 40.6223 65.2622C41.0396 65.2993 41.4601 65.2667 41.8665 65.1657C42.2689 65.06 42.4794 64.7347 42.3846 64.1843L42.388 64.1832Z" fill="black"/>
<path d="M34.314 59.8189C35.1986 59.8189 36.0832 59.8338 36.9667 59.8131C37.3748 59.8028 37.5622 59.9143 37.5518 60.3567C37.5194 61.6702 37.694 61.5139 36.3827 61.5265C35.6716 61.5334 34.9604 61.5265 34.2493 61.5265C33.9348 61.5265 33.6237 61.4921 33.6249 61.9701C33.6249 62.4206 33.8851 62.4424 34.2285 62.4367C35.0379 62.4252 35.8473 62.4504 36.6498 62.4252C37.0846 62.4114 37.2685 62.5401 37.2765 62.9997C37.295 64.1604 37.3124 64.1604 36.1283 64.1638C35.4553 64.1638 34.7824 64.1707 34.1094 64.1638C33.7729 64.1581 33.6133 64.2902 33.6214 64.635C33.6318 65.074 33.6064 65.5129 33.6214 65.9519C33.6353 66.3346 33.4907 66.5196 33.0895 66.5104C32.5715 66.4989 32.0488 66.5035 31.5331 66.5104C31.1862 66.5184 30.9977 66.3955 31 66.014C31.0085 64.1056 31.0085 62.1969 31 60.2877C31 59.897 31.1989 59.8085 31.5447 59.8131C32.4686 59.8269 33.3913 59.8189 34.314 59.8189Z" fill="black"/>
<path d="M82.4377 64.4537C82.8089 65.2317 83.6738 65.5903 84.2878 65.1915C85.199 64.5974 86.1379 64.9812 87.2029 64.8226C87.0803 65.134 87.0561 65.3639 86.9277 65.4857C86.6144 65.7845 86.2894 66.1189 85.9032 66.2901C84.5966 66.8647 83.2321 66.8221 81.8942 66.4199C80.6894 66.0591 80.0684 65.1731 80.0326 63.9424C79.999 62.7932 80.6107 61.8118 81.7393 61.4051C83.0251 60.9454 84.3468 60.9167 85.6292 61.4464C86.6699 61.8773 87.3 62.953 87.2596 64.0653C87.2445 64.4687 87.0029 64.4652 86.7173 64.4641C85.5239 64.4641 84.3306 64.4641 83.1327 64.4572L82.4377 64.4537ZM82.4111 63.1184H84.8394C84.6486 62.5887 84.2485 62.4416 83.8045 62.4002C83.2714 62.3508 82.7811 62.4519 82.4111 63.1184Z" fill="black"/>
<path d="M105.681 62.9097C106.454 63.012 107.089 63.0924 107.722 63.182C108.199 63.2348 108.672 63.3115 109.141 63.4119C109.738 63.559 110.112 63.9554 110.171 64.5794C110.234 65.2321 110.044 65.8021 109.45 66.1549C109.186 66.3123 108.9 66.4285 108.601 66.4996C107.377 66.7786 106.106 66.7861 104.879 66.5215C104.185 66.3801 103.558 66.0871 103.305 65.3298C103.19 64.9851 103.233 64.7656 103.652 64.7656C104.249 64.7656 104.845 64.7495 105.442 64.7656C105.59 64.7731 105.729 64.8364 105.831 64.9425C106.197 65.3884 106.677 65.3516 107.155 65.2609C107.282 65.2367 107.378 65.0471 107.489 64.9333C107.38 64.8437 107.282 64.6932 107.162 64.6748C106.612 64.5875 106.055 64.5461 105.503 64.4725C105.121 64.4348 104.742 64.3664 104.371 64.268C104.12 64.1991 103.892 64.0627 103.714 63.8738C103.535 63.6849 103.412 63.4508 103.359 63.1971C103.305 62.9434 103.323 62.68 103.41 62.4357C103.498 62.1914 103.651 61.9757 103.853 61.8123C104.083 61.6091 104.353 61.456 104.645 61.3629C105.943 60.9728 107.328 60.9728 108.625 61.3629C108.897 61.4338 109.147 61.5713 109.352 61.7628C109.556 61.9543 109.709 62.1937 109.797 62.4592C109.893 62.7408 109.814 62.9097 109.494 62.9189C108.916 62.9246 108.337 62.943 107.759 62.9189C107.615 62.9131 107.462 62.7787 107.336 62.6753C106.863 62.2731 106.231 62.3029 105.681 62.9097Z" fill="black"/>
<path d="M120.789 61.3094C121.577 61.3094 122.261 61.2841 122.942 61.329C123.088 61.3381 123.259 61.5783 123.346 61.7484C123.659 62.3724 123.944 63.0125 124.295 63.7652C124.621 63.0148 124.91 62.3977 125.159 61.7656C125.288 61.4358 125.469 61.2761 125.839 61.2899C126.41 61.3129 126.983 61.2899 127.663 61.2899C127.606 61.5277 127.533 61.7617 127.447 61.9909C126.694 63.6422 125.916 65.2832 125.18 66.9414C124.759 67.8883 124.095 68.3951 123.03 68.3204C122.896 68.3112 122.761 68.3204 122.625 68.3204C121.585 68.3204 121.607 68.3204 121.593 67.2861C121.593 66.8196 121.736 66.6679 122.214 66.6449C122.958 66.6116 123.151 66.2427 122.825 65.5705C122.267 64.4213 121.685 63.2779 121.12 62.1288C121.006 61.9012 120.927 61.6542 120.789 61.3094Z" fill="black"/>
<path d="M90.2105 61.8369C90.9043 61.2301 91.723 61.1026 92.5937 61.2025C93.5049 61.3071 94.1767 61.853 94.2576 62.7562C94.3582 63.8743 94.3282 65.0039 94.3097 66.1278C94.3097 66.26 94.0322 66.4794 93.8645 66.4978C93.4101 66.5484 92.9394 66.507 92.4838 66.5151C92.1369 66.5151 92.0097 66.3519 92.0132 66.0221C92.0202 65.3326 92.0201 64.6431 92.0016 63.9605C91.9831 63.2779 91.7241 62.9722 91.2246 62.9596C90.6568 62.9458 90.2336 63.3526 90.2128 63.9731C90.1897 64.6397 90.1874 65.3085 90.1955 65.9761C90.1955 66.368 90.0301 66.5312 89.6404 66.5174C89.2172 66.5024 88.794 66.5047 88.3685 66.5174C88.0216 66.5266 87.8817 66.3714 87.8828 66.037C87.8828 64.6259 87.8898 63.2136 87.8828 61.8013C87.8828 61.4243 88.0632 61.2979 88.4182 61.3106C88.7732 61.3232 89.1548 61.2715 89.5121 61.3244C89.7514 61.3588 89.9746 61.5255 90.2059 61.6335C90.2059 61.7001 90.2082 61.7691 90.2105 61.8369Z" fill="black"/>
<path d="M62.0312 61.3042C62.8118 61.3042 63.4639 61.2789 64.1126 61.3226C64.2676 61.3329 64.4595 61.5421 64.5428 61.7064C64.8492 62.3419 65.1209 62.9957 65.4678 63.8013C65.7696 63.1118 66.0564 62.5602 66.2484 61.9799C66.4311 61.4249 66.7514 61.2352 67.3191 61.2904C67.7897 61.3352 68.2685 61.2996 68.8223 61.2996C68.7981 61.4744 68.7594 61.647 68.7067 61.8156C67.9273 63.5393 67.1318 65.263 66.3617 66.9867C65.935 67.9463 65.2054 68.3749 64.1647 68.3278C64.049 68.3278 63.9334 68.3278 63.8178 68.3278C62.7574 68.3278 62.7771 68.3278 62.7609 67.2614C62.7528 66.7673 62.9054 66.5857 63.4165 66.5868C64.1369 66.5868 64.3266 66.226 64.0143 65.5721C63.4354 64.3648 62.8573 63.157 62.2799 61.9489C62.1955 61.7857 62.1446 61.6076 62.0312 61.3042Z" fill="black"/>
<path d="M111.199 64.2562C111.199 64.0263 111.188 63.7965 111.199 63.5667C111.227 63.1254 111.208 62.7496 110.582 62.8289C110.495 62.8393 110.318 62.6347 110.292 62.5083C110.243 62.2693 110.282 62.0142 110.267 61.766C110.249 61.4212 110.391 61.2557 110.74 61.2983C111.156 61.3477 111.213 61.1121 111.211 60.7788C111.203 59.7343 111.048 59.6975 112.331 59.7239C112.408 59.7239 112.485 59.7239 112.563 59.7239C113.625 59.7308 113.658 59.5814 113.621 60.7754C113.607 61.219 113.781 61.3638 114.199 61.3029C114.843 61.2109 114.802 61.6476 114.79 62.0636C114.778 62.452 114.898 62.9381 114.224 62.8416C113.727 62.7715 113.567 63.0036 113.611 63.4598C113.629 63.6483 113.611 63.8413 113.611 64.0344C113.611 64.91 113.611 64.8951 114.504 64.9928C114.645 65.0089 114.836 65.21 114.875 65.3582C114.943 65.5986 114.941 65.8534 114.868 66.0925C114.802 66.2798 114.593 66.5338 114.425 66.5522C113.816 66.6255 113.201 66.6351 112.589 66.5809C111.636 66.4786 111.22 65.9604 111.202 65.0008C111.202 64.7526 111.202 64.5044 111.202 64.2562H111.199Z" fill="black"/>
<path d="M97.949 62.8457C97.949 63.4352 97.9594 63.9121 97.949 64.3878C97.9386 64.8636 98.1409 65.0486 98.615 65.0049C98.9007 64.9785 99.2452 64.859 99.2996 65.3566C99.3886 66.1782 99.2765 66.5057 98.7272 66.5632C98.1363 66.6323 97.5397 66.6377 96.9476 66.5793C96.0399 66.4747 95.6005 65.9392 95.5739 65.0291C95.5577 64.4752 95.5589 63.9213 95.5739 63.3674C95.5808 63.033 95.5196 62.7928 95.1114 62.8445C94.7205 62.8916 94.6049 62.6802 94.6153 62.332C94.6303 61.8195 94.4465 61.1829 95.3542 61.2702C95.4166 61.2759 95.5739 60.9841 95.5716 60.8312C95.5612 59.5821 95.5716 59.7292 96.773 59.72H96.8308C97.9224 59.72 97.9421 59.72 97.9502 60.8082C97.9502 61.2254 98.1155 61.3242 98.4983 61.3219C98.718 61.3219 99.1146 61.4253 99.1261 61.5196C99.1607 61.9302 99.1444 62.3436 99.0776 62.7503C99.0776 62.7951 98.8463 62.8319 98.7145 62.8399C98.4786 62.8572 98.2543 62.8457 97.949 62.8457Z" fill="black"/>
<path d="M120.604 63.3518C120.164 63.2978 119.843 63.2369 119.518 63.2208C118.529 63.1588 117.949 63.6805 117.915 64.6515C117.9 65.0905 117.894 65.5295 117.908 65.9684C117.922 66.4074 117.732 66.5223 117.317 66.5304C115.593 66.5602 115.592 66.5706 115.583 64.8756C115.583 63.9011 115.601 62.9278 115.571 61.9545C115.556 61.4649 115.708 61.2362 116.225 61.2879C116.494 61.3151 116.765 61.3151 117.034 61.2879C117.583 61.2351 117.952 61.358 117.796 62.2268C118.49 61.4224 119.2 61.1018 120.087 61.1845C120.434 61.2167 120.619 61.3063 120.606 61.6855C120.591 62.2142 120.604 62.7439 120.604 63.3518Z" fill="black"/>
<path d="M59.4301 62.9943C59.4301 62.0405 59.4463 61.0867 59.4301 60.1341C59.4197 59.7043 59.5874 59.5595 60.0083 59.5802C60.4111 59.6043 60.815 59.6043 61.2178 59.5802C61.6272 59.5561 61.7567 59.7445 61.7555 60.1226C61.7463 62.0677 61.7463 64.0132 61.7555 65.9591C61.7555 66.3878 61.5612 66.505 61.1577 66.5176C59.4417 66.5716 59.4417 66.5808 59.4406 64.8858L59.4301 62.9943Z" fill="black"/>
<path d="M102.347 63.9111C102.347 64.6005 102.336 65.2831 102.347 65.9692C102.355 66.3542 102.21 66.53 101.81 66.5162C99.7606 66.4449 100.054 66.9092 100.037 64.7982C100.03 63.826 100.052 62.8538 100.037 61.8817C100.029 61.445 100.18 61.2864 100.637 61.2829C102.345 61.2726 102.345 61.2577 102.35 62.9389C102.35 63.2629 102.35 63.587 102.35 63.9111H102.347Z" fill="black"/>
<path d="M58.4601 63.8642C58.4601 64.5537 58.4462 65.2374 58.4659 65.9223C58.4786 66.3325 58.3364 66.5164 57.9039 66.5049C55.8445 66.4509 56.2076 66.8267 56.1694 64.857C56.1509 63.8849 56.1879 62.9115 56.1694 61.9405C56.1613 61.4935 56.2781 61.2924 56.7799 61.2901C58.4589 61.2832 58.4589 61.2659 58.4601 62.9483V63.8676V63.8642Z" fill="black"/>
<path d="M101.162 59.5838C101.334 59.5959 101.506 59.5959 101.678 59.5838C102.23 59.5057 102.353 59.77 102.356 60.2733C102.36 60.7767 102.18 60.9628 101.683 60.9157C101.301 60.8904 100.917 60.8904 100.535 60.9157C99.9185 60.9456 100.084 60.4882 100.048 60.1642C100.009 59.8194 100.086 59.5551 100.53 59.5896C100.74 59.5988 100.951 59.585 101.162 59.5838Z" fill="black"/>
<path d="M57.3159 60.8946H56.969C56.1792 60.8946 56.1376 60.8302 56.1723 60.043C56.1885 59.6983 56.3238 59.5616 56.6614 59.5707C56.9991 59.5799 57.3552 59.5707 57.6963 59.5707C58.4965 59.5707 58.4734 59.5707 58.4734 60.3556C58.4734 60.7911 58.2976 60.9359 57.8883 60.8992C57.6987 60.8819 57.5055 60.8992 57.3101 60.8992L57.3159 60.8946Z" fill="black"/>
</g>
<defs>
<clipPath id="clip0_9896_7942">
<rect width="137" height="63.3193" fill="white" transform="translate(31 18)"/>
</clipPath>
</defs>
</svg>
