<svg width="198" height="100" viewBox="0 0 198 100" fill="none" xmlns="http://www.w3.org/2000/svg">
<path d="M23.0047 35.3807C25.5089 35.3681 28.0131 35.3634 30.5156 35.3367C31.194 35.3367 31.2748 35.7163 31.2732 36.2448C31.2637 38.7886 31.2732 41.3309 31.2732 43.8747V44.8816C32.0451 44.3766 32.6901 43.8559 33.4176 43.4983C35.3195 42.5683 37.3038 42.6718 39.3325 43.0545C41.1853 43.4058 42.645 44.3483 43.8321 45.7206C45.0778 47.1603 45.94 48.818 46.1524 50.7173C46.3299 52.3013 46.5264 53.9104 46.4361 55.4928C46.2776 58.1919 45.3615 60.6683 43.3249 62.5738C42.1251 63.692 40.7145 64.5718 38.9775 64.7381C38.819 64.7522 38.6748 64.9028 38.5242 64.989H35.3496C34.8918 64.8447 34.4434 64.6724 34.0072 64.473C33.1181 64.0025 32.2638 63.4928 31.3208 62.9627C31.2986 63.2482 31.2621 63.4725 31.2669 63.6952C31.2764 64.1798 31.0561 64.4072 30.5584 64.404C28.0384 64.3863 25.519 64.3737 23 64.3664L23.0047 35.3807ZM31.2701 53.8492V55.4034C31.2701 56.5734 31.587 57.0298 32.6965 57.4203C33.6221 57.7465 34.5112 57.8908 35.5192 57.5222C37.1041 56.9545 38.4529 55.1556 38.128 53.5465C37.7127 51.492 36.4686 49.7355 33.6902 50.0649C32.0752 50.2546 31.2812 51.078 31.2812 52.6824L31.2701 53.8492Z" fill="black"/>
<path d="M92.9833 64.9922C92.53 64.8275 92.0847 64.6361 91.6219 64.5028C89.0749 63.7704 87.3553 62.1049 86.3552 59.7587C85.867 58.6138 85.5992 57.3638 85.352 56.1374C85.157 55.1603 84.9922 54.1331 85.0778 53.1576C85.3488 50.079 86.0287 47.1164 88.5234 44.9349C90.0052 43.6279 91.9042 42.8779 93.8883 42.8161C95.9487 42.7173 97.868 43.0168 99.5195 44.3452C99.67 44.4675 99.8919 44.502 100.199 44.6338C100.218 44.2542 100.245 43.9578 100.247 43.6614C100.247 41.2211 100.269 38.7792 100.237 36.3373C100.228 35.6002 100.482 35.3226 101.245 35.3352C103.355 35.3712 105.466 35.3665 107.585 35.3352C108.279 35.3258 108.566 35.5187 108.565 36.2574C108.546 45.3473 108.546 54.4368 108.565 63.5258C108.565 64.2064 108.33 64.437 107.644 64.426C105.583 64.3962 103.523 64.4166 101.47 64.415C100.339 64.415 100.34 64.415 100.25 63.3297C100.232 63.224 100.208 63.1192 100.179 63.0161C99.4402 63.4505 98.7524 63.9037 98.017 64.2707C97.4258 64.5671 96.7807 64.7616 96.1595 65L92.9833 64.9922ZM100.247 53.8006C100.247 53.0996 100.271 52.397 100.234 51.6975C100.231 51.4187 100.138 51.1482 99.968 50.9259C98.941 49.828 96.1547 49.7779 94.9787 50.7377C93.7646 51.7273 93.6173 53.0164 93.6189 54.4436C93.6189 55.4442 94.7568 57.0172 95.8092 57.4517C97.3386 58.079 98.6905 57.712 99.9078 56.7318C100.112 56.5671 100.212 56.1907 100.225 55.9037C100.277 55.2058 100.245 54.5016 100.247 53.8006Z" fill="black"/>
<path d="M57.8347 64.9922C57.6049 64.9028 57.3799 64.7616 57.1421 64.7318C53.9359 64.3319 51.4222 62.8106 49.5472 60.2354C47.7769 57.8045 47.3743 55.0302 47.7167 52.1758C47.9382 50.289 48.6929 48.5022 49.8943 47.0207C51.6203 44.8784 53.8138 43.514 56.551 43.1407C58.3324 42.8976 60.1962 42.653 61.9507 42.9008C66.0985 43.4842 69.8008 45.8398 71.2146 50.3785C71.6552 51.7979 71.9547 53.2423 71.7883 54.7196C71.5506 56.8228 70.8976 58.7596 69.609 60.5224C68.3205 62.2852 66.5565 63.3344 64.6007 64.1296C63.8875 64.4229 63.0903 64.5138 62.3343 64.713C62.0988 64.7882 61.8681 64.8772 61.6433 64.9796L57.8347 64.9922ZM63.3502 53.8822C63.1315 53.1262 63.0586 52.284 62.6639 51.6316C61.881 50.3393 60.6115 49.8265 59.0852 50.0727C57.8728 50.2687 56.9646 50.8569 56.4955 52.0488C56.0676 53.1372 55.936 54.2162 56.3164 55.3313C56.8584 56.9153 58.4544 58.0429 60.0726 57.7355C62.0252 57.3654 63.2076 56.277 63.3502 53.8822Z" fill="black"/>
<path d="M74.2687 49.8657C74.2687 45.3761 74.2687 40.8865 74.2687 36.3969C74.2687 35.3885 74.3162 35.343 75.3401 35.3414C77.4226 35.3414 79.5068 35.3587 81.5878 35.3305C82.2867 35.3195 82.5768 35.5297 82.5752 36.2605C82.5572 45.3432 82.5572 54.4258 82.5752 63.5085C82.5752 64.1798 82.3343 64.4276 81.6496 64.4182C79.5147 64.3915 77.3798 64.3852 75.245 64.4182C74.4684 64.4307 74.2528 64.1296 74.2576 63.4066C74.2798 58.8961 74.2687 54.3809 74.2687 49.8657Z" fill="black"/>
<path d="M111.348 64.9877C111.24 63.7518 111.231 63.733 112.38 63.228C113.289 62.8265 113.532 62.0988 113.532 61.208C113.532 56.6076 113.532 52.0129 113.532 47.424C113.532 44.5681 113.516 41.7122 113.532 38.8578C113.54 37.9169 113.215 37.277 112.28 36.9351C111.934 36.808 111.51 36.5885 111.362 36.2936C110.999 35.5644 111.395 35.0531 112.243 35.05C114.591 35.05 116.938 35.0703 119.285 35.0327C119.937 35.0233 120.254 35.3056 120.458 35.8404C121.884 39.5558 123.287 43.2774 124.728 46.9865C125.56 49.1288 126.444 51.2523 127.298 53.3884C127.595 54.1317 127.859 54.8877 128.159 55.6295C128.229 55.8067 128.375 55.9557 128.577 56.249C129.397 54.0533 130.162 52.0145 130.925 49.9678C131.735 47.79 132.541 45.6105 133.342 43.4295C134.123 41.2966 134.89 39.1558 135.665 37.0198C135.726 36.9056 135.776 36.7858 135.814 36.6622C136.034 35.0939 137.092 34.959 138.437 35.0217C140.498 35.1174 142.558 35.0453 144.607 35.05C145.027 35.05 145.501 34.9982 145.558 35.602C145.606 36.118 145.585 36.5305 144.893 36.6998C143.783 36.9806 143.363 37.6079 143.362 38.7575C143.362 46.3623 143.362 53.9702 143.346 61.575C143.346 62.4752 143.801 63.1104 144.533 63.3002C145.557 63.5715 145.658 64.158 145.541 64.9798H134.142C134.117 64.3933 133.944 63.7628 134.709 63.4523C136.318 62.7967 136.339 62.7685 136.339 61.0778C136.339 55.6264 136.339 50.1749 136.351 44.7234C136.351 44.0114 136.535 43.2993 136.586 42.5842C136.627 42.0321 136.596 41.4738 136.596 40.9171C135.415 43.8294 134.331 46.7481 133.256 49.6683C132.464 51.8263 131.693 53.9906 130.893 56.1455C130.12 58.2282 129.299 60.2921 128.543 62.3811C128.238 63.2264 128.05 64.1063 127.809 64.9798H124.639C124.221 63.8428 123.816 62.6995 123.381 61.5687C122.211 58.5366 121.033 55.5045 119.848 52.4725C118.462 48.9176 117.07 45.3669 115.675 41.8204C115.529 42.0701 115.465 42.3582 115.491 42.6453C115.491 45.0051 115.491 47.3665 115.491 49.7295C115.491 53.4934 115.445 57.2574 115.515 61.0214C115.543 62.5615 115.936 62.9818 116.852 63.3205C118.016 63.7503 118.016 63.7503 117.982 64.9814L111.348 64.9877Z" fill="#323232"/>
<path d="M147.129 64.9873C146.953 64.1262 147.328 63.6307 148.16 63.364C149.232 63.0221 149.631 62.2458 149.628 61.1527C149.611 53.7283 149.628 46.3038 149.618 38.8825C149.618 37.5526 149.208 37.0115 147.896 36.6618C147.304 36.5049 147.062 36.1505 147.132 35.5781C147.206 34.9727 147.694 35.0558 148.105 35.0542C152.008 35.0542 155.918 34.9084 159.813 35.095C163.22 35.2519 166.604 35.8353 169.45 37.9494C171.63 39.5242 173.241 41.7495 174.047 44.2979C174.459 45.6075 175.042 49.4107 174.998 49.9016C174.712 53.09 174.373 56.2658 172.373 58.9884C170.516 61.515 168.046 63.168 165.051 64.0682C164.009 64.3819 162.911 64.5105 161.841 64.741C161.678 64.8024 161.524 64.887 161.385 64.992L147.129 64.9873ZM156.429 60.2039C156.502 60.2039 156.481 61.929 156.454 62.7383C156.434 63.3044 156.841 63.4393 157.424 63.3876C158.595 63.2825 159.771 63.2307 160.936 63.0739C163.078 62.7994 164.721 61.7016 165.811 59.8918C167.293 57.4358 167.387 54.6253 167.618 51.8933C167.766 50.1682 167.422 48.3975 167.4 46.6473C167.371 44.8676 167.036 43.1058 166.409 41.4373C166.117 40.6029 165.66 39.8347 165.063 39.1783C164.466 38.5218 163.743 37.9904 162.935 37.6153C161.134 36.7559 159.19 36.93 157.277 36.988C157.061 36.988 156.687 37.355 156.673 37.5698C156.532 39.6526 156.377 41.74 156.369 43.8274C156.353 49.2836 156.405 54.743 156.437 60.2039H156.429Z" fill="#323232"/>
</svg>
