<svg width="198" height="100" viewBox="0 0 198 100" fill="none" xmlns="http://www.w3.org/2000/svg">
<g clip-path="url(#clip0_9896_7930)">
<path d="M185.996 58.3432C185.863 58.651 185.701 58.9495 185.603 59.2731C185.047 61.0919 183.821 62.3064 182.226 63.1786C181.129 63.7756 179.953 64.1085 178.722 64.3363C177.003 64.6534 175.287 64.6469 173.58 64.4655C172.154 64.313 170.763 63.9495 169.459 63.2353C167.999 62.4384 166.829 61.3914 166.195 59.8412C165.64 58.4808 165.447 57.0516 165.811 55.5638C166.046 54.6069 166.415 53.7338 167.033 52.9787C167.708 52.1548 168.547 51.5383 169.471 51.038C169.653 50.9404 169.835 50.8521 170.138 50.7005C169.829 50.4968 169.604 50.3285 169.36 50.19C168.143 49.514 167.251 48.5162 166.775 47.2051C166.302 45.9299 166.231 44.5356 166.571 43.2168C167.105 41.1301 168.411 39.6674 170.257 38.6994C171.544 38.0087 172.963 37.6133 174.415 37.5408C175.03 37.5129 175.648 37.3734 176.257 37.4134C177.467 37.4934 178.667 37.6496 179.85 37.9862C181.582 38.48 183.013 39.408 184.059 40.8819C184.455 41.4398 184.659 42.1465 184.924 42.7965C185.306 43.7264 185.183 44.7074 185.143 45.6735C185.109 46.4974 184.806 47.2432 184.416 47.9601C183.83 49.0472 182.905 49.7529 181.889 50.3657C181.792 50.4243 181.736 50.5517 181.66 50.6493C181.743 50.7178 181.83 50.78 181.921 50.8353C183.401 51.6108 184.76 52.5156 185.382 54.208C185.537 54.6311 185.667 55.0635 185.821 55.4866C185.845 55.5545 185.934 55.5982 185.993 55.653L185.996 58.3432ZM175.954 60.9636C175.962 61.0092 175.97 61.0566 175.979 61.0984C176.94 60.905 177.916 60.7683 178.857 60.5015C179.65 60.2764 180.29 59.7575 180.834 59.1066C181.517 58.279 181.498 57.3166 181.488 56.3319C181.472 54.911 180.701 53.9532 179.601 53.2809C178.531 52.63 177.298 52.444 176.066 52.4152C174.848 52.3845 173.641 52.5277 172.513 53.0447C171.722 53.4083 171.053 53.9104 170.605 54.7139C170.141 55.5368 170.12 56.4053 170.179 57.2961C170.27 58.6026 171.013 59.4665 172.064 60.0914C173.263 60.799 174.586 60.9952 175.954 60.9636ZM175.824 41.0167C175.068 41.1292 174.298 41.1887 173.557 41.3691C172.868 41.5374 172.218 41.8573 171.725 42.4152C170.907 43.3451 170.629 44.4303 170.816 45.6698C170.907 46.3653 171.206 47.0149 171.672 47.5296C172.751 48.7236 174.208 48.8919 175.648 49.0174C176.339 49.0769 177.062 48.9467 177.749 48.8017C178.49 48.6585 179.181 48.3215 179.757 47.8234C180.678 47.0089 180.888 45.9637 180.848 44.7799C180.808 43.5962 180.302 42.6821 179.387 42.0191C178.323 41.252 177.105 41.0558 175.824 41.0167Z" fill="black"/>
<path d="M26.5999 34.2798C27.2044 34.2798 27.8261 34.1869 28.4106 34.3003C29.4105 34.4919 30.3985 34.7987 31.3856 35.0768C32.5091 35.392 33.4653 36.0503 34.4179 36.7003C34.8694 37.0165 35.2994 37.3635 35.705 37.739C36.1122 38.111 36.2322 38.137 36.6249 37.7325C37.4911 36.8417 38.321 35.9137 39.2054 35.0433C40.6107 33.6587 42.0423 32.302 43.4775 30.9453C44.2756 30.1884 45.0455 29.3849 45.9172 28.7257C47.7351 27.3541 49.7767 26.7311 52.0554 27.1086C52.3836 27.1635 52.7172 27.1811 53.048 27.2155C54.1697 27.3318 55.2632 27.5549 56.2921 28.0478C57.0983 28.4337 57.9919 28.6931 58.6981 29.2185C60.3079 30.4162 61.9222 31.6464 63.0448 33.3779C63.6292 34.2789 64.2264 35.193 64.6464 36.1768C65.01 37.0295 65.1336 37.9919 65.3781 38.9023C65.7417 40.2543 65.6508 41.6315 65.5472 42.9938C65.4299 44.489 64.95 45.8885 64.3782 47.2768C63.6629 49.0148 62.4694 50.364 61.2368 51.6807C60.0643 52.9305 58.7936 54.0845 57.5883 55.3026C56.5212 56.3822 55.4913 57.499 54.4315 58.5851C53.5461 59.4927 52.6381 60.3761 51.7473 61.2771C50.5838 62.455 49.4237 63.6359 48.2669 64.82C46.5398 66.5756 44.7828 68.2987 43.1021 70.0971C42.1549 71.1028 41.0034 71.8837 39.729 72.3846C38.211 72.9955 36.6058 73.2819 34.9624 73.0522C34.4408 72.9814 33.9308 72.8391 33.4462 72.6291C32.4273 72.1763 31.3847 71.7402 30.4467 71.1413C29.7131 70.6689 29.1123 69.9715 28.4797 69.3457C27.6234 68.4967 26.7954 67.618 25.95 66.7579C24.4624 65.2452 22.972 63.7345 21.4789 62.2256C20.0609 60.7852 18.6302 59.356 17.234 57.8933C15.9124 56.5078 14.7353 55.0255 14.0654 53.162C13.7018 52.1513 13.4473 51.1265 13.1964 50.0869C12.8846 48.7981 13.0273 47.5074 13.0682 46.2261C13.0919 45.4728 13.3864 44.7141 13.6418 43.9888C13.969 43.0589 14.3153 42.129 14.7671 41.2633C15.5467 39.7476 16.6357 38.4211 17.9603 37.3736C18.7074 36.785 19.4637 36.187 20.2872 35.7277C21.4252 35.0944 22.6341 34.6025 23.9512 34.4668C24.8329 34.3738 25.711 34.2482 26.5872 34.1376L26.5999 34.2798ZM55.9122 41.6492C55.8213 41.1889 55.7458 40.7258 55.6395 40.2683C55.4168 39.2798 54.8141 38.5555 54.0197 38.0022C53.4125 37.58 52.7471 37.2862 51.9809 37.315C51.3446 37.3392 50.6438 37.2164 50.0721 37.4368C49.4013 37.6972 48.785 38.1937 48.246 38.7005C47.2988 39.5895 46.428 40.5603 45.5264 41.505C44.7083 42.367 43.8957 43.2411 43.0722 44.1087C42.4004 44.8154 41.7178 45.5119 41.0443 46.2168C40.4207 46.8677 39.8017 47.5251 39.1809 48.1807C38.3883 49.0176 37.6029 49.8619 36.793 50.6802C36.7103 50.7639 36.4186 50.7667 36.3286 50.6858C35.9177 50.3138 35.5423 49.9037 35.156 49.5057C33.578 47.8679 31.9971 46.2313 30.413 44.596C29.515 43.6661 28.4251 43.137 27.1544 43.1584C26.5581 43.1686 25.9473 43.3732 25.3756 43.5805C24.5444 43.8909 23.8542 44.5037 23.4368 45.3017C22.8623 46.359 22.5278 47.4851 22.9414 48.7293C23.1368 49.3226 23.2968 49.9214 23.7258 50.3808C24.5057 51.2177 25.3092 52.0276 26.0991 52.8524C27.5601 54.3768 29.0193 55.9027 30.4767 57.4302C31.3111 58.3043 32.1555 59.1691 32.9709 60.0608C33.7862 60.9526 34.7697 61.637 35.9577 61.823C37.4184 62.0592 38.7382 61.5821 39.7672 60.5211C42.1014 58.1174 44.3783 55.6541 46.6835 53.2216C48.0896 51.7337 49.5085 50.2673 50.9156 48.7851C52.0672 47.5762 53.1962 46.3367 54.3624 45.139C55.3095 44.1729 55.9258 43.0803 55.9122 41.6492Z" fill="black"/>
<path d="M136.964 46.7624C140.492 42.6411 146.769 43.5124 148.69 47.7592C149.027 47.3473 149.326 46.9558 149.654 46.5876C150.576 45.5461 151.69 44.845 153.01 44.3986C154.374 43.9337 155.718 43.9839 157.072 44.2368C159.016 44.5995 160.57 45.6456 161.507 47.431C162.22 48.7877 162.507 50.2913 162.49 51.8572C162.459 55.3359 162.47 58.8155 162.49 62.2951C162.494 63.185 162.181 63.8118 161.371 64.1902C160.487 64.604 158.877 64.2665 158.45 63.4714C158.246 63.0642 158.139 62.6133 158.138 62.1557C158.109 58.6612 158.147 55.1667 158.096 51.6722C158.077 50.3527 157.568 49.1745 156.376 48.5208C155.464 47.9975 154.39 47.8514 153.376 48.1126C152.092 48.4362 151.089 49.1289 150.276 50.1583C149.906 50.6233 149.661 51.1152 149.667 51.7717C149.696 55.3127 149.667 58.8536 149.685 62.3946C149.685 63.2604 149.388 63.9206 148.578 64.1689C147.785 64.4116 146.925 64.472 146.182 64.0108C145.565 63.6277 145.341 62.9609 145.341 62.2273C145.341 58.8871 145.341 55.5473 145.341 52.2078C145.341 51.1059 145.079 50.0616 144.419 49.2154C144.073 48.7709 143.491 48.4334 142.949 48.2502C140.56 47.4421 138.383 48.7244 137.187 50.6828C137.024 50.9496 136.971 51.3244 136.97 51.6498C136.955 55.1601 136.96 58.6695 136.963 62.1798C136.963 62.7554 136.94 63.3096 136.496 63.7513C136.175 64.0712 135.832 64.3093 135.364 64.2888C134.854 64.2656 134.317 64.3381 133.842 64.1958C132.913 63.9169 132.62 63.0948 132.616 62.2105C132.593 58.0818 132.607 53.9532 132.607 49.8245C132.607 48.3711 132.636 46.9167 132.587 45.4652C132.567 44.8784 133 44.5251 133.523 44.4553C134.033 44.3842 134.551 44.3842 135.062 44.4553C135.717 44.5483 136.172 45.0077 136.48 45.5889C136.663 45.9329 136.783 46.317 136.964 46.7624Z" fill="black"/>
<path d="M96.524 46.9183C96.7203 46.7798 96.8212 46.7323 96.8876 46.6561C97.6947 45.7169 98.6355 44.947 99.7962 44.5378C100.904 44.1463 102.05 43.8534 103.242 44.0794C104.001 44.2235 104.758 44.3853 105.501 44.5964C106.645 44.9209 107.513 45.6723 108.251 46.5919C108.965 47.4802 109.463 48.528 109.706 49.6503C110.058 51.2144 110.095 52.7952 110.094 54.3843C110.094 56.8894 110.115 59.3945 110.075 61.8987C110.066 62.4436 109.893 63.0146 109.686 63.5186C109.479 64.0226 108.959 64.2625 108.433 64.2625C107.857 64.2625 107.26 64.243 106.712 64.0858C106.108 63.9128 105.784 63.3875 105.777 62.7393C105.757 60.4667 105.76 58.1931 105.754 55.9205C105.754 55.1766 105.804 54.4327 105.739 53.6953C105.648 52.6445 105.588 51.564 105.292 50.5662C104.921 49.3202 104.027 48.5205 102.739 48.156C101.42 47.784 100.206 48.0342 99.0373 48.6209C98.5257 48.8673 98.0727 49.2246 97.7095 49.6679C97.3463 50.1112 97.0817 50.63 96.9339 51.1883C96.7006 52.0406 96.5721 52.9193 96.5513 53.8041C96.5022 56.617 96.5176 59.4317 96.534 62.2456C96.534 63.1438 96.2458 63.8078 95.4187 64.1983C94.4997 64.6307 92.9245 64.2309 92.4927 63.381C92.3045 63.0138 92.2015 62.6071 92.1919 62.1926C92.1755 53.9659 92.1828 45.7401 92.1719 37.5144C92.1719 36.9937 92.4109 36.6385 92.8336 36.5418C93.7426 36.3335 94.6897 36.22 95.4869 36.9211C96.1104 37.4679 96.4704 38.1867 96.4867 39.0171C96.524 41.4292 96.5167 43.8413 96.5267 46.2534C96.5249 46.4218 96.524 46.5901 96.524 46.9183Z" fill="black"/>
<path d="M118.7 52.4484C119.071 52.043 119.446 51.6413 119.812 51.2321C120.806 50.1228 121.804 49.0171 122.788 47.8985C123.458 47.136 124.115 46.3611 124.758 45.5738C125.549 44.6067 126.549 44.179 127.747 44.4496C128.489 44.6141 129.031 45.146 129.279 45.8909C129.333 46.0573 129.171 46.3558 129.027 46.5251C127.981 47.7404 126.917 48.9427 125.852 50.1376C125.01 51.0833 124.141 52.0039 123.316 52.9636C122.593 53.8005 122.611 53.8256 123.36 54.655C125.227 56.7231 127.095 58.7896 128.964 60.8545C129.322 61.2507 129.691 61.6403 130.044 62.0364C130.447 62.4837 130.434 62.6994 130.081 63.2034C129.076 64.6429 127.134 64.6819 125.935 63.3643C124.523 61.8123 123.125 60.2473 121.713 58.6944C120.781 57.6669 119.836 56.6487 118.896 55.6258C118.792 55.5363 118.682 55.4546 118.567 55.3813C118.545 55.6295 118.517 55.7997 118.517 55.9689C118.511 58.0723 118.517 60.1757 118.508 62.2791C118.503 63.4619 117.719 64.3918 116.554 64.2756C116.082 64.2282 115.595 64.217 115.149 64.0784C114.576 63.9008 114.307 63.4024 114.231 62.8129C114.206 62.5511 114.198 62.2881 114.206 62.0253C114.206 53.8745 114.203 45.7226 114.195 37.5694C114.195 36.8515 114.162 36.6571 115.195 36.4191C116.028 36.2275 116.776 36.3568 117.413 36.9129C117.896 37.3203 118.223 37.8885 118.337 38.5178C118.722 40.5887 118.46 42.6735 118.506 44.748C118.557 47.0979 118.515 49.4495 118.518 51.8003C118.518 51.9928 118.547 52.1862 118.563 52.3787L118.7 52.4484Z" fill="black"/>
<path d="M70.8991 54.3322C70.8859 53.1411 71.0704 51.9564 71.4445 50.8284C72.0971 48.8599 73.2206 47.2242 74.8804 45.993C75.8102 45.3021 76.8273 44.7554 77.9299 44.4699C79.6197 44.031 81.3567 43.8952 83.0801 44.2467C84.6253 44.5619 86.1015 45.1069 87.3259 46.192C88.1103 46.8866 88.7375 47.7161 89.1047 48.7027C89.5864 49.9943 88.9383 51.1371 87.5967 51.5175C87.454 51.5584 87.324 51.6476 87.1795 51.6802C86.8059 51.7648 86.5214 51.6216 86.3614 51.2664C86.0297 50.5123 85.6034 49.8316 84.998 49.2662C84.2075 48.5093 83.1888 48.0502 82.1093 47.9644C81.5504 47.9278 80.99 47.9219 80.4305 47.9467C78.8616 47.9774 77.6281 48.7148 76.6047 49.8771C75.8652 50.7207 75.395 51.775 75.2567 52.8993C75.1712 53.5195 75.0558 54.1518 75.0958 54.7702C75.2394 56.974 76.0956 58.8328 77.9608 60.0426C78.6249 60.4593 79.369 60.7247 80.1423 60.8209C80.9731 60.9372 81.7676 60.8163 82.5547 60.7224C83.1764 60.648 83.7955 60.3142 84.3554 59.9868C85.3125 59.4289 85.8915 58.5148 86.3833 57.5254C86.4942 57.3023 86.8477 57.0447 87.0659 57.0605C87.7931 57.1284 88.4548 57.4324 88.8956 58.0573C89.3628 58.7185 89.3001 59.4866 89.0283 60.1737C88.3639 61.8587 87.0759 62.9178 85.4907 63.6673C83.3837 64.6632 81.1676 64.8808 78.9325 64.4633C75.8275 63.883 73.456 62.1572 72.0544 59.2169C71.6563 58.38 71.4018 57.4631 71.1836 56.5565C71.0064 55.8377 70.9873 55.0761 70.8991 54.3322Z" fill="black"/>
</g>
<defs>
<clipPath id="clip0_9896_7930">
<rect width="173" height="46.1333" fill="white" transform="translate(13 27)"/>
</clipPath>
</defs>
</svg>
