<?xml version="1.0" encoding="utf-8"?>
<!-- Generator: Adobe Illustrator 26.0.1, SVG Export Plug-In . SVG Version: 6.00 Build 0)  -->
<svg version="1.1" id="Layer_1" xmlns="http://www.w3.org/2000/svg" xmlns:xlink="http://www.w3.org/1999/xlink" x="0px" y="0px"
	 viewBox="0 0 198 100" style="enable-background:new 0 0 198 100;" xml:space="preserve">
<style type="text/css">
	.st0{fill:#FFFFFF;}
</style>
<g>
	<path d="M27.2,64.8c-2.1-1-4-2.3-5.7-3.8c-4.6-4.2-7.2-9.5-8.1-15.6c-0.2-1.7-0.3-3.5-0.4-5.2c0-0.5,0.2-0.8,0.6-1.1
		c3.5-2.3,7.3-3.6,11.5-3.9c5.5-0.4,10.7,0.7,15.4,3.6c0.1,0.1,0.2,0.1,0.4,0.3c-1.1-0.3-2.1-0.7-3.1-0.9c-4.7-1-9.4-0.6-14,0.7
		c-2.1,0.6-4.1,1.4-6,2.5c-0.5,0.3-0.6,0.5-0.6,1.1c0.7,8.6,3.6,16.2,9.9,22.3C27.2,64.8,27.2,64.8,27.2,64.8z"/>
	<path d="M29.4,63.4c-2.8-2.6-4.8-5.7-6.2-9.3c-1.1-3-1.8-6.1-2.1-9.3c-0.1-0.6,0.1-0.9,0.6-1.2c5.9-3.4,12.1-4.5,18.8-3.2
		c0.2,0,0.3,0.1,0.7,0.2c-0.8,0.1-1.5,0.2-2.1,0.3c-0.7,0.1-1.3,0.2-2,0.4c-3.8,1-7.5,2.4-10.7,4.7c-0.6,0.5-0.8,0.9-0.8,1.7
		c0.3,5.3,1.5,10.4,3.7,15.2C29.3,63.2,29.3,63.3,29.4,63.4z"/>
	<path d="M41.2,42.8c-0.1,6.7-3.3,14.5-9.3,19.1c-0.2-0.6-0.5-1.2-0.7-1.8c0-0.1,0-0.4,0.1-0.5c3.4-4.6,5.2-9.7,5.7-15.4
		c0-0.4,0.2-0.7,0.6-0.7C38.8,43.3,40,43,41.2,42.8z"/>
	<path d="M93.7,41.1c2.8,0,5.6,0,8.4,0c0,0.5,0,1,0,1.6c-2.1,0-4.2,0-6.4,0c0,0.7,0,1.2,0,1.9c2,0,4,0,6.1,0c0,0.5,0,1,0,1.5
		c-2,0-4,0-6.1,0c0,0.7,0,1.3,0,2.1c2.2,0,4.3,0,6.5,0c0,0.6,0,1,0,1.6c-2.8,0-5.6,0-8.5,0C93.7,46.9,93.7,44.1,93.7,41.1z"/>
	<path d="M82,41.1c0.6,0,1.2,0,1.9,0c0,1.1,0,2.2,0,3.3c2,0,3.8,0,5.8,0c0-1.1,0-2.1,0-3.2c0.7,0,1.3,0,1.9,0c0,2.9,0,5.8,0,8.6
		c-0.6,0-1.2,0-1.9,0c0-1.2,0-2.4,0-3.6c-1,0-1.9,0-2.8,0c-0.8,0-1.7,0-2.5,0c-0.4,0-0.6,0.1-0.6,0.6c0,1,0,2,0,3
		c-0.7,0-1.3,0-1.9,0C82,46.9,82,44.1,82,41.1z"/>
	<path d="M132.6,41.1c0.6,0,1.2,0,1.9,0c0,1.1,0,2.2,0,3.3c2,0,3.9,0,5.9,0c0-1.1,0-2.2,0-3.3c0.7,0,1.3,0,1.9,0c0,2.9,0,5.7,0,8.6
		c-0.6,0-1.2,0-1.9,0c0-1.2,0-2.3,0-3.5c-2,0-3.9,0-5.9,0c0,1.2,0,2.3,0,3.5c-0.7,0-1.3,0-1.9,0C132.6,46.9,132.6,44.1,132.6,41.1z"
		/>
	<path d="M114,49.8c-0.7,0-1.3,0-1.8,0c-0.2,0-0.5-0.3-0.5-0.5c-0.3-1-1-1.3-2-1.2c-1.2,0.1-2.3,0-3.5,0c-0.4,0-0.7,0.1-0.8,0.5
		c-0.3,1.2-1.1,1.5-2.2,1.3c-0.1,0-0.2,0-0.3,0c0,0-0.1,0-0.2-0.1c0.1-0.2,0.1-0.3,0.2-0.5c1.3-2.5,2.6-5.1,3.9-7.6
		c0.2-0.4,0.5-0.5,1-0.6c1.3-0.2,2,0.3,2.5,1.5c1,2.3,2.3,4.4,3.4,6.6C113.8,49.4,113.9,49.6,114,49.8z M108.3,42.7
		c-0.7,1.3-1.3,2.5-1.9,3.8c1.3,0,2.5,0,3.8,0C109.6,45.3,109,44.1,108.3,42.7z"/>
	<path d="M174.8,45.9c1.2,0.6,1.3,1.1,1.2,3.9c-0.2,0-0.4,0-0.6,0c-0.2,0-0.3,0-0.6,0c0-0.7,0-1.3,0-1.9c0-0.9-0.3-1.3-1.2-1.4
		c-1.8-0.1-3.6,0-5.4,0c0,1.1,0,2.2,0,3.3c-0.4,0-0.7,0-1.1,0c0-2.9,0-5.7,0-8.6c0,0,0.1-0.1,0.1-0.1c2.2,0,4.5-0.1,6.7,0
		c1.5,0,2.1,0.7,2.2,2.2c0,0.2,0,0.4,0,0.5C176.1,44.8,176,45.6,174.8,45.9z M168.3,45.4c1.8,0,3.6,0.1,5.4,0c1,0,1.3-0.5,1.3-1.6
		c0-1.1-0.3-1.5-1.4-1.5c-1.7-0.1-3.3,0-5-0.1c-0.1,0-0.2,0-0.3,0.1C168.3,43.3,168.3,44.3,168.3,45.4z"/>
	<path d="M80.1,48.8c0,0.4,0,0.7,0,1c-2.6,0-5.2,0-7.8,0c0-2.8,0-5.7,0-8.6c2.6,0,5.2,0,7.8,0c0,0.3,0,0.6,0,0.9c-2.2,0-4.4,0-6.6,0
		c0,0.9,0,1.8,0,2.7c2.1,0,4.2,0,6.3,0c0,0.3,0,0.6,0,1c-2.1,0-4.2,0-6.3,0c0,1,0,2,0,3C75.7,48.8,77.9,48.8,80.1,48.8z"/>
	<path d="M185.6,44.8c0,0.4,0,0.6,0,1c-2.1,0-4.2,0-6.3,0c0,1,0,2,0,3c2.2,0,4.4,0,6.6,0c0,0.4,0,0.7,0,1c-2.6,0-5.2,0-7.9,0
		c0-2.9,0-5.7,0-8.6c2.6,0,5.2,0,7.8,0c0,0.3,0,0.6,0,0.9c-2.2,0-4.4,0-6.6,0c0,0.9,0,1.8,0,2.7C181.4,44.8,183.5,44.8,185.6,44.8z"
		/>
	<path d="M154.5,43.9c-0.4,0-0.7,0-1,0c0-0.2-0.1-0.3-0.1-0.5c-0.1-0.9-0.4-1.3-1.3-1.3c-1.5-0.1-3,0-4.5,0.1
		c-0.8,0-1.3,0.5-1.3,1.3c-0.1,1.3-0.1,2.6,0,3.9c0,0.7,0.5,1.3,1.3,1.3c1.6,0.1,3.2,0,4.9,0c0.6,0,0.9-0.4,1-1
		c0-0.3,0.1-0.6,0.1-0.9c0.3,0,0.7,0,1,0c0.4,1.3-0.2,2.6-1.5,2.9c-2,0.4-4,0.4-6,0c-1.1-0.2-1.9-0.9-1.9-2.1
		c-0.1-1.5-0.1-3.1,0-4.6c0.1-1.1,0.9-1.9,2.1-1.9c1.7-0.1,3.5-0.2,5.3,0C154.1,41.3,154.7,42.2,154.5,43.9z"/>
	<path d="M127.8,42.7c0,2.4,0,4.7,0,7.1c-0.7,0-1.3,0-1.9,0c0-2.3,0-4.6,0-7c-1.3,0-2.5,0-3.7,0c0-0.6,0-1.1,0-1.6
		c3.1,0,6.2,0,9.3,0c0,0.5,0,1,0,1.6C130.3,42.7,129.1,42.7,127.8,42.7z"/>
	<path d="M115.1,41.1c0.7,0,1.2,0,1.9,0c0,2.3,0,4.6,0,7c2,0,3.8,0,5.8,0c0,0.6,0,1.1,0,1.7c-2.5,0-5.1,0-7.7,0
		C115.1,46.9,115.1,44.1,115.1,41.1z"/>
	<path d="M165.9,49.8c-0.9,0.3-1.5-0.1-1.7-0.9c-0.3-0.8-0.8-1.1-1.6-1c-1.5,0.1-2.9,0-4.4,0c-0.4,0-0.7,0.1-0.9,0.5
		c-0.1,0.2-0.2,0.4-0.3,0.5c-0.5,0.9-0.5,0.9-1.7,0.9c0.1-0.2,0.1-0.4,0.2-0.5c1.4-2.6,2.7-5.1,4.1-7.7c0.2-0.4,0.4-0.5,0.8-0.5
		c0.4,0.1,0.8-0.1,1.1,0.4c1.4,2.7,2.9,5.4,4.4,8.1C165.9,49.7,165.9,49.7,165.9,49.8z M163.1,46.9c-0.9-1.6-1.7-3.2-2.5-4.8
		c-0.9,1.6-1.7,3.1-2.5,4.7c0.3,0,0.6,0,0.8,0C160.2,46.9,161.6,46.9,163.1,46.9z"/>
	<path d="M62.1,49.8c-0.4,0-0.7,0-1.1,0c0-2.9,0-5.7,0-8.7c0.3,0,0.7,0,1.1,0c0,1.2,0,2.4,0,3.6c2.4,0,4.6,0,6.9,0
		c0-1.2,0-2.4,0-3.6c0.4,0,0.7,0,1.1,0c0,2.9,0,5.7,0,8.6c-0.4,0-0.7,0-1.1,0c0-1.3,0-2.6,0-4c-2.3,0-4.6,0-7,0
		C62.1,47.1,62.1,48.5,62.1,49.8z"/>
	<path d="M55.7,42.1c0,2.6,0,5.1,0,7.7c-0.4,0-0.7,0-1.1,0c0-2.5,0-5.1,0-7.7c-1.3,0-2.6,0-3.9,0c0-0.3,0-0.6,0-0.9c3,0,6,0,9,0
		c0,0.3,0,0.6,0,0.9C58.3,42.1,57.1,42.1,55.7,42.1z"/>
	<path d="M50.7,56.5c9.3,0,18.5,0,27.8,0c0,0.1,0.1,0.1,0.1,0.2c-0.2,0.1-0.3,0.2-0.5,0.2c-0.5,0-0.9,0-1.4,0c-8.5,0-17,0-25.5,0
		c-0.2,0-0.4-0.1-0.6-0.2C50.7,56.6,50.7,56.5,50.7,56.5z"/>
	<path d="M97.1,59c-0.2,0-0.2,0-0.2,0c-2.6,0-2.9-0.7-2.7-3.1c0.1-0.8,0.5-1.2,1.2-1.3c1-0.1,2-0.1,3,0c0.8,0.1,1.1,0.5,1.2,1.3
		c0.1,0.5,0.1,1,0,1.4c-0.1,1.1-0.5,1.5-1.7,1.6C97.6,59,97.2,59,97.1,59z M96.9,58.1C96.9,58.1,96.9,58.1,96.9,58.1
		c0.2,0,0.4,0,0.6,0c0.4-0.1,1-0.1,1-0.6c0.1-0.6,0-1.3-0.2-1.8c-0.2-0.5-2.5-0.4-2.9,0c-0.1,0.1-0.1,0.1-0.2,0.2
		c-0.6,1.2,0,2.2,1.3,2.3C96.7,58.2,96.8,58.1,96.9,58.1z"/>
	<path d="M139.6,59c-0.1,0-0.1,0-0.2,0c-2.3,0-3.2-1.3-2.4-3.5c0.2-0.5,0.6-0.9,1.1-0.9c1,0,2.1,0,3.1,0c0.2,0,0.4,0.1,0.5,0.2
		c0.9,0.9,0.7,1.9,0.5,3c-0.1,0.8-0.6,1.1-1.5,1.2C140.3,59,140,59,139.6,59C139.6,59,139.6,59,139.6,59z M139.6,55.4
		C139.6,55.4,139.6,55.4,139.6,55.4c-0.3,0-0.6-0.1-0.9,0.1c-0.3,0.1-0.7,0.4-0.7,0.6c-0.1,0.4-0.1,1,0,1.4c0.2,0.7,0.8,0.7,1.4,0.7
		c0.7,0,1.5,0.2,1.9-0.6c0.6-1.3,0-2.2-1.4-2.2C139.7,55.4,139.7,55.4,139.6,55.4z"/>
	<path d="M152.2,58.9c-0.9,0.3-1.5,0-2-0.7c-0.6-0.8-1.3-1.6-2.1-2.5c0,1.2,0,2.2,0,3.3c-0.4,0-0.6,0-1,0c0-1.4,0-2.8,0-4.3
		c0.8-0.2,1.5-0.1,2.1,0.7c0.6,0.8,1.3,1.6,2.1,2.5c0-1.1,0-2.1,0-3.2c0.4,0,0.7,0,1,0C152.2,56,152.2,57.5,152.2,58.9z"/>
	<path d="M84.8,57.6c0.4,0.1,0.9-0.2,1.1,0.4c0.1,0.1,0.4,0.2,0.6,0.2c0.5,0,1,0.1,1.4,0c0.3,0,0.5-0.3,0.7-0.5
		c-0.2-0.2-0.4-0.4-0.7-0.5c-0.7-0.1-1.5-0.1-2.2-0.2c-0.7-0.1-1-0.5-1-1.3c0-0.6,0.3-1.1,0.9-1.1c1-0.1,1.9-0.1,2.9,0
		c0.6,0,1,0.5,0.9,1.2c-0.4,0.1-0.8-0.1-1.2-0.2c-0.7-0.3-1.6-0.1-2.4-0.1c-0.1,0-0.2,0.3-0.2,0.4c0,0.1,0.2,0.3,0.3,0.3
		c0.4,0.1,0.7,0.1,1.1,0.1c0.4,0,0.9,0,1.3,0.1c0.8,0.1,1.1,0.5,1.1,1.3c0,0.8-0.3,1.2-1,1.3c-0.9,0.1-1.8,0.1-2.8,0
		C85,58.9,84.7,58.4,84.8,57.6z"/>
	<path d="M158.3,56.4c0.2,0,0.5,0,0.7,0c8.8,0,17.6,0,26.3,0c0.2,0,0.3,0,0.5,0c0.1,0,0.2,0.1,0.2,0.2c0,0.1-0.1,0.2-0.2,0.2
		c-0.1,0-0.3,0-0.5,0c-8.8,0-17.7,0-26.5,0c-0.2,0-0.4-0.1-0.6-0.2C158.2,56.6,158.3,56.5,158.3,56.4z"/>
	<path d="M112.6,54.6c0.4,0,0.6,0,1,0c0,0.8,0,1.6,0,2.4c0,0.9,0.2,1.2,1.2,1.2c1.7,0.1,1.8-0.1,1.8-1.7c0-0.6,0-1.2,0-1.8
		c0.3,0,0.6,0,1.1-0.1c-0.1,1.2-0.1,2.3-0.2,3.5c-0.1,0.6-0.6,0.9-1.2,0.9c-0.8,0.1-1.7,0.1-2.5,0c-0.8-0.1-1.3-0.6-1.3-1.4
		C112.6,56.6,112.6,55.6,112.6,54.6z"/>
	<path d="M123.8,58.9c0-1.2,0-2.3,0-3.5c-0.6,0-1.2,0-1.8,0c0-0.3,0-0.5,0-0.8c1.6,0,3.1,0,4.7,0c0,0.3,0,0.5,0,0.8
		c-0.6,0-1.2,0-1.8,0c0,1.2,0,2.3,0,3.5C124.5,58.9,124.2,58.9,123.8,58.9z"/>
	<path d="M104.3,54.6c0.3,0,0.6,0,1,0c0,1.1,0,2.3,0,3.5c1,0,2,0,3,0c0,0.3,0,0.6,0,0.9c-1.3,0-2.6,0-4,0
		C104.3,57.5,104.3,56.1,104.3,54.6z"/>
	<path d="M132.2,58.9c-0.4,0-0.7,0-1,0c0-1.4,0-2.9,0-4.3c0.3,0,0.6,0,1,0C132.2,56,132.2,57.5,132.2,58.9z"/>
	<path class="st0" d="M108.3,42.7c0.7,1.3,1.3,2.5,1.9,3.8c-1.3,0-2.5,0-3.8,0C107,45.3,107.7,44.1,108.3,42.7z"/>
	<path class="st0" d="M168.3,45.4c0-1.1,0-2.1,0-3.2c0.1,0,0.2-0.1,0.3-0.1c1.7,0,3.3,0,5,0.1c1,0,1.3,0.4,1.4,1.5
		c0,1.1-0.3,1.6-1.3,1.6C171.9,45.4,170.1,45.4,168.3,45.4z"/>
	<path class="st0" d="M163.1,46.9c-1.5,0-2.9,0-4.3,0c-0.2,0-0.5,0-0.8,0c0.8-1.6,1.6-3.1,2.5-4.7C161.4,43.7,162.2,45.3,163.1,46.9
		z"/>
	<path class="st0" d="M96.9,58.1c-0.1,0-0.2,0-0.3,0c-1.3,0-1.9-1.1-1.3-2.3c0-0.1,0.1-0.2,0.2-0.2c0.4-0.4,2.7-0.4,2.9,0
		c0.2,0.5,0.2,1.2,0.2,1.8c0,0.5-0.6,0.6-1,0.6C97.3,58.2,97.1,58.1,96.9,58.1C96.9,58.1,96.9,58.1,96.9,58.1z"/>
	<path class="st0" d="M139.6,55.4c0.1,0,0.1,0,0.2,0c1.4,0,2,0.9,1.4,2.2c-0.4,0.8-1.2,0.6-1.9,0.6c-0.6,0-1.2,0-1.4-0.7
		c-0.1-0.5-0.1-1,0-1.4c0.1-0.3,0.4-0.5,0.7-0.6C139,55.3,139.3,55.4,139.6,55.4C139.6,55.4,139.6,55.4,139.6,55.4z"/>
</g>
</svg>
