<?xml version="1.0" encoding="utf-8"?>
<!-- Generator: Adobe Illustrator 26.0.1, SVG Export Plug-In . SVG Version: 6.00 Build 0)  -->
<svg version="1.1" id="Layer_1" xmlns="http://www.w3.org/2000/svg" xmlns:xlink="http://www.w3.org/1999/xlink" x="0px" y="0px"
	 viewBox="0 0 198 100" style="enable-background:new 0 0 198 100;" xml:space="preserve">
<g>
	<path d="M76.2,65.6c-0.1,0-0.1,0-0.2,0c0,0-0.1,0-0.1,0.1c0,0,0,0.1,0,0.1c0,0.1,0,0.1,0.1,0.2c0.1,0,0.1,0.1,0.2,0.1
		c0.1,0,0.2,0,0.3,0c0.1,0,0.2,0.1,0.2,0.1c0,0.1,0.1,0.2,0.1,0.3c0,0.2,0,0.9,0,2.2v1.8c0,1.2,0,1.9,0,2.2l0.2,0l-0.2,0l0,0
		c0,0.2-0.1,0.3-0.1,0.3c0,0.1-0.1,0.1-0.1,0.1c-0.1,0-0.2,0-0.3,0c0,0-0.1,0-0.2,0c-0.1,0-0.1,0.1-0.1,0.2c0,0,0,0.1,0,0.1
		c0,0,0.1,0.1,0.1,0.1c0.1,0,0.1,0,0.2,0c0.1,0,0.3,0,0.6,0v0c0.1,0,0.2,0,0.3,0c0,0,0.1,0,0.1,0c0,0,0,0,0,0c0,0,0,0,0,0
		c0,0,0,0,0.1,0c0.1,0,0.2,0,0.3,0v0c0.3,0,0.6,0,0.8,0c0.1,0,0.1,0,0.2,0c0,0,0.1,0,0.1-0.1c0,0,0-0.1,0-0.1c0-0.1,0-0.1-0.1-0.2
		c-0.1,0-0.1-0.1-0.2-0.1c-0.1,0-0.2,0-0.4,0c-0.1,0-0.1,0-0.1-0.1c0-0.1-0.1-0.2-0.1-0.3c0-0.3,0-1,0-2.2v-4.2c0,0,0,0,0,0
		c0.1,0,0.2,0,0.3,0c0.6,0,1,0.2,1.3,0.5l0,0c0.3,0.3,0.5,0.8,0.5,1.4c0,0.4-0.1,0.8-0.5,1.1c-0.3,0.3-0.7,0.4-1.1,0.4
		c-0.1,0-0.2,0-0.3,0c-0.1,0-0.2,0.1-0.2,0.2c0,0.1,0,0.2,0.1,0.2c0.1,0,0.1,0,0.2,0l0,0c0,0,0,0,0,0c0,0,0,0,0,0v0
		c0.1,0,0.1,0,0.2,0c0.8,0,1.4-0.2,1.9-0.7l0,0c0,0,0,0,0,0c0,0,0,0,0,0l0,0c0.5-0.5,0.8-1.1,0.8-1.9c0-0.5-0.2-1-0.6-1.4l0,0
		c0,0,0,0,0,0s0,0,0,0l0,0c-0.5-0.4-1.2-0.6-2-0.6c-0.2,0-0.4,0-0.7,0v0c-0.3,0-0.5,0-0.5,0c0,0,0,0,0,0c0,0,0,0-0.1,0
		c-0.1,0-0.2,0-0.3,0v0C76.6,65.6,76.4,65.6,76.2,65.6z M77.5,73.5C77.5,73.5,77.5,73.5,77.5,73.5c0,0,0,0.1,0,0.1
		C77.5,73.6,77.5,73.6,77.5,73.5z M77.5,73.7L77.5,73.7C77.5,73.7,77.5,73.7,77.5,73.7C77.5,73.7,77.5,73.7,77.5,73.7z M77.3,65.7
		C77.3,65.7,77.3,65.7,77.3,65.7C77.3,65.7,77.4,65.7,77.3,65.7C77.4,65.7,77.4,65.7,77.3,65.7c0.1,0,0.1,0,0.1,0c0,0,0,0,0,0
		C77.3,65.7,77.3,65.7,77.3,65.7C77.3,65.7,77.3,65.7,77.3,65.7z M77.2,73.7C77.2,73.6,77.2,73.6,77.2,73.7
		C77.2,73.6,77.2,73.6,77.2,73.7C77.2,73.6,77.2,73.6,77.2,73.7z"/>
	<path d="M87.7,73.7c0,0,0.1,0,0.1-0.1c0,0,0.1-0.1,0.1-0.2c0-0.1,0-0.2-0.1-0.2c-0.1,0-0.1,0-0.2,0c-0.1,0-0.1,0-0.2,0
		c-0.2,0-0.4-0.3-0.6-0.8c-0.8-2-1.4-3.7-1.9-4.9l0,0c0-0.1-0.1-0.2-0.1-0.2c0,0,0-0.1-0.1-0.1c0,0-0.1-0.1-0.2-0.1
		c-0.1,0-0.1,0.1-0.2,0.1c0,0-0.1,0.1-0.1,0.1c0,0.1-0.1,0.2-0.1,0.3h0l0,0c0,0,0,0,0,0l-1.8,5c-0.2,0.5-0.4,0.6-0.5,0.6
		c-0.1,0-0.1,0-0.2,0c0,0-0.1,0-0.2,0c-0.1,0-0.1,0.1-0.1,0.2c0,0.1,0,0.1,0.1,0.1c0,0,0.1,0.1,0.1,0.1c0.1,0,0.1,0,0.2,0
		c0.2,0,0.3,0,0.6,0v0c0.1,0,0.2,0,0.3,0c0.1,0,0.1,0,0.1,0c0,0,0.1,0,0.3,0c0.2,0,0.3,0,0.4,0c0.1,0,0.1,0,0.2,0c0,0,0.1,0,0.1-0.1
		c0,0,0-0.1,0-0.1c0-0.1,0-0.2-0.1-0.2c-0.1,0-0.1,0-0.2,0h-0.1c-0.1,0-0.1,0-0.1,0c0,0,0,0,0,0c0-0.1,0-0.3,0.1-0.5l0,0l0.5-1.4
		h1.6l0.7,1.9l0,0c0,0,0,0,0,0c0,0,0,0-0.1,0c0,0-0.1,0.1-0.1,0.2c0,0.1,0.1,0.2,0.1,0.2c0,0,0.1,0,0.1,0c0.1,0,0.1,0,0.2,0
		c0.3,0,0.7,0,1.3,0C87.6,73.8,87.6,73.7,87.7,73.7z M83.8,70.7l0.5-1.6l0.6,1.6H83.8z M86.1,73.6C86.1,73.6,86.1,73.6,86.1,73.6
		L86.1,73.6C86.1,73.6,86.1,73.6,86.1,73.6C86.1,73.6,86.1,73.6,86.1,73.6z"/>
	<polygon points="121.3,67.2 121.3,67.2 121.3,67.2 121.3,67.2 	"/>
	<path d="M100.1,73.2c-0.1,0-0.1-0.1-0.2-0.2c-0.1-0.1-0.1-0.3-0.1-0.5l-0.5-5l0,0c0-0.1,0-0.2-0.1-0.2c0-0.1-0.1-0.2-0.2-0.2
		c-0.1,0-0.2,0-0.2,0.1c0,0-0.1,0.1-0.1,0.1l0,0l-2.2,4.7l-2.3-4.7l0,0c0,0-0.1-0.1-0.1-0.1c0,0-0.1-0.1-0.2-0.1
		c-0.1,0-0.2,0.1-0.2,0.1c0,0.1-0.1,0.1-0.1,0.2L93,72.7l0,0c0,0.2,0,0.3-0.1,0.4c0,0,0,0,0,0c0,0.1-0.1,0.1-0.1,0.1h0
		c-0.1,0-0.1,0-0.2,0c0,0-0.1,0-0.1,0c0,0-0.1,0-0.1,0.1c0,0,0,0.1,0,0.1c0,0,0,0.1,0,0.1c0,0,0.1,0.1,0.1,0.1c0.1,0,0.1,0,0.2,0
		c0.1,0,0.2,0,0.4,0v0c0.1,0,0.2,0,0.2,0c0,0,0,0,0.1,0c0,0,0,0,0,0c0,0,0,0,0,0c0,0,0,0,0,0c0,0,0,0,0,0c0,0,0,0,0,0c0,0,0,0,0,0
		c0,0,0,0,0,0c0,0,0,0,0,0c0,0,0,0,0,0c0,0,0,0,0,0c0,0,0,0,0,0c0,0,0,0,0,0c0,0,0,0,0,0c0,0,0,0,0,0c0,0,0,0,0,0c0,0,0,0,0,0
		c0,0,0,0,0,0c0,0,0,0,0,0c0,0,0,0,0,0c0,0,0,0,0,0s0,0,0,0c0,0,0,0,0,0c0,0,0,0,0,0c0,0,0,0,0,0c0,0,0,0,0,0c0,0,0,0,0,0
		c0,0,0,0,0,0c0,0,0,0,0,0c0,0,0,0,0,0c0,0,0,0,0,0c0,0,0,0,0,0s0,0,0,0c0,0,0,0,0,0c0,0,0,0,0,0c0,0,0,0,0,0c0,0,0,0,0,0
		c0,0,0,0,0,0c0,0,0,0,0,0c0,0,0,0,0,0c0,0,0,0,0,0c0,0,0,0,0,0c0,0,0,0,0,0c0,0,0,0,0,0c0,0,0,0,0,0c0,0,0,0,0,0c0,0,0,0,0,0
		c0,0,0,0,0,0c0,0,0,0,0,0c0,0,0,0,0,0s0,0,0,0c0,0,0,0,0,0c0,0,0,0,0,0s0,0,0,0c0,0,0,0,0,0c0,0,0,0,0,0c0,0,0,0,0,0c0,0,0,0,0,0
		s0,0,0,0c0,0,0,0,0,0c0,0,0,0,0,0c0,0,0,0,0,0c0,0,0,0,0,0c0,0,0,0,0,0c0,0,0,0,0,0c0,0,0,0,0,0s0,0,0,0c0,0,0,0,0,0c0,0,0,0,0,0
		c0,0,0,0,0,0c0,0,0,0,0,0c0,0,0,0,0,0c0,0,0,0,0,0c0,0,0,0,0,0c0,0,0,0,0,0c0,0,0,0,0,0c0,0,0,0,0,0c0,0,0,0,0,0c0,0,0,0,0,0
		c0,0,0,0,0,0c0,0,0,0,0,0s0,0,0,0c0,0,0,0,0,0c0,0,0,0,0,0s0,0,0,0s0,0,0,0c0,0,0,0,0,0c0,0,0,0,0,0c0,0,0,0,0,0c0,0,0,0,0,0
		s0,0,0,0c0,0,0,0,0,0c0,0,0,0,0,0c0,0,0,0,0,0s0,0,0,0c0,0,0,0,0,0c0,0,0,0,0,0c0,0,0,0,0,0c0,0,0,0,0,0c0,0,0,0,0,0c0,0,0,0,0,0
		c0,0,0,0,0,0c0,0,0,0,0,0c0,0,0,0,0,0c0,0,0,0,0,0c0,0,0,0,0,0c0,0,0,0,0,0c0,0,0,0,0,0c0,0,0,0,0,0c0,0,0,0,0,0c0,0,0,0,0,0
		c0,0,0,0,0,0c0,0,0,0,0,0s0,0,0,0c0,0,0,0,0,0c0,0,0,0,0,0c0,0,0,0,0,0c0,0,0,0,0,0c0,0,0,0,0,0c0,0,0,0,0,0c0,0,0,0,0,0
		c0,0,0,0,0,0c0,0,0,0,0,0s0,0,0,0s0,0,0,0s0,0,0,0s0,0,0,0c0,0,0,0,0,0c0,0,0,0,0,0c0,0,0,0,0,0s0,0,0,0s0,0,0,0c0,0,0,0,0,0
		c0,0,0,0,0,0c0,0,0,0,0,0c0,0,0,0,0,0c0,0,0,0,0,0c0,0,0,0,0,0c0,0,0,0,0,0c0,0,0,0,0,0c0,0,0,0,0,0c0,0,0,0,0,0c0,0,0,0,0,0
		c0,0,0,0,0,0s0,0,0,0c0,0,0,0,0,0c0,0,0,0,0,0c0,0,0,0,0,0c0,0,0,0,0,0s0,0,0,0c0,0,0,0,0,0c0,0,0,0,0,0c0,0,0,0,0,0c0,0,0,0,0,0
		c0,0,0,0,0,0s0,0,0,0c0,0,0,0,0,0c0,0,0,0,0,0c0,0,0,0,0,0c0,0,0,0,0,0c0,0,0,0,0,0c0,0,0,0,0,0c0,0,0,0,0,0c0,0,0,0,0,0
		c0,0,0,0,0,0c0,0,0,0,0,0s0,0,0,0c0,0,0,0,0,0c0,0,0,0,0,0c0,0,0,0,0,0s0,0,0,0c0,0,0,0,0,0s0,0,0,0c0,0,0,0,0,0c0,0,0,0,0,0
		c0,0,0,0,0,0s0,0,0,0c0,0,0,0,0,0c0,0,0,0,0,0c0,0,0,0,0,0s0,0,0,0c0,0,0,0,0,0c0,0,0,0,0,0s0,0,0,0c0,0,0,0,0,0c0,0,0,0,0,0
		s0,0,0,0c0,0,0,0,0,0c0,0,0,0,0,0c0,0,0,0,0,0c0,0,0,0,0,0c0,0,0,0,0,0c0,0,0,0,0,0c0,0,0,0,0,0s0,0,0,0c0,0,0,0,0,0c0,0,0,0,0,0
		c0,0,0,0,0,0c0,0,0,0,0,0c0,0,0,0,0,0c0,0,0,0,0,0c0,0,0,0,0,0s0,0,0,0c0,0,0,0,0,0c0,0,0,0,0,0s0,0,0,0c0,0,0,0,0,0c0,0,0,0,0,0
		c0,0,0,0,0,0c0,0,0,0,0,0c0,0,0,0,0,0c0,0,0,0,0,0c0,0,0,0,0,0c0,0,0,0,0,0c0,0,0,0,0,0c0,0,0,0,0,0c0,0,0,0,0,0c0,0,0,0,0,0
		s0,0,0,0c0,0,0,0,0,0c0,0,0,0,0,0c0,0,0,0,0,0c0,0,0,0,0,0c0,0,0,0,0,0v0c0.2,0,0.4,0,0.5,0c0.1,0,0.1,0,0.2,0c0,0,0.1,0,0.1-0.1
		c0,0,0-0.1,0-0.1c0-0.1-0.1-0.2-0.1-0.2c0,0-0.1,0-0.1,0c0,0-0.1,0-0.2,0c0,0,0,0,0,0c-0.1,0-0.1,0-0.2,0c0,0-0.1,0-0.1,0
		c0,0,0,0,0,0c0-0.2,0-0.3,0-0.4l0.3-3.1c0.1,0.2,0.2,0.4,0.3,0.6l0,0c0.3,0.7,0.5,1,0.5,1.1l0,0c0.5,1.1,0.9,1.7,1,1.9c0,0,0,0,0,0
		c0,0,0,0,0,0h0c0.1,0.1,0.1,0.2,0.2,0.3c0,0,0,0.1,0.1,0.1c0,0,0,0,0.1,0c0,0,0.1,0,0.1,0c0.1,0,0.1,0,0.1,0c0,0,0,0,0.1-0.1
		c0,0,0.1-0.1,0.1-0.1c0.1-0.1,0.1-0.2,0.2-0.3h0l1.7-3.6l0.3,3.5h0c0,0.1,0,0.1,0,0.1c0,0,0,0,0,0c-0.1,0.1-0.1,0.1-0.1,0.2
		c0,0.2,0.1,0.2,0.2,0.2c0.1,0,0.1,0,0.2,0l0,0c0.4,0,0.9,0,1.4,0c0.1,0,0.1,0,0.2,0c0,0,0.1,0,0.1-0.1c0,0,0.1-0.1,0.1-0.1
		c0-0.1,0-0.2-0.1-0.2c0,0,0,0-0.1,0C100.5,73.2,100.3,73.2,100.1,73.2z"/>
	<path d="M107.2,67.2c-0.1,0-0.1,0-0.2,0c0,0-0.1,0-0.1,0.1c0,0,0,0.1,0,0.1c0,0.1,0,0.1,0.1,0.2c0.1,0,0.1,0.1,0.2,0.1
		c0.1,0,0.2,0,0.2,0c0.1,0,0.1,0,0.1,0.1c0,0,0.1,0.1,0.1,0.2c0,0.2,0,0.7,0,1.7v1.4c0,1,0,1.5,0,1.7v0c0,0.1,0,0.2-0.1,0.2
		c0,0,0,0,0,0c-0.1,0-0.2,0-0.2,0c0,0-0.1,0-0.2,0c-0.1,0-0.1,0.1-0.1,0.2c0,0,0,0.1,0,0.1c0,0,0.1,0.1,0.1,0.1c0.1,0,0.1,0,0.2,0
		c0.1,0,0.4,0,0.8,0c0,0,0,0,0,0c0,0,0,0,0.1,0c0.1,0,0.1,0,0.3,0v0c0.3,0,0.5,0,0.7,0c0.1,0,0.1,0,0.2,0c0,0,0.1,0,0.1-0.1
		c0,0,0-0.1,0-0.1c0-0.1,0-0.1-0.1-0.2c-0.1,0-0.1-0.1-0.2-0.1c-0.1,0-0.2,0-0.3,0c0,0-0.1,0-0.1-0.1c0,0-0.1-0.1-0.1-0.2h0
		c0-0.2,0-0.8,0-1.7v-0.1l0.8,0c0.3,0.5,0.6,0.8,0.9,1.2l0,0l0,0c0.3,0.4,0.5,0.7,0.6,0.8l0,0c0,0,0,0,0,0c0,0,0,0,0,0l0,0
		c0.2,0.2,0.4,0.4,0.6,0.5l0,0c0,0,0,0,0,0s0,0,0,0l0,0c0.2,0.1,0.6,0.2,1,0.2h0.6c0.1,0,0.1,0,0.2,0c0,0,0,0,0,0c0,0,0,0,0,0
		c0.1,0,0.1,0,0.2,0c0.1,0,0.2,0,0.4,0v0c0.2,0,0.3,0,0.4,0c0,0,0,0,0,0c0,0,0,0,0,0c0,0,0.1,0,0.1,0c0.1,0,0.3,0,0.5,0
		c0.4,0,0.9,0,1.4,0c0.1,0,0.2,0,0.2,0c0.1,0,0.1,0,0.2,0l0,0c0,0,0,0,0,0c0,0,0,0,0,0l0,0c0.1,0,0.1-0.1,0.2-0.1
		c0-0.1,0.1-0.1,0.1-0.2l0,0c0.1-0.3,0.1-0.6,0.1-0.8c0,0,0-0.1,0-0.2c0,0,0-0.1-0.1-0.1c0,0-0.1-0.1-0.1-0.1
		c-0.1,0-0.2,0.1-0.2,0.1c0,0,0,0.1-0.1,0.2l0.1,0l-0.1,0l0,0c0,0.3-0.1,0.4-0.3,0.4c-0.1,0-0.3,0.1-0.7,0.1c-0.2,0-0.3,0-0.5,0
		c-0.1,0-0.2,0-0.2-0.1c0,0,0,0-0.1-0.1c0-0.1,0-0.2,0-0.3v-2c0.4,0,0.8,0,1,0c0.2,0,0.2,0.1,0.3,0.1l0,0c0,0,0,0.1,0,0.2
		c0,0,0,0.1,0.1,0.2c0.1,0.1,0.1,0.1,0.2,0.1c0.1,0,0.1,0,0.2-0.1c0,0,0.1-0.1,0.1-0.1c0-0.1,0-0.1,0-0.2c0-0.1,0-0.3,0-0.5h0
		c0-0.1,0-0.2,0-0.3c0,0,0-0.1,0-0.1c0,0,0-0.1,0-0.1c0,0,0-0.1,0-0.1c0-0.1-0.1-0.1-0.2-0.1c-0.1,0-0.1,0-0.1,0c0,0,0,0-0.1,0
		c0,0-0.1,0.1-0.1,0.1c0,0,0,0-0.1,0c0,0-0.1,0-0.2,0h0c-0.1,0-0.5,0-1.1,0v-2c0.5,0,0.8,0,0.9,0v0c0.1,0,0.3,0,0.3,0.1
		c0.1,0,0.1,0.1,0.1,0.1c0,0,0,0.1,0,0.2c0,0,0,0.1,0,0.2c0,0.1,0.1,0.1,0.2,0.1c0.1,0,0.2-0.1,0.2-0.1c0,0,0-0.1,0-0.1c0,0,0,0,0,0
		c0-0.2,0-0.4,0-0.5c0-0.1,0-0.2,0-0.2c0,0,0-0.1,0-0.1c0,0,0-0.1,0-0.1c0,0,0-0.1,0-0.1c0,0,0-0.1-0.1-0.1c0,0-0.1,0-0.1,0
		c-0.1,0-0.1,0-0.1,0c0,0,0,0,0,0c0,0,0,0,0,0c0,0,0,0,0,0l0,0c0,0,0,0,0,0c0,0,0,0,0,0l0,0c0,0,0,0,0,0c0,0,0,0,0,0
		c-0.1,0-0.2,0-0.3,0h0c-0.1,0-0.7,0-1.8,0c0,0,0,0,0,0c0,0,0,0-0.1,0c-0.1,0-0.1,0-0.3,0v0c-0.2,0-0.4,0-0.6,0c-0.1,0-0.1,0-0.2,0
		c0,0-0.1,0-0.1,0.1c0,0,0,0.1,0,0.1c0,0.1,0,0.1,0.1,0.2c0.1,0,0.1,0.1,0.2,0.1c0.1,0,0.2,0,0.2,0c0.1,0,0.1,0,0.1,0.1
		c0,0,0.1,0.1,0.1,0.2c0,0.2,0,0.7,0,1.7v1.4c0,1,0,1.5,0,1.7l0,0c0,0.1,0,0.2-0.1,0.2c0,0,0,0,0,0c-0.1,0-0.2,0-0.2,0
		c0,0-0.1,0-0.1,0c0,0-0.1,0-0.1,0c-0.1,0-0.2,0-0.3,0h0c-0.3,0-0.6-0.2-0.9-0.5l0,0c-0.2-0.2-0.5-0.5-0.8-0.9l0,0
		c-0.1-0.1-0.3-0.4-0.8-1c0.6-0.6,0.9-1.2,0.9-1.9c0-0.5-0.2-1-0.6-1.3h0c-0.4-0.3-0.9-0.4-1.6-0.4c-0.1,0-0.3,0-0.6,0v0
		c-0.1,0-0.2,0-0.3,0c0,0-0.1,0-0.1,0c0,0,0,0,0,0c0,0,0,0,0,0c0,0,0,0,0,0c0,0,0,0-0.1,0c-0.1,0-0.1,0-0.3,0v0
		C107.5,67.2,107.3,67.2,107.2,67.2z M116.6,72.6L116.6,72.6L116.6,72.6L116.6,72.6z M116.4,71C116.4,71,116.4,71,116.4,71
		C116.4,71,116.4,71,116.4,71C116.4,71,116.4,71,116.4,71C116.4,71,116.4,71,116.4,71z M114.3,73.7
		C114.3,73.7,114.3,73.7,114.3,73.7C114.2,73.7,114.2,73.7,114.3,73.7C114.2,73.7,114.2,73.7,114.3,73.7
		C114.2,73.7,114.2,73.7,114.3,73.7C114.2,73.7,114.2,73.7,114.3,73.7C114.2,73.7,114.2,73.7,114.3,73.7z M114.1,67.3
		C114.1,67.3,114.1,67.3,114.1,67.3C114.2,67.3,114.2,67.3,114.1,67.3C114.2,67.3,114.2,67.3,114.1,67.3
		C114.2,67.3,114.2,67.3,114.1,67.3C114.2,67.3,114.2,67.3,114.1,67.3C114.2,67.3,114.2,67.3,114.1,67.3
		C114.1,67.3,114.1,67.3,114.1,67.3C114.1,67.3,114.1,67.3,114.1,67.3z M108.6,67.9c0.1,0,0.2,0,0.4,0c0.4,0,0.7,0.1,0.9,0.4l0,0
		c0.2,0.2,0.3,0.6,0.3,1.1c0,0.6-0.2,0.9-0.4,1.1c-0.1,0.1-0.3,0.1-0.5,0.1c-0.2,0-0.4,0-0.5,0c-0.1,0-0.2,0-0.2-0.1V67.9z
		 M108.4,71.1L108.4,71.1C108.4,71.1,108.4,71.1,108.4,71.1L108.4,71.1z M108.2,73.7C108.2,73.7,108.2,73.7,108.2,73.7
		C108.1,73.7,108.1,73.7,108.2,73.7C108.1,73.7,108.1,73.7,108.2,73.7c-0.1,0.1-0.1,0.1-0.1,0.1c0,0,0,0,0,0c0,0,0,0,0,0
		C108.1,73.7,108.1,73.7,108.2,73.7z M108,67.3C108,67.3,108,67.3,108,67.3C108,67.3,108,67.3,108,67.3
		C108.1,67.3,108.1,67.3,108,67.3C108.1,67.3,108.1,67.3,108,67.3C108.1,67.3,108.1,67.3,108,67.3C108.1,67.3,108.1,67.3,108,67.3
		C108,67.3,108,67.3,108,67.3C108,67.3,108,67.3,108,67.3z"/>
	<polygon points="116.4,67.2 116.4,67.2 116.4,67.2 116.4,67.2 	"/>
	<path d="M121.8,72.3c0,0-0.1-0.1-0.1-0.1c-0.1,0-0.2,0.1-0.2,0.1c0,0,0,0.1-0.1,0.2l0,0c0,0.3-0.1,0.4-0.3,0.4
		c-0.1,0-0.3,0.1-0.7,0.1c-0.2,0-0.3,0-0.5,0c-0.1,0-0.2,0-0.2-0.1c0,0,0,0-0.1-0.1c0-0.1,0-0.2,0-0.3v-2c0.4,0,0.8,0,1,0
		c0.2,0,0.2,0.1,0.3,0.1l0,0c0,0,0,0.1,0,0.2c0,0,0,0.1,0.1,0.2c0.1,0.1,0.1,0.1,0.2,0.1c0.1,0,0.1,0,0.2-0.1c0,0,0.1-0.1,0.1-0.1
		c0-0.1,0-0.1,0-0.2c0-0.1,0-0.3,0-0.5h0c0-0.1,0-0.2,0-0.3c0,0,0-0.1,0-0.1c0,0,0-0.1,0-0.1c0,0,0-0.1,0-0.1c0-0.1-0.1-0.1-0.2-0.1
		c-0.1,0-0.1,0-0.1,0c0,0,0,0-0.1,0c0,0-0.1,0.1-0.1,0.1c0,0,0,0-0.1,0c0,0-0.1,0-0.2,0h0c-0.1,0-0.5,0-1.1,0v-2c0.5,0,0.8,0,0.9,0
		v0c0.1,0,0.3,0,0.3,0.1c0.1,0,0.1,0.1,0.1,0.1c0,0,0,0.1,0,0.2c0,0,0,0.1,0,0.2c0,0.1,0.1,0.1,0.2,0.1c0.1,0,0.2-0.1,0.2-0.1
		c0,0,0-0.1,0-0.1c0,0,0,0,0,0c0-0.2,0-0.4,0-0.5c0-0.1,0-0.2,0-0.2c0,0,0-0.1,0-0.1c0,0,0-0.1,0-0.1c0,0,0-0.1,0-0.1
		c0,0,0-0.1-0.1-0.1c0,0-0.1,0-0.1,0c-0.1,0-0.1,0-0.1,0c0,0,0,0,0,0c0,0,0,0,0,0c0,0,0,0,0,0l0,0c0,0,0,0,0,0c0,0,0,0,0,0l0,0
		c0,0,0,0,0,0c0,0,0,0,0,0c-0.1,0-0.2,0-0.3,0h0c-0.1,0-0.7,0-1.8,0c0,0,0,0,0,0c0,0,0,0-0.1,0c-0.1,0-0.1,0-0.3,0v0
		c-0.2,0-0.4,0-0.6,0c-0.1,0-0.1,0-0.2,0c0,0-0.1,0-0.1,0.1c0,0,0,0.1,0,0.1c0,0.1,0,0.1,0.1,0.2c0.1,0,0.1,0.1,0.2,0.1
		c0.1,0,0.2,0,0.2,0c0.1,0,0.1,0,0.1,0.1c0,0,0.1,0.1,0.1,0.2c0,0.2,0,0.7,0,1.7v1.4c0,1,0,1.5,0,1.7l0,0c0,0.1,0,0.2-0.1,0.2
		c0,0,0,0,0,0c-0.1,0-0.2,0-0.2,0c0,0-0.1,0-0.2,0c-0.1,0-0.1,0.1-0.1,0.2c0,0,0,0.1,0,0.1c0,0,0.1,0.1,0.1,0.1c0.1,0,0.1,0,0.2,0
		c0.1,0,0.2,0,0.4,0v0c0.2,0,0.3,0,0.4,0c0,0,0,0,0,0c0,0,0,0,0,0c0,0,0.1,0,0.1,0c0.1,0,0.3,0,0.5,0c0.4,0,0.9,0,1.4,0
		c0.1,0,0.2,0,0.2,0c0.1,0,0.1,0,0.2,0l0,0c0,0,0,0,0,0c0,0,0,0,0,0l0,0c0.1,0,0.1-0.1,0.2-0.1c0-0.1,0.1-0.1,0.1-0.2l0,0
		c0.1-0.3,0.1-0.6,0.1-0.8C121.9,72.5,121.9,72.5,121.8,72.3C121.8,72.4,121.8,72.4,121.8,72.3z M121.3,71
		C121.3,71,121.3,71,121.3,71C121.3,71,121.3,71,121.3,71C121.3,71,121.3,71,121.3,71C121.3,71,121.3,71,121.3,71z M119,67.3
		C119,67.3,119.1,67.3,119,67.3C119.1,67.3,119.1,67.3,119,67.3c0.1-0.1,0.1-0.1,0.1-0.1c0,0,0,0,0,0c0,0,0,0,0,0c0,0,0,0,0,0
		s0,0,0,0C119.1,67.3,119,67.3,119,67.3z M119.2,73.7C119.2,73.7,119.2,73.7,119.2,73.7C119.2,73.7,119.2,73.7,119.2,73.7
		C119.1,73.7,119.1,73.7,119.2,73.7C119.1,73.7,119.1,73.7,119.2,73.7C119.2,73.7,119.2,73.7,119.2,73.7
		C119.2,73.7,119.2,73.7,119.2,73.7z"/>
	<path d="M100.7,68.5C100.7,68.5,100.8,68.5,100.7,68.5c0.1,0.1,0.2,0.1,0.2,0.1c0.1,0,0.2-0.1,0.2-0.1c0,0,0.1-0.1,0.1-0.1l0,0l0,0
		c0,0,0,0,0,0c0,0,0,0,0,0c0,0,0,0,0,0s0,0,0,0s0,0,0,0s0,0,0,0s0,0,0,0c0,0,0,0,0,0c0,0,0,0,0,0c0,0,0,0,0,0c0,0,0,0,0,0
		c0,0,0,0,0,0c0,0,0,0,0,0c0,0,0,0,0,0c0,0,0,0,0,0c0,0,0,0,0,0c0,0,0,0,0,0c0,0,0,0,0,0s0,0,0,0s0,0,0,0c0,0,0,0,0,0c0,0,0,0,0,0
		c0,0,0,0,0,0c0,0,0,0,0,0c0,0,0,0,0,0c0,0,0,0,0,0c0,0,0,0,0,0c0,0,0,0,0,0c0,0,0,0,0,0s0,0,0,0s0,0,0,0c0,0,0,0,0,0s0,0,0,0
		c0,0,0,0,0,0c0,0,0,0,0,0c0,0,0,0,0,0c0,0,0,0,0,0c0,0,0,0,0,0c0,0,0,0,0,0c0,0,0,0,0,0c0,0,0,0,0,0c0,0,0,0,0,0c0,0,0,0,0,0
		c0,0,0,0,0,0s0,0,0,0s0,0,0,0c0,0,0,0,0,0c0,0,0,0,0,0c0,0,0,0,0,0c0,0,0,0,0,0c0,0,0,0,0,0c0,0,0,0,0,0c0,0,0,0,0,0c0,0,0,0,0,0
		c0,0,0,0,0,0c0,0,0,0,0,0s0,0,0,0s0,0,0,0s0,0,0,0c0,0,0,0,0,0c0,0,0,0,0,0c0,0,0,0,0,0c0,0,0,0,0,0c0,0,0,0,0,0c0,0,0,0,0,0
		c0,0,0,0,0,0c0,0,0,0,0,0c0,0,0,0,0,0c0,0,0,0,0,0c0,0,0,0,0,0c0,0,0,0,0,0s0,0,0,0c0,0,0,0,0,0c0,0,0,0,0,0c0,0,0,0,0,0
		c0,0,0,0,0,0c0,0,0,0,0,0c0,0,0,0,0,0c0,0,0,0,0,0c0,0,0,0,0,0c0,0,0,0,0,0c0,0,0,0,0,0s0,0,0,0s0,0,0,0s0,0,0,0c0,0,0,0,0,0
		c0,0,0,0,0,0c0,0,0,0,0,0c0,0,0,0,0,0c0,0,0,0,0,0c0,0,0,0,0,0c0,0,0,0,0,0c0,0,0,0,0,0c0,0,0,0,0,0c0,0,0,0,0,0c0,0,0,0,0,0
		c0,0,0,0,0,0s0,0,0,0s0,0,0,0c0,0,0,0,0,0c0,0,0,0,0,0c0,0,0,0,0,0c0,0,0,0,0,0c0,0,0,0,0,0c0,0,0,0,0,0c0,0,0,0,0,0c0,0,0,0,0,0
		c0,0,0,0,0,0s0,0,0,0s0,0,0,0s0,0,0,0s0,0,0,0c0,0,0,0,0,0c0,0,0,0,0,0c0,0,0,0,0,0c0,0,0,0,0,0c0,0,0,0,0,0c0,0,0,0,0,0
		c0,0,0,0,0,0c0,0,0,0,0,0c0,0,0,0,0,0c0,0,0,0,0,0c0,0,0,0,0,0s0,0,0,0s0,0,0,0c0,0,0,0,0,0c0,0,0,0,0,0c0,0,0,0,0,0c0,0,0,0,0,0
		c0,0,0,0,0,0c0,0,0,0,0,0c0,0,0,0,0,0c0,0,0,0,0,0c0,0,0,0,0,0s0,0,0,0s0,0,0,0c0,0,0,0,0,0s0,0,0,0c0,0,0,0,0,0c0,0,0,0,0,0
		c0,0,0,0,0,0c0,0,0,0,0,0c0,0,0,0,0,0c0,0,0,0,0,0c0,0,0,0,0,0c0,0,0,0,0,0c0,0,0,0,0,0c0,0,0,0,0,0c0,0,0,0,0,0s0,0,0,0s0,0,0,0
		c0,0,0,0,0,0c0,0,0,0,0,0c0,0,0,0,0,0c0,0,0,0,0,0c0,0,0,0,0,0c0,0,0,0,0,0c0,0,0,0,0,0c0,0,0,0,0,0c0,0,0,0,0,0c0,0,0,0,0,0
		s0,0,0,0c0,0,0,0,0,0s0,0,0,0c0,0,0,0,0,0c0,0,0,0,0,0c0,0,0,0,0,0c0,0,0,0,0,0c0,0,0,0,0,0c0,0,0,0,0,0c0,0,0,0,0,0c0,0,0,0,0,0
		c0,0,0,0,0,0c0,0,0,0,0,0c0,0,0,0,0,0c0,0,0,0,0,0s0,0,0,0c0,0,0,0,0,0c0,0,0,0,0,0c0,0,0,0,0,0c0,0,0,0,0,0c0,0,0,0,0,0
		c0,0,0,0,0,0c0,0,0,0,0,0c0,0,0,0,0,0c0,0,0,0,0,0c0,0,0,0,0,0s0,0,0,0s0,0,0,0s0,0,0,0c0,0,0,0,0,0c0,0,0,0,0,0c0,0,0,0,0,0
		c0,0,0,0,0,0c0,0,0,0,0,0c0,0,0,0,0,0c0,0,0,0,0,0c0,0,0,0,0,0c0,0,0,0,0,0c0,0,0,0,0,0c0,0,0,0,0,0c0,0,0,0,0,0s0,0,0,0s0,0,0,0
		c0,0,0,0,0,0c0,0,0,0,0,0c0,0,0,0,0,0c0,0,0,0,0,0c0,0,0,0,0,0c0,0,0,0,0,0c0,0,0,0,0,0c0,0,0,0,0,0c0,0,0,0,0,0s0,0,0,0s0,0,0,0
		s0,0,0,0s0,0,0,0c0,0,0,0,0,0c0,0,0,0,0,0c0,0,0,0,0,0c0,0,0,0,0,0c0,0,0,0,0,0c0,0,0,0,0,0c0,0,0,0,0,0c0,0,0,0,0,0c0,0,0,0,0,0
		c0,0,0,0,0,0c0,0,0,0,0,0s0,0,0,0s0,0,0,0c0,0,0,0,0,0c0,0,0,0,0,0c0,0,0,0,0,0c0,0,0,0,0,0c0,0,0,0,0,0c0,0,0,0,0,0c0,0,0,0,0,0
		c0,0,0,0,0,0c0,0,0,0,0,0s0,0,0,0s0,0,0,0s0,0,0,0s0,0,0,0c0,0,0,0,0,0c0,0,0,0,0,0c0,0,0,0,0,0c0,0,0,0,0,0c0,0,0,0,0,0
		c0,0,0,0,0,0c0,0,0,0,0,0c0,0,0,0,0,0c0,0,0,0,0,0c0,0,0,0,0,0c0,0,0,0,0,0c0,0,0,0,0,0s0,0,0,0c0,0,0,0,0,0c0,0,0,0,0,0
		c0,0,0,0,0,0c0,0,0,0,0,0c0,0,0,0,0,0c0,0,0,0,0,0c0,0,0,0,0,0c0,0,0,0,0,0c0,0,0,0,0,0c0,0,0,0,0,0s0,0,0,0s0,0,0,0s0,0,0,0
		c0,0,0,0,0,0c0,0,0,0,0,0c0,0,0,0,0,0c0,0,0,0,0,0c0,0,0,0,0,0c0,0,0,0,0,0c0,0,0,0,0,0c0,0,0,0,0,0c0,0,0,0,0,0c0,0,0,0,0,0
		c0,0,0,0,0,0c0,0,0,0,0,0s0,0,0,0c0,0,0,0,0,0c0,0,0,0,0,0c0,0,0,0,0,0c0,0,0,0,0,0c0,0,0,0,0,0c0,0,0,0,0,0c0,0,0,0,0,0
		c0,0,0,0,0,0c0,0,0,0,0,0c0,0,0,0,0,0s0,0,0,0s0,0,0,0s0,0,0,0c0,0,0,0,0,0c0,0,0,0,0,0c0,0,0,0,0,0c0,0,0,0,0,0c0,0,0,0,0,0
		c0,0,0,0,0,0c0,0,0,0,0,0c0,0,0,0,0,0c0,0,0,0,0,0c0,0,0,0,0,0c0,0,0,0,0,0c0,0,0,0,0,0s0,0,0,0s0,0,0,0c0,0,0,0,0,0c0,0,0,0,0,0
		c0,0,0,0,0,0c0,0,0,0,0,0c0,0,0,0,0,0c0,0,0,0,0,0c0,0,0,0,0,0c0,0,0,0,0,0c0,0,0,0,0,0s0,0,0,0s0,0,0,0s0,0,0,0s0,0,0,0
		c0,0,0,0,0,0c0,0,0,0,0,0c0,0,0,0,0,0c0,0,0,0,0,0c0,0,0,0,0,0c0,0,0,0,0,0c0,0,0,0,0,0c0,0,0,0,0,0c0,0,0,0,0,0c0,0,0,0,0,0
		c0,0,0,0,0,0s0,0,0,0s0,0,0,0c0,0,0,0,0,0c0,0,0,0,0,0c0,0,0,0,0,0c0,0,0,0,0,0c0,0,0,0,0,0c0,0,0,0,0,0c0,0,0,0,0,0c0,0,0,0,0,0
		c0,0,0,0,0,0s0,0,0,0s0,0,0,0s0,0,0,0s0,0,0,0c0,0,0,0,0,0c0,0,0,0,0,0c0,0,0,0,0,0c0,0,0,0,0,0c0,0,0,0,0,0c0,0,0,0,0,0
		c0,0,0,0,0,0c0,0,0,0,0,0c0,0,0,0,0,0c0,0,0,0,0,0c0,0,0,0,0,0s0,0,0,0s0,0,0,0c0,0,0,0,0,0c0,0,0,0,0,0c0,0,0,0,0,0c0,0,0,0,0,0
		c0,0,0,0,0,0c0,0,0,0,0,0c0,0,0,0,0,0c0,0,0,0,0,0c0,0,0,0,0,0c0,0,0,0,0,0s0,0,0,0s0,0,0,0s0,0,0,0c0,0,0,0,0,0c0,0,0,0,0,0
		c0,0,0,0,0,0c0,0,0,0,0,0c0,0,0,0,0,0c0,0,0,0,0,0c0,0,0,0,0,0c0,0,0,0,0,0c0,0,0,0,0,0c0,0,0,0,0,0c0,0,0,0,0,0c0,0,0,0,0,0
		s0,0,0,0c0,0,0,0,0,0c0,0,0,0,0,0c0,0,0,0,0,0c0,0,0,0,0,0c0,0,0,0,0,0c0,0,0,0,0,0c0,0,0,0,0,0c0,0,0,0,0,0c0,0,0,0,0,0
		c0,0,0,0,0,0s0,0,0,0s0,0,0,0s0,0,0,0c0,0,0,0,0,0c0,0,0,0,0,0c0,0,0,0,0,0c0,0,0,0,0,0c0,0,0,0,0,0c0,0,0,0,0,0c0,0,0,0,0,0
		c0,0,0,0,0,0c0,0,0,0,0,0c0,0,0,0,0,0c0,0,0,0,0,0c0,0,0,0,0,0s0,0,0,0c0,0,0,0,0,0c0,0,0,0,0,0c0,0,0,0,0,0c0,0,0,0,0,0
		c0,0,0,0,0,0c0,0,0,0,0,0c0,0,0,0,0,0c0,0,0,0,0,0c0,0,0,0,0,0c0,0,0,0,0,0s0,0,0,0s0,0,0,0s0,0,0,0s0,0,0,0c0,0,0,0,0,0
		c0,0,0,0,0,0c0,0,0,0,0,0c0,0,0,0,0,0c0,0,0,0,0,0c0,0,0,0,0,0c0,0,0,0,0,0c0,0,0,0,0,0c0,0,0,0,0,0c0,0,0,0,0,0c0,0,0,0,0,0
		s0,0,0,0s0,0,0,0c0,0,0,0,0,0c0,0,0,0,0,0c0,0,0,0,0,0c0,0,0,0,0,0c0,0,0,0,0,0c0,0,0,0,0,0c0,0,0,0,0,0c0,0,0,0,0,0c0,0,0,0,0,0
		s0,0,0,0s0,0,0,0s0,0,0,0s0,0,0,0c0,0,0,0,0,0c0,0,0,0,0,0c0,0,0,0,0,0c0,0,0,0,0,0c0,0,0,0,0,0c0,0,0,0,0,0c0,0,0,0,0,0
		c0,0,0,0,0,0c0,0,0,0,0,0c0,0,0,0,0,0c0,0,0,0,0,0c0,0,0,0,0,0s0,0,0,0c0,0,0,0,0,0c0-0.1,0.1-0.1,0.3-0.1c0.1,0,0.2,0,0.4,0v0l1,0
		v3.2c0,1,0,1.5,0,1.7v0c0,0.1,0,0.2-0.1,0.2c0,0,0,0,0,0c-0.1,0-0.2,0-0.2,0c0,0-0.1,0-0.2,0c-0.1,0-0.1,0.1-0.1,0.2
		c0,0,0,0.1,0,0.1c0,0,0.1,0.1,0.1,0.1c0.1,0,0.1,0,0.2,0c0.1,0,0.3,0,0.5,0v0c0.1,0,0.2,0,0.2,0c0,0,0,0,0.1,0c0,0,0,0,0,0
		c0,0,0,0,0,0c0,0,0,0,0.1,0c0.1,0,0.1,0,0.3,0v0c0.3,0,0.5,0,0.7,0c0.1,0,0.1,0,0.2,0c0,0,0.1,0,0.1-0.1c0,0,0-0.1,0-0.1
		c0-0.1,0-0.1-0.1-0.2c-0.1,0-0.1-0.1-0.2-0.1c-0.1,0-0.2,0-0.3,0c0,0-0.1,0-0.1-0.1c0,0-0.1-0.1-0.1-0.2h0c0-0.2,0-0.8,0-1.7V68
		l0.8,0c0.3,0,0.5,0,0.7,0.1c0.1,0.1,0.2,0.1,0.2,0.2h0l0,0.1c0,0,0,0,0,0c0,0.1,0,0.1,0,0.2c0,0,0.1,0.1,0.2,0.1c0,0,0.1,0,0.1,0
		c0,0,0.1-0.1,0.1-0.1c0-0.1,0-0.1,0-0.2c0,0,0,0,0,0c0,0,0,0,0,0c0,0,0,0,0,0c0,0,0,0,0-0.1c0-0.1,0-0.2,0-0.3h0c0-0.2,0-0.4,0-0.5
		c0,0,0-0.1,0-0.1c0,0,0-0.1-0.1-0.1c0,0-0.1,0-0.1,0c-0.1,0-0.2,0-0.4,0c-0.2,0-0.3,0-0.4,0h-3c-0.1,0-0.3,0-0.6,0c0,0,0,0,0,0
		c-0.1,0-0.1,0-0.2,0c0,0-0.1,0-0.1,0c0,0,0,0,0,0c0,0,0,0-0.1,0c-0.1,0-0.1,0-0.2,0.1c0,0,0,0.1-0.1,0.1c0,0,0,0.1-0.1,0.2l0,0
		c0,0,0,0,0,0c0,0,0,0,0,0h0c-0.1,0.4-0.2,0.7-0.2,0.9C100.7,68.4,100.7,68.4,100.7,68.5z M103.7,73.5
		C103.7,73.5,103.7,73.5,103.7,73.5c0,0.1,0,0.1,0,0.1c0,0,0,0,0,0C103.6,73.7,103.6,73.6,103.7,73.5z M103.6,73.7
		C103.6,73.7,103.6,73.7,103.6,73.7C103.6,73.7,103.6,73.7,103.6,73.7C103.6,73.7,103.6,73.7,103.6,73.7z M103.4,73.6
		C103.4,73.6,103.4,73.6,103.4,73.6C103.4,73.7,103.4,73.6,103.4,73.6C103.4,73.6,103.4,73.6,103.4,73.6z"/>
	<path d="M88.2,67.2c-0.1,0-0.1,0-0.2,0c0,0-0.1,0-0.1,0.1c0,0,0,0.1,0,0.1c0,0.1,0,0.1,0.1,0.2c0.1,0,0.1,0.1,0.2,0.1
		c0.1,0,0.2,0,0.2,0c0.1,0,0.1,0,0.1,0.1c0,0,0.1,0.1,0.1,0.2c0,0.2,0,0.7,0,1.7v1.4c0,1,0,1.5,0,1.7l0,0c0,0.1,0,0.2-0.1,0.2
		c0,0,0,0,0,0c-0.1,0-0.2,0-0.2,0c0,0-0.1,0-0.2,0c-0.1,0-0.1,0.1-0.1,0.2c0,0,0,0.1,0,0.1c0,0,0.1,0.1,0.1,0.1c0.1,0,0.1,0,0.2,0
		c0.1,0,0.2,0,0.4,0v0c0.2,0,0.3,0,0.4,0c0.1,0,0.4,0,0.8,0h0c0.5,0,0.9,0,1.4,0c0.1,0,0.2,0,0.2,0c0,0,0.1,0,0.1,0c0,0,0,0,0,0
		c0.2,0,0.3-0.2,0.3-0.3l0,0c0.1-0.3,0.1-0.6,0.1-0.9c0,0,0-0.1,0-0.2c0,0,0-0.1-0.1-0.1c0,0-0.1-0.1-0.1-0.1c-0.1,0-0.2,0-0.2,0.1
		c0,0.1-0.1,0.1-0.1,0.2l0,0c0,0.2-0.1,0.3-0.2,0.4l0,0c0,0-0.1,0.1-0.2,0.1c-0.1,0-0.3,0.1-0.6,0.1c-0.3,0-0.5,0-0.6,0
		c-0.1,0-0.2-0.1-0.2-0.1c0,0,0,0,0-0.1c0-0.1,0-0.2-0.1-0.3c0-0.3,0-0.7,0-1.3v-1.4c0-1,0-1.6,0-1.7v0c0-0.1,0-0.2,0.1-0.2
		c0,0,0-0.1,0.1-0.1c0.1,0,0.1,0,0.2,0l0,0c0.1,0,0.1,0,0.2,0c0,0,0.1,0,0.1-0.1c0,0,0.1-0.1,0.1-0.2c0,0,0-0.1,0-0.1
		c0,0-0.1-0.1-0.1-0.1c-0.1,0-0.1,0-0.2,0c-0.1,0-0.3,0-0.5,0v0c-0.1,0-0.2,0-0.3,0c0,0-0.1,0-0.1,0c0,0,0,0,0,0c0,0,0,0,0,0
		c0,0,0,0-0.1,0c-0.1,0-0.1,0-0.3,0v0C88.6,67.2,88.4,67.2,88.2,67.2z M92,72.6L92,72.6C92,72.6,92,72.6,92,72.6L92,72.6z
		 M89.3,67.4C89.3,67.4,89.3,67.4,89.3,67.4C89.3,67.4,89.3,67.4,89.3,67.4C89.3,67.4,89.3,67.4,89.3,67.4z M89.1,67.3
		C89.1,67.3,89.1,67.3,89.1,67.3C89.1,67.3,89.1,67.3,89.1,67.3C89.1,67.3,89.1,67.3,89.1,67.3z M89,67.3C89,67.3,89.1,67.3,89,67.3
		C89.1,67.3,89.1,67.3,89,67.3c0.1,0,0,0,0,0.1c0,0,0,0,0,0C89,67.4,89,67.3,89,67.3z"/>
	<path d="M99.3,79.4c0,0.1,0,0.1,0.1,0.1c0,0,0,0,0.1,0c0,0,0.1,0,0.1,0c0.2,0,0.4,0,0.6,0c0,0,0.1,0,0.1,0c0,0,0,0,0.1,0
		c0,0,0-0.1,0-0.1c0-0.1,0-0.1-0.1-0.1c0,0-0.1,0-0.1,0c0,0-0.1,0-0.1,0c-0.1,0-0.2-0.1-0.3-0.4c-0.4-1-0.7-1.8-0.9-2.5l0,0
		c0-0.1,0-0.1-0.1-0.1c0,0,0,0,0-0.1c0,0-0.1,0-0.1,0c-0.1,0-0.1,0-0.1,0c0,0,0,0,0,0.1c0,0,0,0.1-0.1,0.1h0l-0.9,2.5l0,0
		c-0.1,0.2-0.2,0.3-0.2,0.3l0,0c0,0-0.1,0-0.1,0c0,0-0.1,0-0.1,0c0,0-0.1,0.1-0.1,0.1c0,0,0,0.1,0,0.1c0,0,0,0,0.1,0
		c0,0,0.1,0,0.1,0c0.1,0,0.2,0,0.3,0v0c0.1,0,0.1,0,0.1,0c0,0,0,0,0,0c0,0,0.1,0,0.1,0v0c0.1,0,0.1,0,0.2,0c0,0,0.1,0,0.1,0
		c0,0,0,0,0.1-0.1c0,0,0-0.1,0-0.1c0-0.1,0-0.1-0.1-0.1c0,0-0.1,0-0.1,0h0c0,0,0,0,0,0c0-0.1,0-0.1,0-0.2l0,0l0.2-0.7H99l0.4,0.9
		c0,0,0,0,0,0C99.3,79.3,99.3,79.3,99.3,79.4z M99.5,79.4C99.5,79.4,99.5,79.4,99.5,79.4L99.5,79.4C99.5,79.4,99.5,79.4,99.5,79.4z
		 M98.4,77.9l0.2-0.7l0.2,0.7H98.4z"/>
	<path d="M106.1,77.7c-0.6-0.7-1.1-1.2-1.3-1.4l0,0c0,0-0.1-0.1-0.1-0.1c0,0,0,0,0,0c0,0,0,0,0,0c0,0,0,0-0.1,0
		c-0.1,0-0.1,0-0.1,0.1c0,0,0,0.1,0,0.1c0,0,0,0.1,0,0.2l0,2.3v0c0,0.2,0,0.2,0,0.3l0.1,0l-0.1,0l0,0c0,0.1,0,0.1,0,0.1c0,0,0,0,0,0
		c0,0-0.1,0-0.1,0c0,0-0.1,0-0.1,0c0,0-0.1,0.1-0.1,0.1c0,0,0,0.1,0,0.1c0,0,0,0,0.1,0.1c0,0,0.1,0,0.1,0c0.1,0,0.2,0,0.3,0h0
		c0,0,0,0,0,0h0c0,0,0,0,0,0c0,0,0,0,0,0c0,0,0,0,0,0h0c0,0,0,0,0,0c0,0,0,0,0,0c0,0,0,0,0,0h0c0,0,0,0,0,0h0c0,0,0,0,0,0h0
		c0,0,0,0,0,0h0c0,0,0,0,0,0h0c0,0,0,0,0,0c0,0,0,0,0,0c0,0,0,0,0,0h0c0,0,0,0,0,0c0,0,0,0,0,0c0,0,0,0,0,0h0c0,0,0,0,0,0h0
		c0,0,0,0,0,0h0h0c0,0,0,0,0,0h0c0,0,0,0,0,0h0c0,0,0,0,0,0c0,0,0,0,0,0h0c0,0,0,0,0,0h0c0,0,0,0,0,0c0,0,0,0,0,0h0c0,0,0,0,0,0h0h0
		c0,0,0,0,0,0h0c0,0,0,0,0,0c0,0,0,0,0,0h0c0,0,0,0,0,0c0,0,0,0,0,0h0c0,0,0,0,0,0h0c0,0,0,0,0,0h0h0c0,0,0,0,0,0h0h0c0,0,0,0,0,0h0
		h0c0,0,0,0,0,0c0,0,0,0,0,0c0,0,0,0,0,0c0,0,0,0,0,0h0c0,0,0,0,0,0c0,0,0,0,0,0h0h0c0,0,0,0,0,0c0,0,0,0,0,0c0,0,0,0,0,0
		c0,0,0,0,0,0c0,0,0,0,0,0c0,0,0,0,0,0c0,0,0,0,0,0c0,0,0,0,0,0h0c0,0,0,0,0,0c0,0,0,0,0,0c0,0,0,0,0,0h0h0c0,0,0,0,0,0c0,0,0,0,0,0
		h0h0c0,0,0,0,0,0c0,0,0,0,0,0c0,0,0,0,0,0c0,0,0,0,0,0h0h0c0,0,0,0,0,0c0,0,0,0,0,0c0,0,0,0,0,0c0,0,0,0,0,0c0,0,0,0,0,0
		c0,0,0,0,0,0h0h0c0,0,0,0,0,0c0,0,0,0,0,0c0,0,0,0,0,0c0,0,0,0,0,0h0h0h0h0c0,0,0,0,0,0c0,0,0,0,0,0h0h0c0,0,0,0,0,0h0h0h0h0
		c0,0,0,0,0,0c0,0,0,0,0,0c0,0,0,0,0,0c0,0,0,0,0,0c0,0,0,0,0,0c0,0,0,0,0,0s0,0,0,0c0,0,0,0,0,0c0,0,0,0,0,0c0,0,0,0,0,0
		c0,0,0,0,0,0c0,0,0,0,0,0c0,0,0,0,0,0c0,0,0,0,0,0c0,0,0,0,0,0c0,0,0,0,0,0h0h0c0,0,0,0,0,0c0,0,0,0,0,0h0c0,0,0,0,0,0h0
		c0,0,0,0,0,0c0,0,0,0,0,0c0,0,0,0,0,0c0,0,0,0,0,0h0h0c0,0,0,0,0,0c0,0,0,0,0,0c0,0,0,0,0,0c0,0,0,0,0,0h0c0,0,0,0,0,0v0
		c0,0,0,0,0,0c0,0,0,0,0,0c0,0,0,0,0,0c0,0,0,0,0,0h0c0,0,0,0,0,0h0c0,0,0,0,0,0c0,0,0,0,0,0h0c0,0,0,0,0,0c0,0,0,0,0,0c0,0,0,0,0,0
		c0,0,0,0,0,0h0c0,0,0,0,0,0c0,0,0,0,0,0s0,0,0,0c0,0,0,0,0,0h0c0,0,0,0,0,0c0,0,0,0,0,0c0,0,0,0,0,0c0,0,0,0,0,0c0,0,0,0,0,0h0
		c0,0,0,0,0,0c0,0,0,0,0,0c0,0,0,0,0,0c0,0,0,0,0,0h0c0,0,0,0,0,0c0,0,0,0,0,0c0,0,0,0,0,0c0,0,0,0,0,0c0,0,0,0,0,0c0,0,0,0,0,0
		c0,0,0,0,0,0c0,0,0,0,0,0c0,0,0,0,0,0c0,0,0,0,0,0c0,0,0,0,0,0c0,0,0,0,0,0c0,0,0,0,0,0c0,0,0,0,0,0c0,0,0,0,0,0c0,0,0,0,0,0
		c0,0,0,0,0,0c0,0,0,0,0,0c0,0,0,0,0,0c0,0,0,0,0,0c0,0,0,0,0,0l0-0.1c0,0,0,0,0.1,0c0,0.1,0,0.1-0.1,0.1c0,0,0,0,0,0c0,0,0,0,0,0
		c0,0,0,0,0,0c0,0,0,0,0,0c0,0,0,0,0,0c0,0,0.1,0,0.1,0v0c0.1,0,0.2,0,0.3,0c0,0,0.1,0,0.1,0c0,0,0,0,0.1-0.1c0,0,0-0.1,0-0.1
		c0,0,0-0.1-0.1-0.1c0,0-0.1,0-0.1,0c-0.1,0-0.1,0-0.2,0l0,0c0,0,0,0,0,0c0,0,0,0,0-0.1l-0.1,0l0.1,0l0,0c0,0,0-0.1,0-0.2v0l0-1.6
		c0.3,0.3,0.5,0.6,0.8,0.9c0.4,0.4,0.8,0.8,1.1,1.1h0c0.1,0.1,0.2,0.2,0.2,0.2c0,0,0,0,0.1,0.1c0,0,0,0,0,0c0,0,0,0,0.1,0
		c0,0,0.1,0,0.1,0c0,0,0,0,0-0.1c0,0,0-0.1,0-0.1c0-0.1,0-0.1,0-0.2h0l0-2.4v0c0-0.1,0-0.2,0-0.2c0,0,0,0,0,0c0,0,0,0,0,0h0
		c0,0,0.1,0,0.1,0c0,0,0.1,0,0.1,0c0,0,0.1-0.1,0.1-0.1c0,0,0-0.1,0-0.1c0,0,0,0-0.1,0c0,0-0.1,0-0.1,0c-0.1,0-0.1,0-0.2,0v0
		c0,0-0.1,0-0.1,0c0,0,0,0,0,0c0,0,0,0,0,0c0,0,0,0,0,0c0,0-0.1,0-0.1,0v0c-0.1,0-0.2,0-0.3,0c0,0-0.1,0-0.1,0c0,0,0,0-0.1,0
		c0,0,0,0.1,0,0.1c0,0,0,0.1,0.1,0.1c0,0,0.1,0,0.1,0c0.1,0,0.1,0,0.2,0l0,0l0,0c0,0,0,0,0,0c0,0,0,0,0,0l0,0l0,0c0,0,0,0.1,0,0.2v0
		l0,1.7C106.6,78.2,106.3,77.9,106.1,77.7L106.1,77.7z"/>
	<path d="M119.1,76.2c0,0-0.1,0-0.1,0c0,0,0,0-0.1,0.1c0,0,0,0.1,0,0.1c0,0,0,0.1,0.1,0.1c0,0,0.1,0,0.1,0c0,0,0.1,0,0.1,0
		c0,0,0,0,0.1,0c0,0,0,0,0,0.1c0,0.1,0,0.4,0,0.9v0.7c0,0.5,0,0.8,0,0.9v0c0,0.1,0,0.1,0,0.1c0,0,0,0,0,0l0,0c0,0-0.1,0-0.1,0
		c0,0-0.1,0-0.1,0c0,0-0.1,0.1-0.1,0.1c0,0,0,0.1,0,0.1c0,0,0,0,0.1,0.1c0,0,0.1,0,0.1,0c0,0,0.1,0,0.2,0v0c0.1,0,0.2,0,0.2,0
		c0,0,0,0,0,0c0,0,0,0,0.1,0c0.1,0,0.1,0,0.2,0c0.2,0,0.4,0,0.7,0c0,0,0.1,0,0.1,0c0,0,0.1,0,0.1,0l0,0c0,0,0,0,0,0c0,0,0,0,0,0l0,0
		c0,0,0.1,0,0.1-0.1c0,0,0-0.1,0-0.1l0,0c0-0.1,0.1-0.3,0.1-0.4c0,0,0-0.1,0-0.1c0,0,0,0,0-0.1c0,0-0.1,0-0.1,0
		c-0.1,0-0.1,0-0.1,0.1c0,0,0,0.1,0,0.1l0,0c0,0.1-0.1,0.2-0.1,0.2v0c0,0-0.2,0-0.3,0c-0.1,0-0.2,0-0.2,0c-0.1,0-0.1,0-0.1,0
		c0,0,0,0,0,0c0,0,0-0.1,0-0.1v-1c0.2,0,0.4,0,0.5,0c0.1,0,0.1,0,0.1,0.1l0,0c0,0,0,0.1,0,0.1c0,0,0,0.1,0,0.1c0,0,0.1,0.1,0.1,0.1
		s0.1,0,0.1,0c0,0,0,0,0-0.1c0,0,0-0.1,0-0.1c0-0.1,0-0.1,0-0.2h0c0,0,0-0.1,0-0.1h0c0,0,0,0,0,0c0,0,0,0,0,0c0,0,0-0.1,0-0.1
		c0,0-0.1-0.1-0.1-0.1c0,0-0.1,0-0.1,0c0,0,0,0,0,0c0,0,0,0,0,0c0,0,0,0,0,0c0,0-0.1,0-0.1,0h0c0,0-0.2,0-0.5,0v-1
		c0.2,0,0.4,0,0.4,0v0c0.1,0,0.1,0,0.2,0c0,0,0,0,0,0c0,0,0,0,0,0.1c0,0,0,0.1,0,0.1c0,0,0.1,0.1,0.1,0.1c0.1,0,0.1,0,0.1-0.1
		c0,0,0-0.1,0-0.1l0,0l0,0c0-0.1,0-0.2,0-0.3h0c0,0,0-0.1,0-0.1c0,0,0,0,0-0.1c0,0,0,0,0,0c0,0,0,0,0-0.1c0,0,0,0,0-0.1
		c0,0-0.1,0-0.1,0c0,0,0,0-0.1,0h0l0,0c0,0-0.1,0-0.1,0h0c-0.1,0-0.4,0-0.9,0c0,0,0,0,0,0c0,0,0,0,0,0c0,0,0,0,0,0v0.1
		c0,0,0,0-0.1,0c0,0,0-0.1,0-0.1c0,0,0,0,0,0c0,0,0,0,0,0c0,0,0,0,0,0c0,0,0,0,0,0c0,0,0,0,0,0c0,0,0,0,0,0c0,0-0.1,0-0.1,0v0
		C119.3,76.2,119.2,76.2,119.1,76.2z M119.1,79.5C119.1,79.5,119.1,79.5,119.1,79.5C119.1,79.5,119.1,79.5,119.1,79.5
		C119.1,79.5,119.1,79.5,119.1,79.5z M120.5,77.6C120.5,77.6,120.5,77.6,120.5,77.6C120.5,77.6,120.5,77.6,120.5,77.6
		C120.5,77.6,120.5,77.6,120.5,77.6z M120.6,76.2C120.6,76.2,120.6,76.2,120.6,76.2C120.6,76.2,120.6,76.2,120.6,76.2
		C120.6,76.2,120.6,76.2,120.6,76.2L120.6,76.2C120.6,76.2,120.6,76.2,120.6,76.2z M119.5,79.4C119.5,79.4,119.6,79.4,119.5,79.4
		c0.1,0,0.1,0.1,0.1,0.1c0,0,0,0,0,0c0,0,0,0,0,0c0,0,0,0,0,0c0,0,0,0,0,0V79.4z"/>
	<path d="M91.4,76.8c0-0.1-0.1-0.2-0.1-0.2c0,0,0,0,0,0h0c0,0,0,0,0,0c0,0,0,0,0,0c0,0,0,0,0,0s0,0,0,0s0,0,0,0c0,0,0,0,0,0s0,0,0,0
		c0,0,0,0,0,0c0,0,0,0,0,0s0,0,0,0c0,0,0,0,0,0c0,0,0,0,0,0s0,0,0,0c0,0,0,0,0,0s0,0,0,0s0,0,0,0c0,0,0,0,0,0s0,0,0,0s0,0,0,0
		c0,0,0,0,0,0s0,0,0,0s0,0,0,0c0,0,0,0,0,0s0,0,0,0c0,0,0,0,0,0c0,0,0,0,0,0s0,0,0,0c0,0,0,0,0,0s0,0,0,0s0,0,0,0c0,0,0,0,0,0
		s0,0,0,0s0,0,0,0c0,0,0,0,0,0s0,0,0,0s0,0,0,0c0,0,0,0,0,0s0,0,0,0s0,0,0,0c0,0,0,0,0,0s0,0,0,0c0,0,0,0,0,0c0,0,0,0,0,0h0
		c0,0,0,0,0,0s0,0,0,0s0,0,0,0c0,0,0,0,0,0c0,0,0,0,0,0s0,0,0,0c0,0,0,0,0,0s0,0,0,0s0,0,0,0c0,0,0,0,0,0s0,0,0,0s0,0,0,0
		c0,0,0,0,0,0h0c0,0,0,0,0,0c0,0,0,0,0,0h0c0,0,0,0,0,0c0,0,0,0,0,0s0,0,0,0s0,0,0,0c0,0,0,0,0,0s0,0,0,0s0,0,0,0c0,0,0,0,0,0
		s0,0,0,0c0,0,0,0,0,0c0,0,0,0,0,0s0,0,0,0s0,0,0,0h0c0,0,0,0,0,0c0,0,0,0,0,0c0,0,0,0,0,0s0,0,0,0c0,0,0,0,0,0s0,0,0,0s0,0,0,0
		c0,0,0,0,0,0s0,0,0,0s0,0,0,0c0,0,0,0,0,0s0,0,0,0s0,0,0,0c0,0,0,0,0,0s0,0,0,0s0,0,0,0c0,0,0,0,0,0s0,0,0,0c0,0,0,0,0,0
		c0,0,0,0,0,0s0,0,0,0c0,0,0,0,0,0s0,0,0,0s0,0,0,0c0,0,0,0,0,0s0,0,0,0s0,0,0,0c0,0,0,0,0,0s0,0,0,0s0,0,0,0c0,0,0,0,0,0s0,0,0,0
		s0,0,0,0c0,0,0,0,0,0s0,0,0,0c0,0,0,0,0,0c0,0,0,0,0,0s0,0,0,0c0,0,0,0,0,0s0,0,0,0s0,0,0,0c0,0,0,0,0,0c0,0,0,0,0,0s0,0,0,0
		c0,0,0,0,0,0s0,0,0,0s0,0,0,0c0,0,0,0,0,0s0,0,0,0c0,0,0,0,0,0c0,0,0,0,0,0s0,0,0,0c0,0,0,0,0,0c0,0,0,0,0,0s0,0,0,0c0,0,0,0,0,0
		s0,0,0,0s0,0,0,0c0,0,0,0,0,0c0,0,0,0,0,0s0,0,0,0c0,0,0,0,0,0s0,0,0,0s0,0,0,0c0,0,0,0,0,0s0,0,0,0c0,0,0,0,0,0c0,0,0,0,0,0h0
		c0,0,0,0,0,0c0,0,0,0,0,0s0,0,0,0c0,0,0,0,0,0c0,0,0,0,0,0s0,0,0,0s0,0,0,0c0,0,0,0,0,0s0,0,0,0c0,0,0,0,0,0c0,0,0,0,0,0s0,0,0,0
		c0,0,0,0,0,0h0c0,0,0,0,0,0c0,0,0,0,0,0h0c0,0,0,0,0,0c0,0,0,0,0,0s0,0,0,0s0,0,0,0c0,0,0,0,0,0s0,0,0,0s0,0,0,0c0,0,0,0,0,0
		s0,0,0,0c0,0,0,0,0,0c0,0,0,0,0,0s0,0,0,0s0,0,0,0h0c0,0,0,0,0,0c0,0,0,0,0,0c0,0,0,0,0,0s0,0,0,0c0,0,0,0,0,0s0,0,0,0s0,0,0,0
		c0,0,0,0,0,0s0,0,0,0s0,0,0,0c0,0,0,0,0,0s0,0,0,0s0,0,0,0c0,0,0,0,0,0s0,0,0,0s0,0,0,0c0,0,0,0,0,0s0,0,0,0c0,0,0,0,0,0
		c0,0,0,0,0,0s0,0,0,0c0,0,0,0,0,0s0,0,0,0s0,0,0,0c0,0,0,0,0,0s0,0,0,0s0,0,0,0c0,0,0,0,0,0s0,0,0,0s0,0,0,0c0,0,0,0,0,0s0,0,0,0
		s0,0,0,0c0,0,0,0,0,0s0,0,0,0c0,0,0,0,0,0c0,0,0,0,0,0h0c0,0,0,0,0,0s0,0,0,0s0,0,0,0c0,0,0,0,0,0c0,0,0,0,0,0s0,0,0,0c0,0,0,0,0,0
		s0,0,0,0s0,0,0,0c0,0,0,0,0,0s0,0,0,0s0,0,0,0c0,0,0,0,0,0h0c0,0,0,0,0,0c0,0,0,0,0,0h0c0,0,0,0,0,0c0,0,0,0,0,0s0,0,0,0
		c0,0,0,0,0,0c0,0,0,0,0,0s0,0,0,0s0,0,0,0s0,0,0,0s0,0,0,0c0,0,0,0,0,0c0,0,0,0,0,0s0,0,0,0c0,0,0,0,0,0h0c0,0,0,0,0,0c0,0,0,0,0,0
		c0,0,0,0,0,0s0,0,0,0c0,0,0,0,0,0s0,0,0,0s0,0,0,0c0,0,0,0,0,0s0,0,0,0s0,0,0,0c0,0,0,0,0,0s0,0,0,0s0,0,0,0c0,0,0,0,0,0s0,0,0,0
		s0,0,0,0c0,0,0,0,0,0s0,0,0,0c0,0,0,0,0,0c0,0,0,0,0,0s0,0,0,0c0,0,0,0,0,0s0,0,0,0s0,0,0,0c0,0,0,0,0,0s0,0,0,0s0,0,0,0
		c0,0,0,0,0,0s0,0,0,0s0,0,0,0c0,0,0,0,0,0s0,0,0,0c0,0,0,0,0,0c0,0,0,0,0,0s0,0,0,0c0,0,0,0,0,0c0,0,0,0,0,0s0,0,0,0c0,0,0,0,0,0
		s0,0,0,0s0,0,0,0c0,0,0,0,0,0s0,0,0,0s0,0,0,0c0,0,0,0,0,0s0,0,0,0s0,0,0,0c0,0,0,0,0,0s0,0,0,0c0,0,0,0,0,0c0,0,0,0,0,0h0
		c0,0,0,0,0,0c0,0,0,0,0,0s0,0,0,0c0,0,0,0,0,0c0,0,0,0,0,0s0,0,0,0c0,0,0,0,0,0c0,0,0,0,0,0s0,0,0,0c0,0,0,0,0,0s0,0,0,0s0,0,0,0
		c0,0,0,0,0,0h0c0,0,0,0,0,0c0,0,0,0,0,0h0c0,0,0,0,0,0c0,0,0,0,0,0s0,0,0,0c0,0,0,0,0,0c0,0,0,0,0,0s0,0,0,0s0,0,0,0c0,0,0,0,0,0
		s0,0,0,0c0,0,0,0,0,0c0,0,0,0,0,0s0,0,0,0c0,0,0,0,0,0h0c0,0,0,0,0,0c0,0,0,0,0,0h0c0,0,0,0,0,0c0,0,0,0,0,0s0,0,0,0s0,0,0,0
		c0,0,0,0,0,0s0,0,0,0s0,0,0,0c0,0,0,0,0,0s0,0,0,0c0,0,0,0,0,0c0,0,0,0,0,0s0,0,0,0s0,0,0,0h0c0,0,0,0,0,0c0,0,0,0,0,0c0,0,0,0,0,0
		s0,0,0,0c0,0,0,0,0,0s0,0,0,0s0,0,0,0c0,0,0,0,0,0s0,0,0,0s0,0,0,0c0,0,0,0,0,0s0,0,0,0s0,0,0,0c0,0,0,0,0,0s0,0,0,0s0,0,0,0
		c0,0,0,0,0,0s0,0,0,0c0,0,0,0,0,0c0,0,0,0,0,0s0,0,0,0c0,0,0,0,0,0s0,0,0,0s0,0,0,0c0,0,0,0,0,0s0,0,0,0s0,0,0,0c0,0,0,0,0,0
		s0,0,0,0s0,0,0,0c0,0,0,0,0,0s0,0,0,0s0,0,0,0c0,0,0,0,0,0s0,0,0,0c0,0,0,0,0,0c0,0,0,0,0,0h0c0,0,0,0,0,0s0,0,0,0s0,0,0,0
		c0,0,0,0,0,0c0,0,0,0,0,0s0,0,0,0c0,0,0,0,0,0s0,0,0,0s0,0,0,0c0,0,0,0,0,0s0,0,0,0s0,0,0,0c0,0,0,0,0,0h0c0,0,0,0,0,0c0,0,0,0,0,0
		h0c0,0,0,0,0,0c0,0,0,0,0,0s0,0,0,0s0,0,0,0c0,0,0,0,0,0s0,0,0,0c0,0,0,0,0,0c0,0,0,0,0,0s0,0,0,0c0,0,0,0,0,0c0,0,0,0,0,0s0,0,0,0
		c0,0,0,0,0,0h0c0,0,0,0,0,0c0,0,0,0,0,0c0,0,0,0,0,0s0,0,0,0c0,0,0,0,0,0s0,0,0,0s0,0,0,0c0,0,0,0,0,0s0,0,0,0c0,0,0,0,0,0
		c0,0,0,0,0,0s0,0,0,0c0,0,0,0,0,0c0,0,0,0,0,0s0,0,0,0c0,0,0,0,0,0h0c0,0,0,0,0,0c0,0,0,0,0,0c0,0,0,0,0,0s0,0,0,0c0,0,0,0,0,0
		s0,0,0,0s0,0,0,0c0,0,0,0,0,0s0,0,0,0s0,0,0,0c0,0,0,0,0,0s0,0,0,0s0,0,0,0c0,0,0,0,0,0s0,0,0,0h0l0,0c0,0,0.1,0,0.1,0
		c0,0,0.1-0.1,0.1-0.1c0-0.1,0-0.1-0.1-0.1c0,0,0,0-0.1,0c0,0-0.1,0-0.1,0c-0.1,0-0.1,0-0.2,0v0c0,0-0.1,0-0.1,0c0,0,0,0,0,0
		c0,0,0,0,0,0c0,0,0,0,0,0c0,0-0.1,0-0.1,0v0c-0.1,0-0.2,0-0.3,0c0,0-0.1,0-0.1,0c0,0,0,0-0.1,0c0,0-0.1,0.1-0.1,0.1
		c0,0,0,0.1,0.1,0.1c0,0,0.1,0,0.1,0c0.1,0,0.1,0,0.1,0c0.1,0,0.1,0,0.1,0.1c0,0,0.1,0.1,0.1,0.2l1,2.5c0,0.1,0,0.1,0.1,0.1
		c0,0,0,0.1,0,0.1l0,0c0,0,0,0,0,0c0,0,0,0,0,0l0,0c0,0,0.1,0.1,0.2,0.1c0.1,0,0.1,0,0.1-0.1c0,0,0-0.1,0-0.1L92,79.4l0.1,0.1l0,0
		c0-0.1,0.1-0.2,0.1-0.2h0c0.1-0.2,0.2-0.6,0.5-1.2l0,0c0.3-0.6,0.4-1,0.5-1.1c0-0.1,0.1-0.2,0.1-0.2c0-0.1,0.1-0.1,0.1-0.1
		c0,0,0.1,0,0.1,0c0,0,0.1,0,0.1,0c0,0,0.1-0.1,0.1-0.1c0,0,0-0.1,0-0.1c0,0,0,0-0.1,0c0,0-0.1,0-0.1,0c0,0-0.1,0-0.2,0v0
		c0,0,0,0,0,0c0,0,0,0,0,0c0,0,0,0,0,0c0,0,0,0,0,0c0,0,0,0,0,0c0,0,0,0,0,0c0,0,0,0,0,0s0,0,0,0c0,0,0,0,0,0c0,0,0,0,0,0
		c0,0,0,0,0,0c0,0,0,0,0,0c0,0,0,0,0,0s0,0,0,0c0,0,0,0,0,0c0,0,0,0,0,0c0,0,0,0,0,0s0,0,0,0s0,0,0,0c0,0,0,0,0,0c0,0,0,0,0,0
		c0,0,0,0,0,0c0,0,0,0,0,0c0,0,0,0,0,0c0,0,0,0,0,0c0,0,0,0,0,0c0,0,0,0,0,0c0,0,0,0,0,0c0,0,0,0,0,0c0,0,0,0,0,0c0,0,0,0,0,0
		c0,0-0.1,0-0.1,0v0c-0.1,0-0.2,0-0.3,0c0,0-0.1,0-0.1,0c0,0,0,0-0.1,0c0,0,0,0.1,0,0.1c0,0,0,0.1,0,0.1c0,0,0,0,0.1,0.1
		c0,0,0.1,0,0.1,0c0,0,0.1,0,0.1,0c0,0,0,0,0,0c0,0,0,0.1,0,0.1l0,0c0,0.1-0.2,0.5-0.4,1l0,0c-0.1,0.4-0.3,0.7-0.4,0.9L91.4,76.8z
		 M91.3,76.5L91.3,76.5L91.3,76.5L91.3,76.5z"/>
	<path d="M78.3,79.4c0,0.1,0,0.1,0.1,0.1c0,0,0,0,0.1,0c0,0,0.1,0,0.1,0c0.2,0,0.4,0,0.6,0c0,0,0.1,0,0.1,0c0,0,0,0,0.1,0
		c0,0,0-0.1,0-0.1c0-0.1,0-0.1-0.1-0.1c0,0-0.1,0-0.1,0c0,0-0.1,0-0.1,0c-0.1,0-0.2-0.1-0.3-0.4c-0.4-1-0.7-1.8-0.9-2.5l0,0
		c0-0.1,0-0.1-0.1-0.1c0,0,0,0,0-0.1c0,0-0.1,0-0.1,0c-0.1,0-0.1,0-0.1,0c0,0,0,0,0,0.1c0,0,0,0.1-0.1,0.1h0l-0.9,2.5h0
		c-0.1,0.2-0.2,0.3-0.2,0.3l0,0c0,0-0.1,0-0.1,0c0,0-0.1,0-0.1,0c0,0-0.1,0.1-0.1,0.1c0,0,0,0.1,0,0.1c0,0,0,0,0.1,0
		c0,0,0.1,0,0.1,0c0.1,0,0.2,0,0.3,0v0c0.1,0,0.1,0,0.1,0c0,0,0,0,0,0c0,0,0.1,0,0.1,0v0c0.1,0,0.1,0,0.2,0c0,0,0.1,0,0.1,0
		c0,0,0,0,0.1-0.1c0,0,0-0.1,0-0.1c0-0.1,0-0.1-0.1-0.1c0,0-0.1,0-0.1,0h0c0,0,0,0,0,0c0-0.1,0-0.1,0-0.2l0,0l0.2-0.7H78l0.4,0.9
		c0,0,0,0,0,0C78.3,79.3,78.3,79.3,78.3,79.4z M78.5,79.4C78.5,79.4,78.5,79.4,78.5,79.4L78.5,79.4C78.5,79.4,78.5,79.4,78.5,79.4z
		 M77.4,77.9l0.2-0.7l0.2,0.7H77.4z"/>
	<path d="M114.7,79c0-0.1,0-0.1,0-0.2c0,0,0-0.1,0-0.1c0,0,0-0.1,0-0.1c0,0,0,0,0-0.1c0,0-0.1,0-0.1,0c-0.1,0-0.1,0-0.1,0.1
		c0,0,0,0.1,0,0.1l0,0c0,0.1-0.1,0.2-0.1,0.3h0c-0.1,0.1-0.3,0.2-0.6,0.2c-0.4,0-0.7-0.1-1-0.4l0,0c-0.2-0.3-0.4-0.6-0.4-1
		c0-0.5,0.1-0.8,0.3-1l0,0c0.2-0.2,0.4-0.3,0.9-0.3c0.3,0,0.6,0.1,0.7,0.2c0.1,0.1,0.1,0.2,0.1,0.3c0,0,0,0.1,0,0.1c0,0,0,0,0,0.1
		c0,0,0.1,0,0.1,0c0.1,0,0.1-0.1,0.1-0.1c0,0,0-0.1,0-0.1v0c0-0.2,0-0.3,0-0.4h0c0-0.1,0-0.1,0-0.1c0,0,0-0.1,0-0.1
		c0,0,0-0.1-0.1-0.1c0,0-0.1,0-0.1,0h0c-0.1,0-0.2,0-0.4-0.1h0c-0.2,0-0.4-0.1-0.6-0.1c-0.6,0-1,0.2-1.3,0.5
		c-0.2,0.2-0.3,0.4-0.4,0.6l0,0c-0.1,0.2-0.1,0.4-0.1,0.6c0,0.5,0.2,1,0.5,1.3l0,0c0.4,0.3,0.8,0.5,1.4,0.5c0.3,0,0.6,0,0.8-0.1l0,0
		c0,0,0,0,0,0c0,0,0,0,0,0l0,0c0.1,0,0.1-0.1,0.2-0.2l0,0c0,0,0,0,0,0c0,0,0,0,0,0l0,0C114.7,79.2,114.7,79.1,114.7,79L114.7,79z"/>
	<path d="M86.1,76.7L86.1,76.7C86.1,76.7,86.1,76.7,86.1,76.7C86.1,76.7,86.1,76.7,86.1,76.7L86.1,76.7c-0.2-0.2-0.5-0.4-0.9-0.5
		l0,0c-0.2,0-0.4,0-0.8,0c-0.1,0-0.2,0-0.4,0v0c0,0,0,0,0,0c0,0,0,0,0,0c0,0,0,0,0,0c0,0,0,0,0,0c0,0,0,0,0,0c0,0,0,0,0,0
		c0,0,0,0,0,0c0,0,0,0,0,0s0,0,0,0c0,0,0,0,0,0c0,0,0,0,0,0s0,0,0,0c0,0,0,0,0,0s0,0,0,0c0,0,0,0,0,0c0,0,0,0,0,0c0,0,0,0,0,0
		c0,0,0,0,0,0c0,0,0,0,0,0c0,0,0,0,0,0c0,0,0,0,0,0h0c0,0,0,0,0,0h0c0,0,0,0,0,0h0v0c0,0,0,0,0,0c0,0,0,0,0,0c0,0,0,0,0,0
		c0,0,0,0,0,0c0,0-0.1,0-0.1,0v0c-0.1,0-0.2,0-0.3,0c0,0-0.1,0-0.1,0c0,0,0,0-0.1,0.1c0,0,0,0.1,0,0.1c0,0,0,0.1,0.1,0.1
		c0,0,0.1,0,0.1,0c0,0,0.1,0,0.1,0c0,0,0,0,0.1,0c0,0,0,0,0,0.1c0,0.1,0,0.4,0,0.9v0.7c0,0.5,0,0.8,0,0.9l0,0c0,0.1,0,0.1,0,0.1
		c0,0,0,0,0,0v0c0,0-0.1,0-0.1,0c0,0-0.1,0-0.1,0c0,0-0.1,0.1-0.1,0.1c0,0,0,0.1,0,0.1c0,0,0,0,0.1,0.1c0,0,0.1,0,0.1,0
		c0.1,0,0.1,0,0.2,0v0c0.1,0,0.1,0,0.1,0c0,0,0,0,0,0c0,0,0,0,0,0c0,0,0,0,0,0c0,0,0,0,0.1,0c0.1,0,0.1,0,0.3,0c0.2,0,0.4,0,0.6,0
		c0.6,0,1-0.2,1.3-0.5l0,0c0,0,0,0,0,0s0,0,0,0l0,0c0.3-0.3,0.5-0.8,0.5-1.2C86.5,77.4,86.4,77,86.1,76.7z M83.4,79.5
		C83.4,79.5,83.4,79.5,83.4,79.5C83.4,79.5,83.4,79.5,83.4,79.5C83.4,79.5,83.4,79.5,83.4,79.5z M83.7,79.4
		C83.7,79.4,83.7,79.4,83.7,79.4C83.7,79.4,83.7,79.4,83.7,79.4C83.7,79.4,83.7,79.4,83.7,79.4z M83.7,76.3
		C83.7,76.3,83.7,76.2,83.7,76.3c0-0.1,0.1-0.1,0.1-0.1c0,0,0,0,0,0c0,0,0,0,0,0c0,0,0,0,0,0c0,0,0,0,0,0l0,0.1
		C83.8,76.3,83.8,76.3,83.7,76.3z M83.9,79.4C83.9,79.5,83.9,79.5,83.9,79.4C83.9,79.5,83.9,79.5,83.9,79.4
		C83.9,79.5,83.9,79.4,83.9,79.4C83.9,79.4,83.9,79.4,83.9,79.4C83.9,79.4,83.9,79.4,83.9,79.4z M85.8,78.4L85.8,78.4
		c-0.1,0.2-0.1,0.3-0.2,0.4l0,0c-0.2,0.2-0.5,0.3-0.9,0.3c-0.2,0-0.3,0-0.4,0c-0.1,0-0.1-0.1-0.2-0.1c0,0,0,0,0,0c0,0,0,0,0,0
		c0,0,0-0.1,0-0.2c0-0.1,0-0.4,0-0.9v-0.5c0-0.4,0-0.7,0-0.8c0,0,0,0,0,0c0,0,0.1,0,0.2,0c0.3,0,0.5,0,0.7,0.1l0,0
		c0.2,0.1,0.4,0.2,0.6,0.3l0,0c0.2,0.2,0.4,0.6,0.4,0.9C85.9,78.1,85.9,78.3,85.8,78.4z"/>
	<rect x="75.7" y="80.9" width="46" height="0.9"/>
	<path d="M126.7,30.2c-3-2.5-6.3-3-10.1-1.4c1.3-1.2,2.8-1.5,4.3-1.7c0-0.3-0.4-0.3-0.5-0.5l3.3-0.5c-0.2-0.4-0.8-0.3-0.9-0.7
		c1.3-0.2,2.5,0.3,3.7,0.3c0.1-0.3-0.3-0.4-0.3-0.7c1.4,0,2.8,0.5,4.2,0.9c-0.2-0.5-0.5-0.8-0.9-1.1c-3-2.8-7-2.5-10.2-0.5
		c-1.4,0.9-2.6,2.1-3.5,3.5c0.6-2.3,2.2-3.9,3.8-5.8h-1.3c1.2-0.7,2.2-1.3,3.1-2.3h-1.2c1.6-0.8,3.1-1.4,4.7-2.1
		c-4.6-0.8-8.9,2.5-9.4,7.1c-0.1,0.8,0,1.7-0.4,2.6c-0.6-4.6-1-5.8-2.5-7.3c-1.9-2-5.3-3.1-7.1-2.2c1.4,0.5,2.8,1,4.2,1.9h-1.3
		l3,2.2c-0.4,0-0.7-0.2-1.1,0c1.8,1.7,3.1,3.6,4,5.8c-1.7-2.4-3.7-4.3-6.7-4.8c-3.4-0.5-6.3,0.9-7.6,2.9c1.4-0.5,2.9-0.6,4.3-1.1
		c-0.1,0.3-0.4,0.4-0.4,0.8l3.4-0.6c-0.4,0.5-0.8,0.6-1.1,1l3.3,0.6c0,0.3-0.4,0.3-0.4,0.6c1.8,0,3.2,0.6,4.6,1.9
		c-3.1-1.4-6-1.2-8.8,0.4c-2.7,1.5-4.9,5.2-4.4,7.4c1.1-0.9,2-2.1,2.7-3.3c0,0.6,0.1,1,0.3,1.3c1-0.8,1.4-2,2.1-3
		c0.1,0.6-0.1,1.2-0.1,1.7c1.3-0.5,2-1.6,2.8-2.7c0.1,0.5-0.2,0.8,0,1.2c1.8-0.9,3.6-1.3,5.6-1.5c-6,1-8.6,9-6.7,11.9
		c0.2-0.1,0.3-0.4,0.4-0.6c0.4-1,0.6-2.1,1.3-2.9c0.5-0.7,0.4-1.4,0.5-2.1c0-0.1,0-0.2,0.1-0.2l0.5,0.6c0.7-0.8,1-1.8,1.1-3l0.5,0.5
		c0.6-1.2,1.3-2.3,2.6-2.9c-0.1,1-0.1,2-0.1,3c0.3,0,0.7-0.1,0.7-0.1c0,0-0.2,0.2-0.4,0.3c-0.1,0-0.2,0.1-0.4,0.2c0,0.1,0,0.1,0,0.2
		c0,0.4,0,0.8-0.1,1.2c0,0,0.1,0,0.2,0c0.4-0.1,0.5-0.1,0.6-0.1c-0.3,0.2-0.7,0.4-0.8,0.6c0,0.3,0,0.6,0,1c0.1,0,0.2,0,0.3-0.1
		c0.3-0.1,0.7,0,0.4,0.1c-0.2,0.1-0.4,0.2-0.7,0.4c0,0.5,0,0.9,0,1.4c0.2-0.1,0.7-0.2,0.7-0.1c0,0.1-0.6,0.4-0.6,0.6
		c-0.1,0.1-0.1,1,0,1.5c0.3-0.1,0.9-0.2,1-0.1c0,0-0.2,0.2-0.4,0.3c-0.2,0.1-0.4,0.3-0.5,0.3l0,0.9c-0.1,0.2-0.2,0.6,0.3,0.5
		c0.5-0.1,0.7-0.1,0.8-0.1c-0.3,0.2-1.1,0.6-1.1,0.7c-0.1,0.1-0.1,0.6-0.1,0.8c0,0.1,0,0.1,0,0.2c0.1,0.1,0.2,0,0.5,0
		c0.3-0.1,0.7,0,0.4,0.1c-0.2,0.1-0.6,0.3-0.8,0.5c0,0.6,0,1.2,0,1.8c0.2-0.1,0.6-0.1,0.6,0c0,0.1-0.4,0.3-0.5,0.5c0,0.5,0,1,0,1.6
		c0.3-0.1,0.9-0.1,0.9-0.1c0,0-0.2,0.2-0.4,0.3c-0.1,0.1-0.4,0.2-0.5,0.3c0,0.5,0,1,0,1.4c0.1,0,0.1,0,0.2,0
		c0.5-0.1,0.7-0.1,0.8-0.1c-0.3,0.2-0.8,0.5-1,0.6c0,0.3,0,0.7,0,1c0.1,0,0.2,0,0.3-0.1c0.3-0.1,0.7,0,0.4,0.1
		c-0.2,0.1-0.5,0.3-0.7,0.4c0,0.8,0,1.5-0.1,2.2c0.3,0,0.6,0,0.6,0c0,0.1-0.4,0.3-0.6,0.4c0,0.6-0.1,1.2-0.1,1.8c0.3,0,1-0.1,1.1,0
		c0,0.1-0.2,0.2-0.5,0.3c-0.2,0.1-0.5,0.3-0.6,0.3l-0.1,1c0,0,0,0.1,0,0.1c0,0.1,0,0.3,0,0.4c0,0.1,0.1,0.2,0.4,0.1
		c0.5,0,0.8,0,0.9,0c-0.4,0.2-1.2,0.6-1.3,0.7c-0.1,0.1-0.2,0.8-0.2,1c0,0.2,0.2,0.1,0.5,0.1s0.8,0,0.4,0.2
		c-0.3,0.1-0.8,0.4-1.1,0.6c0,0,0,0.1,0,0.1l0,0.4H85.8c0-0.3,0-0.6,0-0.9c-0.2-0.1-0.5-0.3-0.7-0.4c-0.2-0.1,0.1-0.1,0.3-0.1
		c0.2,0,0.3,0,0.3-0.1s-0.1-0.6-0.1-0.6c0,0-0.5-0.3-0.8-0.4c0.1,0,0.3,0,0.6,0c0.3,0,0.2-0.2,0.2-0.4l-0.1-0.6
		c-0.1,0-0.3-0.2-0.4-0.2c-0.1-0.1-0.3-0.1-0.3-0.2c0,0,0.4,0,0.7,0c0-0.3,0.1-0.9,0-1c-0.1-0.1-0.4-0.3-0.4-0.4c0,0,0.3,0,0.5,0
		c0-0.4-0.1-0.8-0.1-1.2c-0.1-0.1-0.2-0.2-0.3-0.2c-0.1,0,0-0.1,0.1-0.1c0.1,0,0.1,0,0.1,0c0-0.2,0-0.4,0-0.6c0,0,0,0,0,0
		c0,0-0.3-0.2-0.4-0.3c0,0,0.1,0,0.3-0.1c0.1,0,0.1,0,0.1-0.1c0-0.1,0-0.2,0-0.2c0,0,0,0,0,0l-0.1-0.5c0,0-0.1-0.1-0.2-0.2
		c-0.1,0-0.2-0.1-0.1-0.1c0,0,0.2,0,0.3,0c0-0.3,0-0.8-0.1-0.9c0-0.1-0.2-0.2-0.2-0.3c0,0,0.1,0,0.2,0c0-0.2,0-0.4,0-0.6
		c-0.1-0.1-0.3-0.2-0.4-0.2c-0.2-0.1,0.1-0.1,0.2-0.1c0,0,0.1,0,0.1,0c0-0.2,0-0.5,0-0.7c-0.2-0.1-0.4-0.2-0.5-0.3
		c0.1,0,0.2,0,0.5,0c0,0,0,0,0,0c0-0.3,0-0.7-0.1-1c0,0-0.1-0.1-0.1-0.1c-0.1-0.1-0.3-0.2-0.2-0.2c0,0,0.2,0,0.3,0
		c0-0.4,0-0.8-0.1-1.2c0,0-0.1-0.1-0.1-0.1c0,0,0,0,0.1,0c0-0.2,0-0.4,0-0.6c-0.2-0.1-0.4-0.2-0.5-0.3C84.2,48,84.5,48,84.6,48
		c0.1,0,0.1,0,0.2,0c0-0.2,0-0.4,0-0.7c-0.1-0.1-0.5-0.3-0.6-0.4c0.1,0,0.2,0,0.5,0c0,0,0.1,0,0.1,0c0-0.3,0-0.6,0-0.9
		c-0.1-0.1-0.2-0.1-0.2-0.1c-0.1-0.1-0.3-0.2-0.2-0.2c0,0,0.3,0,0.5,0.1c0-0.3,0-0.7,0-1c-0.1,0-0.2-0.1-0.3-0.1c0,0,0.1,0,0.2,0
		c-0.1-0.1-0.1-0.1-0.1-0.1c0,0,0.1,0,0.2,0c0-0.4,0-0.7,0-1.1c0,0,0,0,0,0c-0.1,0-0.3-0.1-0.3-0.2c0,0,0.1,0,0.3,0
		c0-0.4,0-0.8,0-1.2c-0.1,0-0.1-0.1-0.2-0.1c0,0,0.1,0,0.1,0c0,0,0-0.1,0-0.1c0-0.4,0-0.9,0-1.3c-0.1,0-0.1-0.1,0-0.1
		c0-0.3,0-0.6,0-0.8c-0.1,0-0.2-0.1-0.3-0.1c0,0,0.1,0,0.3,0c0-0.1,0-0.2,0-0.3c0,0,0,0,0,0c0,0,0,0,0,0c0-0.2,0-0.5,0-0.7
		c0,0,0,0,0,0c-0.1,0-0.3-0.1-0.3-0.2c0,0,0.1,0,0.3,0c0-0.1,0-0.2,0-0.3c0,0-0.1,0-0.1-0.1c0,0,0,0,0.1,0c0-0.2,0-0.5,0-0.7
		c-0.1-0.1-0.2-0.1-0.2-0.1c0,0,0.1,0,0.2,0c0-0.6,0-1.2,0-1.8c0,0,0,0-0.1,0c-0.1,0-0.1-0.1,0.1-0.1c0-0.1,0-0.1,0-0.2
		c0-0.2,0-0.3,0-0.5c-0.1-0.1-0.3-0.1-0.3-0.2c0,0,0.2,0,0.4,0c0-0.3,0-0.6,0.1-0.9c-0.1,0-0.1-0.1-0.2-0.1c-0.1,0-0.3-0.1-0.2-0.1
		c0,0,0.3,0,0.5,0c0-0.2,0-0.4,0.1-0.6c0-0.1,0-0.2,0-0.2c0-0.1-0.4-0.2-0.4-0.3c0,0,0.4,0,0.4,0c0,0,0,0,0,0c0-0.2,0-0.5,0-0.7
		c1.1,0.6,2,1.5,2.5,2.7c0.3-0.1,0.2-0.5,0.5-0.5c0.1,1.2,0.3,2.3,1.1,3.3c0.3-0.2,0.2-0.6,0.5-0.8c0.1,0.8-0.1,1.5,0.2,2.3
		c0.1-0.1,0.1-0.2,0.2-0.2c0.1-0.1,0.1-0.2,0.2-0.1c0.1,1.5,0.6,3,1.6,4.1c0.8-2.6,0.6-5.1-0.5-7.4c-1.1-2.4-3.1-3.9-5.6-4.6
		c2,0,3.8,0.7,5.6,1.7c-0.1-0.5-0.1-0.9-0.2-1.3c0.2,0.1,0.4,0.3,0.6,0.5c0.4,0.6,0.9,1.1,1.6,1.5c0.1,0.1,0.3,0.3,0.4,0.2
		c0.1-0.1,0.1-0.2,0.2-0.3s0-0.2,0-0.3c-0.1-0.3-0.1-0.7-0.1-1c1.3,2.3,1.5,2.5,2.2,2.9c0.2-0.3,0-0.6,0.2-1
		c0.7,1.5,1.7,2.5,2.8,3.7c0.2-2.9-1.2-5-3.1-6.6c-3-2.5-6.3-3-10.1-1.4c1.3-1.2,2.8-1.5,4.3-1.7c0-0.3-0.4-0.3-0.5-0.5l3.3-0.5
		c-0.2-0.4-0.8-0.3-0.9-0.7c1.3-0.2,2.5,0.3,3.7,0.3c0.1-0.3-0.3-0.4-0.3-0.7c1.4,0,2.8,0.5,4.2,0.9c-0.2-0.5-0.5-0.8-0.9-1.1
		c-3-2.8-7-2.5-10.2-0.5c-1.4,0.9-2.6,2.1-3.5,3.5c0.6-2.3,2.2-3.9,3.8-5.8h-1.3c1.2-0.7,2.2-1.3,3.1-2.3h-1.2
		c1.6-0.8,3.1-1.4,4.7-2.1c-4.6-0.8-8.9,2.5-9.4,7.1c-0.1,0.8,0,1.7-0.4,2.6c-0.6-4.6-1-5.8-2.5-7.3c-1.9-2-5.3-3.1-7.1-2.2
		c1.4,0.5,2.8,1,4.2,1.9h-1.3l3,2.2c-0.4,0-0.7-0.2-1.1,0c1.8,1.7,3.1,3.6,4,5.8c-1.7-2.4-3.7-4.3-6.7-4.8c-3.4-0.5-6.3,0.9-7.6,2.9
		c1.4-0.5,2.9-0.6,4.3-1.1c-0.1,0.3-0.4,0.4-0.4,0.8l3.4-0.6c-0.4,0.5-0.8,0.6-1.1,1l3.3,0.6c0,0.3-0.4,0.3-0.4,0.6
		c1.8,0,3.2,0.6,4.6,1.9c-3.1-1.4-6-1.2-8.8,0.4c-2.7,1.5-4.9,5.2-4.4,7.4c1.1-0.9,2-2.1,2.7-3.3c0,0.6,0.1,1,0.3,1.3
		c1-0.8,1.4-2,2.1-3c0.1,0.6-0.1,1.2-0.1,1.7c1.3-0.5,2-1.6,2.8-2.7c0.1,0.5-0.2,0.8,0,1.2c1.8-0.9,3.6-1.3,5.6-1.5
		c-6,1-8.6,9-6.7,11.9c0.2-0.1,0.3-0.4,0.4-0.6c0.4-1,0.6-2.1,1.3-2.9c0.5-0.7,0.4-1.4,0.5-2.1c0-0.1,0-0.2,0.1-0.2l0.5,0.6
		c0.7-0.8,1-1.8,1.1-3l0.5,0.5c0.6-1.2,1.3-2.3,2.6-2.9c-0.1,1-0.1,2-0.1,3c0.3,0,0.7-0.1,0.7-0.1c0,0-0.2,0.2-0.4,0.3
		c-0.1,0-0.2,0.1-0.4,0.2c0,0.1,0,0.1,0,0.2c0,0.4,0,0.8-0.1,1.2c0,0,0.1,0,0.2,0c0.4-0.1,0.5-0.1,0.6-0.1c-0.3,0.2-0.7,0.4-0.8,0.6
		c0,0.3,0,0.6,0,1c0.1,0,0.2,0,0.3-0.1c0.3-0.1,0.7,0,0.4,0.1c-0.2,0.1-0.4,0.2-0.7,0.4c0,0.5,0,0.9,0,1.4c0.2-0.1,0.7-0.2,0.7-0.1
		c0,0.1-0.6,0.4-0.6,0.6c-0.1,0.1-0.1,1,0,1.5c0.3-0.1,0.9-0.2,1-0.1c0,0-0.2,0.2-0.4,0.3c-0.2,0.1-0.4,0.3-0.5,0.3l0,0.9
		c-0.1,0.2-0.2,0.6,0.3,0.5s0.7-0.1,0.8-0.1c-0.3,0.2-1.1,0.6-1.1,0.7c-0.1,0.1-0.1,0.6-0.1,0.8c0,0.1,0,0.1,0,0.2
		c0.1,0.1,0.2,0,0.5,0c0.3-0.1,0.7,0,0.4,0.1c-0.2,0.1-0.6,0.3-0.8,0.5c0,0.6,0,1.2,0,1.8c0.2-0.1,0.6-0.1,0.6,0
		c0,0.1-0.4,0.3-0.5,0.5c0,0.5,0,1,0,1.6c0.3-0.1,0.9-0.1,0.9-0.1c0,0-0.2,0.2-0.4,0.3c-0.1,0.1-0.4,0.2-0.5,0.3c0,0.5,0,1,0,1.4
		c0.1,0,0.1,0,0.2,0c0.5-0.1,0.7-0.1,0.8-0.1c-0.3,0.2-0.8,0.5-1,0.6c0,0.3,0,0.7,0,1c0.1,0,0.2,0,0.3-0.1c0.3-0.1,0.7,0,0.4,0.1
		c-0.2,0.1-0.5,0.3-0.7,0.4c0,0.8,0,1.5-0.1,2.2c0.3,0,0.6,0,0.6,0c0,0.1-0.4,0.3-0.6,0.4c0,0.6-0.1,1.2-0.1,1.8c0.3,0,1-0.1,1.1,0
		c0,0.1-0.2,0.2-0.5,0.3c-0.2,0.1-0.5,0.3-0.6,0.3l-0.1,1c0,0,0,0.1,0,0.1c0,0.1,0,0.3,0,0.4c0,0.1,0.1,0.2,0.4,0.1
		c0.5,0,0.8,0,0.9,0c-0.4,0.2-1.2,0.6-1.3,0.7c-0.1,0.1-0.2,0.8-0.2,1c0,0.2,0.2,0.1,0.5,0.1c0.3,0,0.8,0,0.4,0.2
		c-0.3,0.1-0.8,0.4-1.1,0.6c0,0,0,0.1,0,0.1l0,0.4h-5.9v0.9h46v-0.9h-5.1c0-0.3,0-0.6,0-0.9c-0.2-0.1-0.5-0.3-0.7-0.4
		c-0.2-0.1,0.1-0.1,0.3-0.1c0.2,0,0.3,0,0.3-0.1s-0.1-0.6-0.1-0.6c0,0-0.5-0.3-0.8-0.4c0.1,0,0.3,0,0.6,0c0.3,0,0.2-0.2,0.2-0.4
		l-0.1-0.6c-0.1,0-0.3-0.2-0.4-0.2c-0.1-0.1-0.3-0.1-0.3-0.2c0,0,0.4,0,0.7,0c0-0.3,0.1-0.9,0-1c-0.1-0.1-0.4-0.3-0.4-0.4
		c0,0,0.3,0,0.5,0c0-0.4-0.1-0.8-0.1-1.2c-0.1-0.1-0.2-0.2-0.3-0.2c-0.1,0,0-0.1,0.1-0.1c0.1,0,0.1,0,0.1,0c0-0.2,0-0.4,0-0.6
		c0,0,0,0,0,0c0,0-0.3-0.2-0.4-0.3c0,0,0.1,0,0.3-0.1c0.1,0,0.1,0,0.1-0.1c0-0.1,0-0.2,0-0.2c0,0,0,0,0,0l-0.1-0.5
		c0,0-0.1-0.1-0.2-0.2c-0.1,0-0.2-0.1-0.1-0.1c0,0,0.2,0,0.3,0c0-0.3,0-0.8-0.1-0.9c0-0.1-0.2-0.2-0.2-0.3c0,0,0.1,0,0.2,0
		c0-0.2,0-0.4,0-0.6c-0.1-0.1-0.3-0.2-0.4-0.2c-0.2-0.1,0.1-0.1,0.2-0.1c0,0,0.1,0,0.1,0c0-0.2,0-0.5,0-0.7
		c-0.2-0.1-0.4-0.2-0.5-0.3c0.1,0,0.2,0,0.5,0c0,0,0,0,0,0c0-0.3,0-0.7-0.1-1c0,0-0.1-0.1-0.1-0.1c-0.1-0.1-0.3-0.2-0.2-0.2
		c0,0,0.2,0,0.3,0c0-0.4,0-0.8-0.1-1.2c0,0-0.1-0.1-0.1-0.1c0,0,0,0,0.1,0c0-0.2,0-0.4,0-0.6c-0.2-0.1-0.4-0.2-0.5-0.3
		c-0.2-0.1,0.1-0.1,0.2-0.1c0.1,0,0.1,0,0.2,0c0-0.2,0-0.4,0-0.7c-0.1-0.1-0.5-0.3-0.6-0.4c0.1,0,0.2,0,0.5,0c0,0,0.1,0,0.1,0
		c0-0.3,0-0.6,0-0.9c-0.1-0.1-0.2-0.1-0.2-0.1c-0.1-0.1-0.3-0.2-0.2-0.2c0,0,0.3,0,0.5,0.1c0-0.3,0-0.7,0-1c-0.1,0-0.2-0.1-0.3-0.1
		c0,0,0.1,0,0.2,0c-0.1-0.1-0.1-0.1-0.1-0.1c0,0,0.1,0,0.2,0c0-0.4,0-0.7,0-1.1c0,0,0,0,0,0c-0.1,0-0.3-0.1-0.3-0.2c0,0,0.1,0,0.3,0
		c0-0.4,0-0.8,0-1.2c-0.1,0-0.1-0.1-0.2-0.1c0,0,0.1,0,0.1,0c0,0,0-0.1,0-0.1c0-0.4,0-0.9,0-1.3c-0.1,0-0.1-0.1,0-0.1
		c0-0.3,0-0.6,0-0.8c-0.1,0-0.2-0.1-0.3-0.1c0,0,0.1,0,0.3,0c0-0.1,0-0.2,0-0.3c0,0,0,0,0,0c0,0,0,0,0,0c0-0.2,0-0.5,0-0.7
		c0,0,0,0,0,0c-0.1,0-0.3-0.1-0.3-0.2c0,0,0.1,0,0.3,0c0-0.1,0-0.2,0-0.3c0,0-0.1,0-0.1-0.1c0,0,0,0,0.1,0c0-0.2,0-0.5,0-0.7
		c-0.1-0.1-0.2-0.1-0.2-0.1c0,0,0.1,0,0.2,0c0-0.6,0-1.2,0-1.8c0,0,0,0-0.1,0c-0.1,0-0.1-0.1,0.1-0.1c0-0.1,0-0.1,0-0.2
		c0-0.2,0-0.3,0-0.5c-0.1-0.1-0.3-0.1-0.3-0.2c0,0,0.2,0,0.4,0c0-0.3,0-0.6,0.1-0.9c-0.1,0-0.1-0.1-0.2-0.1c-0.1,0-0.3-0.1-0.2-0.1
		c0,0,0.3,0,0.5,0c0-0.2,0-0.4,0.1-0.6c0-0.1,0-0.2,0-0.2c0-0.1-0.4-0.2-0.4-0.3c0,0,0.4,0,0.4,0c0,0,0,0,0,0c0-0.2,0-0.5,0-0.7
		c1.1,0.6,2,1.5,2.5,2.7c0.3-0.1,0.2-0.5,0.5-0.5c0.1,1.2,0.3,2.3,1.1,3.3c0.3-0.2,0.2-0.6,0.5-0.8c0.1,0.8-0.1,1.5,0.2,2.3
		c0.1-0.1,0.1-0.2,0.2-0.2c0.1-0.1,0.1-0.2,0.2-0.1c0.1,1.5,0.6,3,1.6,4.1c0.8-2.6,0.6-5.1-0.5-7.4c-1.1-2.4-3.1-3.9-5.6-4.6
		c2,0,3.8,0.7,5.6,1.7c-0.1-0.5-0.1-0.9-0.2-1.3c0.2,0.1,0.4,0.3,0.6,0.5c0.4,0.6,0.9,1.1,1.6,1.5c0.1,0.1,0.3,0.3,0.4,0.2
		c0.1-0.1,0.1-0.2,0.2-0.3c0-0.1,0-0.2,0-0.3c-0.1-0.3-0.1-0.7-0.1-1c1.3,2.3,1.5,2.5,2.2,2.9c0.2-0.3,0-0.6,0.2-1
		c0.7,1.5,1.7,2.5,2.8,3.7C130,33.9,128.7,31.8,126.7,30.2z"/>
</g>
</svg>
