<?xml version="1.0" encoding="utf-8"?>
<!-- Generator: Adobe Illustrator 26.0.1, SVG Export Plug-In . SVG Version: 6.00 Build 0)  -->
<svg version="1.1" id="Layer_1" xmlns="http://www.w3.org/2000/svg" xmlns:xlink="http://www.w3.org/1999/xlink" x="0px" y="0px"
	 viewBox="0 0 198 100" style="enable-background:new 0 0 198 100;" xml:space="preserve">
<path d="M73.9,34.9c0.1-14.8,11.9-26.5,26.6-26.3c14.5,0.1,26.2,12,26.1,26.5c-0.1,14.6-11.9,26.4-26.4,26.3
	C85.5,61.2,73.8,49.4,73.9,34.9z M112.9,37.6c0.3,0.2,0.5,0.3,0.6,0.4c1.3,0.8,2.7,1.6,4,2.5c0.3,0.2,0.6,0.5,0.8,0.8
	c0.1,0.2,0.1,0.4,0.2,0.6c-0.2,0-0.4,0.2-0.6,0.1c-0.7-0.1-1.4-0.2-2.1-0.3c-5.4-0.8-10.7-0.5-15.9,1c-1.7,0.5-3.3,1.4-4.8,2.2
	c-2.2,1.3-4.4,1.6-6.7,0.1c-0.8-0.5-1.6-0.4-2.3,0.2c-1.2,1.1-2.4,2.3-3.7,3.4c-0.4,0.4-0.4,0.7,0,1.2c6,7.2,15.8,10.2,24.8,7.3
	c9.3-2.9,15.9-11.5,16.3-21.3c0.4-9.8-5.4-18.9-14.5-22.7c-9.1-3.8-19.9-1.2-26.3,6.3C76,27.3,75,38.4,80.3,47
	c0.2,0.4,0.5,0.7,0.7,1.1c1.4-1.2,2.7-2.4,4.1-3.5c1.1-0.8,1.3-1.8,1-3c-0.3-1.1-0.1-2.3,0.3-3.3c0.6-1.2,1.5-2.1,2.6-2.8
	c4.2-2.9,7.5-6.6,9.9-11c1.2-2.1,2-4.5,3-6.8c0.2-0.4,0.5-0.8,0.8-1.2c0.2,0.5,0.5,0.9,0.5,1.4c0.1,1.3,0,2.6,0,4c0,0.2,0,0.5,0,0.7
	c0.1,0,0.1,0,0.2,0c0.3-0.7,0.6-1.3,0.9-2c0.1,0,0.1,0,0.2,0.1c-0.1,1.2-0.2,2.4-0.3,3.8c1-0.7,1.9-1.2,2.8-1.8
	c0.1,0,0.1,0.1,0.2,0.1c-0.5,1.2-0.9,2.4-1.5,3.8c1.1-0.5,2.1-1,3.1-1.4c0.1,0.1,0.1,0.1,0.2,0.2c-0.6,0.8-1.1,1.5-1.8,2.4
	c0.4-0.1,0.6-0.2,0.9-0.2c1.1-0.2,2.2-0.5,3.4-0.7c0.8-0.1,1,0.2,0.6,0.9c-0.3,0.6-0.7,1.1-1,1.7c-0.4,0.6-0.8,1.1-1.3,1.8
	c1.1-0.2,2.2-0.3,3.2-0.5c0,0.1,0,0.2,0.1,0.2c-0.9,0.9-1.7,1.8-2.6,2.6c0,0.1,0.1,0.2,0.1,0.3c1.3,0,2.5,0,3.8,0c0,0.1,0,0.2,0,0.2
	c-1,0.6-2.1,1.1-3.2,1.7c1.4,0.4,2.7,0.7,4,1.1c0,0.1,0,0.1,0,0.2C114.3,37.2,113.7,37.4,112.9,37.6z M102.6,18.1
	c-0.1,0-0.2-0.1-0.4-0.1c-0.2,0.3-0.3,0.6-0.5,0.9c-0.9,2-1.7,4.1-2.7,5.9c-2.1,3.5-4.9,6.5-7.9,9.2c-1.2,1.1-2.5,2.3-3.4,3.7
	c-1.2,1.8-1,4,0.4,5.7c1.1,1.4,3.2,2,5.2,1.4c0.9-0.3,1.8-0.7,2.7-1.1c6.5-2.6,13.3-3.3,20.2-2.5c0.3,0,0.6-0.1,0.9-0.1
	c-0.2-0.3-0.3-0.6-0.5-0.8c-1.3-0.8-2.6-1.7-3.9-2.3c-3.1-1.4-6.4-2.2-9.9-1.4c-0.1,0-0.2,0-0.5,0c0.3-0.1,0.4-0.2,0.5-0.3
	c3.5-1.6,5.8-4.5,7.8-7.7c0.2-0.3,0.3-0.7,0.2-1c-0.1-0.2-0.6-0.3-0.9-0.3c-3.8,0.8-7.3,2.1-10.2,4.8c-0.1,0.1-0.3,0.3-0.5,0.4
	C102.3,28.1,102.9,23.2,102.6,18.1z"/>
<path d="M104.1,76.6c0,4.9,0,9.8,0,14.7c-0.8,0-1.5,0-2.3,0c0-3.3,0-6.6,0-9.9c-0.1,0-0.1,0-0.2-0.1c-0.2,0.3-0.4,0.6-0.6,0.9
	c-1,1.4-2,2.9-3,4.3c-0.5,0.7-0.8,0.7-1.3,0c-1.1-1.5-2.2-3.1-3.3-4.7c-0.1-0.2-0.3-0.4-0.6-0.8c0,3.6,0,6.9,0,10.3
	c-0.8,0-1.5,0-2.3,0c0-4.9,0-9.7,0-14.6c1.4-0.4,2-0.2,2.8,0.9c1.3,1.9,2.7,3.8,4.2,6c0.1-0.3,0.1-0.4,0.2-0.5
	c1.2-1.8,2.5-3.6,3.7-5.5c0.5-0.8,1.1-1.2,2-1C103.5,76.6,103.7,76.6,104.1,76.6z"/>
<path d="M45.8,91.2c-0.8,0-1.5,0-2.3,0c0-4.9,0-9.8,0-14.6c2.4,0,4.8-0.2,7.2,0.1c2.1,0.2,3.3,1.7,3.6,3.9c0.2,2.1-0.7,3.8-2.6,4.6
	c-0.1,0-0.2,0.1-0.3,0.2c1.3,1.9,2.6,3.8,4,5.9c-1,0-1.9,0-2.7,0c-0.2,0-0.4-0.3-0.6-0.6c-1-1.4-2-2.9-2.9-4.4
	c-0.3-0.4-0.6-0.6-1.1-0.6c-0.5,0-1,0-1.4,0c-0.5,0-0.7,0.2-0.7,0.7c0,1.3,0,2.6,0,4C45.8,90.7,45.8,91,45.8,91.2z M45.8,81.1
	C45.8,81.1,45.8,81.1,45.8,81.1c0,0.6,0,1.2,0,1.7c0,0.4,0.2,0.6,0.6,0.6c1,0,2,0,3,0c1.5-0.1,2.4-0.9,2.4-2.2
	c0-1.3-0.8-2.2-2.3-2.3c-1-0.1-1.9,0-2.9-0.1c-0.7,0-0.8,0.2-0.8,0.8C45.8,80.2,45.8,80.6,45.8,81.1z"/>
<path d="M153.4,83.8c0,5.4-4.5,8.9-9.3,7.3c-1.4-0.5-2.5-1.4-3.4-2.6c-2-2.8-1.7-7.3,0.7-9.8c2-2.2,4.6-2.8,7.3-1.8
	c2.8,1,4.3,3.2,4.7,6.2C153.4,83.3,153.4,83.6,153.4,83.8z M151.1,83.9c-0.3-0.9-0.4-1.9-0.8-2.7c-0.7-1.5-2-2.4-3.8-2.4
	c-1.8-0.1-3.1,0.7-4,2.2c-1.1,2.1-1.1,4.2,0.2,6.2c1.6,2.5,5.2,2.6,7.1,0.2C150.6,86.4,150.9,85.2,151.1,83.9z"/>
<path d="M108.4,84c0-2.3,0.7-4.3,2.4-5.9c2.9-2.7,7.4-2.3,9.9,0.8c2.3,2.8,2.2,7.2,0,10c-1.8,2.2-4.6,3.1-7.3,2.3
	c-2.7-0.8-4.7-3.2-5-6.1C108.5,84.7,108.4,84.3,108.4,84z M110.9,84c0,0.2,0,0.5,0.1,0.8c0.3,2.2,1.8,3.9,3.8,4.2
	c2,0.3,3.8-0.8,4.7-2.7c0.7-1.7,0.7-3.4-0.1-5c-1-2.2-3.4-3.1-5.6-2.3C112,79.7,110.9,81.7,110.9,84z"/>
<path d="M169.4,78.6c-0.5,0.6-1,1.1-1.3,1.5c-1.2-0.5-2.2-1.1-3.3-1.3c-2.6-0.5-4.7,1.1-5.2,3.7c-0.1,0.8-0.2,1.6-0.1,2.4
	c0.4,3.5,4.5,5.4,7.4,3.4c0.2-0.1,0.4-0.3,0.4-0.5c0-0.7,0-1.4,0-2.2c-1.2,0-2.3,0-3.5,0c0-0.8,0-1.5,0-2.3c1.2,0,2.5,0,3.7,0
	c0.7,0,1.6-0.2,2,0.2c0.3,0.3,0.1,1.2,0.2,1.9c0,1,0,1.9,0,2.9c0,0.7-0.2,1.2-0.7,1.5c-2.4,1.8-5,2.1-7.8,1
	c-2.7-1.1-3.9-3.3-4.1-6.1c-0.2-2.8,0.5-5.2,2.8-7c2.4-1.8,6.2-1.9,8.6-0.1C168.8,77.9,169.1,78.2,169.4,78.6z"/>
<path d="M38.8,89c0,0.7,0,1.5,0,2.3c-3.4,0-6.8,0-10.3,0c0-4.9,0-9.7,0-14.6c3.3,0,6.7,0,10.1,0c0,0.6,0,1.3,0,1.9
	c0,0.1-0.4,0.3-0.7,0.3c-2.1,0-4.2,0-6.3,0c-0.7,0-1,0.2-0.9,0.9c0.1,0.7,0.1,1.5,0,2.2c0,0.5,0.2,0.7,0.7,0.7c1.9,0,3.9,0,5.8,0
	c0.7,0,0.9,0.1,0.9,0.8c0,1.5,0,1.5-1.5,1.5c-1.7,0-3.4,0-5.1,0c-0.6,0-0.8,0.2-0.7,0.7c0,0.8,0,1.7,0,2.5c0,0.6,0.2,0.7,0.8,0.7
	c2.2,0,4.5,0,6.7,0C38.4,88.9,38.6,89,38.8,89z"/>
<path d="M15.3,86.2c0,1.7,0,3.4,0,5.1c-0.8,0-1.5,0-2.3,0c0-4.9,0-9.8,0-14.6c0.1,0,0.1-0.1,0.2-0.1c2.2,0,4.4-0.1,6.5,0
	c1.8,0.1,3.2,0.9,3.9,2.5c0.8,1.7,0.7,3.5-0.4,5.1c-1,1.4-2.5,1.9-4.2,2C17.9,86.2,16.7,86.2,15.3,86.2z M15.3,78.9
	c0,1.6,0,3.1,0,4.6c0,0.1,0.3,0.4,0.4,0.4c1.2,0,2.4,0.1,3.7,0c1.5-0.1,2.3-1.1,2.3-2.6c0-1.4-0.9-2.3-2.4-2.4
	C18,78.8,16.7,78.9,15.3,78.9z"/>
<path d="M73.6,76.6c0.7,0,1.4,0,2.2,0c0,0.3,0.1,0.6,0.1,0.9c0,2.4,0,4.8,0,7.2c0,0.6,0,1.1,0.2,1.7c0.4,1.8,1.7,2.7,3.5,2.7
	c1.7,0,2.8-1,3.2-2.8c0.1-0.6,0.1-1.2,0.1-1.7c0-2.3,0-4.7,0-7c0-0.3,0-0.6,0-0.9c0.8,0,1.5,0,2.2,0c0,0.1,0.1,0.1,0.1,0.1
	c0,3.1,0.1,6.1,0,9.2c-0.1,3-2,5-4.8,5.4c-2.8,0.4-5.4-0.9-6.4-3.4c-0.3-0.8-0.5-1.7-0.5-2.5c-0.1-2.8,0-5.6,0-8.4
	C73.5,76.9,73.6,76.8,73.6,76.6z"/>
<path d="M59.2,76.6c3.4,0,6.7,0,10.1,0c0,0.7,0,1.3,0,1.9c0,0.2-0.4,0.4-0.7,0.4c-2,0-4.1,0-6.1,0c-1,0-1,0-1,1c0,0.8,0,1.7,0,2.5
	c0,0.5,0.2,0.7,0.7,0.7c1.9,0,3.8,0,5.6,0c0.3,0,0.5,0,0.9,0c0,0.8,0,1.5,0,2.3c-1.1,0-2.2,0-3.2,0c-1,0-2,0-3,0c-1,0-1,0-1,1.1
	c0,1.3,0,2.6,0,4c0,0.2,0,0.5,0,0.8c-0.8,0-1.5,0-2.3,0C59.2,86.4,59.2,81.5,59.2,76.6z"/>
<path d="M172.8,76.5c0.9,0,1.7,0,2.4,0c0.3,0,0.6,0.3,0.7,0.5c1.1,1.7,2.3,3.5,3.4,5.4c0.3-0.5,0.6-0.9,0.9-1.3
	c0.9-1.4,1.8-2.8,2.7-4.2c0.2-0.2,0.5-0.4,0.8-0.5c0.7-0.1,1.4,0,2.2,0c-0.1,0.2-0.1,0.4-0.2,0.5c-1.6,2.4-3.1,4.7-4.7,7.1
	c-0.3,0.5-0.5,1.1-0.5,1.7c-0.1,1.6,0,3.2,0,4.8c0,0.5-0.1,0.7-0.6,0.7c-1.8,0-1.8,0-1.8-1.7c0-1.2,0-2.5,0-3.7
	c0-0.6-0.2-1.2-0.5-1.7c-1.4-2.3-2.9-4.6-4.4-6.9C173.1,77.1,173,76.9,172.8,76.5z"/>
<path d="M126.7,76.6c0.8,0,1.5,0,2.3,0c0,0.3,0,0.6,0,0.9c0,3.5,0,7.1,0,10.6c0,0.7,0.2,0.9,0.9,0.9c2,0,4,0,6,0c0.3,0,0.5,0,0.9,0
	c0,0.7,0,1.3,0,1.9c0,0.1-0.3,0.4-0.4,0.4c-3.2,0-6.4,0-9.7,0C126.7,86.4,126.7,81.5,126.7,76.6z"/>
</svg>
