<svg style="width:180px; height: auto;" class="black-logo" xmlns="http://www.w3.org/2000/svg"
     xmlns:xlink="http://www.w3.org/1999/xlink" version="1.1" id="Layer_1" x="0px" y="0px" viewBox="0 0 5778 1076"
     xml:space="preserve">
        <style type="text/css">
          .st0{fill:#E0E0E0;}
          .st1{fill:#010101;}
          .st2{font-family:'Helvetica-Light';}
          .st3{font-size:12.142px;}
          .st4{fill:#202020;}
          .st5{fill:none;}
          .st6{fill:#FDFEFF;stroke:#202020;stroke-width:30.3549;stroke-miterlimit:10;}
          .st7{fill:#FDFEFF;stroke:#202020;stroke-width:65.5665;stroke-miterlimit:10;}
          .st8{fill:#FDFEFF;stroke:#202020;stroke-width:24.2839;stroke-miterlimit:10;}
        </style>
    <g>
          <path class="st0"
                d="M160.2,394.4C137.9,450.2,134.7,511,134.7,511c-1.5,28.5-0.3,70.5,17.5,132.7   c27.1,94.8,60.1,210.1,169.5,276.4c78.5,47.6,157,46.1,179.7,44.9c87.4-4.5,147-44.4,176.1-64.4c90.2-62.1,138.3-153.3,150-209.2   c3.3-15.6,9.5-56.3,10.6-101c1.2-44.7-2.6-79.3-5.3-101c-18.5-148.9-28.8-223.1-53.2-255.2C676.9,99,227.5,226.3,160.2,394.4z"></path>
        <text transform="matrix(1 0 0 1 68.4707 792.5582)" class="st1 st2 st3">v</text>
        <path class="st4"
              d="M445.6,856.2c0.5,0.2,2.2,0.9,3.5,2.7c1.5,1.9,1.6,3.9,1.8,5.9c0,0,0.4,2.7,2.5,9.9c0,0,1.6,5.3,4.8,10.3   c4.6,7,13.3,11.3,21.1,12.8c15.2,3,27.4-6.1,31.2-10.4c3.4-3.8,5.8-8.5,5.8-8.5c1-2,1.6-3.7,1.7-4c0.8-2.2,1.2-4.1,1.3-4.7   c0.1-0.8,0.3-1.5,0.5-2.9c0.2-1.1,0.3-2,0.4-2.6l0,0c0.3-2,0.5-3.3,0.8-4.2c0.7-1.9,2.1-3,2.3-3.2c1.1-0.8,2.1-1.1,2.8-1.3   c2.2-0.6,4-0.1,4.5,0c1.1,0.3,1.9,0.8,2.3,1.1c0.5,0.3,1.5,1,2.3,2.3c0.2,0.2,0.8,1.2,1.1,3.4c0.3,1.9,0.1,3.4,0,4.7   c-0.2,1.8-0.5,4.1-1.2,7.2c-0.9,3.9-2.1,6.9-2.8,8.6c-0.5,1.2-2.6,6-6.2,10.9c-8.6,11.5-21,17.3-29.6,19.2c-4.3,0.9-8.6,1.1-9,1.1   c-1.1,0-5.5,0.2-10.7-0.7c-14.3-2.5-24.2-11.1-25.1-11.9c-1-0.9-6.3-5.6-10.6-13.5c-2.5-4.6-3.8-8.4-4.8-11.6   c-0.4-1.1-1.4-4.5-1.9-9.1c-0.3-2.4-0.3-4.1,0.3-6.1c0.3-1,0.8-2.6,2.4-4s3.3-1.8,4-1.9C442,855.6,443.7,855.5,445.6,856.2z"></path>
        <rect x="323.3" y="601.5" class="st5" width="337.3" height="130.8"></rect>
        <path class="st4"
              d="M896,368.9c-0.2-74.2-31.2-129.4-45-153.1c-13.5-23.3-37.5-63.8-77.7-81.2c-21.5-9.3-37.5-7.7-41.3-7.3   c-20.1,2.4-34,12.9-40.1,18.2c1.4-9.2,2.7-22.1,2.4-37.6c-0.4-21-1.3-50.9-18.2-81.4c-4.5-8-11.6-19-23.1-30.4   c4,7.7,9.1,18.8,13.4,32.8c3.4,11.3,7.5,24.8,7.3,42.5c-0.1,9.7-1.5,25.9-9.7,44.9c-1.5-12.4-5.7-32.4-19.4-52.2   C634,48.8,621.9,39.7,615.5,35c-2.4-1.8-13.4-9.8-30.4-17c-12-5.1-31.5-11.7-57.1-13.4c12.3,3.5,39.8,13.1,64.4,38.9   c23.8,25,32.2,51.9,35.2,64.4c-10.8-8.6-27.9-20-51-27.9c-15.3-5.2-27.6-7-38.9-8.5c-16.6-2.2-40.2-4-71.6-1.2   c-13,1.2-54.7,5.5-106.8,24.3c-61,21.9-102.9,51.5-121.4,65.6c-14,10.7-34,26-55.9,51c-12.3,14-34.8,40.2-52.2,80.1   c-29.1,66.9-24.1,127.3-21.9,150.6c2.1,22.5,6.3,40.9,9.7,53.4c9.9-9.5,24.1-22.8,42-37.8c13-10.9,21.3-17.9,32.1-25.3   c6.5-4.4,30.7-20.6,60.7-30.4c46-15,87-9,105.6-6.1c26.2,4.1,47.1,11.7,98.3,20.6c6.6,1.2,19.1,3.3,35.2,1.2   c8.4-1.1,23.3-4,42.5-14.6c7.6-4.2,41.2-23.6,83.8-86.2c11.3-16.6,25.9-40.2,40.1-70.4c4.5,12.8,11.1,31.2,19.4,53.4   c14,37.5,19.4,49.8,25.5,61.9c5,10,23.7,46.3,43.7,55.9c7.4,3.5,17,7.3,17,7.3c8.6,3.4,14.8,5.3,17,6.1c23.8,8,45,31.1,51,37.6   c5.5,5.9,12.5,14.4,19.4,25.5c9.2-9.9,22-26,31.6-48.6C885.4,438.9,896.1,412.7,896,368.9z"></path>
        <g>
            <g>
              <path class="st4"
                    d="M294.7,960.6c0-1.7,1.3-2.7,2.9-2.3l124.1,27.8c1.6,0.4,2.9,2,2.9,3.7v49.9c0,1.7-1.3,3.3-2.9,3.7     l-124.1,27.8c-1.6,0.4-2.9-0.7-2.9-2.3V960.6z"></path>
            </g>
            <rect x="438" y="986.8" class="st4" width="94.7" height="55.9"></rect>
            <g>
              <path class="st4"
                    d="M676,961c0-1.7-1.3-2.7-2.9-2.3L549,986.5c-1.6,0.4-2.9,2-2.9,3.7v49.9c0,1.7,1.3,3.3,2.9,3.7l124.1,27.8     c1.6,0.4,2.9-0.7,2.9-2.3V961z"></path>
            </g>
          </g>
        <g>
            <path class="st6" d="M417.1,679.2c15.4-5.9,40.5-13.3,72-12.9c29,0.4,52.1,7.2,67,12.9"></path>
            <path class="st7" d="M1.4,699.6c12,0,24.1,0,36.1,0"></path>
            <circle class="st8" cx="237.1" cy="700.4" r="204"></circle>
            <path class="st8"
                  d="M938.7,699.6c0,112.7-91.3,204-204,204s-204-91.3-204-204s91.3-204,204-204    C847.4,495.7,938.7,587,938.7,699.6"></path>
            <g>
              <path class="st4"
                    d="M734.8,635.2c-24.9,17.5-49.8,34.9-74.8,52.4c49.8,0,99.6,0,149.3,0C784.6,670.1,759.7,652.7,734.8,635.2z"></path>
                <rect x="689.2" y="686.8" class="st4" width="91.1" height="77.3"></rect>
            </g>
            <path class="st7" d="M933.3,699.6c12,0,24.1,0,36.1,0"></path>
            <g>
              <path class="st4"
                    d="M237.2,635.2c-24.9,17.5-49.8,34.9-74.7,52.4c49.8,0,99.6,0,149.3,0C286.9,670.1,262,652.7,237.2,635.2z"></path>
                <rect x="191.5" y="686.8" class="st4" width="91.1" height="77.3"></rect>
            </g>
          </g>
        </g>
    <g>
          <g>
            <path class="st1"
                  d="M3237.3,531c0-35.5-1.1-71,0-106.5c0.9-43.2,19-84.4,50.3-114.2c36-33.5,80-38.9,103.8-41.9    c7.2-0.9,25.6-0.9,61.5-0.9c51.9,0,77.8,0,86.5,1c29.8,3.3,80.1,9.1,115.3,46.5c41.1,43.3,37.3,103.9,35.8,118.7h-142.4    c1.2-10,2.4-32.7-11.9-47.5c-11.7-12-31.6-12.2-71.2-11.9c-38,0-57.3,0.7-71.3,11.9c-13.7,12.2-22.2,29.2-23.7,47.5v201.8    c0.6,18.6,9.2,36,23.7,47.7c10.3,7.6,22.8,11.8,35.6,11.9h71.2c13,1.4,26-3,35.6-11.9c6.4-6.4,10.5-14.7,11.9-23.7V588h-118.7    c0-22.8,0-45.7,0-68.2c0-12.8,0-25.6,0-38.2h261.1c0.9,12.7,6.9,115.4,0,178c-1.4,16.4-5.4,32.4-11.9,47.5    c-7.3,16.3-17.2,31.3-29.3,44.4c-29.2,30.1-68.9,47.8-110.8,49.4c-45.4,2.1-90.9,1.3-136.4,0c-98.7-2-162.6-65.6-165-163.4    C3236.6,602,3237.3,566.4,3237.3,531z"></path>
              <path class="st1"
                    d="M5618.6,269.6c23-1,46,3.3,67.1,12.8c22.2,10.3,41.5,25.8,56.2,45.3c23.6,30.4,36.7,67.5,37.5,106l-129.5-3.2    c2.1-15.9-2.5-32-12.8-44.3c-1.3-1.3-2.7-2.6-4.2-3.7c-8.5-6.1-25.6-7.8-90.8-8.5c-47.4,0-61.1,0.6-71.2,11.9    c-7.8,10.2-11.9,22.8-11.8,35.6c-0.6,8.5-2.2,27.5,9.3,39.3c5.7,5.3,13,8.7,20.7,9.6c54.5,9.4,107.5-2.9,171.6,10.4l4.5,0.9    c16.4,3.8,62.2,17.1,90.4,58.4c25.6,37.9,23.7,80.2,22.6,102.3c-0.7,30.1-9.3,59.5-24.9,85.3c-16.7,26.6-40.6,48-68.9,61.7    c-21.5,10.5-37.3,12.4-142.3,11.9c-100.4,0-113-2.3-130.5-11.9c-32.4-18.9-57.4-48.2-71.2-83c-9-22.6-13-46.9-11.9-71.2h130.6    c0.1,12.8,4.2,25.3,11.8,35.6c17,21.9,46.4,22.7,83,23.8c34.8,0.9,56.4,1.5,70.6-14.3c14.1-15.9,12.8-36.6,12.5-45    s-0.8-25.6-11.9-35.6c-8-6.5-18-9.8-28.3-9.4c-60.8-1.4-107.9,1.4-137.7-2.5c-9.4-1.3-69.9-10.1-106.8-59.7    c-30.3-40.3-28.6-86.4-28-103.1c0.3-33,10.4-65.1,29-92.3C5402,265.6,5491,267.6,5500,268L5618.6,269.6z"></path>
              <path class="st1"
                    d="M5304.7,801.6h-178c-29.7-34-57.4-69.7-83.1-106.8c-22.8-33.1-42.6-65-59.7-95v201.7h-142.3    c0-164.8,0-329.5,0-493.9c0-3.8,0-36.3,0-40.2H4984v201.8l154.3-201.8h166.2c-93.8,127.9-160.5,217.9-178,237.4    c-6.3,6.5-10.5,14.8-11.9,23.8c-0.7,12.9,3.5,25.6,11.9,35.6C5143.3,587.1,5210.9,678.1,5304.7,801.6z"></path>
              <path class="st1"
                    d="M2824.1,671V267.5h142.4c-0.9,155.3,0,275.5,0,344.2c0,16.4,0,55.4,23.7,71.2c13,8.5,32.1,9.7,58.5,11.3    c11.8,0.6,23.7,0.6,35.6,0c19.6-0.7,48-1.1,84.1,0.6v106.8h-44c-56.8-0.3-113.4-0.3-169.7,0c-30.8-2.7-59.9-15.1-83.1-35.6    C2844.5,741.3,2827.6,707.5,2824.1,671z"></path>
              <path class="st1"
                    d="M2218.8,635.5l-139.1,0.6c1.5,17.1-4,34.1-15.2,47.1c-4.1,4.1-14.8,13.1-83.1,11.9    c-58.8-1.1-69.6-8.5-76-14.1c-10.6-10.9-16.9-25.3-17.8-40.5c-0.4-17.1-0.8-35-1.1-52.5c12.6,0,31.5,0.7,54.5,0.9    c53.8,0.5,93.2,0,112.6-0.6c37.7-0.7,92.7-1.2,165.2,0c0.4-36.7,0-68.8,0-95c-0.6-66.7-4.9-87-7.3-98.7    c-7.1-35-11.9-58.1-28.2-79.4c-33.3-43.6-91.5-49.2-112.7-50H1910c-78.7-4.4-146.8,54.2-154.1,132.7V683    c5.2,26.5,17.5,51.2,35.6,71.3c25,26.7,58.7,43.5,95,47.4h213.6c32.1-6.3,61.3-23,83.1-47.4C2211,721.4,2223.8,678.3,2218.8,635.5    z M1910.2,398c22.3-21.7,51.2-22.9,71.2-23.7c21.8-0.9,57-2.3,83.1,23.7c31.6,31.5,24.6,77.6,23.7,83.1h-201.7    C1885.5,475.4,1878.6,428.8,1910.2,398z"></path>
              <path class="st1"
                    d="M2752.6,386.2c-5.1-26.6-17.4-51.2-35.6-71.2c-45.1-48.9-108.4-47.8-118.7-47.5h-165.9    c-34.9,0.4-68.5,13-95,35.6c-24.7,21.5-41.5,50.8-47.4,83c-2.8,15.7-2.8,31.8,0,47.5h142.4c-0.3-12.9,3.8-25.5,11.9-35.6    c11.8-13.8,24-10.5,118.7-11.9c17.1,0,34.9-0.6,47.5,11.9c6.3,6.5,10.4,14.8,11.9,23.8v59.7c-12.3,0-30.3-0.9-52.1-1.2    c-141.9-2.5-165.3,3.9-185.3,13c-29.1,12.5-53.8,33.2-71.2,59.7c-17.4,28.5-25.7,61.6-23.7,95c0.4,22.9,1.3,68.2,35.6,106.8    c27.8,29.5,66.3,46.6,106.8,47.4h320.2L2752.6,386.2L2752.6,386.2z M2579.7,694.7c-12.3,0-38.5,0-70.7-0.5    c-9.7,0.3-19.4-0.2-29.1-1.5c-28.8-4.9-54.9-20-53.9-52.3s24.8-48.5,55.3-51.2c33.2-2.8,66.6-3.4,99.8-2c17.8,0,32.3,0,41.2,0    v107.6L2579.7,694.7z"></path>
              <path class="st1"
                    d="M1672.8,694.8c-4-7.9-8.3-15.6-13.1-23c-2.9-4.3-5.1-7.2-8.5-13.4c-6.1-9.7-9.1-14.7-9-17.9    c0-7.2,7-9.7,17.9-22.3c4.7-5.9,9.1-12,13.1-18.3c15.9-23.8,15.2-73.8,11.9-142.5c-2.9-59.7-1.2-72.2-11.9-94.9    c-8.7-18-20.8-34.1-35.6-47.5c-38.6-35.4-84.3-42.6-114.7-46.6c-9-1.2-13.8-0.7-70-1.6c-37.6-0.5-87.5-0.6-190.3,0    c-17.1,0-31.6,0-40.4,0c0,9.3,0,22.7,0.5,38.9c0.9,90.6,0,121.1,0.7,224.5c0,116.7,1.1,153.5,0,236.3c0,14.4-0.5,26.3-0.8,34.1    h33.2c26.1,0,46.1,0,59.1,0h38.4c0.4-13,0.7-26.2,0.8-39.7c0-23,0-45.4-0.8-67c40.2-0.9,60.9-0.7,72.3,0c3.3,0,14.9,0.5,30.9,0.5    h16.5c10.2,0,43.7,0,59.7,18.8c7.1,8.5,8.5,19,10.6,40.4c1.7,15.8,1.7,31.7,0,47.4h142.4C1686,748.6,1679.8,708.7,1672.8,694.8z     M1542.3,552.4c-6.2,9.5-14.3,17.5-23.8,23.7c-21,13.6-42.1,12.5-71.2,11.9c-20.9,0-52.9-0.9-94.9,0c0-30,0.9-87.2,0.9-127.9    v-17.9c0-28.1-0.5-51.2-0.9-68.2c42,0.8,74,0,94.9,0c29.1-0.6,50.2-1.6,71.2,11.9c9.6,6.4,17.7,14.7,23.8,24.5    c11.6,18,11.9,36,11.9,71.2C1554.1,516.7,1553.9,534.4,1542.3,552.4z"></path>
              <path class="st1"
                    d="M4239.3,636.9l-139.5,0.6c1.4,17-4,33.9-15.2,46.9c-4.1,4-14.8,13-83.1,11.9c-58.8-1-69.6-8-75.9-14.1    c-10.5-10.9-16.9-25.1-17.9-40.2c0-17.6-0.8-35-1.1-52.6c12.6,0,31.5,0.8,54.5,0.9c53.8,0.5,93.2,0,112.6-0.6    c37.8-0.6,92.7-1.1,165.2,0c0.9-21.7,1.6-54.7,0-94.9c-4-96-6.6-145-35.6-178c-27.7-33-69-51.5-112-50.1h-160.9    c-23.8-1.2-47.6,3.4-69.3,13.4c-18.7,8.6-35.4,21-49.1,36.4c-25.8,30.6-39.6,69.6-38.7,109.6v236.8c2.4,34.3,16,66.9,38.7,92.8    c13,14.2,34.1,47.5,95,47.5h213.6c32.1-6.4,61.3-23.1,83.1-47.5C4231.4,722.7,4244.3,679.7,4239.3,636.9z M3930.6,399.6    c22.3-21.7,51.2-22.9,71.2-23.7c21.9-0.9,57-2.3,83.1,23.7c31.6,31.5,24.6,77.6,23.7,83.1h-201.7    C3906,476.9,3899.1,430.3,3930.6,399.6L3930.6,399.6z"></path>
              <path class="st1"
                    d="M4774.6,636.4l-139.1,0.6c1.3,17.1-4.3,34-15.6,46.8c-4,4.1-14.7,13.1-83,11.9c-58.8-1.1-69.7-8.5-76-14.1    c-10.5-10.9-16.8-25.1-17.9-40.2c0-17.1-0.7-35-1.1-52.5c12.7,0,31.5,0.7,54.6,0.9c53.8,0.5,93.2,0,112.5-0.6    c37.8-0.7,92.7-1.2,165.2,0c0.9-21.7,1.6-54.8,0-95c-4-95.9-6.6-145-35.6-178c-27.8-33-69.3-51.4-112.4-49.8h-160.6    c-23.9-1.2-47.8,3.4-69.6,13.4c-18.6,8.6-35.3,20.9-49,36.1c-25.8,30.6-39.6,69.5-38.8,109.6v236.9c2.4,34.3,16.1,66.9,38.8,92.8    c13,14.2,34.1,47.4,94.9,47.4h213.7c32.1-6.3,61.3-23,83-47.4C4766.5,722.2,4779.5,679.3,4774.6,636.4z M4466.4,399    c22.3-21.8,51.2-22.9,71.2-23.8c21.8-0.9,56.9-2.3,83,23.8c31.6,31.5,24.6,77.6,23.8,83h-202.2    C4441.3,476.3,4434.4,429.7,4466.4,399z"></path>
          </g>
        </g>
      </svg>