<svg width="120" height="20" viewBox="0 0 120 20" fill="none" xmlns="http://www.w3.org/2000/svg">
<path d="M5.59893 13.9847C5.09805 13.9847 4.59399 14.0133 4.09626 13.9847C2.61737 13.8849 1.43487 13.2397 0.585263 12.0176C0.395051 11.7449 0.131927 11.4961 0.0336511 11.1949C-0.13437 10.6798 0.350674 9.9712 0.957768 9.74455C1.4333 9.56388 2.03404 9.85075 2.31777 10.4166C2.62212 11.0237 2.91061 11.6388 3.21495 12.2475C3.3363 12.4996 3.52315 12.7146 3.75597 12.8699C3.9888 13.0252 4.25904 13.1151 4.5385 13.1304C5.29371 13.2033 6.05449 13.1969 6.80837 13.1113C7.2518 13.0451 7.66368 12.8427 7.98686 12.532C8.31011 12.2213 8.52866 11.8177 8.61221 11.3772C8.75643 10.4261 8.36973 9.54325 7.42814 9.09625C6.24725 8.53667 5.01721 8.07228 3.79193 7.61103C2.79331 7.23378 1.87554 6.7582 1.14322 5.96567C0.350671 5.12402 0.239717 3.20447 0.938748 2.28505C1.87079 1.05662 3.02315 0.2371 4.66215 0.2752C5.39763 0.291025 6.1347 0.184824 6.87019 0.199074C7.94966 0.221274 8.95938 0.516101 9.79473 1.22305C10.0676 1.46538 10.2975 1.7521 10.4747 2.07108C10.7917 2.6338 10.6728 3.2155 10.2132 3.5341C9.78363 3.83372 9.11786 3.72272 8.72478 3.2488C8.45591 2.96065 8.23203 2.63365 8.06058 2.27875C7.60091 1.13747 6.59913 0.972624 5.5926 0.950424C4.65739 0.929799 3.75705 1.14535 3.22763 2.0806C3.04233 2.3731 2.9601 2.71923 2.99399 3.06385C3.02787 3.40848 3.17595 3.73188 3.41467 3.98275C3.85215 4.46868 4.38461 4.8598 4.97916 5.1319C6.29638 5.7184 7.67381 6.15902 9.01008 6.71702C11.0691 7.58725 12.1629 9.2944 11.0802 11.6721C10.981 11.8858 10.8459 12.0809 10.6808 12.249C9.54903 13.3982 8.23811 14.1417 6.54841 14.0117C6.23139 13.9879 5.91437 14.0117 5.59735 14.0117L5.59893 13.9847Z" fill="black"/>
<path d="M54.4827 0.489384C55.5685 0.562284 56.1518 1.09328 56.5735 2.06018C57.2598 3.62948 59.1556 7.46543 60.1162 9.24548C60.1672 9.34013 60.2437 9.41873 60.3369 9.47236C60.4301 9.52598 60.5365 9.55261 60.644 9.54916C60.7515 9.54564 60.856 9.51233 60.9455 9.45278C61.0351 9.39323 61.1064 9.30991 61.1512 9.21218L61.1703 9.17416C61.4683 8.54011 61.7108 7.87433 62.0135 7.24028C62.6777 5.85016 64.6432 1.74953 65.0252 1.13296C65.0494 1.09426 65.0794 1.05953 65.114 1.02991C65.1909 0.969308 65.2819 0.929334 65.3785 0.913659C65.4751 0.897909 65.5742 0.907132 65.6663 0.940207C65.7584 0.973357 65.8405 1.02938 65.905 1.10303C65.9695 1.17668 66.0142 1.26548 66.0349 1.36118C66.0526 1.43596 66.0664 1.51163 66.0761 1.58783C66.0967 1.74638 65.9826 1.93658 65.905 2.09986C65.4088 3.12698 60.9562 14.4161 57.6783 18.2346C57.655 18.2605 57.6301 18.2848 57.6038 18.3075C56.583 19.1666 54.9883 19.2998 53.9707 18.5817C53.4286 18.2013 53.2194 17.6735 53.4413 17.2439C53.6981 16.7399 54.5335 16.3895 55.0502 16.5671C56.8318 17.1805 58.0096 16.586 58.7181 14.787C59.0351 13.9849 58.948 13.289 58.5596 12.5345C57.4928 10.4343 54.0088 3.46141 53.3398 2.07286C53.1814 1.75583 53.0625 1.19633 53.2289 0.979134C53.4318 0.719184 54.4035 0.483009 54.4827 0.489384Z" fill="black"/>
<path d="M18.6684 0.427391C20.1441 0.465416 20.2535 0.585866 20.7797 1.93159C21.6864 4.24744 22.6518 6.53952 23.5822 8.84427C23.8374 9.47832 24.0245 10.1377 24.3145 10.7463C24.324 10.767 24.3351 10.786 24.3462 10.805C24.4036 10.8863 24.4819 10.9505 24.5728 10.9909C24.6637 11.0313 24.7638 11.0464 24.8626 11.0346C24.9614 11.0227 25.0551 10.9843 25.1339 10.9236C25.2126 10.8628 25.2734 10.7818 25.31 10.6893L25.3353 10.6227C25.6777 9.67167 25.9694 8.69524 26.3324 7.74574C26.7112 6.74554 27.182 5.77864 27.5354 4.77057C27.8176 3.96529 27.8969 3.12837 27.3675 2.35167C27.2652 2.19912 27.1857 2.03254 27.1313 1.85712C26.8824 1.06459 27.3389 0.221292 28.0997 0.0595923C28.6989 -0.0655827 29.501 0.579566 29.5549 1.30549C29.6147 1.80394 29.5815 2.30922 29.4566 2.79552C29.0904 3.96372 28.6387 5.10656 28.2044 6.25264C27.9095 7.03249 27.5861 7.79967 27.2771 8.57479C26.6843 10.0521 26.0724 11.523 25.5113 13.0131C25.2893 13.6011 25.0358 14.0322 24.3209 14.0671C23.5283 14.1068 22.8055 14.0275 22.4441 13.2286C21.7895 11.7735 21.1855 10.2962 20.5499 8.83317C19.946 7.44304 19.3278 6.05922 18.7144 4.67382C18.2388 3.59757 17.7427 2.53077 17.2877 1.44499C16.9707 0.680966 17.1848 0.403617 18.0328 0.390942C18.2468 0.382992 18.4576 0.417866 18.6684 0.427391Z" fill="black"/>
<path d="M40.4901 8.57326C40.4901 9.99031 40.4901 11.4068 40.4901 12.8229C40.4901 13.8183 40.3079 14.0006 39.2918 14.0482C39.1064 14.0577 38.9225 14.064 38.737 14.0577C37.6861 14.0291 37.469 13.7993 37.4547 12.7357C37.4293 9.06466 37.4061 5.39296 37.385 1.72081C37.385 1.20886 37.255 0.557416 37.9334 0.402091C38.6403 0.243541 39.4155 0.126241 40.0226 0.733366C40.7691 1.47834 40.728 1.45141 41.5078 0.660464C42.0721 0.0913642 42.8631 -0.0116852 43.6382 0.000989816C44.8761 0.0200398 45.9017 0.435313 46.4771 1.62571C46.7941 2.29149 46.5246 3.26792 45.8921 3.62777C45.6494 3.76112 45.3663 3.80072 45.0963 3.73907C44.8263 3.67742 44.5883 3.51879 44.4275 3.29326C44.2167 2.99214 44.0424 2.65922 43.8315 2.36597C42.8995 1.04559 41.9136 1.33254 40.9974 2.54671C40.6376 3.02221 40.5441 3.77041 40.5123 4.40446C40.441 5.79136 40.4886 7.18314 40.4901 8.57326Z" fill="black"/>
<path d="M111.228 5.953C112.828 5.953 113.765 6.77252 113.747 8.1991C113.738 9.49412 112.531 10.293 111.272 10.3706C109.908 10.4563 108.955 9.44972 108.851 8.2054C108.746 6.96115 109.876 5.70257 111.228 5.953ZM111.275 6.71387C110.267 6.70592 109.719 7.23062 109.73 8.19115C109.73 8.7586 110.732 9.73187 111.29 9.71762C111.765 9.70495 112.858 8.60807 112.854 8.14997C112.848 7.4113 112.088 6.7186 111.275 6.71387Z" fill="black"/>
<path d="M119.927 7.38121C119.927 8.05808 119.966 8.73811 119.905 9.41018C119.886 9.63998 119.634 10.0094 119.458 10.0283C119.135 10.0494 118.818 9.9417 118.575 9.72878C118.249 9.41175 118.068 8.93626 117.767 8.57798C117.608 8.38936 117.323 8.30535 117.095 8.1738C116.973 8.40848 116.867 8.65095 116.777 8.89973C116.736 9.0408 116.847 9.23265 116.794 9.36105C116.689 9.54668 116.561 9.71866 116.414 9.87301C116.24 9.73973 116.076 9.5946 115.922 9.43868C115.865 9.3753 115.887 9.23738 115.887 9.13433C115.887 8.43165 115.887 7.72891 115.887 7.02616C115.887 6.63151 115.849 6.14011 116.342 6.07508C116.581 6.04343 116.909 6.34141 117.134 6.55861C117.632 7.04521 118.073 7.59046 118.571 8.07713C118.688 8.18963 119.015 8.24828 119.12 8.16901C119.227 8.08981 119.252 7.80128 119.236 7.61265C119.213 7.3305 119.045 7.0452 119.078 6.78045C119.108 6.57915 119.36 6.40958 119.513 6.22568C119.672 6.4032 119.869 6.55861 119.953 6.76148C120.037 6.96436 119.967 7.1736 119.967 7.38285L119.927 7.38121Z" fill="black"/>
<path d="M77.0241 7.2607C76.9859 8.05322 76.9889 8.73482 76.8974 9.40532C76.8651 9.6415 76.6341 9.98867 76.4376 10.0298C76.2906 10.049 76.1414 10.0354 76.0004 9.99017C75.8586 9.94502 75.7296 9.86927 75.6209 9.76832C75.2721 9.38635 75.0569 8.88857 74.7335 8.48125C74.657 8.38907 74.5628 8.31347 74.4562 8.25895C74.3496 8.20442 74.2331 8.17217 74.1137 8.16422C74.0027 8.16422 73.8474 8.5066 73.8093 8.7127C73.7713 8.91872 73.8933 9.1882 73.8411 9.40855C73.7887 9.62882 73.6001 9.76832 73.4718 9.94585C73.2939 9.82007 73.1283 9.67787 72.9772 9.52105C72.9074 9.43547 72.928 9.26905 72.928 9.13907C72.928 8.38615 72.8931 7.63007 72.9534 6.8803C72.9772 6.59177 73.2212 6.31915 73.3655 6.03857C73.6144 6.19712 73.9044 6.30647 74.1073 6.51415C74.6209 7.0198 75.0839 7.57615 75.5939 8.08652C75.6989 8.19115 76.0079 8.2657 76.0694 8.20382C76.1969 8.05405 76.2659 7.8631 76.2629 7.66652C76.2629 7.4113 76.0904 7.14182 76.1331 6.90407C76.1759 6.66632 76.3964 6.46022 76.5389 6.23987C76.7189 6.42017 76.8786 6.62005 77.0144 6.8359C77.0534 6.97442 77.0564 7.12052 77.0241 7.2607Z" fill="black"/>
<path d="M91.2038 7.985C91.2038 7.95965 91.2038 7.93265 91.2038 7.9073C91.0328 5.61365 91.695 5.94177 93.402 5.9798C94.3853 6.00042 94.8113 6.81672 94.5338 7.7567C94.434 8.09592 94.5338 8.50017 94.569 8.86632C94.5923 9.06762 94.7573 9.26255 94.7498 9.45597C94.7415 9.64932 94.626 9.89345 94.488 9.9521C94.35 10.0107 94.0905 9.87597 93.9773 9.746C93.6735 9.39575 93.4163 9.0026 93.1455 8.62377C92.874 8.24495 92.7638 7.92312 93.3248 7.69647C93.6578 7.56177 93.906 7.22097 93.627 6.9737C93.3863 6.75972 92.9108 6.6947 92.565 6.7454C92.4848 6.75575 92.4083 6.78785 92.3445 6.83825C92.2808 6.88857 92.232 6.95532 92.2028 7.03137C92.1743 7.10742 92.1668 7.18985 92.181 7.26987C92.1953 7.3499 92.2313 7.42445 92.2845 7.48565C92.8553 8.24023 92.1465 8.87262 92.1165 9.56532C92.1165 9.67632 91.7363 9.89975 91.6605 9.85542C91.464 9.7397 91.2383 9.51778 91.2053 9.31168C91.1355 8.87743 91.185 8.42562 91.185 7.9802L91.2038 7.985Z" fill="black"/>
<path d="M79.4381 7.81089C79.4119 7.47137 79.4171 7.13004 79.4561 6.79164C79.4974 6.57767 79.6999 6.39377 79.8311 6.19727C79.9729 6.38432 80.1994 6.55704 80.2339 6.76157C80.2706 7.15254 80.2751 7.54599 80.2466 7.93771C80.2466 8.04226 80.2466 8.14854 80.2466 8.25474C80.2706 8.92681 80.8219 9.60361 81.3386 9.59731C81.8554 9.59094 82.5514 8.66522 82.5184 8.08352C82.4741 7.64079 82.4741 7.19477 82.5184 6.75204C82.5469 6.55232 82.8116 6.38589 82.9684 6.20514C83.1176 6.38274 83.3771 6.55389 83.3929 6.74251C83.4536 7.39509 83.4566 8.05171 83.4026 8.70489C83.3044 9.79224 81.8809 10.6403 80.8271 10.29C79.4921 9.83822 79.4111 9.69399 79.4381 7.81089Z" fill="black"/>
<path d="M101.806 5.96569C102.172 5.94821 102.539 5.95301 102.904 5.97994C102.987 6.00274 103.063 6.04279 103.129 6.09739C103.195 6.15206 103.249 6.22009 103.287 6.29696C103.321 6.36671 103.176 6.61399 103.066 6.64571C102.115 6.96274 102.237 7.73944 102.274 8.47016C102.283 8.73011 102.41 9.01069 102.342 9.24206C102.274 9.47351 102.025 9.64474 101.866 9.84289C101.683 9.65899 101.375 9.49414 101.338 9.28489C101.278 8.84404 101.287 8.39659 101.362 7.95814C101.449 7.35904 101.3 6.94849 100.693 6.71704C100.519 6.65044 100.411 6.41111 100.273 6.24941C100.471 6.14801 100.66 5.99104 100.867 5.95781C101.184 5.92729 101.502 5.92249 101.818 5.94349L101.806 5.96569Z" fill="black"/>
<path d="M85.5336 6.25721C85.7646 6.16054 85.9918 5.99404 86.2281 5.98136C86.9083 5.94176 87.5901 5.94176 88.2711 5.98136C88.4578 5.99246 88.6341 6.19541 88.8133 6.30949C88.6701 6.43946 88.5403 6.66139 88.3836 6.68201C87.6591 6.78026 87.5053 7.23521 87.5368 7.85501C87.5871 8.32144 87.5961 8.79131 87.5653 9.25939C87.5323 9.51934 87.2916 9.75551 87.1438 10.0012C86.9856 9.76189 86.7733 9.53996 86.7111 9.28001C86.6398 8.98519 86.7111 8.65864 86.7253 8.34634C86.7733 7.47296 86.8221 6.60274 85.4766 6.53464L85.5336 6.25721Z" fill="black"/>
<path d="M105.771 8.09136C105.749 7.61954 105.755 7.14689 105.791 6.67581C105.811 6.49671 106.049 6.34454 106.187 6.17969C106.328 6.33824 106.585 6.49671 106.592 6.65526C106.637 7.59891 106.642 8.54256 106.607 9.48621C106.607 9.65901 106.346 9.82229 106.206 9.99029C106.061 9.83181 105.815 9.67326 105.791 9.50046C105.755 9.03164 105.749 8.56101 105.771 8.09136Z" fill="black"/>
<path d="M97.025 8.03909C97.0025 7.57154 97.01 7.10302 97.046 6.63629C97.0663 6.47782 97.3183 6.33517 97.4645 6.18457C97.5853 6.33352 97.802 6.47782 97.8103 6.63157C97.8545 7.56674 97.8747 8.50515 97.8432 9.44032C97.8432 9.63374 97.5725 9.81922 97.4262 10.0094C97.2837 9.8208 97.046 9.64484 97.019 9.44189C96.9815 8.97532 96.974 8.50664 96.9988 8.03909H97.025Z" fill="black"/>
</svg>
