<svg width="107" height="64" viewBox="0 0 107 64" fill="none" xmlns="http://www.w3.org/2000/svg">
<path d="M49.5799 15.9894C50.2319 15.5165 50.9328 14.9209 51.7093 14.4536C56.4391 11.6063 62.1961 14.708 62.3601 20.2237C62.4543 23.4273 62.4034 26.6157 62.3996 29.8117C62.3996 30.8105 61.8663 31.3909 61.0579 31.372C60.2495 31.3532 59.752 30.7822 59.7558 29.7759C59.7671 26.8852 59.8029 23.9945 59.8123 21.1075C59.8123 19.6 59.524 18.198 58.3142 17.1502C55.7985 14.9775 52.0617 16.0422 51.1251 19.2363C50.9152 20.0537 50.8133 20.895 50.8217 21.7388C50.7765 24.3243 50.7916 26.9097 50.7746 29.4951C50.769 29.8474 50.7331 30.1986 50.6672 30.5447C50.5522 31.1723 50.1377 31.4512 49.512 31.4531C48.8864 31.4549 48.468 31.1779 48.3361 30.5542C48.2576 30.1869 48.2185 29.8123 48.2193 29.4368C48.2099 26.8758 48.2193 24.313 48.2193 21.7521C48.2193 20.3255 48.0761 18.9254 47.1583 17.7401C46.6419 17.0468 45.9298 16.5239 45.1138 16.2385C44.2978 15.9531 43.4151 15.9182 42.5792 16.1383C40.7268 16.6471 39.4944 18.0623 39.2965 19.9392C39.245 20.4765 39.2217 21.0163 39.2268 21.556C39.2268 24.3073 39.2475 27.0567 39.2551 29.8061C39.2551 30.4053 39.1118 31.0291 38.5013 31.1893C38.066 31.3042 37.4196 31.2288 37.0879 30.9631C36.7563 30.6974 36.6263 30.1076 36.6188 29.6553C36.5791 27.0473 36.5924 24.4374 36.6188 21.8293C36.6188 21.0095 36.7017 20.188 36.7469 19.3683C36.9504 15.6559 41.5503 11.7438 46.4969 14.0296C47.5823 14.5365 48.5397 15.3223 49.5799 15.9894Z" fill="black"/>
<path d="M69.1193 29.6571C69.1193 27.0754 69.0396 24.4881 69.1376 21.9101C69.2714 18.4089 71.0221 15.846 74.143 14.3159C77.3335 12.7499 80.4691 13.1343 83.3765 15.0885C87.5227 17.8812 88.3629 23.5289 85.318 27.6746C82.755 31.1627 78.3587 32.3687 74.3763 30.6313C73.7394 30.3542 73.1968 29.8775 72.5942 29.5006C72.3515 29.3772 72.0999 29.2745 71.8403 29.1934C71.765 29.4704 71.6231 29.7475 71.6231 30.0226C71.6231 32.608 71.659 35.1916 71.6634 37.7752C71.6634 38.6137 71.2407 39.0943 70.5511 39.1508C70.3698 39.1674 70.187 39.148 70.0129 39.0938C69.8389 39.0396 69.6766 38.9516 69.5369 38.8348C69.3972 38.7181 69.281 38.5749 69.1969 38.4135C69.112 38.252 69.0601 38.0754 69.044 37.8939C69.0177 37.6366 69.0075 37.3779 69.0133 37.1194C69.0133 34.6294 69.0133 32.1394 69.0133 29.6495L69.1193 29.6571ZM84.5246 22.4322C84.5326 21.1587 84.1634 19.9113 83.4621 18.8482C82.7608 17.7851 81.7605 16.9539 80.5861 16.4603C79.4124 15.9665 78.1181 15.8324 76.8684 16.0749C75.618 16.3174 74.4677 16.9256 73.5639 17.8223C72.6593 18.7191 72.0422 19.8641 71.7891 21.1123C71.5369 22.3604 71.6597 23.6555 72.1438 24.8334C72.6279 26.0113 73.4505 27.019 74.5079 27.7287C75.5653 28.4385 76.8099 28.8185 78.083 28.8204C78.9261 28.8248 79.7612 28.663 80.5415 28.3442C81.321 28.0254 82.031 27.5558 82.6292 26.9625C83.2274 26.3691 83.7027 25.6634 84.0281 24.8861C84.3535 24.1087 84.5217 23.2748 84.5246 22.4322Z" fill="black"/>
<path d="M20.2907 52.1483C20.1701 52.3876 20.0419 52.6232 19.9345 52.8681C18.9132 55.1936 17.895 57.5177 16.8799 59.8405C16.6424 60.3889 16.3654 60.8375 15.6757 60.8506C14.9446 60.8676 14.677 60.3946 14.4264 59.8198C13.405 57.47 12.3535 55.1295 11.3208 52.7871C11.2283 52.5473 11.0662 52.3405 10.8554 52.1936C10.8403 52.431 10.8139 52.6665 10.812 52.904C10.7989 55.2313 10.7837 57.5585 10.7894 59.8764C10.7894 60.4417 10.6933 60.8318 9.99229 60.8299C9.33461 60.8299 9.1349 60.5246 9.13673 59.9178C9.14997 56.6954 9.13673 53.4749 9.14807 50.2544C9.14807 49.0145 10.0507 48.2872 10.9703 48.7865C11.2999 49.0012 11.5568 49.3105 11.7071 49.674C12.8736 52.2426 14.0024 54.828 15.1576 57.4002C15.2925 57.6318 15.4523 57.848 15.6343 58.0447C15.8219 57.8583 15.9858 57.6494 16.1224 57.4229C17.287 54.8537 18.4408 52.2783 19.584 49.6967C19.8498 49.0994 20.2267 48.6319 20.9352 48.6433C21.6437 48.6546 22.1657 49.2086 22.1713 50.0208C22.194 53.3582 22.1713 56.6973 22.1827 60.0347C22.1827 60.6452 21.851 60.8487 21.2819 60.8469C20.7128 60.845 20.4998 60.5717 20.5036 60.0139C20.5168 57.6396 20.5036 55.2652 20.5036 52.8908C20.5036 52.6496 20.4791 52.4065 20.4678 52.1653L20.2907 52.1483Z" fill="black"/>
<path d="M29.0038 22.8718C29.0038 25.7361 29.1226 28.608 28.9755 31.4648C28.7589 35.6859 26.1922 38.4748 22.0446 39.2795C20.8348 39.5151 20.0415 38.8461 20.1602 37.6928C20.228 37.0069 20.6275 36.6847 21.2908 36.5358C22.1313 36.3473 23.0396 36.223 23.7651 35.8046C25.5139 34.7889 26.4768 33.2456 26.4768 31.1199C26.4429 25.7399 26.4485 20.358 26.4466 14.978C26.4466 13.7756 27.272 13.1199 28.2463 13.5476C28.919 13.8416 29.1074 14.4352 29.1037 15.1136C29.0924 17.2744 29.0786 19.4359 29.0623 21.5979C29.0623 22.02 29.0623 22.444 29.0623 22.8662L29.0038 22.8718Z" fill="black"/>
<path d="M33.2336 0C35.1877 0.0207309 36.5709 1.53205 36.4372 3.49563C36.2487 6.23745 34.807 8.15208 32.167 8.90769C30.456 9.39579 28.6846 9.66146 26.9358 10.0252C26.5458 10.1062 26.3272 9.92529 26.4195 9.51828C26.868 7.53016 27.1732 5.48938 27.8271 3.57102C28.6657 1.10051 30.8724 0.128144 33.2336 0Z" fill="black"/>
<path d="M78.321 58.342C78.0899 58.3031 77.8544 58.2892 77.6204 58.3006C77.442 58.3586 77.2746 58.4459 77.1247 58.5587C77.2563 58.6925 77.3755 58.9262 77.5239 58.9469C78.2669 59.0543 79.0186 59.1052 79.7645 59.1768C80.1396 59.1931 80.514 59.2334 80.884 59.2974C81.1626 59.3528 81.4244 59.4703 81.6511 59.6411C81.8778 59.812 82.0628 60.0318 82.1922 60.2842C82.3224 60.5365 82.3933 60.815 82.3999 61.0986C82.4072 61.3823 82.3502 61.6639 82.2332 61.9225C81.6833 63.2416 80.5374 63.7145 79.2614 63.6316C78.0665 63.5525 76.8892 63.1605 75.7148 62.8647C75.5269 62.8194 75.2819 62.548 75.2892 62.3935C75.3002 62.2716 75.3404 62.154 75.4062 62.0504C75.4713 61.947 75.5605 61.8604 75.6658 61.7981C76.0563 61.6568 76.4731 61.6028 76.887 61.6398C77.6768 61.734 78.457 61.93 79.2409 62.0751C79.4478 62.1181 79.6592 62.1372 79.8705 62.1316C80.3919 62.1033 80.6091 61.7547 80.6354 61.2874C80.6632 60.7861 80.2829 60.7522 79.9151 60.722C79.0712 60.6636 78.2193 60.6279 77.3843 60.5336C76.9652 60.4968 76.5557 60.3844 76.177 60.202C75.2344 59.7082 75.1079 58.8056 75.883 58.0744C76.2859 57.6975 76.3554 57.3829 76.0278 56.9287C75.1722 55.7377 75.385 54.5034 76.0709 53.3483C76.778 52.1705 77.9422 51.8652 79.2541 52.0028C80.2566 52.1083 81.2628 52.1799 82.2595 52.3269C82.4101 52.3484 82.5542 52.4005 82.6844 52.4799C82.8138 52.5593 82.9257 52.6643 83.0134 52.7886C83.0865 52.928 82.846 53.3652 82.6368 53.4971C82.1315 53.8175 81.8939 54.2509 81.9824 54.7974C82.3429 57.0248 80.5601 58.4815 78.321 58.342ZM80.4694 55.1385C80.4687 54.915 80.4226 54.694 80.3348 54.4884C80.2471 54.2829 80.1191 54.0971 79.959 53.9417C79.7981 53.7865 79.608 53.665 79.3996 53.5844C79.1912 53.5039 78.9689 53.4658 78.7451 53.4726C78.5221 53.4766 78.3027 53.5244 78.0987 53.6133C77.8939 53.7022 77.7097 53.8304 77.5546 53.9907C77.4003 54.151 77.2782 54.3402 77.1971 54.5474C77.1152 54.7547 77.0757 54.976 77.0793 55.1988C77.083 55.4215 77.1312 55.6412 77.2197 55.8455C77.3089 56.0498 77.4369 56.2345 77.597 56.3892C77.7579 56.5439 77.9466 56.6655 78.1543 56.747C78.3612 56.8286 78.5828 56.8686 78.8058 56.8646C79.0281 56.8629 79.2489 56.8168 79.4537 56.7289C79.6584 56.6411 79.8442 56.5132 79.9992 56.3528C80.1542 56.1924 80.2756 56.0028 80.3561 55.7949C80.4372 55.5871 80.4752 55.3651 80.4694 55.1422V55.1385Z" fill="black"/>
<path d="M101.7 63.7935C100.809 63.5184 99.759 63.2112 98.7242 62.8513C98.6255 62.8058 98.5392 62.7366 98.4734 62.6499C98.4076 62.5631 98.3645 62.4614 98.3477 62.3539C98.3667 62.2351 98.4127 62.1223 98.4822 62.0243C98.5517 61.9262 98.6431 61.8456 98.7491 61.7885C99.0965 61.6628 99.4679 61.6203 99.8343 61.6641C100.718 61.7847 101.587 62.0184 102.473 62.1164C102.831 62.1499 103.189 62.0417 103.468 61.8149C103.95 61.3401 103.73 60.8331 103.053 60.7634C102.235 60.6824 101.406 60.6861 100.594 60.5617C100.04 60.5001 99.5038 60.3263 99.0182 60.0511C98.2475 59.5573 98.227 58.7112 98.9093 58.0932C99.2976 57.7408 99.4504 57.443 99.0979 56.9625C98.7264 56.4311 98.5283 55.7981 98.5297 55.1497C98.5319 54.5015 98.7345 53.8696 99.1089 53.3406C99.8628 52.242 100.952 51.8764 102.247 52.0215C103.247 52.1308 104.252 52.21 105.248 52.3438C105.533 52.3852 105.938 52.5548 106.019 52.7659C106.1 52.9769 105.859 53.3933 105.643 53.5328C105.413 53.6595 105.229 53.8548 105.116 54.0915C105.004 54.3281 104.968 54.5941 105.014 54.8519C105.392 57.4034 103.142 58.5266 101.193 58.3758C100.844 58.3495 100.251 58.0234 100.196 58.602C100.141 59.1805 100.762 59.0052 101.139 59.0485C101.892 59.1371 102.646 59.1692 103.385 59.2596C104.661 59.4123 105.269 59.9154 105.393 60.8633C105.461 61.4056 105.337 61.9544 105.043 62.4154C104.75 62.8762 104.304 63.2203 103.784 63.3884C103.183 63.575 102.542 63.6296 101.7 63.7935ZM103.492 55.1855C103.511 54.951 103.481 54.7151 103.404 54.4927C103.327 54.2704 103.205 54.0665 103.045 53.8941C102.885 53.7216 102.691 53.5843 102.475 53.491C102.258 53.3977 102.026 53.3503 101.79 53.3518C101.555 53.3534 101.322 53.4039 101.108 53.5002C100.893 53.5964 100.701 53.7362 100.544 53.9108C100.386 54.0854 100.266 54.2909 100.192 54.5142C100.118 54.7375 100.091 54.9739 100.114 55.2081C100.153 55.6302 100.35 56.022 100.665 56.3062C100.979 56.5905 101.389 56.7466 101.813 56.7437C102.237 56.7409 102.644 56.5793 102.955 56.2909C103.266 56.0024 103.458 55.6081 103.492 55.1855Z" fill="black"/>
<path d="M30.5488 54.7111C30.5488 52.9962 30.5657 51.2832 30.5393 49.5684C30.53 48.9598 30.7505 48.7129 31.361 48.7449C32.6801 48.8146 33.9992 48.76 35.2938 48.9334C36.1238 49.015 36.8987 49.3862 37.4824 49.982C38.0661 50.5777 38.4214 51.36 38.4861 52.1915C38.6745 53.912 37.7869 55.4988 36.1116 56.0923C35.3692 56.3542 34.4948 56.2808 33.677 56.2808C32.0187 56.3033 32.1053 56.1752 32.111 57.8543C32.111 58.559 32.0997 59.2638 32.111 59.9667C32.1223 60.5622 31.8811 60.9315 31.2574 60.9202C30.6637 60.9202 30.5451 60.4868 30.547 59.9931L30.5488 54.7111ZM32.0846 52.5289C32.0594 53.0451 32.0663 53.5625 32.1053 54.0779C32.1317 54.2833 32.3861 54.6149 32.5539 54.6243C33.3732 54.6978 34.1974 54.6978 35.0168 54.6243C35.5297 54.5845 36.0087 54.3525 36.358 53.9749C36.7074 53.5973 36.9014 53.1017 36.9012 52.5873C36.9219 51.5621 36.1945 50.7235 35.0714 50.5031C34.7936 50.4581 34.5124 50.4367 34.231 50.439C32.1148 50.3957 32.1129 50.3976 32.0846 52.5289Z" fill="black"/>
<path d="M73.5396 57.8424C73.5396 58.617 73.5542 59.3915 73.5396 60.166C73.5242 60.8104 73.2412 61.046 72.6986 60.7313C71.9637 60.3073 71.3795 60.3865 70.6263 60.7313C69.4709 61.2683 68.3024 60.9876 67.3094 60.23C65.8979 59.154 66.0073 57.1546 67.4978 56.1672C68.51 55.4964 69.6574 55.4662 70.8179 55.4586C71.1952 55.4586 71.555 55.3117 71.9228 55.2325C71.7714 54.8556 71.6851 54.4317 71.457 54.1019C70.9861 53.4329 70.2285 53.3292 69.2259 53.5912C68.7389 53.7104 68.2366 53.7493 67.7371 53.7061C67.6219 53.6673 67.5185 53.5997 67.4367 53.5096C67.3549 53.4195 67.2975 53.3102 67.2698 53.1917C67.2566 53.0221 67.5054 52.7602 67.7013 52.6584C68.1802 52.4114 68.6804 52.2071 69.196 52.0479C71.152 51.4542 72.9078 52.4003 73.3414 54.3996C73.5805 55.5095 73.5432 56.6798 73.6295 57.8217L73.5396 57.8424ZM69.7707 59.3821C70.2453 59.2049 70.948 59.0052 71.5703 58.6754C71.8321 58.5341 72.1129 58.031 72.0449 57.7859C71.9769 57.6119 71.8672 57.4569 71.7261 57.3342C71.5849 57.2115 71.4168 57.1247 71.2347 57.0811C70.5188 57.0188 69.797 57.0754 69.0994 57.2489C68.5115 57.4034 67.7803 57.7238 67.9558 58.5265C68.1276 59.2954 68.9115 59.2219 69.7722 59.3858L69.7707 59.3821Z" fill="black"/>
<path d="M46.6869 57.8788C46.6869 58.608 46.7039 59.3354 46.6869 60.0628C46.6699 60.7902 46.3289 61.0767 45.7277 60.6922C45.0531 60.2607 44.5367 60.37 43.8583 60.6922C42.5864 61.2877 40.9978 60.8674 40.0555 59.8272C38.9588 58.6156 39.5147 56.4636 41.1862 55.9039C42.1379 55.5854 43.2083 55.6231 44.224 55.4836C44.5097 55.4288 44.7921 55.3584 45.07 55.2726C45.0263 54.9837 44.9485 54.7009 44.8383 54.4302C44.3671 53.5577 43.5418 53.2996 42.479 53.5804C42.0371 53.7198 41.5761 53.7891 41.1127 53.7858C40.8735 53.7726 40.6511 53.4578 40.4193 53.2807C40.5908 53.0603 40.7189 52.738 40.9431 52.64C41.5974 52.3253 42.2879 52.0924 42.9991 51.9466C44.68 51.6771 46.065 52.6608 46.4759 54.3115C46.5596 54.6048 46.612 54.9061 46.6323 55.2104C46.653 56.1017 46.6323 56.9931 46.6323 57.8844L46.6869 57.8788ZM42.7579 59.4542C43.423 59.196 44.1165 58.9886 44.7384 58.6514C44.9853 58.5176 45.2491 58.0559 45.1944 57.8147C45.1284 57.5264 44.7459 57.1269 44.4727 57.1042C43.7374 57.0302 42.995 57.0742 42.2736 57.2343C41.6818 57.3775 41.0355 57.7016 41.0789 58.5044C41.1071 59.0094 41.8081 59.3317 42.7579 59.4579V59.4542Z" fill="black"/>
<path d="M89.1269 56.3557C89.1269 55.1572 89.1138 53.9588 89.1269 52.7603C89.1269 52.0253 89.4699 51.8049 90.1178 52.1459C90.3554 52.2912 90.6245 52.3779 90.9024 52.3989C91.1803 52.4199 91.4589 52.3744 91.7163 52.2665C94.3225 51.2583 96.25 52.4248 96.4782 55.2081C96.612 56.8438 96.5477 58.4946 96.5725 60.1378C96.5725 60.7672 96.1725 60.8331 95.6731 60.8407C95.1736 60.8482 94.895 60.6523 94.9009 60.1001C94.9177 58.6209 94.9009 57.1396 94.9009 55.6604C94.9009 54.8105 94.6991 54.0454 93.8494 53.6761C93.4647 53.494 93.0377 53.4205 92.6143 53.4637C92.1916 53.5069 91.788 53.665 91.4487 53.921C90.8834 54.3281 90.6947 54.9104 90.6947 55.5756C90.6947 57.0329 90.6947 58.4902 90.6947 59.9475C90.6947 60.4167 90.6947 60.8633 90.0278 60.867C89.3982 60.867 89.1306 60.558 89.1306 59.9569C89.1291 58.7546 89.1284 57.5543 89.1269 56.3557Z" fill="black"/>
<path d="M6.15381 54.5753C6.15381 56.0829 6.14057 57.5904 6.15381 59.0867C6.18774 62.1903 2.93141 63.6093 0.50049 62.4108C0.25928 62.292 -0.0497606 61.8681 0.0067723 61.6947C0.0795902 61.549 0.18236 61.4202 0.308354 61.317C0.434349 61.2137 0.580738 61.1383 0.737927 61.0954C1.05451 61.0069 1.4314 61.0954 1.77813 61.1501C3.59472 61.4064 4.53504 60.6187 4.53131 58.8059C4.53131 55.7757 4.50111 52.7437 4.48985 49.7135C4.48985 48.8749 4.67829 48.7129 5.48106 48.7468C6.09538 48.7731 6.21033 49.135 6.20843 49.64C6.20843 51.2851 6.20843 52.9302 6.20843 54.5753H6.15381Z" fill="black"/>
<path d="M48.4102 56.9362C48.4102 54.7748 49.0621 53.3784 50.6244 52.5492C52.2732 51.673 53.9466 51.8539 55.5521 52.7038C55.767 52.8169 55.9799 53.2691 55.9177 53.4802C55.8555 53.6912 55.4391 53.9418 55.1884 53.9325C54.6344 53.9098 54.086 53.7308 53.5339 53.6234C52.1658 53.3595 50.973 53.9042 50.385 55.0556C50.0952 55.6382 50.0031 56.2994 50.1228 56.939C50.2425 57.5786 50.5674 58.1618 51.0484 58.6002C51.3404 58.8765 51.6943 59.0787 52.0804 59.1902C52.4666 59.3017 52.8739 59.3191 53.2682 59.2409C53.8901 59.1241 54.5044 58.9356 55.1319 58.8904C55.3826 58.8716 55.8028 59.1015 55.8857 59.3125C55.9686 59.5235 55.7952 60.0248 55.5974 60.1266C53.9919 60.9444 52.3222 61.1441 50.6601 60.2981C49.1225 59.5254 48.4497 58.195 48.4102 56.9362Z" fill="black"/>
<path d="M59.2923 54.7752C59.2923 56.5126 59.2772 58.252 59.3017 59.9913C59.3017 60.5453 59.1604 60.8035 58.548 60.8035C57.9355 60.8035 57.715 60.6264 57.7188 59.9951C57.7439 56.5176 57.7439 53.0402 57.7188 49.5628C57.7188 48.9485 57.9298 48.7412 58.5423 48.7412C59.1547 48.7412 59.296 49.0126 59.296 49.5572C59.281 51.2966 59.2923 53.0358 59.2923 54.7752Z" fill="black"/>
<path d="M64.2125 60.9897C63.8356 60.7296 63.3815 60.5242 63.0913 60.1755C62.1906 59.0939 61.3614 57.9539 60.4908 56.8458C60.3514 56.7014 60.2734 56.5085 60.2734 56.3077C60.2734 56.1071 60.3514 55.9142 60.4908 55.7698C61.2446 54.7805 61.972 53.7723 62.7107 52.7716C62.8979 52.4984 63.1557 52.281 63.4567 52.1425C63.7576 52.0042 64.0906 51.95 64.4198 51.9858C64.6172 51.996 64.8047 52.0754 64.9493 52.2101C65.0097 52.2817 64.8947 52.5587 64.7948 52.6963C64.0976 53.6705 63.406 54.6466 62.6692 55.5908C62.264 56.1109 62.2923 56.533 62.6899 57.038C63.4249 57.952 64.1428 58.8828 64.8345 59.8289C64.9946 60.0474 65.1379 60.3942 65.07 60.6184C65.0172 60.7786 64.6064 60.8313 64.2125 60.9897Z" fill="black"/>
<path d="M86.3743 56.4047C86.3743 57.6258 86.3575 58.8544 86.3743 60.0642C86.3853 60.6164 86.1579 60.8048 85.6204 60.8048C85.0837 60.8048 84.7897 60.6521 84.797 60.051C84.827 57.6125 84.8343 55.1722 84.8402 52.7319C84.8402 52.2476 85.0025 51.9781 85.5392 52.0064C86.0409 52.029 86.397 52.1062 86.378 52.7489C86.348 53.9643 86.3743 55.1855 86.3743 56.4047Z" fill="black"/>
<path d="M86.7203 49.7866C86.7203 50.0791 86.6048 50.3594 86.3979 50.5662C86.1909 50.773 85.9109 50.8891 85.6184 50.8891C85.3259 50.8891 85.0458 50.773 84.8388 50.5662C84.6319 50.3594 84.5156 50.0791 84.5156 49.7866C84.5171 49.6403 84.5471 49.4956 84.6048 49.3611C84.6626 49.2266 84.7467 49.1049 84.852 49.0031C84.9573 48.9014 85.0816 48.8216 85.2184 48.7685C85.3544 48.7154 85.4999 48.69 85.6461 48.6937C85.9335 48.6967 86.2077 48.8134 86.4096 49.0182C86.6107 49.2231 86.7225 49.4995 86.7203 49.7866Z" fill="black"/>
</svg>
