<svg width="146" height="9" viewBox="0 0 146 9" fill="none" xmlns="http://www.w3.org/2000/svg">
<path d="M7.99961 7.96046H5.18084V7.62114H6.02908L5.05033 5.08946H2.32289L1.34414 7.62114H1.98359C2.0271 7.62114 2.0706 7.62554 2.11409 7.63418C2.2533 7.66035 2.32289 7.76903 2.32289 7.96046H0V7.62114H0.822146L3.74534 0.130455H4.22819L7.21666 7.62114H7.66035C7.70381 7.62114 7.74735 7.62554 7.79081 7.63418C7.93006 7.66035 7.99961 7.76903 7.99961 7.96046ZM4.90679 4.71099L3.68009 1.55291L2.46644 4.71099H4.90679ZM22.3676 0.130455V0.469782H21.3236V7.62114H22.0284C22.0718 7.62114 22.1154 7.62554 22.1588 7.63418C22.2981 7.66035 22.3676 7.76903 22.3676 7.96046H19.2356V7.62114H20.2796V1.30498L17.2651 8.02569H16.9911L14.1331 2.00965V7.62114H14.8378C14.8813 7.62114 14.9248 7.62554 14.9683 7.63418C15.1075 7.66035 15.1771 7.76903 15.1771 7.96046H12.5671V7.62114H13.6111V0.469782H12.5671V0.130455H14.4332L17.4609 6.51191L20.2796 0.130455H22.3676ZM34.9348 7.96046H32.116V7.62114H32.9642L31.9855 5.08946H29.258L28.2793 7.62114H28.9187C28.9622 7.62114 29.0057 7.62554 29.0492 7.63418C29.1884 7.66035 29.258 7.76903 29.258 7.96046H26.9351V7.62114H27.7573L30.6805 0.130455H31.1634L34.1518 7.62114H34.5955C34.639 7.62114 34.6825 7.62554 34.726 7.63418C34.8652 7.66035 34.9348 7.76903 34.9348 7.96046ZM31.8419 4.71099L30.6152 1.55291L29.4016 4.71099H31.8419ZM45.0354 0.469782V0.130455H47.7107V0.469782H46.6667V7.89524L46.0664 8.02569L40.9378 1.57901V7.62114H41.7077C41.7512 7.62114 41.7947 7.62554 41.8382 7.63418C41.9774 7.66035 42.047 7.76903 42.047 7.96046H39.3717V7.62114H40.4157V0.469782H39.3717V0.130455H41.1857L46.1447 6.31616V0.469782H45.0354ZM52.5392 0.130455H56.1801C57.0675 0.130455 57.8461 0.339253 58.5161 0.756851C59.6122 1.45287 60.1604 2.54905 60.1604 4.04546C60.1604 5.20254 59.7862 6.14217 59.0381 6.86428C58.2812 7.59505 57.3154 7.96046 56.141 7.96046H52.5392V7.62114H53.5831V0.469782H52.5392V0.130455ZM56.141 0.469782H54.7055V7.62114H56.1801C56.3541 7.62114 56.5238 7.60809 56.689 7.582C58.1681 7.35583 58.9076 6.15954 58.9076 3.99328C58.9076 3.35816 58.8423 2.81011 58.7118 2.34897C58.3725 1.09618 57.5156 0.469782 56.141 0.469782ZM73.0537 7.96046H70.2349V7.62114H71.0832L70.1045 5.08946H67.377L66.3982 7.62114H67.0377C67.0811 7.62114 67.1247 7.62554 67.1682 7.63418C67.3074 7.66035 67.377 7.76903 67.377 7.96046H65.0541V7.62114H65.8762L68.7994 0.130455H69.2823L72.2707 7.62114H72.7144C72.7576 7.62114 72.8016 7.62554 72.8449 7.63418C72.9841 7.66035 73.0537 7.76903 73.0537 7.96046ZM69.9609 4.71099L68.7342 1.55291L67.5205 4.71099H69.9609ZM94.1425 0.130455V0.469782H93.0982V7.62114H93.8032C93.8465 7.62114 93.8904 7.62554 93.9337 7.63418C94.0729 7.66035 94.1425 7.76903 94.1425 7.96046H91.0102V7.62114H92.0545V1.30498L89.0402 8.02569H88.7661L85.9078 2.00965V7.62114H86.6129C86.6561 7.62114 86.6993 7.62554 86.7433 7.63418C86.8826 7.66035 86.9522 7.76903 86.9522 7.96046H84.3416V7.62114H85.386V0.469782H84.3416V0.130455H86.2083L89.2359 6.51191L92.0545 0.130455H94.1425ZM103.342 0C104.23 0 105.013 0.256659 105.691 0.769899C106.692 1.5181 107.192 2.60996 107.192 4.04546C107.192 5.27216 106.779 6.2727 105.953 7.047C105.214 7.74294 104.33 8.09099 103.304 8.09099C102.39 8.09099 101.581 7.81257 100.876 7.25579C99.9103 6.49015 99.4274 5.40269 99.4274 3.99328C99.4274 2.77529 99.8363 1.7878 100.654 1.03095C101.402 0.34365 102.299 0 103.342 0ZM103.342 7.72557C103.691 7.72557 104.012 7.66035 104.308 7.52982C105.361 7.06869 105.888 5.88984 105.888 3.99328C105.879 1.59205 105.017 0.382786 103.304 0.365417C103.06 0.365417 102.829 0.391508 102.612 0.443689C101.359 0.774294 100.733 1.97491 100.733 4.04546C100.733 4.67186 100.793 5.22431 100.915 5.70281C101.272 7.05132 102.081 7.72557 103.342 7.72557ZM118.011 0.469782V0.130455H120.686V0.469782H119.642V7.89524L119.042 8.02569L113.913 1.57901V7.62114H114.683C114.726 7.62114 114.77 7.62554 114.814 7.63418C114.953 7.66035 115.022 7.76903 115.022 7.96046H112.347V7.62114H113.391V0.469782H112.347V0.130455H114.161L119.12 6.31616V0.469782H118.011ZM128.712 7.96046H125.514V7.62114H126.559V0.469782H125.514V0.130455H129.378C130.056 0.130455 130.626 0.287071 131.087 0.600307C131.652 0.991814 131.935 1.51378 131.935 2.16627C131.935 2.43597 131.879 2.70134 131.765 2.96233C131.461 3.62354 130.895 4.05418 130.069 4.25426L132.17 7.62114H132.666C132.727 7.62114 132.779 7.62554 132.823 7.63418C132.927 7.66035 132.979 7.76903 132.979 7.96046H131.009L128.921 4.37174H127.681V7.62114H128.712V7.96046ZM128.986 0.469782H127.681V3.99328H129.025C129.416 3.99328 129.76 3.87579 130.056 3.6409C130.491 3.29293 130.708 2.80571 130.708 2.17931C130.708 1.90096 130.652 1.63558 130.539 1.38325C130.252 0.774295 129.734 0.469782 128.986 0.469782ZM141.788 0C142.675 0 143.458 0.256659 144.137 0.769899C145.137 1.5181 145.637 2.60996 145.637 4.04546C145.637 5.27216 145.225 6.2727 144.398 7.047C143.659 7.74294 142.775 8.09099 141.749 8.09099C140.835 8.09099 140.026 7.81257 139.321 7.25579C138.356 6.49015 137.873 5.40269 137.873 3.99328C137.873 2.77529 138.282 1.7878 139.1 1.03095C139.848 0.34365 140.744 0 141.788 0ZM141.788 7.72557C142.136 7.72557 142.458 7.66035 142.753 7.52982C143.807 7.06869 144.333 5.88984 144.333 3.99328C144.324 1.59205 143.463 0.382786 141.749 0.365417C141.505 0.365417 141.274 0.391508 141.057 0.443689C139.804 0.774294 139.178 1.97491 139.178 4.04546C139.178 4.67186 139.238 5.22431 139.361 5.70281C139.717 7.05132 140.526 7.72557 141.788 7.72557Z" fill="black"/>
</svg>
