<svg width="111" height="29" viewBox="0 0 111 29" fill="none" xmlns="http://www.w3.org/2000/svg">
<path d="M12.6413 11.856C12.619 12.1491 12.6167 12.4433 12.6343 12.7367C12.6387 12.8002 12.6546 12.8789 12.6641 12.9652C12.6742 13.0528 12.6763 13.1411 12.6704 13.2291C12.6621 13.4182 12.5937 13.5995 12.475 13.7469C12.2212 14.0299 11.8734 14.1073 11.5575 14.1156C11.2414 14.1238 10.935 14.0432 10.6367 13.9722C10.9426 13.9963 11.2522 14.0217 11.5441 13.9722C11.836 13.9226 12.1152 13.7863 12.2421 13.5762C12.3019 13.4703 12.3259 13.3479 12.3107 13.2273C12.3038 13.1628 12.2915 13.0991 12.2738 13.0369C12.2567 12.9734 12.2313 12.9062 12.2104 12.8154C12.1397 12.5019 12.0909 12.1839 12.0644 11.8636L12.6413 11.856Z" fill="black"/>
<path d="M11.2046 25.4292C12.4179 25.4292 13.4013 24.4457 13.4013 23.2324C13.4013 22.0192 12.4179 21.0356 11.2046 21.0356C9.99137 21.0356 9.00781 22.0192 9.00781 23.2324C9.00781 24.4457 9.99137 25.4292 11.2046 25.4292Z" fill="black"/>
<path d="M21.7323 27.8108C21.5331 26.4008 21.1523 23.8652 20.75 22.1849C20.6345 21.6835 20.3945 21.2193 20.052 20.8353L20.0463 20.8289C18.9924 19.8467 17.9054 19.9374 17.467 20.0307C17.463 20.0316 17.4589 20.0316 17.4549 20.0307C17.4301 20.0364 17.4066 20.044 17.3819 20.0478C17.3679 20.0516 17.3565 20.0554 17.347 20.0573C17.3236 20.0637 17.3001 20.0674 17.2772 20.0732C17.4245 19.8997 17.5876 19.7404 17.7645 19.5973C17.9346 19.4539 18.1085 19.3225 18.2849 19.195L18.2905 19.1912C18.3184 19.1513 18.3522 19.116 18.3909 19.0865C19.033 18.6131 19.5996 17.872 19.9594 17.3402C19.9901 17.2948 20.0063 17.241 20.0058 17.1862C20.0054 17.1313 19.9884 17.0779 19.957 17.0329C19.9256 16.9879 19.8813 16.9535 19.83 16.9342C19.7787 16.9148 19.7227 16.9115 19.6694 16.9246C19.094 17.0538 18.4988 17.0688 17.9174 16.969C17.7225 16.9359 17.5228 16.9439 17.3311 16.9925C17.3311 16.9925 17.3273 16.9925 17.3254 16.9925C17.5726 16.7193 17.7951 16.4247 17.9904 16.1124C18.4917 15.304 18.7354 14.5229 18.7354 13.722V10.0284C18.7354 9.89304 18.6816 9.76322 18.5858 9.66743C18.4901 9.57172 18.3603 9.51792 18.2249 9.51792C18.0895 9.51792 17.9596 9.57172 17.8639 9.66743C17.7682 9.76322 17.7144 9.89304 17.7144 10.0284V13.7259C17.7144 14.3293 17.5208 14.9365 17.1224 15.5769C16.1261 17.1835 14.2891 18.1784 12.3284 18.1784H9.56374C7.60302 18.1784 5.76604 17.1822 4.76981 15.5769C4.37132 14.9365 4.17842 14.3293 4.17842 13.7259V9.94342C4.17842 9.80795 4.1246 9.67799 4.02881 9.5822C3.93302 9.48642 3.8031 9.43262 3.66762 9.43262C3.53214 9.43262 3.40222 9.48642 3.30643 9.5822C3.21063 9.67799 3.15681 9.80795 3.15681 9.94342V13.7259C3.15681 14.5267 3.40048 15.3078 3.90176 16.1162C4.07776 16.398 4.27618 16.6651 4.49506 16.9151H4.49125C4.39283 16.9089 4.29401 16.9159 4.19746 16.936C3.54794 17.0818 2.87419 17.0818 2.22468 16.936C2.17134 16.9228 2.11524 16.926 2.06375 16.9452C2.01227 16.9644 1.9678 16.9988 1.93622 17.0437C1.90463 17.0887 1.8874 17.1422 1.88678 17.1972C1.88617 17.2521 1.90221 17.306 1.93279 17.3517C2.29258 17.884 2.85921 18.6245 3.50137 19.1005C3.51182 19.1078 3.52158 19.1161 3.53056 19.1252L3.54198 19.1353L3.63272 19.1988C3.80849 19.3257 3.98298 19.4577 4.15304 19.6011C4.32949 19.7447 4.4926 19.904 4.64037 20.077H4.63656C4.63339 20.0768 4.63021 20.0768 4.62704 20.077C4.54776 20.0621 4.46953 20.042 4.3929 20.0167H4.38909C3.9208 19.9298 2.87445 19.8777 1.85918 20.8251L1.84776 20.8365C1.49992 21.223 1.25622 21.6915 1.13962 22.1983C0.737952 23.8811 0.356594 26.4161 0.157349 27.826C0.13916 27.9563 0.148886 28.0889 0.18588 28.2152C0.222874 28.3414 0.286292 28.4583 0.371924 28.5582C0.457555 28.658 0.563444 28.7385 0.682563 28.7943C0.801682 28.8501 0.931307 28.88 1.06283 28.8819L6.50655 28.9536C6.52237 28.914 6.54373 28.8767 6.57 28.8431L8.21347 26.718C8.25969 26.6585 8.31713 26.6086 8.38267 26.5712C8.44814 26.5339 8.52037 26.5098 8.59512 26.5003C8.66995 26.4909 8.7459 26.4962 8.81857 26.5161C8.89132 26.536 8.95939 26.57 9.01898 26.6162C9.07858 26.6625 9.12851 26.7199 9.16582 26.7854C9.20319 26.8509 9.22727 26.9231 9.23678 26.9979C9.24622 27.0727 9.24087 27.1487 9.22095 27.2213C9.20104 27.2941 9.16708 27.3622 9.12086 27.4217L7.92411 28.9631L10.7053 28.9999H10.9292L20.8281 28.8647C20.9594 28.8626 21.0886 28.8327 21.2075 28.7769C21.3263 28.7211 21.4319 28.6408 21.5173 28.5412C21.6028 28.4416 21.6662 28.325 21.7033 28.199C21.7403 28.0731 21.7502 27.9408 21.7323 27.8108ZM11.2098 26.5766C10.5483 26.5766 9.90178 26.3805 9.35181 26.0129C8.80193 25.6455 8.37331 25.1231 8.12021 24.5121C7.86712 23.9011 7.80098 23.2286 7.93006 22.5799C8.05913 21.9313 8.37769 21.3354 8.8454 20.8678C9.3131 20.4001 9.90906 20.0816 10.5578 19.9527C11.2065 19.8237 11.8788 19.8901 12.4899 20.1432C13.1009 20.3965 13.6231 20.8252 13.9905 21.3751C14.3579 21.9252 14.5539 22.5717 14.5538 23.2332C14.5524 24.1196 14.1997 24.9693 13.5728 25.5961C12.9459 26.2228 12.0962 26.5754 11.2098 26.5766Z" fill="black"/>
<path d="M14.6708 15.148C14.6455 15.1196 14.6147 15.0965 14.5804 15.08C14.546 15.0635 14.5088 15.054 14.4708 15.0519C14.4328 15.0498 14.3947 15.0553 14.3588 15.0679C14.3229 15.0807 14.2898 15.1003 14.2615 15.1258C13.7222 15.6086 11.856 15.865 10.2678 15.6746C9.32796 15.5617 8.61474 15.3034 8.32858 14.9766L8.41426 14.9608C8.6516 14.9152 8.88382 14.8457 9.10719 14.7533C8.86851 14.7148 8.62656 14.7009 8.38505 14.7114C8.14786 14.7194 7.91133 14.7421 7.67689 14.7793L7.49609 14.8079L7.55955 14.9671C7.61856 15.1093 7.6864 15.2476 7.75878 15.3847C7.83309 15.5235 7.91795 15.6566 8.01262 15.7825C8.00526 15.6677 7.99062 15.5535 7.96877 15.4405C8.4847 15.9481 9.44218 16.1601 10.1966 16.2508C10.5901 16.2968 10.9859 16.3195 11.382 16.3187C12.7043 16.3187 14.0686 16.0757 14.6467 15.5573C14.7042 15.5061 14.7389 15.4344 14.7435 15.3576C14.748 15.2808 14.7218 15.2054 14.6708 15.148Z" fill="black"/>
<path d="M21.6567 8.43694C20.8514 6.86454 19.2137 6.4064 18.7378 6.30171C18.4345 4.63286 17.2118 1.2254 15.4947 0.358613C13.6057 -0.593196 11.9089 0.675879 10.2579 0.455701C8.60678 0.235513 6.86561 -0.0551068 5.49246 0.870688C4.1777 1.75904 2.82042 6.22366 2.70938 6.59359C1.86861 6.85249 -1.09024 7.94011 0.425036 9.90968C1.01135 10.6711 2.01138 11.2023 3.15038 11.5538C3.48097 11.6585 3.82299 11.7441 4.17135 11.819C6.21711 12.2524 8.38913 11.9878 9.39676 11.9021C10.7242 11.7898 11.0498 11.8031 12.0619 11.972C12.2433 12.0024 12.4286 12.0354 12.6202 12.0665C13.6799 12.2347 14.8868 12.3717 16.2809 12.1344C16.7555 12.0532 17.2327 11.9529 17.7004 11.8343C18.0506 11.7454 18.3933 11.6439 18.722 11.5367C20.7988 10.8539 22.3445 9.78276 21.6567 8.43694ZM18.0297 7.03714C15.3348 8.03909 12.7046 8.34049 10.5243 8.34049C9.65774 8.3396 8.79181 8.29189 7.93035 8.19774C5.26149 7.90771 3.52856 7.28337 3.45623 7.25669C3.40678 7.24042 3.36111 7.21433 3.32193 7.18008C3.28276 7.14582 3.25087 7.10399 3.22818 7.05714C3.20547 7.0103 3.19243 6.95936 3.18981 6.90737C3.18719 6.85538 3.19505 6.80339 3.21292 6.7545C3.23079 6.70561 3.25832 6.66081 3.29384 6.62276C3.32938 6.58471 3.37219 6.5542 3.41975 6.53303C3.46732 6.51187 3.51864 6.50048 3.5707 6.49955C3.62274 6.49861 3.67445 6.50815 3.72273 6.5276C3.74939 6.53712 5.46391 7.15132 8.03758 7.42864C10.4114 7.68248 14.0232 7.69705 17.7574 6.30932C17.8532 6.27666 17.9579 6.28268 18.0493 6.32607C18.1407 6.36947 18.2116 6.44682 18.2468 6.54167C18.2821 6.63652 18.2789 6.74137 18.238 6.83391C18.1971 6.92645 18.1216 6.99936 18.0278 7.03714H18.0297Z" fill="black"/>
<path d="M29.2539 16.4428L32.5593 0.556641H35.6336L38.9134 16.4428H36.0177L35.3522 13.009L35.8134 13.4445H32.2778L32.662 13.009L32.0725 16.4428H29.2539ZM32.7637 11.5483L32.508 11.2402H35.6593L35.3008 11.5483L34.1987 4.29759L34.173 3.81071H33.9676L33.9418 4.29759L32.7637 11.5483Z" fill="black"/>
<path d="M44.0363 16.5702C43.3376 16.5785 42.6404 16.5013 41.9604 16.3401C41.3441 16.1861 40.8617 15.934 40.5132 15.5841C40.1646 15.2342 39.9897 14.7603 39.9883 14.1625V0.556641H42.7822V13.2935C42.7817 13.4775 42.8166 13.6598 42.8849 13.8308C42.9598 14.0092 43.096 14.1549 43.269 14.2416C43.5092 14.3546 43.7733 14.4071 44.0384 14.3946C44.3973 14.3946 44.6712 14.3436 44.8601 14.2416C45.036 14.1527 45.1728 14.002 45.2443 13.8184C45.3101 13.6511 45.3449 13.4733 45.347 13.2935V0.556641H48.1399V14.1625C48.1399 14.7603 47.9649 15.2342 47.615 15.5841C47.2651 15.934 46.7782 16.1861 46.1544 16.3401C45.4602 16.5018 44.749 16.5791 44.0363 16.5702Z" fill="black"/>
<path d="M52.0283 2.73526H49.3125V0.556641H57.537V2.73526H54.8212V16.4428H52.0283V2.73526Z" fill="black"/>
<path d="M58.8203 0.556641H61.6131V6.62926H64.1749V0.556641H66.9678V16.4428H64.1749V8.80686H61.6131V16.4428H58.8203V0.556641Z" fill="black"/>
<path d="M68.8633 0.556641H76.7035V2.73526H71.6562V6.62926H76.1655L75.8073 8.80686H71.6562V14.2652H76.7035V16.4428H68.8633V0.556641Z" fill="black"/>
<path d="M78.1641 16.4428V0.556641H80.9566L84.0308 10.5202V10.6732H84.0568V0.556641H86.8486V16.4428H83.9795L80.9811 7.44893L80.9559 7.27022H80.9298V16.4428H78.1641Z" fill="black"/>
<path d="M90.8488 2.73526H88.1328V0.556641H96.3574V2.73526H93.6414V16.4428H90.8488V2.73526Z" fill="black"/>
<path d="M97.6328 0.556641H100.425V16.4428H97.6328V0.556641Z" fill="black"/>
<path d="M106.271 16.6214C104.854 16.6214 103.816 16.3612 103.158 15.8407C102.5 15.3203 102.171 14.5986 102.172 13.6755V3.58046C102.172 2.43619 102.488 1.61446 103.119 1.11526C103.752 0.616055 104.776 0.3685 106.194 0.372609C107.564 0.372609 108.593 0.620157 109.282 1.11526C109.971 1.61035 110.308 2.43893 110.293 3.60099V6.98654L107.552 7.32035V4.27174C107.552 3.74241 107.471 3.33667 107.308 3.05454C107.146 2.77242 106.784 2.63169 106.22 2.63238C105.672 2.63238 105.326 2.78611 105.182 3.09357C105.026 3.45712 104.952 3.85058 104.964 4.24607V13.0345C104.955 13.3614 105.044 13.6835 105.22 13.959C105.392 14.2158 105.725 14.3438 106.22 14.3432C106.749 14.3432 107.104 14.215 107.283 13.959C107.469 13.6789 107.564 13.3473 107.552 13.0109V10.1646L110.293 9.85644V13.6744C110.293 14.5968 109.948 15.3186 109.256 15.8397C108.564 16.3608 107.569 16.6214 106.271 16.6214Z" fill="black"/>
<path d="M29.2512 20.502H29.1211V20.6321L29.1227 28.5557V28.6858H29.2528H31.6931C32.1743 28.6858 32.5444 28.5917 32.7294 28.3463C32.9003 28.1196 32.9725 27.7663 32.9725 27.3159V21.8625C32.9947 21.5146 32.9052 21.1687 32.717 20.8752L32.7116 20.8673C32.5193 20.611 32.1899 20.502 31.7699 20.502H29.2512ZM32.0575 22.0226L32.057 22.033V27.1321C32.057 27.4774 31.9953 27.6672 31.9142 27.7513C31.8349 27.8336 31.6537 27.8968 31.318 27.8968H30.0291V21.2819H31.4204L31.4291 21.2816C31.515 21.2759 31.6012 21.2889 31.6817 21.3197C31.7599 21.3495 31.8309 21.3955 31.8902 21.4546C32.0142 21.6167 32.0738 21.819 32.0575 22.0226Z" fill="black" stroke="white" stroke-width="0.260229"/>
<path d="M39.3061 20.502H39.1758L39.176 20.6323L39.188 28.5559L39.1883 28.6858H39.3182H42.8461H42.9762V28.5557V28.0435V27.9134H42.8461H40.1006V24.4814H42.5313H42.638L42.6589 24.3769L42.7613 23.8647L42.7924 23.7091H42.6337H40.093V21.2864H42.8341H42.9642V21.1563V20.6321V20.502H42.8341H39.3061Z" fill="black" stroke="white" stroke-width="0.260229"/>
<path d="M49.1719 21.1518V21.2819H49.302H50.5788V28.5557V28.6858H50.709H51.3597H51.4898V28.5557V21.2864H52.7907H52.9209V21.1563V20.6321V20.502H52.7907H49.302H49.1719V20.6321V21.1518Z" fill="black" stroke="white" stroke-width="0.260229"/>
<path d="M59.2514 20.502H59.1211L59.1212 20.6322L59.1287 28.5558L59.1289 28.6858H59.2589H62.7854H62.9155V28.5557V28.0435V27.9134H62.7854H60.0398V24.4814H62.4705H62.5771L62.5981 24.3769L62.7005 23.8647L62.7316 23.7091H62.5729H60.0322V21.2864H62.7778H62.9079V21.1563V20.6321V20.502H62.7778H59.2514Z" fill="black" stroke="white" stroke-width="0.260229"/>
<path d="M69.6186 28.3978L69.6199 28.3988C69.9495 28.6449 70.4257 28.7576 71.0279 28.7576C71.6121 28.7576 72.0816 28.648 72.4204 28.4118L72.4229 28.4101C72.5958 28.2835 72.7339 28.1153 72.8245 27.9212C72.9146 27.7284 72.9548 27.5161 72.9416 27.3037V25.5002V25.348L72.7913 25.3717L72.1405 25.4741L72.0306 25.4914V25.6026V27.1497L72.0307 27.1541C72.0343 27.2603 72.0157 27.3661 71.976 27.4648C71.9364 27.5634 71.8765 27.6527 71.8003 27.7268C71.6585 27.8662 71.4063 27.9521 71.0099 27.9521C70.6332 27.9521 70.3916 27.8674 70.2523 27.728C70.1787 27.6549 70.1203 27.5671 70.0818 27.4706C70.0433 27.3742 70.0251 27.271 70.0282 27.1671L70.0283 27.1633V22.0897L70.0282 22.0843C70.0184 21.8508 70.0902 21.6212 70.2312 21.4347C70.3469 21.2915 70.588 21.1971 71.0099 21.1971C71.4609 21.1971 71.7133 21.2908 71.828 21.4291C71.9715 21.6204 72.0433 21.8561 72.0308 22.095L72.0306 22.1018V23.7588V23.9111L72.181 23.8874L72.8317 23.785L72.9416 23.7676V23.6564V21.9692C72.9416 21.4471 72.7857 21.0303 72.4504 20.7672C72.1224 20.5099 71.6075 20.3945 70.9842 20.3945C70.3595 20.3945 69.8779 20.5163 69.5701 20.7851C69.2609 21.055 69.1157 21.4546 69.1157 21.9557V27.2932C69.1027 27.5036 69.1414 27.7141 69.2285 27.9062C69.3161 28.0996 69.4501 28.2685 69.6186 28.3978Z" fill="black" stroke="white" stroke-width="0.260229"/>
<path d="M79.1406 21.1518V21.2819H79.2707H80.5458V28.5557V28.6858H80.6759H81.3283H81.4583V28.5557V21.2864H82.7595H82.8895V21.1563V20.6321V20.502H82.7595H79.2707H79.1406V20.6321V21.1518Z" fill="black" stroke="white" stroke-width="0.260229"/>
<path d="M89.216 20.502H89.0859V20.6321V28.5557V28.6858H89.216H89.8684H89.9985V28.5557V20.6321V20.502H89.8684H89.216Z" fill="black" stroke="white" stroke-width="0.260229"/>
<path d="M97.8709 28.578L97.8925 28.6806L97.9973 28.6812L98.701 28.6858L98.8072 28.6864L98.8288 28.5826L100.502 20.659L100.536 20.502H100.375H99.6975H99.5897L99.5696 20.6075L98.3488 26.9481L97.1033 20.607L97.0825 20.502H96.9755H96.3246H96.1641L96.1975 20.659L97.8709 28.578Z" fill="black" stroke="white" stroke-width="0.260229"/>
<path d="M106.833 20.502H106.703V20.6321V28.5557V28.6858H106.833H110.361H110.491V28.5557V28.0435V27.9134H110.361H107.616V24.4814H110.054H110.161L110.182 24.3769L110.284 23.8647L110.315 23.7091H110.156H107.616V21.2864H110.361H110.491V21.1563V20.6321V20.502H110.361H106.833Z" fill="black" stroke="white" stroke-width="0.260229"/>
</svg>
