<svg width="120" height="101" viewBox="0 0 120 101" fill="none" xmlns="http://www.w3.org/2000/svg">
<path d="M3.75 36.3623V36.4832C4.76473 36.6349 4.91643 37.7705 4.91643 39.8308C4.91643 42.5722 4.91643 45.2985 4.91643 48.0399C4.91643 50.0995 4.76473 51.2357 3.75 51.3874V51.5083H10.3841C12.1259 51.5083 15.3822 50.5389 15.3822 47.0554C15.3822 44.2687 13.2161 43.2539 11.1565 42.8901C13.1406 42.3903 14.5192 41.1483 14.5192 39.664C14.5192 36.3623 10.7171 36.3623 9.77858 36.3623H3.75ZM8.82428 43.1475C13.0953 43.1929 13.4894 45.7378 13.4894 47.0554C13.4894 49.7212 11.8685 51.0538 9.1119 51.0538H6.74885V43.1475H8.82428ZM9.26303 42.6931H6.74885V36.8011H9.30893C11.4442 36.8011 12.6257 37.892 12.6257 39.6942C12.6257 41.633 11.278 42.6931 9.26303 42.6931Z" fill="black"/>
<path d="M23.5298 51.8108C26.7862 51.8108 29.2701 48.6602 29.2701 43.9346C29.2701 39.2091 26.7559 36.0586 23.4996 36.0586C20.2433 36.0586 17.8047 39.2091 17.8047 43.9346C17.8047 48.6602 20.2735 51.8108 23.5298 51.8108ZM22.3785 36.9524C27.9073 36.9524 30.2244 50.9326 24.6811 50.9326C19.1675 50.9326 16.8655 36.9524 22.3785 36.9524Z" fill="black"/>
<path d="M31.2383 36.3623V36.4832C32.253 36.6349 32.4048 37.7705 32.4048 39.8308C32.4048 42.4507 32.4048 45.0712 32.4048 47.6917C32.4048 50.221 34.2522 51.8111 37.4784 51.8111C40.644 51.8111 42.4922 50.221 42.4922 47.6917C42.4922 45.0712 42.4922 42.4507 42.4922 39.8308C42.4922 37.7705 42.6432 36.6349 43.658 36.4832V36.3623H39.4776V36.4832C40.493 36.6349 40.644 37.7705 40.644 39.8308C40.644 42.4809 40.644 45.1165 40.644 47.7673C40.644 50.357 38.872 51.3566 37.4481 51.3566C36.0243 51.3566 34.2522 50.357 34.2522 47.7673C34.2522 45.1165 34.2522 42.4809 34.2522 39.8308C34.2522 37.7705 34.404 36.6349 35.4187 36.4832V36.3623H31.2383Z" fill="black"/>
<path d="M45.1719 49.0546C45.1719 50.3116 46.2168 51.8111 48.6554 51.8111C51.9118 51.8111 53.4571 50.221 53.4571 47.6917C53.4571 45.0712 53.4571 42.4507 53.4571 39.8308C53.4571 37.7705 53.6082 36.6349 54.6229 36.4832V36.3623H50.4425V36.4832C51.4578 36.6349 51.609 37.7705 51.609 39.8308C51.609 42.4809 51.609 45.1165 51.609 47.7673C51.609 50.4029 50.185 51.3566 48.6403 51.3566C47.4135 51.3566 46.5202 50.6604 46.7928 49.1761C46.9288 48.449 46.5202 48.0097 46.0506 48.0097C45.5659 48.0097 45.1719 48.4792 45.1719 49.0546Z" fill="black"/>
<path d="M56.1367 51.3871V51.508H64.3609C64.8003 51.508 65.5878 51.5684 65.815 51.8108H65.9365L67.0721 48.1755H66.9513C66.0271 50.0237 64.6032 51.0535 61.3017 51.0535H59.1356C59.1356 49.2362 59.1507 46.0705 59.1507 43.0112H61.3167C63.71 43.0112 64.1796 43.8138 64.1796 43.8138H64.3005V41.7535H64.1796C64.1796 41.7535 63.71 42.5567 61.3167 42.5567H59.1507V36.8159H63.1649C65.2548 36.8159 66.1788 38.1188 66.4061 39.7391H66.527V36.0586H66.4061C66.1788 36.3009 65.4518 36.362 65.0124 36.362H56.1367V36.4829C57.1515 36.6346 57.3032 37.7702 57.3032 39.8304C57.3032 42.5718 57.3032 45.2981 57.3032 48.0395C57.3032 50.0992 57.1515 51.2354 56.1367 51.3871Z" fill="black"/>
<path d="M68.5859 51.3871V51.508H76.81C77.2495 51.508 78.037 51.5684 78.2642 51.8108H78.3857L79.5212 48.1755H79.4005C78.4765 50.0237 77.0522 51.0535 73.7508 51.0535H71.5848C71.5848 49.2362 71.5999 46.0705 71.5999 43.0112H73.766C76.159 43.0112 76.6285 43.8138 76.6285 43.8138H76.75V41.7535H76.6285C76.6285 41.7535 76.159 42.5567 73.766 42.5567H71.5999V36.8159H75.6137C77.704 36.8159 78.628 38.1188 78.8552 39.7391H78.976V36.0586H78.8552C78.628 36.3009 77.9012 36.362 77.4617 36.362H68.5859V36.4829C69.6007 36.6346 69.7523 37.7702 69.7523 39.8304C69.7523 42.5718 69.7523 45.2981 69.7523 48.0395C69.7523 50.0992 69.6007 51.2354 68.5859 51.3871Z" fill="black"/>
<path d="M87.0938 51.5083H91.2742V51.3874C90.2595 51.2357 90.108 50.0995 90.108 48.0399C90.108 45.2985 90.108 42.5722 90.108 39.8308C90.108 37.7705 90.2595 36.6349 91.2742 36.4832V36.3623H87.0938V36.4832C88.1085 36.6349 88.2607 37.7705 88.2607 39.8308C88.2607 42.5722 88.2607 45.2985 88.2607 48.0399C88.2607 50.0995 88.1085 51.2357 87.0938 51.3874V51.5083Z" fill="black"/>
<path d="M99.6644 51.8108C101.497 51.8108 102.496 51.4173 103.345 51.0383V47.9791H103.223C103.223 47.9791 102.043 51.3563 99.4372 51.3563C97.2562 51.3563 95.2117 48.3876 95.2117 43.9346C95.2117 39.4817 97.2562 36.5131 99.4372 36.5131C102.043 36.5131 103.223 39.8909 103.223 39.8909H103.345V36.8309C102.496 36.4526 101.527 36.0586 99.6944 36.0586C96.0892 36.0586 93.2422 39.2091 93.2422 43.9346C93.2422 48.6602 96.0592 51.8108 99.6644 51.8108Z" fill="black"/>
<path d="M105.312 51.3871V51.508H113.537C113.976 51.508 114.764 51.5684 114.991 51.8108H115.113L116.248 48.1755H116.127C115.203 50.0237 113.779 51.0535 110.478 51.0535H108.312C108.312 49.2362 108.327 46.0705 108.327 43.0112H110.493C112.886 43.0112 113.355 43.8138 113.355 43.8138H113.476V41.7535H113.355C113.355 41.7535 112.886 42.5567 110.493 42.5567H108.327V36.8159H112.341C114.431 36.8159 115.355 38.1188 115.582 39.7391H115.703V36.0586H115.582C115.355 36.3009 114.628 36.362 114.189 36.362H105.312V36.4829C106.327 36.6346 106.479 37.7702 106.479 39.8304C106.479 42.5718 106.479 45.2981 106.479 48.0395C106.479 50.0992 106.327 51.2354 105.312 51.3871Z" fill="black"/>
<path d="M15.4062 61.671C15.9433 62.1424 16.8566 62.3452 17.7775 62.3452C19.0245 62.3452 20.315 61.5986 20.315 60.344C20.315 58.0823 16.2693 57.9445 16.2693 56.226C16.2693 55.407 17.0744 55.03 17.9009 55.03C19.3072 55.03 20.0178 56.632 20.0178 56.632H20.0757V55.1816C19.6698 55.001 18.8867 54.8052 18.0092 54.8052C16.2183 54.8052 15.5731 55.7255 15.5731 56.5451C15.5731 58.8654 19.6188 58.8578 19.6188 60.8665C19.6188 61.6855 18.6985 62.1424 17.843 62.1424C16.6243 62.1424 15.8923 61.3808 15.5007 60.2792H15.4062V61.671Z" fill="black"/>
<path d="M21.8161 59.3293C21.8161 60.6418 21.8161 61.9467 21.8161 63.2591C21.8161 64.2449 21.7437 64.7888 21.2578 64.8612V64.9191H23.2589V64.8612C22.773 64.7888 22.7006 64.2449 22.7006 63.2591C22.7006 61.7723 22.693 62.5409 22.693 61.671C22.8384 61.997 23.1645 62.3452 23.8752 62.3452C25.1511 62.3452 25.9921 61.3738 25.9921 59.9311C25.9921 58.4883 25.1222 57.5239 23.8097 57.5239C23.2659 57.5239 22.9108 57.7267 22.7006 57.9079C22.7006 57.7701 22.7006 57.6832 22.7006 57.6687H21.2578V57.7267C21.7437 57.7996 21.8161 58.3429 21.8161 59.3293ZM23.6505 57.7486C24.6072 57.7486 25.1587 58.6186 25.1587 59.9311C25.1587 61.2436 24.4625 62.0556 23.6794 62.0556C23.0631 62.0556 22.8019 61.635 22.693 61.287C22.693 60.7576 22.693 59.1046 22.7006 58.2271C22.8529 57.9734 23.1286 57.7486 23.6505 57.7486Z" fill="black"/>
<path d="M27.1484 61.0333C27.1484 61.8088 27.6488 62.3452 28.352 62.3452C29.1206 62.3452 29.6285 62.048 30.107 61.5331C30.1359 61.9246 30.3531 62.2003 30.7377 62.2003H31.4698V62.1424C30.9845 62.0701 30.9114 61.5262 30.9114 60.5398C30.9114 60.1483 30.9114 59.5975 30.9114 59.1259C30.9114 58.0024 30.1428 57.5239 29.0048 57.5239C28.2362 57.5239 27.3882 57.8286 27.3882 58.285C27.3882 58.4808 27.5186 58.6406 27.7502 58.6406C28.4319 58.6406 28.0769 57.7052 28.9682 57.7052C29.621 57.7052 30.0994 58.0892 30.0994 58.8288V58.8654C28.9682 58.8799 27.1484 59.5609 27.1484 61.0333ZM27.9605 60.9389C27.9605 59.9525 28.8165 59.0756 30.0994 59.0467V61.2436C29.7589 61.664 29.3384 61.9901 28.7366 61.9901C28.1562 61.9901 27.9605 61.3663 27.9605 60.9389Z" fill="black"/>
<path d="M34.124 62.2003V62.1424C33.6381 62.0701 33.5657 61.5262 33.5657 60.5398C33.5657 60.3661 33.5657 59.6264 33.5581 58.9378C33.6236 58.2636 34.3054 57.9734 34.7473 57.9734C35.2697 57.9734 35.7047 58.2781 35.9728 58.8868H36.0307V57.8934C35.9005 57.6907 35.5234 57.5239 35.1174 57.5239C34.3702 57.5239 33.8194 57.9734 33.5581 58.4373C33.5581 58.0678 33.5581 57.7701 33.5581 57.6687H32.2022V57.7267C32.6882 57.7996 32.7606 58.3429 32.7606 59.3293C32.7606 59.5899 32.7537 60.2212 32.7537 60.5398C32.7537 61.5262 32.6812 62.0701 32.1953 62.1424V62.2003H34.124Z" fill="black"/>
<path d="M38.6865 62.2003V62.1424C38.2226 62.0701 38.1282 61.5766 38.1282 60.6852C38.1282 60.2427 38.2226 59.7787 38.3888 59.3728C38.679 59.9815 39.0995 60.8445 39.4187 61.4972C39.7378 62.1494 39.2738 62.1424 39.2738 62.1424V62.2003H41.1082V62.1424C40.5857 62.048 40.2817 61.4248 39.9404 60.7431C39.6075 60.0689 39.1794 59.1839 38.8823 58.5676C39.1649 58.2781 39.52 58.0968 39.948 58.0968C40.2817 58.0968 40.5498 58.2415 40.6442 58.5752H40.7021V57.5239C39.3966 57.5239 38.5122 58.4304 38.1282 59.5465C38.1206 59.3872 38.1206 59.4451 38.1206 58.5752C38.1206 57.118 38.1282 56.4652 38.1282 54.8052H38.0703C37.9325 54.979 37.5264 55.327 36.8088 55.327V55.3849C37.2941 55.4574 37.3162 55.842 37.3162 56.6106C37.3162 57.9224 37.3162 59.2279 37.3162 60.5398C37.3162 61.5262 37.2437 62.0701 36.7578 62.1424V62.2003H38.6865Z" fill="black"/>
<path d="M41.832 62.2003H43.7607V62.1424C43.2748 62.0701 43.2024 61.5262 43.2024 60.5398C43.2024 58.6261 43.2024 56.7188 43.2024 54.8052H43.1445C43.0066 54.979 42.6006 55.327 41.883 55.327V55.3849C42.3684 55.4574 42.3903 55.842 42.3903 56.6106C42.3903 57.9224 42.3903 59.2279 42.3903 60.5398C42.3903 61.5262 42.318 62.0701 41.832 62.1424V62.2003Z" fill="black"/>
<path d="M46.7338 62.3452C47.6251 62.3452 48.0966 62.0266 48.4881 61.2436L48.3138 61.1636C48.3138 61.1636 47.9733 62.1059 47.1178 62.1059C46.3348 62.1059 45.5447 61.2939 45.5007 60.0325H48.5241C48.7343 58.6186 47.8719 57.5239 46.7338 57.5239C45.5951 57.5239 44.7031 58.4883 44.7031 59.9311C44.7031 61.3808 45.5951 62.3452 46.7338 62.3452ZM45.5007 59.8511C45.5227 58.5821 46.059 57.7052 46.7338 57.7052C47.4225 57.7052 47.8788 58.8364 47.7051 59.8511H45.5007Z" fill="black"/>
<path d="M52.6094 61.671C53.1463 62.1424 54.0597 62.3452 54.9806 62.3452C56.2276 62.3452 57.518 61.5986 57.518 60.344C57.518 58.0823 53.4724 57.9445 53.4724 56.226C53.4724 55.407 54.2775 55.03 55.104 55.03C56.5103 55.03 57.221 56.632 57.221 56.632H57.2789V55.1816C56.8728 55.001 56.0897 54.8052 55.2122 54.8052C53.4214 54.8052 52.7762 55.7255 52.7762 56.5451C52.7762 58.8654 56.8219 58.8578 56.8219 60.8665C56.8219 61.6855 55.9016 62.1424 55.0461 62.1424C53.8275 62.1424 53.0953 61.3808 52.7038 60.2792H52.6094V61.671Z" fill="black"/>
<path d="M58.4609 58.1037C58.9469 58.176 58.9683 58.5607 58.9683 59.3293V60.6418C58.9683 61.997 59.5846 62.3452 60.3677 62.3452C60.9481 62.3452 61.4479 62.0914 61.8539 61.7075C61.9269 62.0046 62.1371 62.2003 62.4488 62.2003H63.1884V62.1424C62.7024 62.0701 62.63 61.5262 62.63 60.5329V57.5239H62.5721C62.4343 57.6977 62.0282 58.0458 61.3106 58.0458V58.1037C61.796 58.176 61.818 58.5607 61.818 59.3293V61.4172C61.818 61.4393 61.818 61.4607 61.818 61.4827C61.4699 61.8233 60.9626 62.0122 60.5345 62.0122C60.107 62.0122 59.7803 61.7509 59.7803 61.0837V57.5239H59.7224C59.5846 57.6977 59.1786 58.0458 58.4609 58.0458V58.1037Z" fill="black"/>
<path d="M67.1638 61.2939C67.1638 61.5331 66.9315 62.1639 65.9527 62.1639C64.6912 62.1639 64.2997 60.6707 64.2997 60.6707H64.2417V61.8957C64.2417 61.8957 64.6188 62.3452 65.9527 62.3452C67.0914 62.3452 67.7656 61.722 67.7656 60.9389C67.7656 59.0391 64.6843 59.8587 64.6843 58.4373C64.6843 58.0313 65.1337 57.7052 65.8299 57.7052C66.9315 57.7052 67.3671 58.8943 67.3671 58.8943H67.425V57.901C67.425 57.901 66.8736 57.5239 65.8444 57.5239C64.6188 57.5239 64.1328 58.1981 64.1328 58.8364C64.1328 60.7935 67.1638 59.8945 67.1638 61.2939Z" fill="black"/>
<path d="M68.7031 57.6684V57.8498H69.2105L69.218 59.0243C69.218 59.4159 69.2105 60.7862 69.2105 61.3226C69.2105 62.0188 69.5951 62.3449 70.1383 62.3449C70.6243 62.3449 70.8635 62.1201 71.0014 61.7651H70.8421C70.8421 61.7651 70.6967 62.1636 70.3637 62.1636C70.168 62.1636 70.0225 61.9533 70.0225 61.5839C70.0225 59.9233 70.0156 60.4816 70.0156 59.0243C70.0156 58.3212 70.0156 58.1544 70.0225 57.8498H70.5954V57.6684H70.0225C70.0225 57.3934 70.0225 56.8999 70.0225 56.2188H69.9646C69.9646 56.6317 69.4207 57.6684 68.7031 57.6684Z" fill="black"/>
<path d="M71.7266 61.0333C71.7266 61.8088 72.227 62.3452 72.9302 62.3452C73.6988 62.3452 74.2067 62.048 74.6852 61.5331C74.7141 61.9246 74.9312 62.2003 75.3159 62.2003H76.0479V62.1424C75.5627 62.0701 75.4899 61.5262 75.4899 60.5398C75.4899 60.1483 75.4899 59.5975 75.4899 59.1259C75.4899 58.0024 74.721 57.5239 73.5829 57.5239C72.8143 57.5239 71.9664 57.8286 71.9664 58.285C71.9664 58.4808 72.0967 58.6406 72.3284 58.6406C73.0101 58.6406 72.6551 57.7052 73.5464 57.7052C74.1992 57.7052 74.6776 58.0892 74.6776 58.8288V58.8654C73.5464 58.8799 71.7266 59.5609 71.7266 61.0333ZM72.5386 60.9389C72.5386 59.9525 73.3947 59.0756 74.6776 59.0467V61.2436C74.337 61.664 73.9166 61.9901 73.3148 61.9901C72.7343 61.9901 72.5386 61.3663 72.5386 60.9389Z" fill="black"/>
<path d="M78.7024 62.2004V62.1425C78.2164 62.0701 78.1444 61.5262 78.1444 60.5398V57.524H78.0859C77.9487 57.6977 77.5422 58.0458 76.8244 58.0458V58.1037C77.3097 58.1761 77.3322 58.5608 77.3322 59.3294V60.5398C77.3322 61.5262 77.2594 62.0701 76.7734 62.1425V62.2004H78.7024ZM77.7522 55.8999C77.4409 55.8999 77.1867 56.1536 77.1867 56.4583C77.1867 56.7698 77.4409 57.0236 77.7522 57.0236C78.0574 57.0236 78.3109 56.7698 78.3109 56.4583C78.3109 56.1536 78.0574 55.8999 77.7522 55.8999Z" fill="black"/>
<path d="M79.4297 62.1424V62.2003H81.1404V62.1424C80.6544 62.0701 80.7999 61.5262 80.7999 60.5398L80.7924 58.4014C81.1487 58.0533 81.6624 57.8575 82.0472 57.8575C82.8227 57.8575 82.8444 58.742 82.8444 59.3293C82.8444 59.7353 82.8519 60.1338 82.8519 60.5398C82.8519 61.5262 82.7792 62.0701 82.2939 62.1424V62.2003H84.2222V62.1424C83.7369 62.0701 83.6634 61.5262 83.6634 60.5398C83.6634 60.0904 83.6567 59.6774 83.6567 59.2279C83.6567 57.872 83.0402 57.5239 82.2572 57.5239C81.6924 57.5239 81.1914 57.7701 80.7924 58.1402V57.6687H79.4364V57.7267C79.9224 57.7996 80.0027 58.3429 79.9952 59.3293L79.9884 60.5398C79.9809 61.5262 79.9157 62.0701 79.4297 62.1424Z" fill="black"/>
<path d="M85.1641 61.0333C85.1641 61.8088 85.6643 62.3452 86.3678 62.3452C87.1366 62.3452 87.6443 62.048 88.1228 61.5331C88.1513 61.9246 88.3688 62.2003 88.7536 62.2003H89.4856V62.1424C89.0003 62.0701 88.9268 61.5262 88.9268 60.5398C88.9268 60.1483 88.9268 59.5975 88.9268 59.1259C88.9268 58.0024 88.1588 57.5239 87.0203 57.5239C86.2516 57.5239 85.4041 57.8286 85.4041 58.285C85.4041 58.4808 85.5338 58.6406 85.7656 58.6406C86.4473 58.6406 86.0926 57.7052 86.9836 57.7052C87.6368 57.7052 88.1153 58.0892 88.1153 58.8288V58.8654C86.9836 58.8799 85.1641 59.5609 85.1641 61.0333ZM85.9763 60.9389C85.9763 59.9525 86.8321 59.0756 88.1153 59.0467V61.2436C87.7748 61.664 87.3541 61.9901 86.7526 61.9901C86.1721 61.9901 85.9763 61.3663 85.9763 60.9389Z" fill="black"/>
<path d="M90.207 62.1424V62.2003H91.5773C91.8233 62.2728 92.2148 62.3452 92.7953 62.3452C93.9338 62.3452 94.818 61.3808 94.818 59.9311C94.818 58.4883 93.9338 57.5239 92.7953 57.5239C92.1863 57.5239 91.8023 57.7996 91.5698 58.0533C91.5698 56.9366 91.5773 56.2549 91.5773 54.8052H91.5195C91.3815 54.979 90.9758 55.327 90.258 55.327V55.3849C90.7433 55.4574 90.7658 55.842 90.7658 56.6106C90.7658 57.9224 90.7658 59.2279 90.7658 60.5398C90.7658 61.5262 90.693 62.0701 90.207 62.1424ZM91.5698 58.4014C91.722 58.0747 92.034 57.7776 92.6288 57.7776C93.5273 57.7776 94.0208 58.6186 94.0208 59.9311C94.0208 61.2505 93.3315 62.1494 92.4038 62.1494C92.0415 62.1494 91.7655 62.0046 91.5773 61.8523C91.5773 60.4605 91.5698 59.9236 91.5698 58.5752C91.5698 58.3215 91.5698 57.7122 91.5698 58.4014Z" fill="black"/>
<path d="M95.7617 62.2003H97.69V62.1424C97.204 62.0701 97.132 61.5262 97.132 60.5398C97.132 58.6261 97.132 56.7188 97.132 54.8052H97.0735C96.9362 54.979 96.5297 55.327 95.8127 55.327V55.3849C96.298 55.4574 96.3197 55.842 96.3197 56.6106C96.3197 57.9224 96.3197 59.2279 96.3197 60.5398C96.3197 61.5262 96.247 62.0701 95.7617 62.1424V62.2003Z" fill="black"/>
<path d="M98.1953 57.6689V57.7268C98.5868 57.8288 98.7106 58.0535 99.2393 59.3219C99.5881 60.1629 100.037 61.1852 100.457 62.1716C100.284 62.6286 99.7111 63.9335 99.2543 63.9335C98.9641 63.9335 98.9491 63.9046 98.7466 63.9046C98.5801 63.9046 98.3116 64.0059 98.3116 64.2961C98.3116 64.6001 98.5651 64.7525 98.8553 64.7525C99.6818 64.7525 100.168 63.3028 100.588 62.3453C101.03 61.3016 101.509 60.2139 101.879 59.3219C102.408 58.0535 102.531 57.8288 102.923 57.7268V57.6689H101.342V57.7268C102.059 57.8357 102.11 58.2638 101.546 59.6197C101.342 60.105 101.147 60.569 100.915 61.1128C100.668 60.5475 100.508 60.1919 100.233 59.5397C99.6601 58.1838 99.5513 57.8068 100.088 57.7268V57.6689H98.1953Z" fill="black"/>
</svg>
