<svg width="106" height="37" viewBox="0 0 106 37" fill="none" xmlns="http://www.w3.org/2000/svg">
<mask id="mask0_2403_109" style="mask-type:luminance" maskUnits="userSpaceOnUse" x="0" y="0" width="106" height="37">
<path d="M106 0H0V37H106V0Z" fill="white"/>
</mask>
<g mask="url(#mask0_2403_109)">
<path d="M32.4149 5.53613C31.0877 5.95704 29.1544 7.70906 28.5121 8.87207C27.74 10.2641 27.7927 11.68 28.3094 13.1348L28.3864 13.2105H28.4411C28.6503 13.1666 28.8507 13.0931 29.0349 12.9927C29.1524 12.9391 29.2679 12.8837 29.3834 12.8246C29.4989 12.7656 29.6104 12.701 29.7218 12.6401C29.8333 12.5791 29.9387 12.5053 30.046 12.4333C30.1534 12.3613 30.2487 12.2875 30.3561 12.2099C30.4635 12.1324 30.5587 12.0511 30.6499 11.9681C30.7411 11.885 30.8384 11.8 30.9275 11.7133C31.0167 11.6265 31.1059 11.5287 31.189 11.4419C31.272 11.3551 31.3551 11.2573 31.4322 11.1557C32.7797 9.47395 32.7615 7.49307 32.4149 5.53613Z" fill="black"/>
<path d="M36.5225 10.8202H36.5104C35.7109 10.7546 34.9051 10.8369 34.1414 11.0622C33.3778 11.2874 32.6719 11.651 32.0664 12.131C32.3744 12.7243 32.8115 13.2544 33.3512 13.6891C34.6663 14.7968 36.1334 15.059 37.8681 14.9999C39.3838 14.8688 40.8712 14.5789 42.3971 14.5679L42.2086 14.3334C40.7334 12.5131 39.0494 11.1636 36.5225 10.8202Z" fill="black"/>
<path d="M27.2279 12.7772C27.1489 12.7772 27.0698 12.7661 26.9908 12.7642C23.0657 12.6239 19.0432 13.558 15.8049 15.6183C15.08 16.0931 14.3921 16.6131 13.7461 17.1746C13.3997 16.0152 11.6062 15.2915 10.897 14.2854C11.0125 15.8639 13.126 24.0699 10.2891 30.3467C11.1442 30.3725 14.4999 30.2119 15.3552 30.1621C15.8192 28.6963 14.6641 19.2552 15.73 18.0958C18.567 15.0257 22.8792 13.1777 27.234 12.8233L27.2279 12.7772Z" fill="black"/>
<path d="M5.17752 7.40455C3.46519 7.21998 1.52995 7.73501 0 8.41441C0.174271 8.87221 0.405288 9.31533 0.607924 9.75652C1.45092 11.4882 2.4682 12.9503 4.14204 14.1189C6.09343 15.4795 8.21513 15.6087 10.5719 15.3244C10.0653 14.1319 9.10878 13.0112 8.207 12.0402C7.43341 11.2513 6.57234 10.5373 5.63749 9.90974C7.525 10.6224 9.20962 11.7171 10.5637 13.1109C11.0454 13.6358 11.4979 14.1823 11.9194 14.7484C12.0359 12.8985 11.3768 11.0772 10.0754 9.65313C8.80279 8.27966 7.14311 7.55778 5.17752 7.40455Z" fill="black"/>
<path d="M20.3012 0C17.5128 0.856566 14.7163 2.4092 13.2411 4.79066C12.643 5.72705 12.2565 6.76291 12.1045 7.8374C11.9524 8.91189 12.0378 10.0033 12.3555 11.0472C12.619 10.4934 12.8378 9.92658 13.1115 9.38566C14.0225 7.56444 15.3105 5.92025 16.9049 4.54331C17.1053 4.37844 17.3171 4.22547 17.5392 4.08544C17.0164 4.61387 16.5317 5.17262 16.0882 5.75802C14.9398 7.39924 14.1881 9.24441 13.8835 11.1709C14.4239 11.0478 14.9643 10.9105 15.5046 10.7592C17.5493 10.1647 19.3893 9.24905 20.4004 7.43619C21.6365 5.2153 21.1117 2.28546 20.3012 0Z" fill="black"/>
<path d="M23.129 21.2671C21.3052 19.9527 21.7551 16.77 23.5019 15.3762C23.2614 15.2421 22.9916 15.1579 22.7114 15.1295C22.4312 15.1011 22.1476 15.1292 21.8807 15.2119C20.8229 15.5368 20.1887 16.2531 19.8077 17.1706C18.8877 19.386 19.7266 22.0702 21.8341 23.6469C23.1169 24.6018 24.6803 25.1912 26.3287 25.3416C26.4629 25.3512 26.5976 25.3316 26.7218 25.2843C29.6094 24.2394 31.409 22.3748 31.9176 19.5447C32.0748 18.7167 31.9873 17.8654 31.6643 17.0783C30.4322 14.0913 26.1423 13.3861 23.7389 15.786C23.0237 16.4922 22.5704 17.3855 22.4431 18.3393C22.3158 19.2931 22.521 20.2593 23.0297 21.101L23.129 21.2671Z" fill="black"/>
<path d="M6.55797 19.6299C5.69011 19.0116 5.91052 17.5156 6.73153 16.861C6.61903 16.7983 6.49281 16.7589 6.36173 16.7455C6.23071 16.7321 6.098 16.7451 5.97306 16.7835C5.74375 16.858 5.53648 16.9798 5.36752 17.1395C5.19855 17.2992 5.07256 17.4923 4.99927 17.7038C4.56531 18.7443 4.95935 20.0078 5.94699 20.7495C6.55119 21.1954 7.28555 21.4703 8.05942 21.5401C8.12274 21.5446 8.18641 21.5354 8.24514 21.5132C9.60073 21.0214 10.4478 20.1454 10.6856 18.8139C10.7598 18.4249 10.719 18.0248 10.5675 17.6548C9.98785 16.2506 7.96395 15.9154 6.84261 17.046C6.5061 17.3778 6.29276 17.7978 6.2329 18.2462C6.17312 18.6947 6.26986 19.1489 6.50935 19.5445C6.52497 19.5777 6.54066 19.6046 6.55797 19.6299Z" fill="black"/>
<path d="M9.96555 29.2217H11.9068C15.5139 29.386 18.5494 30.5749 21.7958 31.8894C25.0421 33.2038 28.8254 33.8536 32.5094 33.8037C31.4758 34.4586 30.3668 35.0089 29.2023 35.445C27.9581 35.9471 26.2174 35.4985 24.8901 35.277C23.5559 35.0243 22.2521 34.6533 20.9973 34.1693C19.745 33.7133 18.6751 33.2259 17.3964 32.794C16.1177 32.362 14.8451 31.917 13.4489 31.7343C12.0527 31.5515 10.0952 31.3651 8.66252 31.5903C7.22983 31.8155 5.83769 31.9245 4.53064 32.4801C3.2236 33.0358 2.39886 32.0315 1.52344 31.2192C4.15781 30.1023 6.96638 29.2235 9.9594 29.2235L9.96555 29.2217Z" fill="black"/>
<path d="M5.50781 33.509C8.61022 32.4013 12.6388 32.5859 15.6723 33.6327C18.7059 34.6794 21.395 35.7631 24.4873 36.4646C17.9794 37.7487 11.1787 36.6903 5.50781 33.5108V33.509Z" fill="black"/>
</g>
<path d="M42.3582 19.3249C42.4832 19.6061 42.6817 19.8573 42.9537 20.0784C43.2331 20.2994 43.5859 20.4099 44.0123 20.4099C44.2476 20.4099 44.4939 20.3496 44.7512 20.229C45.0085 20.1085 45.2327 19.921 45.4239 19.6664C45.4459 19.6329 45.4753 19.6162 45.5122 19.6162C45.5489 19.6162 45.5856 19.6262 45.6224 19.6463C45.6665 19.6664 45.7768 19.7234 45.9533 19.8171C45.9826 19.8372 45.9973 19.864 45.9973 19.8975C45.9973 19.9444 45.9753 20.0013 45.9312 20.0683C45.7253 20.4166 45.4459 20.7012 45.0931 20.9222C44.7402 21.1433 44.2807 21.2538 43.7146 21.2538C43.1044 21.2538 42.5788 21.1299 42.1376 20.8821C41.6965 20.6343 41.3547 20.3061 41.1121 19.8975C40.8768 19.489 40.7592 19.0435 40.7592 18.5613C40.7592 18.0992 40.8327 17.704 40.9797 17.3758C41.1341 17.041 41.3363 16.773 41.5863 16.5721C41.8362 16.3645 42.1156 16.2137 42.4244 16.12C42.7405 16.0195 43.0603 15.9693 43.3837 15.9693C43.7513 15.9693 44.0749 16.0362 44.3542 16.1702C44.6336 16.2975 44.8689 16.4616 45.06 16.6625C45.2585 16.8635 45.4055 17.0778 45.5011 17.3055C45.604 17.5265 45.6555 17.7341 45.6555 17.9284C45.6555 17.982 45.6224 18.0222 45.5562 18.0489L42.3582 19.3249ZM44.0013 17.8882C44.0013 17.5667 43.9168 17.3021 43.7477 17.0945C43.5786 16.8869 43.3654 16.783 43.1081 16.783C42.8067 16.783 42.5678 16.8936 42.3913 17.1146C42.2148 17.3289 42.1266 17.6002 42.1266 17.9284C42.1266 18.0289 42.1303 18.1528 42.1376 18.3001C42.1524 18.4474 42.1818 18.5814 42.2259 18.7019L44.0013 17.8882ZM51.7662 19.2645C51.7662 19.5057 51.8066 19.7234 51.8875 19.9176C51.9683 20.1051 52.1448 20.2156 52.4168 20.2492C52.505 20.2559 52.5491 20.2994 52.5491 20.3797V20.7113C52.5491 20.805 52.4939 20.8519 52.3837 20.8519C52.0234 20.8519 51.7221 20.872 51.4795 20.9122C51.2441 20.9457 51.0383 20.9925 50.8619 21.0529C50.6928 21.1064 50.5237 21.1667 50.3546 21.2337C50.3252 21.2471 50.2995 21.2538 50.2774 21.2538H50.2554C50.2333 21.2538 50.2223 21.2438 50.2223 21.2237C50.237 21.0696 50.2517 20.9189 50.2664 20.7715C50.2884 20.6242 50.3142 20.4769 50.3436 20.3295C50.3068 20.4165 50.226 20.5338 50.101 20.6811C49.9833 20.8285 49.8069 20.9624 49.5716 21.083C49.3437 21.1969 49.0423 21.2538 48.6673 21.2538C48.4174 21.2538 48.1491 21.2069 47.8623 21.1131C47.583 21.0194 47.3183 20.8687 47.0683 20.6611C46.8184 20.4534 46.6125 20.1821 46.4507 19.8472C46.2964 19.5057 46.2192 19.0904 46.2192 18.6015C46.2192 17.9786 46.3405 17.4763 46.5831 17.0945C46.833 16.706 47.1529 16.4214 47.5425 16.2405C47.9396 16.0597 48.3586 15.9693 48.7997 15.9693C49.3584 15.9693 49.8326 16.1267 50.2223 16.4415V15.7985C50.2223 15.6177 50.2075 15.4435 50.1781 15.2761C50.1561 15.1086 50.101 14.968 50.0128 14.8541C49.9245 14.7335 49.7774 14.6632 49.5716 14.6431C49.4834 14.6364 49.4393 14.5929 49.4393 14.5125V14.171C49.4393 14.1308 49.454 14.104 49.4834 14.0906C49.5128 14.0705 49.5532 14.0538 49.6047 14.0404C50.1855 13.8662 50.6377 13.6921 50.9611 13.5179C51.292 13.3438 51.5309 13.2065 51.678 13.106C51.7 13.0926 51.7184 13.0859 51.7331 13.0859H51.7441C51.7588 13.0859 51.7662 13.0926 51.7662 13.106V19.2645ZM50.2223 17.8681C50.2223 17.5533 50.1083 17.2854 49.8804 17.0644C49.6599 16.8434 49.3657 16.7328 48.9982 16.7328C48.6453 16.7328 48.3696 16.8031 48.1711 16.9438C47.9726 17.0845 47.8329 17.272 47.7521 17.5064C47.6785 17.7408 47.6418 17.9987 47.6418 18.28C47.6418 18.923 47.7815 19.432 48.0608 19.8071C48.3476 20.1821 48.7151 20.3697 49.1636 20.3697C49.3621 20.3697 49.5348 20.3262 49.6819 20.2391C49.829 20.1453 49.9466 20.0314 50.0348 19.8975C50.1304 19.7636 50.1928 19.6363 50.2223 19.5158V17.8681ZM56.2119 20.5204C56.3222 20.5204 56.3773 20.5706 56.3773 20.6711V20.9725C56.3773 21.073 56.3148 21.1232 56.1898 21.1232H53.069C52.944 21.1232 52.8815 21.073 52.8815 20.9725V20.6711C52.8815 20.5706 52.9367 20.5204 53.0469 20.5204H53.069C53.341 20.5204 53.5395 20.43 53.6645 20.2492C53.7968 20.0616 53.863 19.8339 53.863 19.566V18.501C53.863 18.347 53.8483 18.193 53.8189 18.0389C53.7968 17.8848 53.7416 17.7509 53.6534 17.637C53.5653 17.5232 53.4182 17.4562 53.2123 17.4361C53.1241 17.4294 53.08 17.3858 53.08 17.3055V16.9639C53.08 16.9237 53.0947 16.8969 53.1241 16.8835C53.1535 16.8635 53.194 16.8467 53.2454 16.8333C53.8262 16.6592 54.271 16.4817 54.5797 16.3008C54.8959 16.1133 55.1275 15.9492 55.2745 15.8085C55.2892 15.7951 55.3039 15.7885 55.3186 15.7885H55.3517C55.3664 15.7885 55.3738 15.7951 55.3738 15.8085V19.5559C55.3738 19.8238 55.44 20.0516 55.5723 20.2391C55.7046 20.4266 55.9068 20.5204 56.1788 20.5204H56.2119ZM54.6349 13.6887C54.8261 13.6887 55.0135 13.7724 55.1973 13.9399C55.3811 14.1073 55.473 14.2748 55.473 14.4422C55.473 14.6097 55.3811 14.7771 55.1973 14.9446C55.0135 15.112 54.8261 15.1957 54.6349 15.1957C54.4585 15.1957 54.2747 15.112 54.0835 14.9446C53.8997 14.7838 53.8079 14.6164 53.8079 14.4422C53.8079 14.2748 53.8997 14.1073 54.0835 13.9399C54.2673 13.7724 54.4511 13.6887 54.6349 13.6887ZM56.9358 15.7985C56.9358 15.6177 56.9211 15.4435 56.8916 15.2761C56.8696 15.1086 56.8144 14.968 56.7262 14.8541C56.638 14.7335 56.491 14.6632 56.2851 14.6431C56.1969 14.6364 56.1528 14.5929 56.1528 14.5125V14.171C56.1528 14.1308 56.1638 14.104 56.1859 14.0906C56.2153 14.0705 56.2557 14.0538 56.3072 14.0404C56.8953 13.8662 57.3511 13.6921 57.6746 13.5179C57.9981 13.3438 58.2334 13.2065 58.3804 13.106C58.4025 13.0926 58.4208 13.0859 58.4355 13.0859H58.4466C58.4613 13.0859 58.4686 13.0926 58.4686 13.106V16.4616C58.5716 16.3276 58.7406 16.2137 58.9758 16.12C59.2185 16.0195 59.4942 15.9693 59.8029 15.9693C60.1044 15.9693 60.4095 16.0162 60.7183 16.11C61.0344 16.2037 61.3248 16.3544 61.5895 16.562C61.8541 16.7697 62.0673 17.0443 62.2291 17.3858C62.3982 17.7207 62.4827 18.1326 62.4827 18.6216C62.4827 19.1306 62.3651 19.5861 62.1298 19.9879C61.9019 20.3831 61.5711 20.6945 61.1373 20.9222C60.7036 21.1433 60.1889 21.2538 59.5934 21.2538C59.1082 21.2538 58.6634 21.1801 58.2591 21.0328C57.8547 20.8787 57.5313 20.6343 57.2886 20.2994C57.0534 19.9578 56.9358 19.5124 56.9358 18.9632V15.7985ZM58.4686 19.1742C58.4686 19.5024 58.5274 19.7702 58.6451 19.9779C58.7626 20.1855 58.9171 20.3396 59.1082 20.44C59.2994 20.5405 59.4979 20.5907 59.7037 20.5907C60.064 20.5907 60.3396 20.5137 60.5308 20.3596C60.7293 20.1989 60.8653 19.9913 60.9388 19.7368C61.0197 19.4823 61.0601 19.2177 61.0601 18.9431C61.0601 18.3001 60.9094 17.7911 60.608 17.416C60.3139 17.041 59.8838 16.8534 59.3177 16.8534C59.009 16.8534 58.7259 16.9405 58.4686 17.1146V19.1742ZM66.0335 20.5204C66.1437 20.5204 66.1989 20.5706 66.1989 20.6711V20.9725C66.1989 21.073 66.1364 21.1232 66.0114 21.1232H62.8906C62.7656 21.1232 62.7031 21.073 62.7031 20.9725V20.6711C62.7031 20.5706 62.7582 20.5204 62.8685 20.5204H62.8906C63.1626 20.5204 63.3611 20.43 63.4861 20.2492C63.6184 20.0616 63.6846 19.8339 63.6846 19.566V15.7985C63.6846 15.611 63.6699 15.4335 63.6404 15.266C63.6184 15.0986 63.5632 14.958 63.475 14.8441C63.3868 14.7235 63.2397 14.6532 63.034 14.6331C62.9457 14.6264 62.9016 14.5829 62.9016 14.5025V14.1609C62.9016 14.1207 62.9163 14.0939 62.9457 14.0805C62.9751 14.0671 63.0155 14.0504 63.067 14.0303C63.589 13.8562 64.0043 13.6954 64.3132 13.5481C64.6292 13.394 64.8902 13.2467 65.0961 13.106C65.1108 13.0926 65.1255 13.0859 65.1402 13.0859H65.1733C65.188 13.0859 65.1954 13.0926 65.1954 13.106V19.5559C65.1954 19.8238 65.2615 20.0516 65.3939 20.2391C65.5262 20.4266 65.7283 20.5204 66.0004 20.5204H66.0335ZM68.0319 19.3249C68.1569 19.6061 68.3555 19.8573 68.6276 20.0784C68.9067 20.2994 69.26 20.4099 69.6862 20.4099C69.9215 20.4099 70.1681 20.3496 70.4253 20.229C70.6826 20.1085 70.9066 19.921 71.0981 19.6664C71.12 19.6329 71.1497 19.6162 71.1864 19.6162C71.2232 19.6162 71.2599 19.6262 71.2966 19.6463C71.3405 19.6664 71.4507 19.7234 71.6274 19.8171C71.6563 19.8372 71.6712 19.864 71.6712 19.8975C71.6712 19.9444 71.6493 20.0013 71.6055 20.0683C71.3991 20.4166 71.12 20.7012 70.7674 20.9222C70.414 21.1433 69.9547 21.2538 69.3887 21.2538C68.7781 21.2538 68.253 21.1299 67.8114 20.8821C67.3704 20.6343 67.0286 20.3061 66.786 19.8975C66.5507 19.489 66.4332 19.0435 66.4332 18.5613C66.4332 18.0992 66.5067 17.704 66.6537 17.3758C66.808 17.041 67.0102 16.773 67.2602 16.5721C67.5103 16.3645 67.7895 16.2137 68.0983 16.12C68.4142 16.0195 68.7343 15.9693 69.0579 15.9693C69.4254 15.9693 69.7491 16.0362 70.0282 16.1702C70.3073 16.2975 70.5426 16.4616 70.7341 16.6625C70.9327 16.8635 71.0797 17.0778 71.1751 17.3055C71.2783 17.5265 71.3292 17.7341 71.3292 17.9284C71.3292 17.982 71.2967 18.0222 71.2302 18.0489L68.0319 19.3249ZM69.6756 17.8882C69.6756 17.5667 69.5908 17.3021 69.4219 17.0945C69.2523 16.8869 69.0396 16.783 68.7823 16.783C68.4806 16.783 68.2417 16.8936 68.0651 17.1146C67.8891 17.3289 67.8008 17.6002 67.8008 17.9284C67.8008 18.0289 67.8043 18.1528 67.8114 18.3001C67.8262 18.4474 67.8559 18.5814 67.8997 18.7019L69.6756 17.8882ZM43.9241 29.5335C44.0344 29.5335 44.0896 29.5837 44.0896 29.6842V29.9856C44.0896 30.0861 44.0271 30.1363 43.9021 30.1363H40.7812C40.6562 30.1363 40.5938 30.0861 40.5938 29.9856V29.6842C40.5938 29.5837 40.6489 29.5335 40.7592 29.5335H40.7812C41.0532 29.5335 41.2517 29.4431 41.3767 29.2623C41.509 29.0747 41.5752 28.847 41.5752 28.5791V24.8116C41.5752 24.6241 41.5605 24.4466 41.5311 24.2791C41.509 24.1117 41.4539 23.9711 41.3657 23.8572C41.2774 23.7366 41.1305 23.6663 40.9246 23.6462C40.8363 23.6395 40.7923 23.596 40.7923 23.5156V23.174C40.7923 23.1338 40.807 23.107 40.8363 23.0936C40.8657 23.0802 40.9062 23.0635 40.9577 23.0434C41.4796 22.8693 41.895 22.7085 42.2038 22.5612C42.5199 22.4071 42.781 22.2598 42.9868 22.1191C43.0015 22.1057 43.0162 22.099 43.0309 22.099H43.064C43.0787 22.099 43.086 22.1057 43.086 22.1191V28.569C43.086 28.8369 43.1522 29.0647 43.2845 29.2522C43.4169 29.4397 43.6191 29.5335 43.8911 29.5335H43.9241ZM49.8707 28.2776C49.8707 28.5188 49.9112 28.7365 49.9921 28.9307C50.0729 29.1182 50.2494 29.2287 50.5214 29.2623C50.6096 29.269 50.6537 29.3125 50.6537 29.3928V29.7244C50.6537 29.8181 50.5986 29.865 50.4883 29.865C50.1281 29.865 49.8266 29.8851 49.584 29.9253C49.3488 29.9588 49.1429 30.0057 48.9665 30.066C48.7974 30.1195 48.6283 30.1798 48.4592 30.2468C48.4298 30.2602 48.404 30.2669 48.382 30.2669H48.3489C48.3342 30.2669 48.3269 30.2535 48.3269 30.2267C48.3269 30.1999 48.3342 30.1363 48.3489 30.0358C48.3636 29.9287 48.3783 29.8114 48.393 29.6842C48.4151 29.5502 48.4334 29.4363 48.4482 29.3426C48.4114 29.4296 48.3306 29.5469 48.2055 29.6943C48.088 29.8416 47.9115 29.9755 47.6762 30.0961C47.4483 30.21 47.1469 30.2669 46.7719 30.2669C46.522 30.2669 46.2537 30.22 45.967 30.1262C45.6875 30.0325 45.4229 29.8818 45.1729 29.6742C44.923 29.4665 44.7171 29.1952 44.5554 28.8603C44.401 28.5188 44.3238 28.1035 44.3238 27.6146C44.3238 26.9917 44.4451 26.4894 44.6877 26.1076C44.9377 25.7191 45.2575 25.4345 45.6471 25.2536C46.0441 25.0728 46.4632 24.9824 46.9043 24.9824C47.2645 24.9824 47.5953 25.0326 47.8968 25.1331C48.1982 25.2335 48.4629 25.3776 48.6908 25.5651C48.882 25.4914 49.0436 25.4244 49.176 25.3642C49.3157 25.2972 49.4333 25.2302 49.5289 25.1632C49.5657 25.1365 49.6024 25.1097 49.6392 25.0829C49.6832 25.056 49.7311 25.0293 49.7825 25.0025C49.8046 24.9891 49.823 24.9824 49.8377 24.9824H49.8487C49.8634 24.9824 49.8707 24.9891 49.8707 25.0025V28.2776ZM48.3269 26.7004C48.3048 26.5664 48.2497 26.4191 48.1614 26.2583C48.0806 26.0909 47.9556 25.9502 47.7865 25.8364C47.6175 25.7158 47.3895 25.6555 47.1028 25.6555C46.7499 25.6555 46.4742 25.7359 46.2757 25.8966C46.0772 26.0507 45.9375 26.2516 45.8566 26.4994C45.7832 26.7472 45.7464 27.0118 45.7464 27.2931C45.7464 27.9361 45.886 28.4451 46.1655 28.8202C46.4522 29.1952 46.8198 29.3828 47.2682 29.3828C47.5329 29.3828 47.7387 29.3326 47.8858 29.2321C48.0402 29.1249 48.1504 29.0178 48.2166 28.9106C48.2828 28.8034 48.3195 28.7398 48.3269 28.7197V26.7004ZM57.335 26.8611V28.5791C57.335 28.9474 57.3975 29.1986 57.5224 29.3326C57.6548 29.4665 57.8276 29.5335 58.0408 29.5335H58.129C58.2393 29.5335 58.2944 29.5837 58.2944 29.6842V29.9856C58.2944 30.0861 58.2393 30.1363 58.129 30.1363H55.1956C55.0853 30.1363 55.0302 30.0861 55.0302 29.9856V29.6842C55.0302 29.5837 55.0853 29.5335 55.1956 29.5335H55.2728C55.4272 29.5335 55.5522 29.4665 55.6477 29.3326C55.7433 29.1986 55.7911 28.9474 55.7911 28.5791V26.8611C55.7911 26.5396 55.736 26.2952 55.6257 26.1277C55.5154 25.9536 55.3059 25.8665 54.9971 25.8665C54.8133 25.8665 54.6295 25.91 54.4457 25.9971C54.262 26.0775 54.1002 26.1846 53.9605 26.3186C53.8208 26.4459 53.7179 26.5831 53.6517 26.7305V28.5791C53.6517 28.847 53.7142 29.0747 53.8392 29.2623C53.9715 29.4431 54.1443 29.5335 54.3575 29.5335H54.3795C54.4899 29.5335 54.545 29.5837 54.545 29.6842V29.9856C54.545 30.0861 54.4899 30.1363 54.3795 30.1363H51.2807C51.1705 30.1363 51.1153 30.0861 51.1153 29.9856V29.6842C51.1153 29.5837 51.1705 29.5335 51.2807 29.5335H51.3028C51.5749 29.5335 51.777 29.4431 51.9093 29.2623C52.0417 29.0747 52.1078 28.847 52.1078 28.5791V27.3132C52.1078 27.1323 52.0931 26.9582 52.0637 26.7908C52.0417 26.6234 51.9829 26.4827 51.8873 26.3688C51.7991 26.2483 51.652 26.1779 51.4462 26.1578C51.3653 26.1511 51.3248 26.1076 51.3248 26.0273V25.6857C51.3248 25.6187 51.3764 25.5751 51.4792 25.555C52.0086 25.4814 52.4607 25.3675 52.8357 25.2134C53.218 25.0594 53.4826 24.9355 53.6296 24.8417C53.6664 24.8149 53.6958 24.8016 53.7179 24.8016H53.7289C53.7436 24.8016 53.751 24.8082 53.751 24.8216C53.751 24.835 53.7473 24.8618 53.7399 24.902L53.5525 26.1377C53.6554 25.9837 53.7914 25.8196 53.9605 25.6454C54.1296 25.4647 54.3391 25.3106 54.5891 25.1833C54.839 25.0493 55.1295 24.9824 55.4603 24.9824C55.8573 24.9824 56.1808 25.036 56.4307 25.1431C56.6807 25.2503 56.8681 25.3943 56.9932 25.5751C57.1254 25.756 57.2137 25.9569 57.2578 26.1779C57.3092 26.3989 57.335 26.6267 57.335 26.8611ZM63.9031 28.2776C63.9031 28.5188 63.9436 28.7365 64.0244 28.9307C64.1053 29.1182 64.2817 29.2287 64.5538 29.2623C64.642 29.269 64.6861 29.3125 64.6861 29.3928V29.7244C64.6861 29.8181 64.6309 29.865 64.5207 29.865C64.1604 29.865 63.859 29.8851 63.6164 29.9253C63.3811 29.9588 63.1753 30.0057 62.9988 30.066C62.8297 30.1195 62.6607 30.1798 62.4916 30.2468C62.4622 30.2602 62.4365 30.2669 62.4144 30.2669H62.3923C62.3703 30.2669 62.3592 30.2569 62.3592 30.2368C62.3739 30.0827 62.3886 29.932 62.4033 29.7846C62.4254 29.6373 62.4512 29.49 62.4806 29.3426C62.4438 29.4296 62.3629 29.5469 62.238 29.6943C62.1203 29.8416 61.9438 29.9755 61.7086 30.0961C61.4807 30.21 61.1793 30.2669 60.8043 30.2669C60.5544 30.2669 60.286 30.22 59.9993 30.1262C59.72 30.0325 59.4552 29.8818 59.2053 29.6742C58.9554 29.4665 58.7495 29.1952 58.5877 28.8603C58.4333 28.5188 58.3562 28.1035 58.3562 27.6146C58.3562 26.9917 58.4775 26.4894 58.7201 26.1076C58.9701 25.7191 59.2898 25.4345 59.6795 25.2536C60.0765 25.0728 60.4955 24.9824 60.9366 24.9824C61.4954 24.9824 61.9696 25.1398 62.3592 25.4545V24.8116C62.3592 24.6308 62.3445 24.4566 62.3151 24.2892C62.2931 24.1217 62.238 23.9811 62.1497 23.8672C62.0615 23.7466 61.9144 23.6763 61.7086 23.6562C61.6204 23.6495 61.5762 23.606 61.5762 23.5256V23.1841C61.5762 23.1438 61.591 23.1171 61.6204 23.1037C61.6498 23.0836 61.6902 23.0669 61.7417 23.0535C62.3225 22.8793 62.7746 22.7052 63.0981 22.531C63.4289 22.3569 63.6679 22.2196 63.8149 22.1191C63.8369 22.1057 63.8553 22.099 63.87 22.099H63.8811C63.8958 22.099 63.9031 22.1057 63.9031 22.1191V28.2776ZM62.3592 26.8812C62.3592 26.5664 62.2453 26.2985 62.0174 26.0775C61.7969 25.8565 61.5027 25.7459 61.1351 25.7459C60.7823 25.7459 60.5066 25.8162 60.3081 25.9569C60.1096 26.0976 59.9699 26.2851 59.889 26.5195C59.8155 26.7539 59.7788 27.0118 59.7788 27.2931C59.7788 27.9361 59.9185 28.4451 60.1978 28.8202C60.4845 29.1952 60.8521 29.3828 61.3006 29.3828C61.4991 29.3828 61.6719 29.3393 61.8189 29.2522C61.9659 29.1584 62.0836 29.0445 62.1717 28.9106C62.2674 28.7767 62.3298 28.6494 62.3592 28.5289V26.8812ZM69.59 26.6702C69.5455 26.6903 69.5088 26.7004 69.4798 26.7004C69.4282 26.7004 69.3802 26.6769 69.3364 26.6301C69.0056 26.2483 68.6601 25.9803 68.2997 25.8263C67.9393 25.6723 67.6269 25.5952 67.3626 25.5952C67.1711 25.5952 66.9947 25.632 66.833 25.7058C66.6712 25.7794 66.5904 25.9134 66.5904 26.1076C66.5904 26.255 66.6492 26.3788 66.7668 26.4793C66.8918 26.5731 67.0499 26.6501 67.2411 26.7104C67.4319 26.7707 67.6269 26.8243 67.8255 26.8712C68.1124 26.9314 68.3986 27.0018 68.6855 27.0821C68.9795 27.1625 69.248 27.2697 69.4904 27.4036C69.7335 27.5308 69.9278 27.6916 70.0748 27.8858C70.2296 28.0801 70.3066 28.3246 70.3066 28.6192C70.3066 28.9341 70.2112 29.2153 70.0197 29.4632C69.836 29.711 69.5717 29.9086 69.2261 30.0559C68.8806 30.1965 68.4686 30.2669 67.9909 30.2669C67.7633 30.2669 67.5386 30.2401 67.3181 30.1865C67.105 30.1396 66.9028 30.076 66.7117 29.9956C66.6676 29.9755 66.6345 29.9655 66.6124 29.9655C66.5609 29.9655 66.5352 29.9889 66.5352 30.0358C66.5352 30.0492 66.5426 30.076 66.5572 30.1162C66.5719 30.1564 66.5794 30.1831 66.5794 30.1965C66.5794 30.2502 66.5352 30.2769 66.447 30.2769H66.05C65.9692 30.2769 65.9066 30.2435 65.8625 30.1765L64.9142 28.559C64.8921 28.5188 64.881 28.4886 64.881 28.4685C64.881 28.4217 64.9105 28.3815 64.9693 28.348L65.3111 28.1672C65.3553 28.1471 65.3884 28.137 65.4104 28.137C65.4545 28.137 65.4949 28.1672 65.5317 28.2274C65.8919 28.7164 66.2853 29.0647 66.7117 29.2723C67.1457 29.4799 67.5867 29.5837 68.0347 29.5837C68.7406 29.5837 69.094 29.3928 69.094 29.0111C69.094 28.8369 69.0056 28.693 68.829 28.5791C68.6601 28.4652 68.4467 28.3714 68.1894 28.2977C67.9393 28.2241 67.6856 28.1605 67.4284 28.1069C66.9579 27.9997 66.583 27.8791 66.3036 27.7452C66.0243 27.6046 65.8148 27.4572 65.675 27.3031C65.5354 27.1424 65.4398 26.985 65.3884 26.831C65.3443 26.6702 65.3221 26.5162 65.3221 26.3688C65.3221 25.9669 65.4912 25.6354 65.8295 25.3742C66.1677 25.113 66.6271 24.9824 67.2079 24.9824C67.5534 24.9824 67.8587 25.0259 68.123 25.113C68.388 25.1934 68.5717 25.2603 68.6749 25.3139C68.7039 25.3273 68.7258 25.334 68.7406 25.334C68.7625 25.334 68.7738 25.3206 68.7738 25.2939C68.7738 25.2738 68.7625 25.2335 68.7406 25.1733C68.7336 25.1398 68.7258 25.1164 68.7187 25.103C68.7187 25.0829 68.7187 25.0661 68.7187 25.0527C68.7187 24.9857 68.7668 24.9523 68.8622 24.9523H69.1491C69.2445 24.9523 69.3067 24.9891 69.3364 25.0627L69.8876 26.3387C69.9095 26.3788 69.9208 26.4124 69.9208 26.4392C69.9208 26.486 69.8911 26.5229 69.8324 26.5496L69.59 26.6702ZM75.6363 28.78C75.6956 28.8202 75.7246 28.8637 75.7246 28.9106C75.7246 28.924 75.7176 28.9508 75.7027 28.991C75.4893 29.4196 75.1734 29.7411 74.7544 29.9554C74.3424 30.1631 73.8908 30.2669 73.3983 30.2669C72.9863 30.2669 72.611 30.1865 72.2733 30.0258C71.9348 29.8584 71.6486 29.6373 71.4132 29.3627C71.1779 29.0881 71.0048 28.78 70.8946 28.4384C70.7843 28.0968 70.744 27.7452 70.7737 27.3835C70.8246 26.8276 70.9942 26.3721 71.2804 26.0172C71.5673 25.6622 71.9129 25.401 72.3171 25.2335C72.7291 25.0661 73.141 24.9824 73.5523 24.9824C74.0378 24.9824 74.4307 25.0493 74.7325 25.1833C75.0335 25.3173 75.2653 25.4914 75.4271 25.7058C75.5889 25.9201 75.6992 26.1444 75.7578 26.3788C75.7656 26.4057 75.7691 26.4291 75.7691 26.4492C75.7691 26.5028 75.7246 26.5396 75.6363 26.5597L74.3685 26.8611C74.324 26.8745 74.2915 26.8812 74.2689 26.8812C74.218 26.8812 74.1919 26.8578 74.1919 26.8109C74.1919 26.7841 74.1919 26.7573 74.1919 26.7305C74.1996 26.7037 74.2032 26.6669 74.2032 26.62C74.2032 26.4057 74.1297 26.2147 73.9827 26.0474C73.8357 25.8799 73.6074 25.7961 73.2986 25.7961C73.0195 25.7961 72.799 25.8766 72.6372 26.0373C72.4754 26.198 72.3581 26.4057 72.2839 26.6602C72.2181 26.908 72.1849 27.1692 72.1849 27.4438C72.1849 27.772 72.233 28.0834 72.3284 28.3781C72.4238 28.6728 72.5785 28.914 72.7913 29.1015C73.0117 29.2824 73.3099 29.3727 73.6845 29.3727C73.9792 29.3727 74.2505 29.3091 74.5007 29.1819C74.7508 29.0479 74.9565 28.867 75.1183 28.6393C75.148 28.5925 75.1918 28.569 75.2505 28.569C75.2872 28.569 75.3204 28.5791 75.3501 28.5992L75.6363 28.78ZM81.7906 28.2776C81.7906 28.5188 81.8316 28.7365 81.9122 28.9307C81.9928 29.1182 82.1694 29.2287 82.4415 29.2623C82.5298 29.269 82.5736 29.3125 82.5736 29.3928V29.7244C82.5736 29.8181 82.5185 29.865 82.4083 29.865C82.0479 29.865 81.7468 29.8851 81.5044 29.9253C81.2691 29.9588 81.0628 30.0057 80.8868 30.066C80.7172 30.1195 80.5483 30.1798 80.3794 30.2468C80.3498 30.2602 80.3243 30.2669 80.3024 30.2669H80.2692C80.2544 30.2669 80.2473 30.2535 80.2473 30.2267C80.2473 30.1999 80.2544 30.1363 80.2692 30.0358C80.284 29.9287 80.2982 29.8114 80.313 29.6842C80.3349 29.5502 80.3533 29.4363 80.3681 29.3426C80.3314 29.4296 80.2508 29.5469 80.1257 29.6943C80.0077 29.8416 79.8318 29.9755 79.5965 30.0961C79.3682 30.21 79.0672 30.2669 78.6919 30.2669C78.4425 30.2669 78.1739 30.22 77.887 30.1262C77.6079 30.0325 77.3429 29.8818 77.0927 29.6742C76.8433 29.4665 76.6369 29.1952 76.4758 28.8603C76.321 28.5188 76.244 28.1035 76.244 27.6146C76.244 26.9917 76.3656 26.4894 76.608 26.1076C76.8581 25.7191 77.1775 25.4345 77.5676 25.2536C77.964 25.0728 78.3831 24.9824 78.8248 24.9824C79.1845 24.9824 79.5152 25.0326 79.8169 25.1331C80.1187 25.2335 80.383 25.3776 80.6112 25.5651C80.802 25.4914 80.9639 25.4244 81.096 25.3642C81.2359 25.2972 81.3532 25.2302 81.4493 25.1632C81.4861 25.1365 81.5228 25.1097 81.5596 25.0829C81.6034 25.056 81.6514 25.0293 81.703 25.0025C81.7249 24.9891 81.7433 24.9824 81.7581 24.9824H81.7687C81.7836 24.9824 81.7906 24.9891 81.7906 25.0025V28.2776ZM80.2473 26.7004C80.2247 26.5664 80.1696 26.4191 80.0819 26.2583C80.0007 26.0909 79.8756 25.9502 79.7067 25.8364C79.5378 25.7158 79.3095 25.6555 79.0226 25.6555C78.67 25.6555 78.3944 25.7359 78.1958 25.8966C77.9973 26.0507 77.8573 26.2516 77.7768 26.4994C77.7033 26.7472 77.6665 27.0118 77.6665 27.2931C77.6665 27.9361 77.8065 28.4451 78.0856 28.8202C78.3725 29.1952 78.74 29.3828 79.1887 29.3828C79.453 29.3828 79.6586 29.3326 79.8056 29.2321C79.9604 29.1249 80.0706 29.0178 80.1371 28.9106C80.2028 28.8034 80.2395 28.7398 80.2473 28.7197V26.7004ZM84.9643 25.8966C85.0081 25.8028 85.0894 25.6857 85.2067 25.545C85.3247 25.3976 85.5006 25.2671 85.736 25.1532C85.9713 25.0393 86.2766 24.9824 86.6511 24.9824C86.9013 24.9824 87.1663 25.0293 87.4454 25.1231C87.7245 25.2168 87.9895 25.3675 88.2397 25.5751C88.4891 25.7828 88.6913 26.0541 88.846 26.3889C89.0078 26.7238 89.0884 27.1357 89.0884 27.6246C89.0884 28.2408 88.9668 28.7465 88.7245 29.1417C88.4821 29.5301 88.1662 29.8148 87.7761 29.9956C87.3867 30.1765 86.9677 30.2669 86.519 30.2669C85.96 30.2669 85.4823 30.1061 85.0851 29.7846V30.5884C85.0851 30.8563 85.1516 31.0807 85.2837 31.2615C85.4166 31.449 85.6187 31.5428 85.8907 31.5428C86.001 31.5428 86.0561 31.5931 86.0561 31.6935V31.9949C86.0561 32.0953 86.001 32.1456 85.8907 32.1456H82.7369C82.6259 32.1456 82.5708 32.0953 82.5708 31.9949V31.6935C82.5708 31.5931 82.6302 31.5428 82.7475 31.5428C83.0195 31.5428 83.2181 31.449 83.3432 31.2615C83.4753 31.0807 83.5418 30.8563 83.5418 30.5884V27.1323C83.5418 26.9515 83.5305 26.7774 83.5086 26.61C83.4867 26.4425 83.4273 26.3018 83.3319 26.188C83.2436 26.0674 83.0966 25.9971 82.8909 25.977C82.8393 25.9703 82.8061 25.9569 82.792 25.9368C82.7772 25.91 82.7694 25.8799 82.7694 25.8464V25.5048C82.7694 25.4177 82.821 25.3742 82.9241 25.3742C83.2916 25.3742 83.5934 25.3608 83.828 25.334C84.0633 25.3006 84.2654 25.2536 84.435 25.1934C84.611 25.1331 84.7841 25.0661 84.953 24.9924C84.9749 24.979 84.9933 24.9723 85.0081 24.9723C85.03 24.9723 85.0448 24.9723 85.0526 24.9723H85.0632C85.0781 24.9723 85.0851 24.9824 85.0851 25.0025C85.0851 25.0092 85.0816 25.0259 85.0745 25.0527C85.0745 25.0795 85.0668 25.1565 85.0526 25.2838C85.0378 25.4043 85.0081 25.6086 84.9643 25.8966ZM85.0851 28.348C85.1148 28.5556 85.177 28.7566 85.2731 28.9508C85.3756 29.145 85.5155 29.3024 85.6922 29.423C85.8681 29.5435 86.078 29.6038 86.3204 29.6038C86.6737 29.6038 86.9493 29.5235 87.1479 29.3627C87.3465 29.2019 87.4821 28.9943 87.5556 28.7398C87.6362 28.4853 87.6772 28.2207 87.6772 27.9462C87.6772 27.3031 87.5337 26.7942 87.2468 26.4191C86.9677 26.044 86.6002 25.8565 86.1444 25.8565C85.8497 25.8565 85.6109 25.9335 85.4272 26.0875C85.2512 26.2349 85.1367 26.3788 85.0851 26.5195V28.348ZM91.3476 28.338C91.4727 28.6192 91.6713 28.8704 91.9433 29.0915C92.2225 29.3125 92.5751 29.423 93.0019 29.423C93.2372 29.423 93.4832 29.3627 93.7404 29.2421C93.9983 29.1216 94.2223 28.9341 94.4131 28.6795C94.4357 28.646 94.4647 28.6293 94.5015 28.6293C94.5382 28.6293 94.575 28.6393 94.6117 28.6594C94.6562 28.6795 94.7665 28.7365 94.9424 28.8302C94.9721 28.8503 94.9869 28.8771 94.9869 28.9106C94.9869 28.9575 94.965 29.0144 94.9205 29.0814C94.7149 29.4296 94.4357 29.7143 94.0824 29.9353C93.7298 30.1564 93.2705 30.2669 92.7037 30.2669C92.0939 30.2669 91.5681 30.143 91.1271 29.8952C90.6862 29.6474 90.3441 29.3192 90.1018 28.9106C89.8664 28.5021 89.7484 28.0566 89.7484 27.5744C89.7484 27.1123 89.8219 26.7171 89.9689 26.3889C90.1237 26.0541 90.3258 25.7861 90.5759 25.5852C90.8254 25.3776 91.1052 25.2268 91.414 25.1331C91.7299 25.0326 92.05 24.9824 92.373 24.9824C92.7412 24.9824 93.0641 25.0493 93.3439 25.1833C93.6231 25.3106 93.8584 25.4747 94.0492 25.6756C94.2478 25.8766 94.3948 26.0909 94.4909 26.3186C94.5933 26.5396 94.6449 26.7472 94.6449 26.9415C94.6449 26.9951 94.6117 27.0353 94.546 27.062L91.3476 28.338ZM92.9906 26.9013C92.9906 26.5798 92.9065 26.3152 92.7369 26.1076C92.568 25.9 92.3546 25.7961 92.0974 25.7961C91.7963 25.7961 91.5575 25.9067 91.3808 26.1277C91.2042 26.342 91.1158 26.6133 91.1158 26.9415C91.1158 27.042 91.1201 27.1659 91.1271 27.3132C91.142 27.4605 91.1709 27.5945 91.2155 27.715L92.9906 26.9013ZM100.078 26.6702C100.034 26.6903 99.9972 26.7004 99.9675 26.7004C99.9159 26.7004 99.8679 26.6769 99.8241 26.6301C99.4934 26.2483 99.1478 25.9803 98.7874 25.8263C98.427 25.6723 98.1146 25.5952 97.8504 25.5952C97.6588 25.5952 97.4829 25.632 97.3211 25.7058C97.1592 25.7794 97.078 25.9134 97.078 26.1076C97.078 26.255 97.1373 26.3788 97.2546 26.4793C97.3797 26.5731 97.538 26.6501 97.7288 26.7104C97.9203 26.7707 98.1146 26.8243 98.3132 26.8712C98.6001 26.9314 98.887 27.0018 99.1732 27.0821C99.4672 27.1625 99.7357 27.2697 99.9788 27.4036C100.221 27.5308 100.416 27.6916 100.563 27.8858C100.717 28.0801 100.794 28.3246 100.794 28.6192C100.794 28.9341 100.699 29.2153 100.508 29.4632C100.324 29.711 100.059 29.9086 99.7138 30.0559C99.3683 30.1965 98.9563 30.2669 98.4786 30.2669C98.251 30.2669 98.0263 30.2401 97.8058 30.1865C97.5931 30.1396 97.3903 30.076 97.1995 29.9956C97.1557 29.9755 97.1225 29.9655 97.1006 29.9655C97.049 29.9655 97.0229 29.9889 97.0229 30.0358C97.0229 30.0492 97.0306 30.076 97.0448 30.1162C97.0596 30.1564 97.0674 30.1831 97.0674 30.1965C97.0674 30.2502 97.0229 30.2769 96.9345 30.2769H96.5381C96.4568 30.2769 96.3946 30.2435 96.3501 30.1765L95.4018 28.559C95.3798 28.5188 95.3685 28.4886 95.3685 28.4685C95.3685 28.4217 95.3982 28.3815 95.4569 28.348L95.7989 28.1672C95.8434 28.1471 95.8759 28.137 95.8985 28.137C95.9424 28.137 95.9826 28.1672 96.0194 28.2274C96.3798 28.7164 96.7734 29.0647 97.1995 29.2723C97.6334 29.4799 98.0744 29.5837 98.5231 29.5837C99.2284 29.5837 99.5817 29.3928 99.5817 29.0111C99.5817 28.8369 99.4934 28.693 99.3167 28.5791C99.1478 28.4652 98.9344 28.3714 98.6772 28.2977C98.427 28.2241 98.1733 28.1605 97.9161 28.1069C97.4454 27.9997 97.0709 27.8791 96.7918 27.7452C96.5119 27.6046 96.3028 27.4572 96.1628 27.3031C96.0229 27.1424 95.9275 26.985 95.8759 26.831C95.8321 26.6702 95.8102 26.5162 95.8102 26.3688C95.8102 25.9669 95.9791 25.6354 96.3176 25.3742C96.6554 25.113 97.1147 24.9824 97.6956 24.9824C98.0412 24.9824 98.3464 25.0259 98.6107 25.113C98.8757 25.1934 99.0595 25.2603 99.1626 25.3139C99.1916 25.3273 99.2142 25.334 99.2284 25.334C99.251 25.334 99.2616 25.3206 99.2616 25.2939C99.2616 25.2738 99.251 25.2335 99.2284 25.1733C99.2213 25.1398 99.2142 25.1164 99.2065 25.103C99.2065 25.0829 99.2065 25.0661 99.2065 25.0527C99.2065 24.9857 99.2545 24.9523 99.3499 24.9523H99.6368C99.7322 24.9523 99.7944 24.9891 99.8241 25.0627L100.375 26.3387C100.398 26.3788 100.408 26.4124 100.408 26.4392C100.408 26.486 100.379 26.5229 100.32 26.5496L100.078 26.6702ZM51.5223 35.9714C51.6325 35.9714 51.6876 36.0216 51.6876 36.1221V36.4235C51.6876 36.524 51.6325 36.5742 51.5223 36.5742H48.4124C48.3021 36.5742 48.247 36.524 48.247 36.4235V36.1221C48.247 36.0216 48.3021 35.9714 48.4124 35.9714H48.4676C48.7028 35.9714 48.8572 35.8944 48.9307 35.7404C49.0042 35.5796 49.041 35.3385 49.041 35.017V33.299C49.041 33.1182 49.0227 32.9541 48.9858 32.8067C48.9564 32.6527 48.883 32.5322 48.7653 32.445C48.6551 32.3513 48.4823 32.3044 48.247 32.3044C47.9309 32.3044 47.6515 32.3948 47.4089 32.5757C47.1737 32.7565 46.9752 32.9842 46.8134 33.2589V35.017C46.8134 35.3854 46.8759 35.6365 47.0009 35.7705C47.1332 35.9045 47.306 35.9714 47.5192 35.9714H47.6074C47.7177 35.9714 47.7728 36.0216 47.7728 36.1221V36.4235C47.7728 36.524 47.7177 36.5742 47.6074 36.5742H44.6078C44.4976 36.5742 44.4425 36.524 44.4425 36.4235V36.1221C44.4425 36.0216 44.4976 35.9714 44.6078 35.9714H44.6851C44.8394 35.9714 44.9754 35.9045 45.0931 35.7705C45.2107 35.6365 45.2696 35.3854 45.2696 35.017V33.299C45.2696 32.9775 45.2217 32.7331 45.1262 32.5656C45.0379 32.3915 44.821 32.3044 44.4755 32.3044C44.2917 32.3044 44.1079 32.348 43.9241 32.435C43.7403 32.5154 43.5786 32.6225 43.4389 32.7565C43.2992 32.8838 43.1963 33.021 43.1301 33.1684V35.017C43.1301 35.2849 43.1927 35.5127 43.3176 35.7002C43.45 35.881 43.6227 35.9714 43.8359 35.9714H43.858C43.9682 35.9714 44.0234 36.0216 44.0234 36.1221V36.4235C44.0234 36.524 43.9682 36.5742 43.858 36.5742H40.7592C40.6489 36.5742 40.5938 36.524 40.5938 36.4235V36.1221C40.5938 36.0216 40.6489 35.9714 40.7592 35.9714H40.7812C41.0532 35.9714 41.2554 35.881 41.3878 35.7002C41.52 35.5127 41.5863 35.2849 41.5863 35.017V33.7511C41.5863 33.5703 41.5716 33.3961 41.5422 33.2287C41.5201 33.0613 41.4613 32.9206 41.3657 32.8067C41.2774 32.6862 41.1305 32.6158 40.9246 32.5958C40.8437 32.5891 40.8033 32.5455 40.8033 32.4652V32.1236C40.8033 32.0566 40.8547 32.0131 40.9577 31.993C41.487 31.9193 41.9392 31.8054 42.3141 31.6514C42.6964 31.4973 42.961 31.3735 43.1081 31.2797C43.1448 31.2529 43.1742 31.2395 43.1963 31.2395H43.2074C43.2221 31.2395 43.2294 31.2462 43.2294 31.2596C43.2294 31.273 43.2257 31.2997 43.2184 31.34L43.0309 32.5757C43.1338 32.4216 43.2698 32.2575 43.4389 32.0834C43.608 31.9026 43.8176 31.7485 44.0675 31.6212C44.3175 31.4873 44.6078 31.4203 44.9387 31.4203C45.4828 31.4203 45.887 31.5141 46.1518 31.7016C46.4164 31.8824 46.5965 32.1169 46.6921 32.4049C46.9421 32.1102 47.2325 31.8724 47.5633 31.6916C47.9015 31.5107 48.2874 31.4203 48.7212 31.4203C49.1182 31.4203 49.438 31.4772 49.6806 31.5911C49.9306 31.6982 50.1217 31.8456 50.254 32.0331C50.3864 32.214 50.4746 32.4216 50.5187 32.6561C50.5702 32.8838 50.5959 33.1182 50.5959 33.3593V35.017C50.5959 35.2849 50.6621 35.5127 50.7944 35.7002C50.9341 35.881 51.1363 35.9714 51.4009 35.9714H51.5223ZM58.4011 33.299V35.017C58.4011 35.3854 58.4637 35.6365 58.5886 35.7705C58.7209 35.9045 58.8937 35.9714 59.1069 35.9714H59.1951C59.3054 35.9714 59.3606 36.0216 59.3606 36.1221V36.4235C59.3606 36.524 59.3054 36.5742 59.1951 36.5742H56.2618C56.1515 36.5742 56.0963 36.524 56.0963 36.4235V36.1221C56.0963 36.0216 56.1515 35.9714 56.2618 35.9714H56.339C56.4933 35.9714 56.6183 35.9045 56.7139 35.7705C56.8095 35.6365 56.8573 35.3854 56.8573 35.017V33.299C56.8573 32.9775 56.8021 32.7331 56.6918 32.5656C56.5816 32.3915 56.3721 32.3044 56.0633 32.3044C55.8794 32.3044 55.6956 32.348 55.5119 32.435C55.3281 32.5154 55.1663 32.6225 55.0266 32.7565C54.887 32.8838 54.784 33.021 54.7179 33.1684V35.017C54.7179 35.2849 54.7804 35.5127 54.9054 35.7002C55.0377 35.881 55.2104 35.9714 55.4236 35.9714H55.4457C55.556 35.9714 55.6111 36.0216 55.6111 36.1221V36.4235C55.6111 36.524 55.556 36.5742 55.4457 36.5742H52.3469C52.2366 36.5742 52.1815 36.524 52.1815 36.4235V36.1221C52.1815 36.0216 52.2366 35.9714 52.3469 35.9714H52.3689C52.641 35.9714 52.8432 35.881 52.9755 35.7002C53.1078 35.5127 53.174 35.2849 53.174 35.017V33.7511C53.174 33.5703 53.1593 33.3961 53.1299 33.2287C53.1078 33.0613 53.049 32.9206 52.9534 32.8067C52.8652 32.6862 52.7182 32.6158 52.5123 32.5958C52.4315 32.5891 52.3911 32.5455 52.3911 32.4652V32.1236C52.3911 32.0566 52.4425 32.0131 52.5454 31.993C53.0748 31.9193 53.5269 31.8054 53.9018 31.6514C54.2841 31.4973 54.5488 31.3735 54.6958 31.2797C54.7326 31.2529 54.762 31.2395 54.784 31.2395H54.7951C54.8098 31.2395 54.8171 31.2462 54.8171 31.2596C54.8171 31.273 54.8134 31.2997 54.8061 31.34L54.6186 32.5757C54.7216 32.4216 54.8575 32.2575 55.0266 32.0834C55.1957 31.9026 55.4053 31.7485 55.6552 31.6212C55.9052 31.4873 56.1956 31.4203 56.5264 31.4203C56.9234 31.4203 57.2469 31.4739 57.4969 31.5811C57.7468 31.6882 57.9343 31.8322 58.0593 32.0131C58.1916 32.1939 58.2799 32.3948 58.3239 32.6158C58.3754 32.8369 58.4011 33.0646 58.4011 33.299Z" fill="black"/>
</svg>
