<svg width="171" height="10" viewBox="0 0 171 10" fill="none" xmlns="http://www.w3.org/2000/svg">
<path d="M9.37462 9.32875H6.07135V8.9311H7.06539L5.91841 5.96426H2.72216L1.57518 8.9311H2.32455C2.37553 8.9311 2.4265 8.93625 2.47747 8.94639C2.6406 8.97705 2.72216 9.10442 2.72216 9.32875H0V8.9311H0.963461L4.38911 0.152878H4.95495L8.4571 8.9311H8.97706C9.02799 8.9311 9.079 8.93625 9.12993 8.94639C9.29312 8.97705 9.37462 9.10442 9.37462 9.32875ZM5.7502 5.52074L4.31265 1.81984L2.89039 5.52074H5.7502ZM26.2123 0.152878V0.550531H24.9888V8.9311H25.8147C25.8657 8.9311 25.9167 8.93625 25.9676 8.94639C26.1308 8.97705 26.2123 9.10442 26.2123 9.32875H22.542V8.9311H23.7654V1.52928L20.2327 9.40519H19.9116L16.5624 2.35508V8.9311H17.3882C17.4392 8.9311 17.4901 8.93625 17.5412 8.94639C17.7043 8.97705 17.7859 9.10442 17.7859 9.32875H14.7272V8.9311H15.9506V0.550531H14.7272V0.152878H16.9141L20.4621 7.63121L23.7654 0.152878H26.2123ZM40.9396 9.32875H37.6362V8.9311H38.6303L37.4833 5.96426H34.287L33.1401 8.9311H33.8895C33.9404 8.9311 33.9914 8.93625 34.0423 8.94639C34.2055 8.97705 34.287 9.10442 34.287 9.32875H31.5649V8.9311H32.5283L35.954 0.152878H36.5199L40.022 8.9311H40.5419C40.5929 8.9311 40.6439 8.93625 40.6949 8.94639C40.858 8.97705 40.9396 9.10442 40.9396 9.32875ZM37.3151 5.52074L35.8775 1.81984L34.4553 5.52074H37.3151ZM52.7764 0.550531V0.152878H55.9114V0.550531H54.688V9.25231L53.9845 9.40519L47.9744 1.85041V8.9311H48.8766C48.9276 8.9311 48.9786 8.93625 49.0296 8.94639C49.1927 8.97705 49.2743 9.10442 49.2743 9.32875H46.1392V8.9311H47.3626V0.550531H46.1392V0.152878H48.2649L54.0763 7.40182V0.550531H52.7764ZM61.5699 0.152878H65.8367C66.8766 0.152878 67.789 0.397565 68.5741 0.886943C69.8587 1.7026 70.501 2.9872 70.501 4.74081C70.501 6.09678 70.0626 7.19792 69.1859 8.04415C68.2988 8.90052 67.1671 9.32875 65.7908 9.32875H61.5699V8.9311H62.7933V0.550531H61.5699V0.152878ZM65.7908 0.550531H64.1086V8.9311H65.8367C66.0406 8.9311 66.2394 8.91581 66.4331 8.88524C68.1663 8.62019 69.0329 7.21828 69.0329 4.67966C69.0329 3.93538 68.9565 3.29312 68.8035 2.75273C68.4059 1.2846 67.4017 0.550531 65.7908 0.550531ZM85.6106 9.32875H82.3073V8.9311H83.3013L82.1544 5.96426H78.9581L77.8111 8.9311H78.5605C78.6114 8.9311 78.6624 8.93625 78.7134 8.94639C78.8765 8.97705 78.9581 9.10442 78.9581 9.32875H76.2359V8.9311H77.1994L80.625 0.152878H81.1909L84.693 8.9311H85.213C85.2636 8.9311 85.3151 8.93625 85.3658 8.94639C85.529 8.97705 85.6106 9.10442 85.6106 9.32875ZM81.9861 5.52074L80.5486 1.81984L79.1263 5.52074H81.9861ZM110.324 0.152878V0.550531H109.1V8.9311H109.927C109.977 8.9311 110.029 8.93625 110.079 8.94639C110.243 8.97705 110.324 9.10442 110.324 9.32875H106.653V8.9311H107.877V1.52928L104.345 9.40519H104.024L100.674 2.35508V8.9311H101.5C101.551 8.9311 101.602 8.93625 101.653 8.94639C101.816 8.97705 101.898 9.10442 101.898 9.32875H98.8387V8.9311H100.063V0.550531H98.8387V0.152878H101.026L104.574 7.63121L107.877 0.152878H110.324ZM121.105 0C122.146 0 123.064 0.300775 123.858 0.902233C125.031 1.77904 125.617 3.05857 125.617 4.74081C125.617 6.17837 125.133 7.35089 124.165 8.25827C123.298 9.07384 122.263 9.48171 121.06 9.48171C119.989 9.48171 119.041 9.15543 118.215 8.50296C117.083 7.60571 116.517 6.33133 116.517 4.67966C116.517 3.25233 116.997 2.0951 117.955 1.20816C118.832 0.402719 119.882 0 121.105 0ZM121.105 9.05349C121.513 9.05349 121.891 8.97705 122.237 8.82408C123.471 8.28369 124.088 6.90222 124.088 4.67966C124.078 1.8657 123.068 0.448582 121.06 0.428227C120.775 0.428227 120.504 0.458802 120.249 0.519953C118.781 0.907384 118.047 2.31437 118.047 4.74081C118.047 5.47488 118.118 6.12229 118.261 6.68303C118.679 8.26333 119.627 9.05349 121.105 9.05349ZM138.296 0.550531V0.152878H141.43V0.550531H140.207V9.25231L139.503 9.40519L133.493 1.85041V8.9311H134.395C134.446 8.9311 134.498 8.93625 134.548 8.94639C134.712 8.97705 134.793 9.10442 134.793 9.32875H131.658V8.9311H132.881V0.550531H131.658V0.152878H133.784L139.595 7.40182V0.550531H138.296ZM150.836 9.32875H147.089V8.9311H148.312V0.550531H147.089V0.152878H151.616C152.411 0.152878 153.078 0.336414 153.618 0.70349C154.281 1.16229 154.613 1.77397 154.613 2.53862C154.613 2.85468 154.547 3.16567 154.414 3.47151C154.057 4.24637 153.394 4.75103 152.426 4.9855L154.888 8.9311H155.469C155.541 8.9311 155.602 8.93625 155.653 8.94639C155.775 8.97705 155.836 9.10442 155.836 9.32875H153.527L151.081 5.12318H149.627V8.9311H150.836V9.32875ZM151.157 0.550531H149.627V4.67966H151.202C151.661 4.67966 152.064 4.54199 152.411 4.26672C152.92 3.85894 153.175 3.28797 153.175 2.5539C153.175 2.22771 153.109 1.91672 152.977 1.62101C152.64 0.907385 152.034 0.550531 151.157 0.550531ZM166.16 0C167.199 0 168.117 0.300775 168.912 0.902233C170.084 1.77904 170.67 3.05857 170.67 4.74081C170.67 6.17837 170.187 7.35089 169.218 8.25827C168.351 9.07384 167.316 9.48171 166.113 9.48171C165.043 9.48171 164.095 9.15543 163.269 8.50296C162.137 7.60571 161.571 6.33133 161.571 4.67966C161.571 3.25233 162.051 2.0951 163.009 1.20816C163.885 0.402719 164.936 0 166.16 0ZM166.16 9.05349C166.567 9.05349 166.945 8.97705 167.291 8.82408C168.525 8.28369 169.141 6.90222 169.141 4.67966C169.131 1.8657 168.122 0.448582 166.113 0.428227C165.828 0.428227 165.557 0.458802 165.302 0.519953C163.835 0.907384 163.1 2.31437 163.1 4.74081C163.1 5.47488 163.172 6.12229 163.315 6.68303C163.732 8.26333 164.681 9.05349 166.16 9.05349Z" fill="white"/>
</svg>
