<svg width="100" height="27" viewBox="0 0 100 27" fill="none" xmlns="http://www.w3.org/2000/svg">
<path d="M11.3682 10.6626C11.3482 10.9262 11.3461 11.1908 11.362 11.4547C11.3659 11.5118 11.3802 11.5826 11.3888 11.6602C11.3978 11.739 11.3997 11.8184 11.3944 11.8975C11.3869 12.0676 11.3254 12.2307 11.2187 12.3632C10.9904 12.6178 10.6777 12.6873 10.3935 12.6948C10.1093 12.7022 9.83369 12.6297 9.56543 12.5658C9.8405 12.5875 10.119 12.6104 10.3815 12.5658C10.644 12.5213 10.8951 12.3986 11.0092 12.2097C11.063 12.1145 11.0846 12.0044 11.0709 11.8959C11.0647 11.8379 11.0537 11.7807 11.0378 11.7247C11.0224 11.6676 10.9995 11.6071 10.9807 11.5255C10.9171 11.2436 10.8733 10.9575 10.8494 10.6695L11.3682 10.6626Z" fill="white"/>
<path d="M10.0782 22.8695C11.1694 22.8695 12.0539 21.985 12.0539 20.8939C12.0539 19.8028 11.1694 18.9182 10.0782 18.9182C8.9871 18.9182 8.10254 19.8028 8.10254 20.8939C8.10254 21.985 8.9871 22.8695 10.0782 22.8695Z" fill="white"/>
<path d="M19.5433 25.012C19.3641 23.744 19.0217 21.4636 18.6599 19.9524C18.556 19.5015 18.3402 19.084 18.0321 18.7386L18.027 18.7329C17.0791 17.8495 16.1016 17.9311 15.7073 18.015C15.7037 18.0158 15.7 18.0158 15.6964 18.015C15.6741 18.0201 15.653 18.027 15.6307 18.0304C15.6182 18.0338 15.608 18.0373 15.5994 18.039C15.5783 18.0447 15.5572 18.0481 15.5366 18.0532C15.6691 17.8972 15.8158 17.754 15.9748 17.6252C16.1278 17.4963 16.2842 17.3781 16.4429 17.2634L16.4479 17.26C16.473 17.2241 16.5034 17.1924 16.5382 17.1659C17.1156 16.7401 17.6253 16.0736 17.9489 15.5954C17.9764 15.5545 17.991 15.5061 17.9906 15.4568C17.9902 15.4075 17.9749 15.3594 17.9467 15.3189C17.9185 15.2785 17.8786 15.2476 17.8325 15.2302C17.7863 15.2128 17.736 15.2097 17.688 15.2216C17.1705 15.3377 16.6352 15.3513 16.1124 15.2615C15.9371 15.2317 15.7575 15.2389 15.5851 15.2826C15.5851 15.2826 15.5817 15.2826 15.58 15.2826C15.8022 15.0369 16.0024 14.772 16.178 14.4911C16.6288 13.7641 16.848 13.0616 16.848 12.3413V9.01949C16.848 8.89772 16.7997 8.78097 16.7135 8.69483C16.6274 8.60875 16.5107 8.56036 16.3889 8.56036C16.2672 8.56036 16.1503 8.60875 16.0643 8.69483C15.9782 8.78097 15.9298 8.89772 15.9298 9.01949V12.3448C15.9298 12.8875 15.7557 13.4336 15.3974 14.0095C14.5014 15.4544 12.8493 16.3492 11.0859 16.3492H8.59949C6.83612 16.3492 5.18403 15.4533 4.28807 14.0095C3.92969 13.4336 3.75621 12.8875 3.75621 12.3448V8.94303C3.75621 8.8212 3.7078 8.70431 3.62165 8.61817C3.5355 8.53203 3.41865 8.48364 3.29681 8.48364C3.17497 8.48364 3.05813 8.53203 2.97198 8.61817C2.88582 8.70431 2.83742 8.8212 2.83742 8.94303V12.3448C2.83742 13.065 3.05656 13.7675 3.50739 14.4945C3.66568 14.7479 3.84412 14.9882 4.04097 15.213H4.03755C3.94903 15.2074 3.86016 15.2138 3.77333 15.2318C3.18918 15.3629 2.58325 15.3629 1.99911 15.2318C1.95113 15.2199 1.90068 15.2228 1.85437 15.2401C1.80807 15.2573 1.76808 15.2883 1.73968 15.3287C1.71127 15.3691 1.69577 15.4173 1.69522 15.4667C1.69467 15.5161 1.70909 15.5645 1.73659 15.6056C2.06017 16.0844 2.56977 16.7504 3.1473 17.1784C3.15669 17.185 3.16548 17.1925 3.17355 17.2007L3.18382 17.2098L3.26543 17.2668C3.42351 17.381 3.58044 17.4997 3.73338 17.6287C3.89206 17.7578 4.03876 17.9011 4.17165 18.0566H4.16823C4.16538 18.0565 4.16252 18.0565 4.15967 18.0566C4.08836 18.0433 4.01801 18.0252 3.94909 18.0024H3.94567C3.52451 17.9242 2.58347 17.8775 1.6704 18.7295L1.66012 18.7398C1.34729 19.0873 1.12812 19.5087 1.02325 19.9644C0.662016 21.4779 0.319041 23.7577 0.13985 25.0257C0.123492 25.1429 0.132239 25.2622 0.16551 25.3757C0.198781 25.4893 0.255816 25.5944 0.332828 25.6842C0.409841 25.774 0.505073 25.8464 0.612202 25.8966C0.719331 25.9468 0.83591 25.9736 0.954199 25.9753L5.85 26.0398C5.86423 26.0042 5.88344 25.9707 5.90707 25.9405L7.38513 24.0293C7.42669 23.9758 7.47835 23.9309 7.5373 23.8972C7.59618 23.8637 7.66113 23.842 7.72836 23.8335C7.79566 23.825 7.86396 23.8298 7.92932 23.8477C7.99475 23.8656 8.05597 23.8962 8.10956 23.9377C8.16316 23.9793 8.20807 24.031 8.24162 24.0899C8.27523 24.1488 8.29689 24.2137 8.30544 24.281C8.31393 24.3483 8.30912 24.4166 8.29121 24.4819C8.2733 24.5474 8.24275 24.6086 8.20119 24.6622L7.12489 26.0484L9.62614 26.0814H9.82756L18.7301 25.9599C18.8481 25.958 18.9644 25.9311 19.0713 25.881C19.1781 25.8308 19.2731 25.7585 19.35 25.669C19.4268 25.5793 19.4838 25.4745 19.5172 25.3612C19.5505 25.248 19.5594 25.129 19.5433 25.012ZM10.0798 23.9021C9.48499 23.9021 8.9035 23.7257 8.40889 23.3951C7.91435 23.0647 7.52888 22.5949 7.30125 22.0454C7.07363 21.4958 7.01415 20.8911 7.13024 20.3077C7.24632 19.7243 7.53282 19.1884 7.95345 18.7678C8.37408 18.3473 8.91005 18.0608 9.49348 17.9449C10.0769 17.8289 10.6816 17.8886 11.2311 18.1162C11.7807 18.344 12.2503 18.7295 12.5807 19.2242C12.9111 19.7188 13.0874 20.3003 13.0873 20.8952C13.0861 21.6924 12.7688 22.4566 12.205 23.0202C11.6413 23.5839 10.8771 23.901 10.0798 23.9021Z" fill="white"/>
<path d="M13.1948 13.6235C13.172 13.5979 13.1443 13.5772 13.1134 13.5623C13.0825 13.5475 13.0491 13.5389 13.0148 13.5371C12.9807 13.5352 12.9464 13.5401 12.9141 13.5515C12.8819 13.5629 12.8521 13.5806 12.8267 13.6035C12.3416 14.0378 10.6632 14.2683 9.23488 14.0971C8.38968 13.9955 7.74825 13.7633 7.49088 13.4694L7.56794 13.4551C7.78139 13.4142 7.99024 13.3516 8.19113 13.2685C7.97647 13.2339 7.75887 13.2214 7.54167 13.2308C7.32835 13.2381 7.11563 13.2584 6.90479 13.2919L6.74219 13.3176L6.79926 13.4608C6.85232 13.5887 6.91334 13.7131 6.97843 13.8363C7.04526 13.9612 7.12158 14.0809 7.20672 14.1941C7.20011 14.0909 7.18694 13.9882 7.16729 13.8866C7.63129 14.3431 8.4924 14.5337 9.17092 14.6153C9.52479 14.6567 9.88072 14.677 10.237 14.6764C11.4262 14.6764 12.6532 14.4578 13.1731 13.9916C13.2248 13.9456 13.256 13.881 13.2601 13.812C13.2642 13.743 13.2407 13.6751 13.1948 13.6235Z" fill="white"/>
<path d="M19.477 7.58777C18.7528 6.17363 17.2799 5.7616 16.8518 5.66744C16.5791 4.16657 15.4794 1.10206 13.9352 0.322519C12.2363 -0.533491 10.7103 0.607852 9.22541 0.409835C7.74051 0.211808 6.17459 -0.0495603 4.93965 0.783054C3.75721 1.58199 2.53654 5.59725 2.43668 5.92995C1.68054 6.16279 -0.98051 7.14094 0.382256 8.91227C0.909555 9.59708 1.80894 10.0748 2.8333 10.3909C3.13062 10.485 3.43821 10.5621 3.75151 10.6295C5.59136 11.0192 7.54477 10.7812 8.45098 10.7042C9.64483 10.6032 9.93762 10.6152 10.8478 10.767C11.011 10.7943 11.1776 10.824 11.35 10.852C12.3031 11.0032 13.3884 11.1265 14.6422 10.9131C15.0691 10.84 15.4982 10.7498 15.9188 10.6432C16.2338 10.5632 16.542 10.4719 16.8376 10.3755C18.7054 9.76148 20.0956 8.79813 19.477 7.58777ZM16.215 6.32885C13.7914 7.22996 11.4259 7.50102 9.46506 7.50102C8.68569 7.50022 7.90692 7.45732 7.13216 7.37264C4.73192 7.1118 3.17341 6.5503 3.10836 6.52631C3.06389 6.51167 3.02282 6.48821 2.98758 6.45741C2.95235 6.4266 2.92367 6.38897 2.90326 6.34684C2.88284 6.30471 2.87112 6.2589 2.86876 6.21215C2.8664 6.16539 2.87347 6.11863 2.88954 6.07466C2.90561 6.03069 2.93037 5.9904 2.96232 5.95618C2.99428 5.92196 3.03278 5.89452 3.07555 5.87548C3.11833 5.85645 3.16449 5.84621 3.21131 5.84537C3.25811 5.84453 3.30461 5.85311 3.34804 5.8706C3.37201 5.87916 4.91397 6.43154 7.2286 6.68095C9.36348 6.90924 12.6117 6.92234 15.9702 5.67429C16.0563 5.64492 16.1505 5.65033 16.2327 5.68936C16.3149 5.72838 16.3786 5.79795 16.4103 5.88326C16.442 5.96856 16.4391 6.06286 16.4023 6.14608C16.3655 6.2293 16.2977 6.29488 16.2133 6.32885H16.215Z" fill="white"/>
<path d="M26.3076 14.7882L29.2803 0.500977H32.0452L34.9948 14.7882H32.3907L31.7921 11.7L32.2069 12.0917H29.0272L29.3727 11.7L28.8425 14.7882H26.3076ZM29.4641 10.3864L29.2342 10.1092H32.0683L31.7459 10.3864L30.7547 3.8654L30.7316 3.42752H30.5468L30.5237 3.8654L29.4641 10.3864Z" fill="white"/>
<path d="M39.6035 14.9027C38.9751 14.9102 38.3481 14.8408 37.7366 14.6958C37.1823 14.5573 36.7484 14.3306 36.435 14.0159C36.1215 13.7012 35.9642 13.275 35.9629 12.7374V0.500977H38.4756V11.9559C38.4752 12.1213 38.5066 12.2853 38.568 12.4391C38.6354 12.5995 38.7579 12.7306 38.9134 12.8086C39.1294 12.9101 39.3669 12.9574 39.6054 12.9462C39.9281 12.9462 40.1744 12.9003 40.3444 12.8086C40.5026 12.7286 40.6256 12.5931 40.6899 12.428C40.7491 12.2775 40.7803 12.1175 40.7823 11.9559V0.500977H43.2941V12.7374C43.2941 13.275 43.1367 13.7012 42.822 14.0159C42.5073 14.3306 42.0694 14.5573 41.5084 14.6958C40.884 14.8413 40.2445 14.9108 39.6035 14.9027Z" fill="white"/>
<path d="M46.7911 2.46032H44.3486V0.500977H51.7454V2.46032H49.3029V14.7882H46.7911V2.46032Z" fill="white"/>
<path d="M52.9004 0.500977H55.4121V5.96239H57.716V0.500977H60.2278V14.7882H57.716V7.92081H55.4121V14.7882H52.9004V0.500977Z" fill="white"/>
<path d="M61.9346 0.500977H68.9857V2.46032H64.4464V5.96239H68.5018L68.1797 7.92081H64.4464V12.8298H68.9857V14.7882H61.9346V0.500977Z" fill="white"/>
<path d="M70.2969 14.7882V0.500977H72.8083L75.5731 9.46171V9.59931H75.5965V0.500977H78.1073V14.7882H75.527L72.8304 6.69956L72.8077 6.53884H72.7843V14.7882H70.2969Z" fill="white"/>
<path d="M81.7014 2.46032H79.2588V0.500977H86.6555V2.46032H84.2129V14.7882H81.7014V2.46032Z" fill="white"/>
<path d="M87.8066 0.500977H90.3181V14.7882H87.8066V0.500977Z" fill="white"/>
<path d="M95.5731 14.9488C94.2986 14.9488 93.365 14.7148 92.7736 14.2467C92.1814 13.7787 91.8861 13.1296 91.8867 12.2994V3.22047C91.8867 2.19138 92.1708 1.45235 92.7388 1.0034C93.3075 0.554438 94.2291 0.331799 95.5042 0.335494C96.7359 0.335494 97.6615 0.558127 98.281 1.0034C98.9005 1.44866 99.2039 2.19384 99.1906 3.23894V6.28374L96.7252 6.58394V3.84218C96.7252 3.36612 96.6524 3.00122 96.506 2.74749C96.3603 2.49376 96.0342 2.3672 95.527 2.36782C95.0344 2.36782 94.7237 2.50608 94.594 2.7826C94.4537 3.10955 94.3868 3.46341 94.3982 3.81909V11.723C94.3895 12.017 94.4697 12.3067 94.6281 12.5544C94.7825 12.7854 95.0825 12.9005 95.527 12.8999C96.0035 12.8999 96.3222 12.7847 96.4833 12.5544C96.651 12.3025 96.7359 12.0043 96.7252 11.7017V9.14193L99.1906 8.86478V12.2985C99.1906 13.1281 98.8798 13.7772 98.2576 14.2459C97.6354 14.7145 96.7406 14.9488 95.5731 14.9488Z" fill="white"/>
<path d="M26.3075 18.439H26.1904V18.556L26.1918 25.6821V25.7991H26.3089H28.5035C28.9363 25.7991 29.2692 25.7145 29.4356 25.4937C29.5893 25.2899 29.6542 24.9721 29.6542 24.5671V19.6626C29.6741 19.3497 29.5937 19.0386 29.4244 18.7747L29.4195 18.7676C29.2466 18.5371 28.9504 18.439 28.5727 18.439H26.3075ZM28.8313 19.8066L28.8309 19.8159V24.4018C28.8309 24.7124 28.7753 24.883 28.7024 24.9587C28.6311 25.0327 28.4681 25.0895 28.1662 25.0895H27.007V19.1404H28.2583L28.2661 19.1401C28.3434 19.135 28.4209 19.1467 28.4933 19.1744C28.5636 19.2012 28.6275 19.2426 28.6808 19.2957C28.7923 19.4415 28.846 19.6235 28.8313 19.8066Z" fill="white" stroke="white" stroke-width="0.234037"/>
<path d="M35.3496 18.439H35.2324L35.2326 18.5562L35.2434 25.6823L35.2436 25.7991H35.3605H38.5334H38.6504V25.6821V25.2215V25.1045H38.5334H36.0641V22.0179H38.2502H38.3462L38.3649 21.9239L38.457 21.4632L38.485 21.3233H38.3423H36.0573V19.1445H38.5225H38.6395V19.0275V18.556V18.439H38.5225H35.3496Z" fill="white" stroke="white" stroke-width="0.234037"/>
<path d="M44.2217 19.0234V19.1404H44.3387H45.487V25.6821V25.7991H45.6041H46.1893H46.3063V25.6821V19.1445H47.4763H47.5933V19.0275V18.556V18.439H47.4763H44.3387H44.2217V18.556V19.0234Z" fill="white" stroke="white" stroke-width="0.234037"/>
<path d="M53.2861 18.439H53.1689L53.1691 18.5561L53.1758 25.6822L53.176 25.7991H53.2928H56.4644H56.5814V25.6821V25.2215V25.1045H56.4644H53.9952V22.0179H56.1812H56.2771L56.296 21.9239L56.3881 21.4632L56.4161 21.3233H56.2733H53.9883V19.1445H56.4576H56.5746V19.0275V18.556V18.439H56.4576H53.2861Z" fill="white" stroke="white" stroke-width="0.234037"/>
<path d="M62.6087 25.5398L62.61 25.5407C62.9063 25.762 63.3347 25.8634 63.8762 25.8634C64.4016 25.8634 64.8239 25.7648 65.1286 25.5524L65.1308 25.5509C65.2863 25.437 65.4105 25.2857 65.492 25.1112C65.573 24.9378 65.6091 24.7468 65.5973 24.5558V22.9339V22.7969L65.4621 22.8182L64.8768 22.9103L64.778 22.9259V23.026V24.4173L64.778 24.4213C64.7813 24.5168 64.7645 24.612 64.7289 24.7007C64.6932 24.7894 64.6394 24.8697 64.5709 24.9364C64.4434 25.0617 64.2165 25.1389 63.86 25.1389C63.5212 25.1389 63.304 25.0627 63.1787 24.9374C63.1124 24.8717 63.0599 24.7927 63.0254 24.7059C62.9907 24.6192 62.9743 24.5264 62.9771 24.433L62.9772 24.4295V19.8666L62.9771 19.8618C62.9684 19.6517 63.0329 19.4452 63.1597 19.2775C63.2637 19.1487 63.4805 19.0638 63.86 19.0638C64.2656 19.0638 64.4926 19.1481 64.5958 19.2725C64.7248 19.4445 64.7894 19.6565 64.7782 19.8714L64.778 19.8775V21.3677V21.5046L64.9132 21.4833L65.4985 21.3912L65.5973 21.3757V21.2756V19.7582C65.5973 19.2887 65.4571 18.9138 65.1556 18.6772C64.8605 18.4458 64.3975 18.342 63.8369 18.342C63.275 18.342 62.842 18.4516 62.5651 18.6933C62.287 18.936 62.1565 19.2954 62.1565 19.7461V24.5463C62.1448 24.7356 62.1796 24.9249 62.2579 25.0977C62.3367 25.2716 62.4572 25.4235 62.6087 25.5398Z" fill="white" stroke="white" stroke-width="0.234037"/>
<path d="M71.1738 19.0234V19.1404H71.2908H72.4376V25.6821V25.7991H72.5545H73.1413H73.2583V25.6821V19.1445H74.4284H74.5454V19.0275V18.556V18.439H74.4284H71.2908H71.1738V18.556V19.0234Z" fill="white" stroke="white" stroke-width="0.234037"/>
<path d="M80.2361 18.439H80.1191V18.556V25.6821V25.7991H80.2361H80.8229H80.9398V25.6821V18.556V18.439H80.8229H80.2361Z" fill="white" stroke="white" stroke-width="0.234037"/>
<path d="M88.0185 25.7022L88.0379 25.7944L88.1321 25.795L88.765 25.7991L88.8605 25.7997L88.8799 25.7063L90.3849 18.5802L90.415 18.439H90.2706H89.6612H89.5643L89.5462 18.5339L88.4482 24.2363L87.3281 18.5335L87.3094 18.439H87.2132H86.6278H86.4834L86.5135 18.5802L88.0185 25.7022Z" fill="white" stroke="white" stroke-width="0.234037"/>
<path d="M96.0798 18.439H95.9629V18.556V25.6821V25.7991H96.0798H99.2529H99.3699V25.6821V25.2215V25.1045H99.2529H96.7836V22.0179H98.9763H99.0725L99.0912 21.9239L99.1834 21.4632L99.2115 21.3233H99.0685H96.7836V19.1445H99.2529H99.3699V19.0275V18.556V18.439H99.2529H96.0798Z" fill="white" stroke="white" stroke-width="0.234037"/>
</svg>
