<svg width="39" height="39" viewBox="0 0 39 39" fill="none" xmlns="http://www.w3.org/2000/svg">
<path d="M12.4081 16.8598C12.4081 17.2658 12.4406 17.5907 12.5218 17.8668C12.603 18.0617 12.7167 18.3216 12.8629 18.6139C12.9279 18.6789 12.9441 18.7764 12.9441 18.8576C12.9441 18.9713 12.8791 19.0687 12.7329 19.1824L12.0508 19.6372C11.9533 19.7022 11.8559 19.7347 11.7746 19.7347C11.6609 19.7347 11.5635 19.6697 11.4498 19.5722C11.3036 19.4098 11.1737 19.2474 11.06 19.0687C10.9625 18.8901 10.8488 18.6789 10.7351 18.4353C9.89052 19.4261 8.83476 19.9296 7.55161 19.9296C6.64203 19.9296 5.92737 19.6697 5.39137 19.1499C4.87161 18.6302 4.59549 17.9318 4.59549 17.0547C4.59549 16.1613 4.92033 15.4304 5.57003 14.8457C6.23597 14.2935 7.11306 14.0011 8.21755 14.0011C8.59112 14.0011 8.93222 14.0336 9.37076 14.0985C9.74434 14.1473 10.1829 14.2285 10.6052 14.3259V13.5463C10.6052 12.7179 10.4428 12.1819 10.1017 11.8084C9.74434 11.4673 9.17585 11.3211 8.34749 11.3211C7.95767 11.3211 7.56785 11.3698 7.17803 11.451C6.77197 11.5485 6.38215 11.6622 6.00858 11.8246C5.82991 11.8896 5.68373 11.9383 5.635 11.9545C5.55379 11.987 5.50506 11.987 5.45633 11.987C5.31015 11.987 5.22894 11.8896 5.22894 11.6622V11.1262C5.22894 10.9638 5.24518 10.8338 5.31015 10.7526C5.35888 10.6714 5.45634 10.6064 5.60252 10.5577C5.99234 10.3303 6.43088 10.1679 6.96688 10.0379C7.51825 9.89377 8.0862 9.82278 8.65609 9.82679C9.93925 9.82679 10.8813 10.1192 11.4823 10.7039C12.0832 11.2886 12.3756 12.1819 12.3756 13.3676V16.8598H12.4081ZM8.02264 18.5165C8.37997 18.5165 8.73731 18.4515 9.12712 18.3216C9.51694 18.1916 9.85803 17.948 10.1504 17.6232C10.3291 17.412 10.459 17.1846 10.5565 16.9247C10.5565 16.6649 10.6377 16.3562 10.6377 15.9827V15.5441C10.3128 15.4304 9.98797 15.4304 9.63064 15.3492C9.29609 15.3127 8.96008 15.291 8.62361 15.2842C7.8927 15.2842 7.37294 15.4304 7.01561 15.7228C6.65828 16.0152 6.49585 16.4212 6.49585 16.9572C6.49585 17.477 6.60955 17.8668 6.88567 18.1104C7.14555 18.3866 7.51912 18.5165 8.02264 18.5165ZM16.6961 19.6697C16.5389 19.6744 16.3828 19.641 16.2413 19.5722C16.1926 19.491 16.1114 19.3449 16.0464 19.1499L13.5126 10.8013C13.4476 10.5577 13.4151 10.444 13.4151 10.3628C13.4151 10.1841 13.4963 10.0867 13.675 10.0867H14.7308C14.9419 10.0867 15.0881 10.1192 15.1531 10.2004C15.2505 10.2653 15.3155 10.4115 15.3805 10.6227L17.1834 17.7693L18.8726 10.6227C18.9213 10.4115 18.9863 10.2653 19.0837 10.2004C19.1649 10.1354 19.3111 10.0867 19.4898 10.0867H20.3831C20.578 10.0867 20.7242 10.1192 20.8054 10.2004C20.8866 10.2653 20.9679 10.4115 21.0166 10.6227L22.7383 17.8668L24.5899 10.6227C24.6549 10.4115 24.7361 10.2653 24.8011 10.2004C24.8985 10.1354 25.0285 10.0867 25.2234 10.0867H26.2304C26.4091 10.0867 26.5065 10.1841 26.5065 10.3628C26.5065 10.4115 26.4903 10.4765 26.474 10.5577C26.474 10.5577 26.4416 10.6876 26.4091 10.8013L23.794 19.1499C23.7291 19.3773 23.6641 19.491 23.5504 19.5722C23.4854 19.6372 23.3393 19.6859 23.1606 19.6859H22.2348C22.0236 19.6859 21.9262 19.6535 21.7962 19.5722C21.687 19.4565 21.6186 19.3082 21.6013 19.1499L19.9283 12.1819L18.2554 19.1337C18.2066 19.3449 18.1417 19.491 18.0605 19.5722C17.9264 19.6453 17.7744 19.6791 17.6219 19.6697H16.6961ZM30.5834 19.9621C30.0474 19.9621 29.4464 19.8971 28.9104 19.7672C28.3744 19.6372 27.9521 19.491 27.676 19.3449C27.5349 19.277 27.4165 19.1698 27.3349 19.0362C27.2908 18.9452 27.2685 18.8451 27.2699 18.7439V18.1916C27.2699 17.9642 27.3511 17.8668 27.5136 17.8668H27.7085C27.7734 17.8668 27.8709 17.948 27.9846 17.9967C28.3419 18.1592 28.748 18.2891 29.1703 18.3703C29.6088 18.4515 30.0474 18.5002 30.4534 18.5002C31.1356 18.5002 31.6716 18.3866 32.029 18.1429C32.4025 17.8668 32.5974 17.5582 32.5974 17.1196C32.5974 16.811 32.4837 16.5674 32.3051 16.3562C32.1102 16.1613 31.7366 15.9664 31.2168 15.804L29.6413 15.3167C28.8617 15.0569 28.277 14.6995 27.9196 14.2122C27.5709 13.7612 27.3823 13.2069 27.3836 12.6367C27.3836 12.1819 27.4811 11.7921 27.676 11.451C27.8709 11.0937 28.1308 10.8013 28.4231 10.5577C28.7805 10.3141 29.1378 10.1354 29.5763 10.0055C29.9986 9.87552 30.4534 9.81055 30.9407 9.81055C31.1681 9.81055 31.4117 9.82679 31.6716 9.85927C31.899 9.89176 32.1264 9.94049 32.3538 9.97297C32.5812 10.0379 32.7761 10.0867 32.971 10.1516C33.1659 10.2166 33.2959 10.2816 33.4258 10.3465C33.572 10.4278 33.6857 10.509 33.7507 10.6064C33.8156 10.7039 33.8481 10.8176 33.8481 10.9638V11.4835C33.8481 11.7109 33.7669 11.8246 33.6045 11.8246C33.5233 11.8246 33.3771 11.7759 33.1822 11.6947C32.5812 11.4185 31.8828 11.2724 31.1194 11.2724C30.5022 11.2724 30.0474 11.3698 29.6738 11.581C29.349 11.7759 29.1703 12.1007 29.1703 12.5393C29.1703 12.8479 29.284 13.1078 29.4951 13.3027C29.7063 13.5138 30.1123 13.7087 30.6808 13.9036L32.2239 14.3909C33.0035 14.6183 33.5557 14.9756 33.8968 15.4304C34.2217 15.869 34.3841 16.3725 34.3841 16.941C34.3841 17.3958 34.2867 17.8181 34.108 18.1916C33.9131 18.549 33.6532 18.8738 33.2959 19.1337C32.9873 19.4098 32.5812 19.6047 32.1264 19.7509C31.6716 19.8971 31.1194 19.9621 30.5834 19.9621ZM32.6137 25.2246C29.0566 27.8396 23.8915 29.2365 19.4898 29.2365C13.2365 29.2365 7.63282 26.9301 3.39355 23.1131C3.05245 22.8045 3.36106 22.3984 3.76712 22.6421C8.34749 25.2896 13.9836 26.8976 19.8309 26.8976C23.7778 26.8976 28.1145 26.0855 32.0939 24.3638C32.6949 24.1201 33.1984 24.7861 32.6137 25.2246ZM34.108 23.5516C33.637 22.9507 31.0869 23.2593 29.9337 23.3892C29.5926 23.4379 29.5439 23.1293 29.8525 22.9019C31.8828 21.4889 35.2287 21.9274 35.6023 22.3659C35.9921 22.8532 35.5048 26.1992 33.6045 27.7909C33.2959 28.0346 33.0197 27.9046 33.1497 27.6123C33.5882 26.5078 34.5465 24.1039 34.108 23.5516Z" fill="white"/>
</svg>
