<svg width="96" height="34" viewBox="0 0 96 34" fill="none" xmlns="http://www.w3.org/2000/svg">
<mask id="mask0_3119_1819" style="mask-type:luminance" maskUnits="userSpaceOnUse" x="0" y="0" width="96" height="34">
<path d="M95.3311 0H0V33.276H95.3311V0Z" fill="white"/>
</mask>
<g mask="url(#mask0_3119_1819)">
<path d="M29.1516 4.97925C27.9579 5.3578 26.2192 6.93347 25.6415 7.97943C24.9471 9.23133 24.9946 10.5048 25.4593 11.8131L25.5285 11.8812H25.5777C25.7658 11.8417 25.9461 11.7756 26.1117 11.6853C26.2174 11.6371 26.3213 11.5873 26.4252 11.5342C26.5291 11.4811 26.6293 11.4229 26.7295 11.3682C26.8297 11.3133 26.9246 11.2469 27.0211 11.1822C27.1177 11.1175 27.2034 11.0511 27.3 10.9813C27.3966 10.9116 27.4822 10.8385 27.5642 10.7638C27.6462 10.6891 27.7337 10.6127 27.8139 10.5346C27.8941 10.4567 27.9743 10.3687 28.049 10.2906C28.1237 10.2126 28.1984 10.1245 28.2677 10.0332C29.4796 8.52073 29.4632 6.73922 29.1516 4.97925Z" fill="white"/>
<path d="M32.8455 9.7311H32.8346C32.1156 9.6721 31.3909 9.7461 30.704 9.94869C30.0173 10.1512 29.3825 10.4782 28.8379 10.9099C29.1149 11.4435 29.508 11.9203 29.9934 12.3112C31.1761 13.3074 32.4956 13.5432 34.0556 13.4901C35.4188 13.3722 36.7565 13.1115 38.1288 13.1016L37.9593 12.8907C36.6325 11.2536 35.1181 10.0399 32.8455 9.7311Z" fill="white"/>
<path d="M24.4859 11.4918C24.4148 11.4918 24.3438 11.4818 24.2727 11.4801C20.7426 11.354 17.125 12.194 14.2127 14.047C13.5607 14.4739 12.942 14.9416 12.3611 15.4466C12.0495 14.4039 10.4365 13.7531 9.79871 12.8482C9.90256 14.2678 11.8034 21.6479 9.25195 27.2929C10.021 27.3162 13.039 27.1717 13.8081 27.1269C14.2254 25.8086 13.1867 17.3178 14.1452 16.2751C16.6967 13.514 20.5749 11.852 24.4914 11.5333L24.4859 11.4918Z" fill="white"/>
<path d="M4.65543 6.65953C3.11544 6.49353 1.37498 6.95673 -0.000976562 7.56774C0.155754 7.97947 0.363519 8.37799 0.54576 8.77478C1.30391 10.3322 2.2188 11.6471 3.72417 12.6981C5.47915 13.9218 7.3873 14.038 9.50683 13.7823C9.05121 12.7097 8.19101 11.7019 7.37999 10.8286C6.68427 10.1191 5.90986 9.47698 5.0691 8.91258C6.76663 9.55347 8.2817 10.538 9.49952 11.7916C9.9327 12.2636 10.3396 12.7551 10.7187 13.2642C10.8235 11.6005 10.2308 9.96253 9.0603 8.68179C7.91582 7.44656 6.42319 6.79733 4.65543 6.65953Z" fill="white"/>
<path d="M18.2579 -0.000244141C15.7501 0.770109 13.2351 2.16647 11.9084 4.30823C11.3705 5.15038 11.0229 6.08198 10.8862 7.04833C10.7494 8.01467 10.8262 8.99618 11.112 9.93502C11.3489 9.43697 11.5457 8.92723 11.7918 8.44075C12.6111 6.80283 13.7695 5.32414 15.2035 4.08578C15.3836 3.9375 15.5742 3.79993 15.7738 3.674C15.3037 4.14924 14.8678 4.65175 14.469 5.17823C13.4361 6.65426 12.7601 8.31372 12.4861 10.0463C12.9721 9.9356 13.4581 9.81216 13.9441 9.67604C15.7829 9.14139 17.4378 8.31789 18.3472 6.6875C19.4588 4.69014 18.9868 2.05519 18.2579 -0.000244141Z" fill="white"/>
<path d="M20.7994 19.1271C19.1592 17.945 19.5638 15.0826 21.1348 13.8291C20.9185 13.7086 20.6759 13.6328 20.4239 13.6072C20.1719 13.5817 19.9168 13.607 19.6768 13.6813C18.7254 13.9736 18.155 14.6178 17.8124 15.4429C16.985 17.4353 17.7395 19.8494 19.6349 21.2673C20.7886 22.1262 22.1946 22.6563 23.6771 22.7915C23.7978 22.8002 23.919 22.7825 24.0306 22.74C26.6276 21.8002 28.246 20.1234 28.7034 17.5781C28.8448 16.8334 28.7662 16.0678 28.4757 15.3599C27.3676 12.6735 23.5094 12.0393 21.348 14.1977C20.7048 14.8328 20.2971 15.6361 20.1825 16.494C20.0681 17.3518 20.2526 18.2207 20.7101 18.9778L20.7994 19.1271Z" fill="white"/>
<path d="M5.89616 17.6545C5.11566 17.0984 5.31388 15.7531 6.05225 15.1643C5.95107 15.1079 5.83757 15.0725 5.71967 15.0604C5.60184 15.0484 5.48249 15.0601 5.37013 15.0946C5.16389 15.1616 4.97749 15.2712 4.82553 15.4148C4.67357 15.5584 4.56026 15.7321 4.49435 15.9223C4.10406 16.8581 4.45844 17.9944 5.34667 18.6614C5.89006 19.0625 6.55052 19.3097 7.2465 19.3725C7.30344 19.3765 7.3607 19.3683 7.41352 19.3483C8.63268 18.906 9.3945 18.1182 9.60836 16.9207C9.67509 16.5708 9.63842 16.211 9.50216 15.8783C8.98082 14.6154 7.16064 14.3139 6.15216 15.3307C5.84951 15.6291 5.65764 16.0068 5.60381 16.4101C5.55005 16.8134 5.63705 17.222 5.85244 17.5777C5.86648 17.6076 5.88059 17.6317 5.89616 17.6545Z" fill="white"/>
<path d="M8.9596 26.2808H10.7055C13.9495 26.4285 16.6795 27.4978 19.5991 28.6799C22.5187 29.8621 25.9212 30.4465 29.2344 30.4016C28.3048 30.9906 27.3075 31.4855 26.2602 31.8777C25.1412 32.3293 23.5757 31.9259 22.382 31.7266C21.1821 31.4994 20.0096 31.1657 18.881 30.7304C17.7548 30.3203 16.7925 29.882 15.6425 29.4935C14.4926 29.105 13.3481 28.7048 12.0924 28.5405C10.8367 28.3761 9.07622 28.2084 7.78773 28.4109C6.49923 28.6135 5.24722 28.7115 4.07172 29.2112C2.89623 29.711 2.1545 28.8078 1.36719 28.0772C3.73641 27.0727 6.2623 26.2824 8.95407 26.2824L8.9596 26.2808Z" fill="white"/>
<path d="M4.95117 30.1366C7.74132 29.1404 11.3644 29.3064 14.0926 30.2479C16.8209 31.1892 19.2393 32.1639 22.0203 32.7947C16.1675 33.9496 10.0513 32.9977 4.95117 30.1383V30.1366Z" fill="white"/>
</g>
<path d="M38.0947 17.028C38.2071 17.2809 38.3856 17.5068 38.6302 17.7056C38.8815 17.9044 39.1988 18.0038 39.5823 18.0038C39.7939 18.0038 40.0154 17.9496 40.2468 17.8411C40.4782 17.7327 40.6799 17.5641 40.8518 17.3351C40.8716 17.305 40.8981 17.29 40.9312 17.29C40.9642 17.29 40.9973 17.299 41.0303 17.3171C41.07 17.3351 41.1692 17.3864 41.3279 17.4707C41.3543 17.4887 41.3675 17.5129 41.3675 17.543C41.3675 17.5851 41.3477 17.6363 41.3081 17.6966C41.1229 18.0098 40.8716 18.2658 40.5543 18.4646C40.2369 18.6633 39.8237 18.7628 39.3146 18.7628C38.7658 18.7628 38.293 18.6513 37.8963 18.4285C37.4996 18.2056 37.1922 17.9104 36.974 17.543C36.7623 17.1756 36.6566 16.775 36.6566 16.3413C36.6566 15.9256 36.7227 15.5702 36.8549 15.2751C36.9938 14.9739 37.1756 14.733 37.4004 14.5523C37.6252 14.3655 37.8765 14.23 38.1542 14.1457C38.4385 14.0553 38.7261 14.0101 39.017 14.0101C39.3476 14.0101 39.6385 14.0704 39.8898 14.1908C40.141 14.3053 40.3526 14.4529 40.5245 14.6336C40.703 14.8143 40.8353 15.0071 40.9213 15.2118C41.0138 15.4106 41.0601 15.5973 41.0601 15.772C41.0601 15.8203 41.0303 15.8564 40.9708 15.8805L38.0947 17.028ZM39.5724 15.7359C39.5724 15.4467 39.4964 15.2088 39.3443 15.0221C39.1922 14.8354 39.0005 14.742 38.7691 14.742C38.498 14.742 38.2831 14.8414 38.1244 15.0402C37.9657 15.2329 37.8864 15.4769 37.8864 15.772C37.8864 15.8624 37.8897 15.9739 37.8963 16.1063C37.9096 16.2389 37.936 16.3594 37.9757 16.4677L39.5724 15.7359ZM46.5557 16.9737C46.5557 17.1906 46.5921 17.3864 46.6648 17.5611C46.7375 17.7297 46.8962 17.8291 47.1409 17.8592C47.2202 17.8653 47.2599 17.9044 47.2599 17.9767V18.2748C47.2599 18.3591 47.2103 18.4014 47.1111 18.4014C46.7871 18.4014 46.5161 18.4194 46.2979 18.4555C46.0862 18.4857 45.9011 18.5278 45.7425 18.5821C45.5904 18.6302 45.4383 18.6844 45.2862 18.7447C45.2598 18.7567 45.2367 18.7628 45.2168 18.7628H45.197C45.1772 18.7628 45.1672 18.7537 45.1672 18.7357C45.1805 18.5971 45.1937 18.4616 45.2069 18.329C45.2267 18.1966 45.2499 18.064 45.2763 17.9315C45.2433 18.0098 45.1706 18.1152 45.0581 18.2477C44.9523 18.3803 44.7937 18.5007 44.582 18.6092C44.3771 18.7116 44.106 18.7628 43.7688 18.7628C43.544 18.7628 43.3027 18.7206 43.0448 18.6363C42.7936 18.552 42.5556 18.4164 42.3307 18.2297C42.1059 18.043 41.9208 17.799 41.7753 17.4978C41.6365 17.1906 41.567 16.8171 41.567 16.3774C41.567 15.8172 41.6762 15.3655 41.8943 15.0221C42.1191 14.6727 42.4068 14.4167 42.7572 14.2541C43.1143 14.0914 43.4911 14.0101 43.8878 14.0101C44.3903 14.0101 44.8168 14.1517 45.1672 14.4348V13.8565C45.1672 13.6939 45.154 13.5373 45.1275 13.3867C45.1077 13.2361 45.0581 13.1096 44.9788 13.0072C44.8994 12.8988 44.7672 12.8355 44.582 12.8175C44.5027 12.8114 44.4631 12.7723 44.4631 12.7V12.3928C44.4631 12.3566 44.4763 12.3326 44.5027 12.3205C44.5292 12.3025 44.5655 12.2874 44.6118 12.2754C45.1341 12.1187 45.5408 11.9621 45.8317 11.8055C46.1293 11.6489 46.3441 11.5254 46.4764 11.4351C46.4962 11.423 46.5128 11.417 46.526 11.417H46.5359C46.5491 11.417 46.5557 11.423 46.5557 11.4351V16.9737ZM45.1672 15.7178C45.1672 15.4347 45.0647 15.1938 44.8598 14.995C44.6614 14.7962 44.3969 14.6968 44.0664 14.6968C43.749 14.6968 43.501 14.7601 43.3225 14.8866C43.144 15.0131 43.0184 15.1817 42.9457 15.3925C42.8795 15.6034 42.8464 15.8353 42.8464 16.0883C42.8464 16.6666 42.9721 17.1243 43.2233 17.4616C43.4812 17.799 43.8118 17.9676 44.2151 17.9676C44.3936 17.9676 44.549 17.9285 44.6812 17.8502C44.8135 17.7658 44.9193 17.6634 44.9986 17.543C45.0846 17.4225 45.1407 17.308 45.1672 17.1996V15.7178ZM50.554 18.1032C50.6532 18.1032 50.7027 18.1483 50.7027 18.2387V18.5097C50.7027 18.6001 50.6466 18.6453 50.5341 18.6453H47.7274C47.615 18.6453 47.5588 18.6001 47.5588 18.5097V18.2387C47.5588 18.1483 47.6084 18.1032 47.7076 18.1032H47.7274C47.972 18.1032 48.1505 18.0219 48.263 17.8592C48.382 17.6906 48.4415 17.4857 48.4415 17.2448V16.287C48.4415 16.1485 48.4283 16.01 48.4018 15.8714C48.382 15.7329 48.3324 15.6124 48.2531 15.51C48.1737 15.4076 48.0415 15.3474 47.8563 15.3293C47.777 15.3233 47.7373 15.2841 47.7373 15.2118V14.9046C47.7373 14.8685 47.7505 14.8444 47.777 14.8324C47.8035 14.8143 47.8398 14.7993 47.8861 14.7872C48.4084 14.6306 48.8084 14.471 49.0861 14.3083C49.3705 14.1397 49.5787 13.9921 49.711 13.8656C49.7242 13.8535 49.7374 13.8475 49.7506 13.8475H49.7804C49.7936 13.8475 49.8002 13.8535 49.8002 13.8656V17.2358C49.8002 17.4767 49.8598 17.6815 49.9787 17.8502C50.0978 18.0188 50.2796 18.1032 50.5242 18.1032H50.554ZM49.1358 11.9591C49.3077 11.9591 49.4762 12.0344 49.6415 12.185C49.8068 12.3356 49.8895 12.4862 49.8895 12.6368C49.8895 12.7874 49.8068 12.938 49.6415 13.0886C49.4762 13.2391 49.3077 13.3144 49.1358 13.3144C48.9771 13.3144 48.8118 13.2391 48.6398 13.0886C48.4745 12.944 48.3919 12.7934 48.3919 12.6368C48.3919 12.4862 48.4745 12.3356 48.6398 12.185C48.8051 12.0344 48.9705 11.9591 49.1358 11.9591ZM51.205 13.8565C51.205 13.6939 51.1918 13.5373 51.1653 13.3867C51.1455 13.2361 51.0959 13.1096 51.0166 13.0072C50.9372 12.8988 50.805 12.8355 50.6199 12.8175C50.5405 12.8114 50.5008 12.7723 50.5008 12.7V12.3928C50.5008 12.3566 50.5107 12.3326 50.5306 12.3205C50.557 12.3025 50.5934 12.2874 50.6397 12.2754C51.1686 12.1187 51.5786 11.9621 51.8695 11.8055C52.1604 11.6489 52.372 11.5254 52.5042 11.4351C52.5241 11.423 52.5406 11.417 52.5538 11.417H52.5637C52.577 11.417 52.5836 11.423 52.5836 11.4351V14.4529C52.6762 14.3324 52.8282 14.23 53.0398 14.1457C53.258 14.0553 53.5059 14.0101 53.7836 14.0101C54.0547 14.0101 54.3291 14.0523 54.6068 14.1366C54.8911 14.221 55.1523 14.3565 55.3903 14.5432C55.6283 14.7299 55.8201 14.9769 55.9655 15.2841C56.1176 15.5853 56.1936 15.9557 56.1936 16.3955C56.1936 16.8533 56.0879 17.2629 55.8763 17.6243C55.6713 17.9797 55.3738 18.2598 54.9837 18.4646C54.5936 18.6633 54.1307 18.7628 53.5952 18.7628C53.1588 18.7628 52.7588 18.6965 52.3951 18.564C52.0315 18.4254 51.7406 18.2056 51.5223 17.9044C51.3108 17.5972 51.205 17.1966 51.205 16.7027V13.8565ZM52.5836 16.8924C52.5836 17.1876 52.6364 17.4285 52.7423 17.6153C52.848 17.802 52.9869 17.9405 53.1588 18.0309C53.3307 18.1212 53.5092 18.1664 53.6944 18.1664C54.0184 18.1664 54.2663 18.0972 54.4382 17.9586C54.6167 17.814 54.7391 17.6273 54.8052 17.3984C54.8779 17.1695 54.9142 16.9316 54.9142 16.6846C54.9142 16.1063 54.7787 15.6486 54.5076 15.3113C54.2432 14.9739 53.8564 14.8053 53.3472 14.8053C53.0696 14.8053 52.815 14.8836 52.5836 15.0402V16.8924ZM59.387 18.1032C59.4862 18.1032 59.5358 18.1483 59.5358 18.2387V18.5097C59.5358 18.6001 59.4796 18.6453 59.3672 18.6453H56.5605C56.448 18.6453 56.3918 18.6001 56.3918 18.5097V18.2387C56.3918 18.1483 56.4414 18.1032 56.5406 18.1032H56.5605C56.8051 18.1032 56.9836 18.0219 57.096 17.8592C57.215 17.6906 57.2746 17.4857 57.2746 17.2448V13.8565C57.2746 13.6879 57.2613 13.5282 57.2348 13.3776C57.215 13.227 57.1654 13.1006 57.0861 12.9982C57.0067 12.8897 56.8745 12.8265 56.6894 12.8084C56.61 12.8024 56.5704 12.7633 56.5704 12.691V12.3837C56.5704 12.3476 56.5836 12.3235 56.61 12.3115C56.6365 12.2994 56.6728 12.2844 56.7192 12.2663C57.1886 12.1097 57.5621 11.9651 57.8399 11.8326C58.1241 11.694 58.3588 11.5616 58.544 11.4351C58.5572 11.423 58.5705 11.417 58.5837 11.417H58.6134C58.6267 11.417 58.6333 11.423 58.6333 11.4351V17.2358C58.6333 17.4767 58.6928 17.6815 58.8118 17.8502C58.9308 18.0188 59.1126 18.1032 59.3573 18.1032H59.387ZM61.1843 17.028C61.2968 17.2809 61.4753 17.5068 61.72 17.7056C61.9711 17.9044 62.2888 18.0038 62.6721 18.0038C62.8837 18.0038 63.1055 17.9496 63.3369 17.8411C63.5682 17.7327 63.7697 17.5641 63.9419 17.3351C63.9616 17.305 63.9883 17.29 64.0213 17.29C64.0544 17.29 64.0874 17.299 64.1205 17.3171C64.1599 17.3351 64.259 17.3864 64.4179 17.4707C64.444 17.4887 64.4573 17.5129 64.4573 17.543C64.4573 17.5851 64.4376 17.6363 64.3982 17.6966C64.2126 18.0098 63.9616 18.2658 63.6444 18.4646C63.3267 18.6633 62.9136 18.7628 62.4045 18.7628C61.8554 18.7628 61.3832 18.6513 60.986 18.4285C60.5894 18.2056 60.282 17.9104 60.0638 17.543C59.8522 17.1756 59.7465 16.775 59.7465 16.3413C59.7465 15.9256 59.8126 15.5702 59.9448 15.2751C60.0836 14.9739 60.2655 14.733 60.4903 14.5523C60.7152 14.3655 60.9663 14.23 61.244 14.1457C61.5281 14.0553 61.816 14.0101 62.1071 14.0101C62.4376 14.0101 62.7286 14.0704 62.9797 14.1908C63.2307 14.3053 63.4423 14.4529 63.6146 14.6336C63.7932 14.8143 63.9254 15.0071 64.0112 15.2118C64.1039 15.4106 64.1497 15.5973 64.1497 15.772C64.1497 15.8203 64.1205 15.8564 64.0607 15.8805L61.1843 17.028ZM62.6625 15.7359C62.6625 15.4467 62.5863 15.2088 62.4344 15.0221C62.2819 14.8354 62.0906 14.742 61.8592 14.742C61.5878 14.742 61.373 14.8414 61.2141 15.0402C61.0559 15.2329 60.9764 15.4769 60.9764 15.772C60.9764 15.8624 60.9796 15.9739 60.986 16.1063C60.9993 16.2389 61.026 16.3594 61.0654 16.4677L62.6625 15.7359ZM39.503 26.2091C39.6022 26.2091 39.6518 26.2543 39.6518 26.3446V26.6157C39.6518 26.7061 39.5956 26.7512 39.4832 26.7512H36.6764C36.564 26.7512 36.5078 26.7061 36.5078 26.6157V26.3446C36.5078 26.2543 36.5574 26.2091 36.6566 26.2091H36.6764C36.921 26.2091 37.0996 26.1278 37.212 25.9652C37.331 25.7965 37.3905 25.5917 37.3905 25.3507V21.9625C37.3905 21.7938 37.3773 21.6342 37.3509 21.4836C37.331 21.333 37.2814 21.2065 37.2021 21.1041C37.1227 20.9957 36.9905 20.9324 36.8054 20.9144C36.726 20.9083 36.6863 20.8692 36.6863 20.7969V20.4897C36.6863 20.4535 36.6996 20.4295 36.726 20.4174C36.7524 20.4054 36.7888 20.3903 36.8351 20.3723C37.3045 20.2156 37.6781 20.0711 37.9558 19.9385C38.2401 19.8 38.4749 19.6675 38.66 19.541C38.6732 19.5289 38.6864 19.5229 38.6997 19.5229H38.7294C38.7426 19.5229 38.7492 19.5289 38.7492 19.541V25.3417C38.7492 25.5826 38.8087 25.7875 38.9278 25.9561C39.0468 26.1247 39.2286 26.2091 39.4732 26.2091H39.503ZM44.8511 25.0797C44.8511 25.2966 44.8875 25.4923 44.9602 25.667C45.0329 25.8357 45.1916 25.935 45.4362 25.9652C45.5156 25.9712 45.5552 26.0103 45.5552 26.0826V26.3808C45.5552 26.4651 45.5057 26.5073 45.4065 26.5073C45.0825 26.5073 44.8114 26.5254 44.5932 26.5615C44.3817 26.5916 44.1965 26.6337 44.0378 26.688C43.8857 26.7362 43.7337 26.7904 43.5816 26.8506C43.5551 26.8627 43.532 26.8687 43.5122 26.8687H43.4824C43.4692 26.8687 43.4626 26.8567 43.4626 26.8326C43.4626 26.8085 43.4692 26.7512 43.4824 26.6609C43.4956 26.5645 43.5089 26.4591 43.5221 26.3446C43.5419 26.2242 43.5584 26.1217 43.5717 26.0374C43.5386 26.1157 43.4659 26.2211 43.3535 26.3537C43.2477 26.4862 43.089 26.6066 42.8775 26.7151C42.6725 26.8175 42.4014 26.8687 42.0642 26.8687C41.8394 26.8687 41.5981 26.8265 41.3402 26.7422C41.0889 26.6579 40.8509 26.5223 40.6261 26.3356C40.4013 26.1489 40.2162 25.9049 40.0707 25.6037C39.9319 25.2965 39.8625 24.923 39.8625 24.4834C39.8625 23.9232 39.9715 23.4714 40.1897 23.128C40.4145 22.7787 40.7021 22.5226 41.0526 22.36C41.4096 22.1974 41.7865 22.1161 42.1832 22.1161C42.5072 22.1161 42.8047 22.1612 43.0758 22.2516C43.3469 22.3419 43.5849 22.4715 43.7899 22.6401C43.9618 22.5739 44.1072 22.5136 44.2263 22.4594C44.3519 22.3992 44.4577 22.3389 44.5437 22.2787C44.5767 22.2546 44.6097 22.2305 44.6428 22.2065C44.6825 22.1823 44.7255 22.1582 44.7718 22.1341C44.7916 22.1221 44.8081 22.1161 44.8213 22.1161H44.8312C44.8445 22.1161 44.8511 22.1221 44.8511 22.1341V25.0797ZM43.4626 23.6611C43.4428 23.5406 43.3932 23.4082 43.3138 23.2636C43.2411 23.113 43.1287 22.9865 42.9766 22.8841C42.8246 22.7757 42.6196 22.7215 42.3617 22.7215C42.0443 22.7215 41.7964 22.7937 41.6179 22.9383C41.4394 23.0769 41.3137 23.2576 41.241 23.4804C41.1749 23.7033 41.1419 23.9412 41.1419 24.1942C41.1419 24.7725 41.2674 25.2303 41.5187 25.5676C41.7766 25.9049 42.1072 26.0736 42.5105 26.0736C42.7485 26.0736 42.9336 26.0284 43.0659 25.938C43.2048 25.8417 43.3039 25.7453 43.3634 25.6489C43.4229 25.5525 43.456 25.4953 43.4626 25.4773V23.6611ZM51.564 23.8057V25.3507C51.564 25.682 51.6203 25.9079 51.7326 26.0284C51.8517 26.1489 52.0071 26.2091 52.1988 26.2091H52.2781C52.3773 26.2091 52.4269 26.2543 52.4269 26.3446V26.6157C52.4269 26.7061 52.3773 26.7512 52.2781 26.7512H49.64C49.5408 26.7512 49.4912 26.7061 49.4912 26.6157V26.3446C49.4912 26.2543 49.5408 26.2091 49.64 26.2091H49.7094C49.8483 26.2091 49.9607 26.1489 50.0466 26.0284C50.1326 25.9079 50.1756 25.682 50.1756 25.3507V23.8057C50.1756 23.5165 50.126 23.2967 50.0268 23.1461C49.9276 22.9895 49.7392 22.9112 49.4615 22.9112C49.2962 22.9112 49.1309 22.9503 48.9656 23.0286C48.8003 23.1009 48.6548 23.1973 48.5292 23.3178C48.4035 23.4322 48.311 23.5557 48.2515 23.6882V25.3507C48.2515 25.5917 48.3077 25.7965 48.4201 25.9652C48.5391 26.1278 48.6945 26.2091 48.8862 26.2091H48.9061C49.0053 26.2091 49.0548 26.2543 49.0548 26.3446V26.6157C49.0548 26.7061 49.0053 26.7512 48.9061 26.7512H46.1192C46.02 26.7512 45.9704 26.7061 45.9704 26.6157V26.3446C45.9704 26.2543 46.02 26.2091 46.1192 26.2091H46.139C46.3837 26.2091 46.5655 26.1278 46.6845 25.9652C46.8035 25.7965 46.863 25.5917 46.863 25.3507V24.2123C46.863 24.0496 46.8498 23.893 46.8233 23.7425C46.8035 23.5919 46.7506 23.4654 46.6646 23.3629C46.5853 23.2546 46.4531 23.1913 46.2679 23.1732C46.1952 23.1672 46.1588 23.128 46.1588 23.0558V22.7486C46.1588 22.6883 46.2051 22.6492 46.2977 22.6311C46.7738 22.5649 47.1804 22.4624 47.5176 22.3239C47.8614 22.1853 48.0994 22.0739 48.2316 21.9896C48.2647 21.9655 48.2912 21.9534 48.311 21.9534H48.3209C48.3341 21.9534 48.3408 21.9595 48.3408 21.9715C48.3408 21.9835 48.3375 22.0076 48.3308 22.0438L48.1622 23.1551C48.2548 23.0166 48.3771 22.869 48.5292 22.7124C48.6813 22.5498 48.8697 22.4112 49.0945 22.2968C49.3193 22.1763 49.5805 22.1161 49.878 22.1161C50.2351 22.1161 50.526 22.1642 50.7508 22.2606C50.9756 22.357 51.1442 22.4865 51.2566 22.6492C51.3756 22.8118 51.455 22.9925 51.4946 23.1913C51.5409 23.39 51.564 23.5949 51.564 23.8057ZM57.4711 25.0797C57.4711 25.2966 57.5075 25.4923 57.5802 25.667C57.653 25.8357 57.8116 25.935 58.0563 25.9652C58.1356 25.9712 58.1752 26.0103 58.1752 26.0826V26.3808C58.1752 26.4651 58.1257 26.5073 58.0265 26.5073C57.7025 26.5073 57.4314 26.5254 57.2132 26.5615C57.0016 26.5916 56.8165 26.6337 56.6578 26.688C56.5057 26.7362 56.3537 26.7904 56.2016 26.8506C56.1752 26.8627 56.1521 26.8687 56.1322 26.8687H56.1123C56.0925 26.8687 56.0826 26.8597 56.0826 26.8416C56.0958 26.703 56.109 26.5675 56.1223 26.435C56.1421 26.3025 56.1653 26.17 56.1917 26.0374C56.1587 26.1157 56.0859 26.2211 55.9735 26.3537C55.8677 26.4862 55.709 26.6066 55.4975 26.7151C55.2925 26.8175 55.0214 26.8687 54.6842 26.8687C54.4594 26.8687 54.218 26.8265 53.9602 26.7422C53.709 26.6579 53.4709 26.5223 53.2461 26.3356C53.0213 26.1489 52.8362 25.9049 52.6907 25.6037C52.5518 25.2965 52.4824 24.923 52.4824 24.4834C52.4824 23.9232 52.5916 23.4714 52.8098 23.128C53.0345 22.7787 53.3221 22.5226 53.6726 22.36C54.0296 22.1974 54.4065 22.1161 54.8032 22.1161C55.3057 22.1161 55.7322 22.2576 56.0826 22.5407V21.9625C56.0826 21.7998 56.0694 21.6432 56.0429 21.4926C56.0231 21.342 55.9735 21.2156 55.8942 21.1131C55.8148 21.0047 55.6826 20.9415 55.4975 20.9234C55.4181 20.9174 55.3784 20.8782 55.3784 20.8059V20.4988C55.3784 20.4626 55.3917 20.4385 55.4181 20.4264C55.4446 20.4084 55.4809 20.3933 55.5272 20.3813C56.0496 20.2247 56.4562 20.0681 56.7471 19.9114C57.0446 19.7548 57.2596 19.6313 57.3917 19.541C57.4116 19.5289 57.4281 19.5229 57.4413 19.5229H57.4513C57.4645 19.5229 57.4711 19.5289 57.4711 19.541V25.0797ZM56.0826 23.8238C56.0826 23.5406 55.9801 23.2997 55.7752 23.1009C55.5768 22.9022 55.3123 22.8028 54.9817 22.8028C54.6644 22.8028 54.4164 22.866 54.2379 22.9925C54.0594 23.119 53.9338 23.2877 53.861 23.4985C53.7949 23.7093 53.7619 23.9412 53.7619 24.1942C53.7619 24.7725 53.8875 25.2303 54.1387 25.5676C54.3966 25.9049 54.7272 26.0736 55.1305 26.0736C55.309 26.0736 55.4644 26.0344 55.5967 25.9561C55.7289 25.8718 55.8347 25.7694 55.914 25.6489C56 25.5284 56.0562 25.414 56.0826 25.3056V23.8238ZM62.5856 23.634C62.5456 23.6521 62.5126 23.6611 62.4865 23.6611C62.4401 23.6611 62.3969 23.64 62.3575 23.5979C62.06 23.2546 61.7493 23.0136 61.4251 22.875C61.101 22.7365 60.8201 22.6672 60.5824 22.6672C60.4102 22.6672 60.2516 22.7003 60.1061 22.7666C59.9606 22.8329 59.8879 22.9534 59.8879 23.128C59.8879 23.2606 59.9408 23.372 60.0465 23.4624C60.159 23.5467 60.3011 23.616 60.4731 23.6702C60.6447 23.7243 60.8201 23.7726 60.9987 23.8147C61.2567 23.8689 61.5141 23.9322 61.7721 24.0045C62.0365 24.0767 62.278 24.1731 62.496 24.2936C62.7147 24.408 62.8894 24.5526 63.0216 24.7273C63.1608 24.902 63.2301 25.1219 63.2301 25.3869C63.2301 25.67 63.1443 25.923 62.972 26.1459C62.8068 26.3687 62.5691 26.5464 62.2583 26.679C61.9476 26.8054 61.577 26.8687 61.1474 26.8687C60.9428 26.8687 60.7407 26.8446 60.5424 26.7964C60.3507 26.7542 60.1689 26.697 59.997 26.6247C59.9573 26.6066 59.9276 26.5976 59.9077 26.5976C59.8614 26.5976 59.8383 26.6187 59.8383 26.6609C59.8383 26.6729 59.8449 26.697 59.8581 26.7332C59.8713 26.7693 59.878 26.7934 59.878 26.8054C59.878 26.8536 59.8383 26.8777 59.7589 26.8777H59.4019C59.3292 26.8777 59.2729 26.8476 59.2333 26.7873L58.3804 25.3327C58.3605 25.2965 58.3506 25.2694 58.3506 25.2513C58.3506 25.2092 58.3771 25.1731 58.43 25.1429L58.7374 24.9803C58.7771 24.9622 58.8068 24.9532 58.8267 24.9532C58.8663 24.9532 58.9027 24.9803 58.9358 25.0345C59.2597 25.4742 59.6135 25.7875 59.997 25.9742C60.3873 26.1609 60.7839 26.2543 61.1868 26.2543C61.8217 26.2543 62.1395 26.0826 62.1395 25.7393C62.1395 25.5826 62.06 25.4532 61.9012 25.3507C61.7493 25.2483 61.5573 25.164 61.326 25.0977C61.101 25.0315 60.8729 24.9743 60.6415 24.9261C60.2184 24.8297 59.8813 24.7213 59.63 24.6008C59.3788 24.4743 59.1903 24.3418 59.0647 24.2032C58.9391 24.0587 58.8531 23.9172 58.8068 23.7786C58.7672 23.634 58.7473 23.4955 58.7473 23.3629C58.7473 23.0015 58.8994 22.7033 59.2035 22.4684C59.5077 22.2336 59.9209 22.1161 60.4432 22.1161C60.754 22.1161 61.0286 22.1552 61.2663 22.2336C61.5046 22.3058 61.6698 22.366 61.7626 22.4143C61.7887 22.4263 61.8084 22.4323 61.8217 22.4323C61.8414 22.4323 61.8516 22.4203 61.8516 22.3962C61.8516 22.3781 61.8414 22.3419 61.8217 22.2877C61.8154 22.2576 61.8084 22.2366 61.802 22.2245C61.802 22.2065 61.802 22.1913 61.802 22.1793C61.802 22.1191 61.8452 22.089 61.931 22.089H62.1891C62.2749 22.089 62.3308 22.1221 62.3575 22.1883L62.8532 23.3358C62.8729 23.372 62.8831 23.4021 62.8831 23.4262C62.8831 23.4684 62.8564 23.5015 62.8036 23.5256L62.5856 23.634ZM68.0233 25.5314C68.0767 25.5676 68.1028 25.6067 68.1028 25.6489C68.1028 25.661 68.0964 25.6851 68.0831 25.7212C67.8911 26.1067 67.607 26.3958 67.2302 26.5886C66.8597 26.7753 66.4535 26.8687 66.0106 26.8687C65.64 26.8687 65.3026 26.7964 64.9988 26.6519C64.6944 26.5013 64.437 26.3025 64.2253 26.0555C64.0137 25.8086 63.858 25.5315 63.7588 25.2242C63.6597 24.917 63.6235 24.6008 63.6502 24.2755C63.6959 23.7756 63.8485 23.3659 64.1059 23.0467C64.3639 22.7275 64.6747 22.4925 65.0382 22.3419C65.4087 22.1913 65.7792 22.1161 66.1491 22.1161C66.5857 22.1161 66.9391 22.1763 67.2105 22.2968C67.4812 22.4173 67.6897 22.5739 67.8352 22.7666C67.9807 22.9594 68.0799 23.1612 68.1326 23.372C68.1396 23.3961 68.1428 23.4172 68.1428 23.4353C68.1428 23.4834 68.1028 23.5165 68.0233 23.5346L66.8832 23.8057C66.8431 23.8177 66.8139 23.8238 66.7936 23.8238C66.7478 23.8238 66.7243 23.8027 66.7243 23.7605C66.7243 23.7364 66.7243 23.7123 66.7243 23.6882C66.7313 23.6641 66.7344 23.631 66.7344 23.5889C66.7344 23.3961 66.6684 23.2244 66.5362 23.0738C66.404 22.9232 66.1987 22.8479 65.921 22.8479C65.6699 22.8479 65.4716 22.9202 65.3261 23.0648C65.1806 23.2093 65.0751 23.3961 65.0083 23.625C64.9492 23.8478 64.9193 24.0828 64.9193 24.3297C64.9193 24.6249 64.9626 24.905 65.0484 25.17C65.1342 25.435 65.2733 25.6519 65.4646 25.8206C65.6629 25.9832 65.9311 26.0645 66.268 26.0645C66.533 26.0645 66.777 26.0073 67.002 25.8929C67.227 25.7724 67.4119 25.6097 67.5575 25.4049C67.5842 25.3628 67.6236 25.3417 67.6763 25.3417C67.7094 25.3417 67.7392 25.3507 67.7659 25.3688L68.0233 25.5314ZM73.5583 25.0797C73.5583 25.2966 73.5951 25.4923 73.6676 25.667C73.74 25.8357 73.8989 25.935 74.1436 25.9652C74.223 25.9712 74.2624 26.0103 74.2624 26.0826V26.3808C74.2624 26.4651 74.2129 26.5073 74.1137 26.5073C73.7896 26.5073 73.5188 26.5254 73.3009 26.5615C73.0892 26.5916 72.9036 26.6337 72.7454 26.688C72.5929 26.7362 72.441 26.7904 72.2891 26.8506C72.2624 26.8627 72.2395 26.8687 72.2198 26.8687H72.1899C72.1766 26.8687 72.1702 26.8567 72.1702 26.8326C72.1702 26.8085 72.1766 26.7512 72.1899 26.6609C72.2033 26.5645 72.216 26.4591 72.2293 26.3446C72.249 26.2242 72.2656 26.1217 72.2789 26.0374C72.2459 26.1157 72.1734 26.2211 72.0609 26.3537C71.9548 26.4862 71.7965 26.6066 71.5849 26.7151C71.3796 26.8175 71.1089 26.8687 70.7714 26.8687C70.5471 26.8687 70.3056 26.8265 70.0475 26.7422C69.7965 26.6579 69.5582 26.5223 69.3332 26.3356C69.1088 26.1489 68.9233 25.9049 68.7784 25.6037C68.6392 25.2965 68.5699 24.923 68.5699 24.4834C68.5699 23.9232 68.6792 23.4714 68.8972 23.128C69.1222 22.7787 69.4094 22.5226 69.7603 22.36C70.1168 22.1974 70.4937 22.1161 70.8909 22.1161C71.2144 22.1161 71.5118 22.1612 71.7832 22.2516C72.0546 22.3419 72.2923 22.4715 72.4975 22.6401C72.6691 22.5739 72.8147 22.5136 72.9335 22.4594C73.0594 22.3992 73.1649 22.3389 73.2513 22.2787C73.2843 22.2546 73.3174 22.2305 73.3504 22.2065C73.3898 22.1823 73.4331 22.1582 73.4794 22.1341C73.4991 22.1221 73.5157 22.1161 73.529 22.1161H73.5385C73.5519 22.1161 73.5583 22.1221 73.5583 22.1341V25.0797ZM72.1702 23.6611C72.1499 23.5406 72.1003 23.4082 72.0215 23.2636C71.9484 23.113 71.8359 22.9865 71.684 22.8841C71.5321 22.7757 71.3269 22.7215 71.0688 22.7215C70.7517 22.7215 70.5038 22.7937 70.3253 22.9383C70.1467 23.0769 70.0208 23.2576 69.9484 23.4804C69.8823 23.7033 69.8492 23.9412 69.8492 24.1942C69.8492 24.7725 69.9751 25.2303 70.2261 25.5676C70.4841 25.9049 70.8146 26.0736 71.2182 26.0736C71.4559 26.0736 71.6408 26.0284 71.773 25.938C71.9122 25.8417 72.0113 25.7453 72.0711 25.6489C72.1302 25.5525 72.1632 25.4953 72.1702 25.4773V23.6611ZM76.4125 22.9383C76.4519 22.8539 76.525 22.7486 76.6305 22.6221C76.7366 22.4895 76.8948 22.3721 77.1065 22.2697C77.3181 22.1673 77.5927 22.1161 77.9295 22.1161C78.1545 22.1161 78.3928 22.1582 78.6438 22.2426C78.8949 22.3269 79.1332 22.4624 79.3582 22.6492C79.5825 22.8359 79.7643 23.0799 79.9035 23.381C80.049 23.6822 80.1215 24.0526 80.1215 24.4924C80.1215 25.0465 80.0122 25.5013 79.7942 25.8567C79.5762 26.2061 79.2921 26.4621 78.9413 26.6247C78.5911 26.7873 78.2142 26.8687 77.8106 26.8687C77.3079 26.8687 76.8783 26.7241 76.5211 26.435V27.1578C76.5211 27.3988 76.5809 27.6005 76.6997 27.7632C76.8192 27.9318 77.001 28.0162 77.2457 28.0162C77.3448 28.0162 77.3944 28.0614 77.3944 28.1517V28.4228C77.3944 28.5131 77.3448 28.5583 77.2457 28.5583H74.4092C74.3095 28.5583 74.2599 28.5131 74.2599 28.4228V28.1517C74.2599 28.0614 74.3133 28.0162 74.4188 28.0162C74.6635 28.0162 74.842 27.9318 74.9545 27.7632C75.0734 27.6005 75.1331 27.3988 75.1331 27.1578V24.0496C75.1331 23.887 75.123 23.7304 75.1033 23.5798C75.0836 23.4292 75.0302 23.3027 74.9444 23.2003C74.8649 23.0919 74.7327 23.0286 74.5478 23.0106C74.5014 23.0045 74.4715 22.9925 74.4588 22.9744C74.4455 22.9503 74.4385 22.9232 74.4385 22.8931V22.5859C74.4385 22.5076 74.4849 22.4684 74.5777 22.4684C74.9081 22.4684 75.1795 22.4564 75.3905 22.4323C75.6021 22.4022 75.7839 22.36 75.9364 22.3058C76.0947 22.2516 76.2504 22.1913 76.4023 22.1251C76.422 22.1131 76.4385 22.107 76.4519 22.107C76.4716 22.107 76.4849 22.107 76.4919 22.107H76.5014C76.5148 22.107 76.5211 22.1161 76.5211 22.1341C76.5211 22.1402 76.518 22.1552 76.5116 22.1793C76.5116 22.2034 76.5046 22.2727 76.4919 22.3872C76.4786 22.4955 76.4519 22.6793 76.4125 22.9383ZM76.5211 25.1429C76.5478 25.3297 76.6038 25.5104 76.6902 25.6851C76.7823 25.8597 76.9082 26.0013 77.0671 26.1097C77.2253 26.2181 77.4141 26.2723 77.6321 26.2723C77.9498 26.2723 78.1977 26.2001 78.3763 26.0555C78.5549 25.9109 78.6769 25.7242 78.743 25.4953C78.8154 25.2664 78.8523 25.0285 78.8523 24.7815C78.8523 24.2032 78.7233 23.7455 78.4653 23.4082C78.2142 23.0708 77.8837 22.9022 77.4738 22.9022C77.2088 22.9022 76.994 22.9714 76.8287 23.11C76.6705 23.2425 76.5675 23.372 76.5211 23.4985V25.1429ZM82.1533 25.1339C82.2658 25.3869 82.4444 25.6127 82.6891 25.8116C82.9401 26.0103 83.2572 26.1097 83.6411 26.1097C83.8527 26.1097 84.0739 26.0555 84.3052 25.9471C84.5372 25.8387 84.7387 25.67 84.9103 25.4411C84.9306 25.411 84.9567 25.3959 84.9897 25.3959C85.0228 25.3959 85.0558 25.4049 85.0889 25.423C85.1289 25.4411 85.2281 25.4923 85.3863 25.5766C85.413 25.5947 85.4263 25.6188 85.4263 25.6489C85.4263 25.6911 85.4066 25.7423 85.3666 25.8025C85.1817 26.1157 84.9306 26.3717 84.6128 26.5705C84.2957 26.7693 83.8826 26.8687 83.3729 26.8687C82.8244 26.8687 82.3516 26.7572 81.955 26.5344C81.5584 26.3115 81.2508 26.0164 81.0328 25.6489C80.8212 25.2815 80.7151 24.8809 80.7151 24.4472C80.7151 24.0316 80.7812 23.6762 80.9134 23.381C81.0525 23.0799 81.2343 22.8389 81.4593 22.6582C81.6836 22.4715 81.9353 22.3359 82.213 22.2516C82.4971 22.1612 82.785 22.1161 83.0755 22.1161C83.4066 22.1161 83.697 22.1763 83.9487 22.2968C84.1997 22.4112 84.4114 22.5588 84.583 22.7395C84.7616 22.9202 84.8938 23.113 84.9802 23.3178C85.0723 23.5165 85.1187 23.7033 85.1187 23.878C85.1187 23.9262 85.0889 23.9623 85.0298 23.9864L82.1533 25.1339ZM83.6309 23.8418C83.6309 23.5527 83.5553 23.3148 83.4028 23.128C83.2509 22.9413 83.059 22.8479 82.8276 22.8479C82.5569 22.8479 82.3421 22.9473 82.1832 23.1461C82.0243 23.3389 81.9448 23.5828 81.9448 23.878C81.9448 23.9683 81.9487 24.0798 81.955 24.2123C81.9684 24.3448 81.9944 24.4653 82.0345 24.5737L83.6309 23.8418ZM90.0048 23.634C89.9654 23.6521 89.9323 23.6611 89.9056 23.6611C89.8592 23.6611 89.816 23.64 89.7766 23.5979C89.4792 23.2546 89.1684 23.0136 88.8443 22.875C88.5202 22.7365 88.2392 22.6672 88.0015 22.6672C87.8293 22.6672 87.6711 22.7003 87.5255 22.7666C87.38 22.8329 87.3069 22.9534 87.3069 23.128C87.3069 23.2606 87.3603 23.372 87.4658 23.4624C87.5783 23.5467 87.7206 23.616 87.8922 23.6702C88.0645 23.7243 88.2392 23.7726 88.4178 23.8147C88.6759 23.8689 88.9339 23.9322 89.1913 24.0045C89.4557 24.0767 89.6972 24.1731 89.9158 24.2936C90.1338 24.408 90.3092 24.5526 90.4414 24.7273C90.5799 24.902 90.6492 25.1219 90.6492 25.3869C90.6492 25.67 90.5634 25.923 90.3918 26.1459C90.2259 26.3687 89.9883 26.5464 89.6775 26.679C89.3667 26.8054 88.9962 26.8687 88.5666 26.8687C88.3619 26.8687 88.1598 26.8446 87.9615 26.7964C87.7702 26.7542 87.5878 26.697 87.4162 26.6247C87.3768 26.6066 87.347 26.5976 87.3272 26.5976C87.2809 26.5976 87.2573 26.6187 87.2573 26.6609C87.2573 26.6729 87.2643 26.697 87.277 26.7332C87.2904 26.7693 87.2974 26.7934 87.2974 26.8054C87.2974 26.8536 87.2573 26.8777 87.1779 26.8777H86.8214C86.7483 26.8777 86.6923 26.8476 86.6523 26.7873L85.7994 25.3327C85.7797 25.2965 85.7695 25.2694 85.7695 25.2513C85.7695 25.2092 85.7962 25.1731 85.849 25.1429L86.1566 24.9803C86.1966 24.9622 86.2259 24.9532 86.2462 24.9532C86.2856 24.9532 86.3218 24.9803 86.3549 25.0345C86.679 25.4742 87.033 25.7875 87.4162 25.9742C87.8064 26.1609 88.203 26.2543 88.6066 26.2543C89.2409 26.2543 89.5586 26.0826 89.5586 25.7393C89.5586 25.5826 89.4792 25.4532 89.3203 25.3507C89.1684 25.2483 88.9765 25.164 88.7451 25.0977C88.5202 25.0315 88.292 24.9743 88.0607 24.9261C87.6374 24.8297 87.3005 24.7213 87.0495 24.6008C86.7978 24.4743 86.6097 24.3418 86.4839 24.2032C86.358 24.0587 86.2723 23.9172 86.2259 23.7786C86.1865 23.634 86.1667 23.4955 86.1667 23.3629C86.1667 23.0015 86.3186 22.7033 86.6231 22.4684C86.9269 22.2336 87.34 22.1161 87.8624 22.1161C88.1731 22.1161 88.4477 22.1552 88.6854 22.2336C88.9237 22.3058 89.089 22.366 89.1818 22.4143C89.2078 22.4263 89.2282 22.4323 89.2409 22.4323C89.2612 22.4323 89.2707 22.4203 89.2707 22.3962C89.2707 22.3781 89.2612 22.3419 89.2409 22.2877C89.2345 22.2576 89.2281 22.2366 89.2212 22.2245C89.2212 22.2065 89.2212 22.1913 89.2212 22.1793C89.2212 22.1191 89.2644 22.089 89.3502 22.089H89.6082C89.694 22.089 89.7499 22.1221 89.7766 22.1883L90.2723 23.3358C90.2927 23.372 90.3022 23.4021 90.3022 23.4262C90.3022 23.4684 90.2755 23.5015 90.2228 23.5256L90.0048 23.634ZM46.3364 31.9991C46.4355 31.9991 46.4851 32.0442 46.4851 32.1346V32.4056C46.4851 32.496 46.4355 32.5412 46.3364 32.5412H43.5396C43.4404 32.5412 43.3908 32.496 43.3908 32.4056V32.1346C43.3908 32.0442 43.4404 31.9991 43.5396 31.9991H43.5891C43.8007 31.9991 43.9396 31.9298 44.0057 31.7913C44.0718 31.6467 44.1049 31.4298 44.1049 31.1407V29.5956C44.1049 29.433 44.0884 29.2854 44.0552 29.1529C44.0288 29.0143 43.9627 28.9059 43.8569 28.8276C43.7577 28.7433 43.6024 28.7012 43.3908 28.7012C43.1064 28.7012 42.8552 28.7825 42.637 28.9451C42.4255 29.1077 42.2469 29.3125 42.1015 29.5595V31.1407C42.1015 31.472 42.1576 31.6979 42.2701 31.8184C42.389 31.9388 42.5444 31.9991 42.7362 31.9991H42.8156C42.9147 31.9991 42.9643 32.0442 42.9643 32.1346V32.4056C42.9643 32.496 42.9147 32.5412 42.8156 32.5412H40.1179C40.0187 32.5412 39.9692 32.496 39.9692 32.4056V32.1346C39.9692 32.0442 40.0187 31.9991 40.1179 31.9991H40.1873C40.3261 31.9991 40.4485 31.9388 40.5543 31.8184C40.6601 31.6979 40.713 31.472 40.713 31.1407V29.5956C40.713 29.3065 40.67 29.0867 40.584 28.9361C40.5047 28.7794 40.3096 28.7012 39.9989 28.7012C39.8336 28.7012 39.6683 28.7403 39.503 28.8186C39.3377 28.8909 39.1922 28.9872 39.0666 29.1077C38.941 29.2222 38.8484 29.3456 38.7889 29.4782V31.1407C38.7889 31.3816 38.8451 31.5865 38.9575 31.7551C39.0765 31.9178 39.2319 31.9991 39.4237 31.9991H39.4435C39.5426 31.9991 39.5923 32.0442 39.5923 32.1346V32.4056C39.5923 32.496 39.5426 32.5412 39.4435 32.5412H36.6566C36.5574 32.5412 36.5078 32.496 36.5078 32.4056V32.1346C36.5078 32.0442 36.5574 31.9991 36.6566 31.9991H36.6764C36.921 31.9991 37.1029 31.9178 37.2219 31.7551C37.3409 31.5865 37.4004 31.3816 37.4004 31.1407V30.0022C37.4004 29.8396 37.3872 29.683 37.3608 29.5324C37.3409 29.3818 37.288 29.2553 37.2021 29.1529C37.1227 29.0445 36.9905 28.9812 36.8054 28.9632C36.7326 28.9571 36.6963 28.918 36.6963 28.8457V28.5385C36.6963 28.4782 36.7425 28.4391 36.8351 28.421C37.3111 28.3548 37.7178 28.2524 38.055 28.1138C38.3988 27.9753 38.6368 27.8639 38.7691 27.7795C38.8021 27.7554 38.8286 27.7434 38.8484 27.7434H38.8584C38.8716 27.7434 38.8782 27.7494 38.8782 27.7614C38.8782 27.7735 38.8749 27.7976 38.8683 27.8338L38.6997 28.9451C38.7922 28.8065 38.9145 28.659 39.0666 28.5023C39.2187 28.3398 39.4071 28.2012 39.6319 28.0867C39.8567 27.9662 40.1179 27.906 40.4154 27.906C40.9047 27.906 41.2683 27.9904 41.5064 28.159C41.7444 28.3216 41.9064 28.5325 41.9923 28.7915C42.2172 28.5265 42.4783 28.3126 42.7759 28.15C43.08 27.9873 43.4271 27.906 43.8172 27.906C44.1743 27.906 44.4619 27.9572 44.6801 28.0596C44.9049 28.156 45.0768 28.2885 45.1958 28.4572C45.3148 28.6198 45.3941 28.8065 45.4339 29.0174C45.4801 29.2222 45.5033 29.433 45.5033 29.6498V31.1407C45.5033 31.3816 45.5627 31.5865 45.6818 31.7551C45.8074 31.9178 45.9893 31.9991 46.2273 31.9991H46.3364ZM52.5229 29.5956V31.1407C52.5229 31.472 52.5791 31.6979 52.6915 31.8184C52.8105 31.9388 52.9659 31.9991 53.1576 31.9991H53.237C53.3362 31.9991 53.3857 32.0442 53.3857 32.1346V32.4056C53.3857 32.496 53.3362 32.5412 53.237 32.5412H50.5988C50.4997 32.5412 50.4501 32.496 50.4501 32.4056V32.1346C50.4501 32.0442 50.4997 31.9991 50.5988 31.9991H50.6683C50.8071 31.9991 50.9195 31.9388 51.0055 31.8184C51.0914 31.6979 51.1344 31.472 51.1344 31.1407V29.5956C51.1344 29.3065 51.0848 29.0867 50.9856 28.9361C50.8865 28.7794 50.698 28.7012 50.4203 28.7012C50.255 28.7012 50.0897 28.7403 49.9245 28.8186C49.7592 28.8909 49.6137 28.9872 49.488 29.1077C49.3625 29.2222 49.2699 29.3456 49.2104 29.4782V31.1407C49.2104 31.3816 49.2665 31.5865 49.379 31.7551C49.4979 31.9178 49.6533 31.9991 49.8451 31.9991H49.8649C49.9641 31.9991 50.0137 32.0442 50.0137 32.1346V32.4056C50.0137 32.496 49.9641 32.5412 49.8649 32.5412H47.078C46.9789 32.5412 46.9293 32.496 46.9293 32.4056V32.1346C46.9293 32.0442 46.9789 31.9991 47.078 31.9991H47.0978C47.3425 31.9991 47.5243 31.9178 47.6433 31.7551C47.7623 31.5865 47.8218 31.3816 47.8218 31.1407V30.0022C47.8218 29.8396 47.8086 29.683 47.7822 29.5324C47.7624 29.3818 47.7095 29.2553 47.6235 29.1529C47.5442 29.0445 47.4119 28.9812 47.2268 28.9632C47.1541 28.9571 47.1177 28.918 47.1177 28.8457V28.5385C47.1177 28.4782 47.164 28.4391 47.2565 28.421C47.7326 28.3548 48.1392 28.2524 48.4764 28.1138C48.8203 27.9753 49.0583 27.8639 49.1905 27.7795C49.2236 27.7554 49.25 27.7434 49.2699 27.7434H49.2798C49.293 27.7434 49.2996 27.7494 49.2996 27.7614C49.2996 27.7735 49.2963 27.7976 49.2897 27.8338L49.1211 28.9451C49.2137 28.8065 49.3359 28.659 49.488 28.5023C49.6401 28.3398 49.8286 28.2012 50.0534 28.0867C50.2781 27.9662 50.5393 27.906 50.8368 27.906C51.1939 27.906 51.4848 27.9542 51.7096 28.0506C51.9344 28.1469 52.103 28.2765 52.2155 28.4391C52.3344 28.6017 52.4138 28.7825 52.4535 28.9812C52.4997 29.18 52.5229 29.3848 52.5229 29.5956Z" fill="white"/>
</svg>
