<svg width="96" height="58" viewBox="0 0 96 58" fill="none" xmlns="http://www.w3.org/2000/svg">
<path d="M44.5892 14.3803C45.1756 13.9549 45.806 13.4193 46.5043 12.999C50.7581 10.4383 55.9357 13.2278 56.0831 18.1884C56.1678 21.0695 56.122 23.9371 56.1187 26.8114C56.1187 27.7096 55.6391 28.2316 54.912 28.2146C54.1849 28.1977 53.7375 27.6841 53.741 26.7792C53.7511 24.1794 53.7833 21.5796 53.7918 18.9832C53.7918 17.6274 53.5325 16.3665 52.4445 15.4242C50.1819 13.4702 46.8212 14.4277 45.9789 17.3004C45.7902 18.0354 45.6985 18.7921 45.706 19.551C45.6654 21.8762 45.679 24.2014 45.6637 26.5266C45.6586 26.8435 45.6263 27.1593 45.5671 27.4706C45.4637 28.035 45.0909 28.2858 44.5282 28.2875C43.9655 28.2892 43.5893 28.0401 43.4706 27.4791C43.4001 27.1488 43.3649 26.8119 43.3656 26.4741C43.3571 24.1709 43.3656 21.866 43.3656 19.5629C43.3656 18.2799 43.2368 17.0207 42.4114 15.9547C41.9469 15.3312 41.3066 14.861 40.5727 14.6043C39.8388 14.3476 39.045 14.3162 38.2931 14.5142C36.6272 14.9718 35.5189 16.2445 35.3409 17.9325C35.2945 18.4158 35.2736 18.9012 35.2782 19.3866C35.2782 21.861 35.2968 24.3336 35.3036 26.8063C35.3036 27.3452 35.1748 27.9062 34.6257 28.0503C34.2342 28.1536 33.6529 28.0858 33.3546 27.8468C33.0563 27.6079 32.9394 27.0775 32.9326 26.6707C32.897 24.3251 32.9089 21.9779 32.9326 19.6323C32.9326 18.8951 33.0072 18.1562 33.0479 17.419C33.2309 14.0803 37.3678 10.562 41.8166 12.6177C42.7927 13.0736 43.6537 13.7803 44.5892 14.3803Z" fill="white"/>
<path d="M62.1613 26.6722C62.1613 24.3503 62.0896 22.0234 62.1777 19.7049C62.298 16.5561 63.8725 14.2512 66.6793 12.8751C69.5486 11.4667 72.3686 11.8124 74.9834 13.5699C78.7123 16.0816 79.468 21.1608 76.7295 24.8892C74.4244 28.0263 70.4707 29.1109 66.8891 27.5483C66.3163 27.2992 65.8283 26.8704 65.2864 26.5315C65.0681 26.4205 64.8418 26.3281 64.6084 26.2552C64.5406 26.5043 64.413 26.7535 64.413 27.0009C64.413 29.3261 64.4453 31.6496 64.4492 33.9732C64.4492 34.7273 64.0691 35.1595 63.4489 35.2104C63.2858 35.2253 63.1214 35.2079 62.9649 35.1591C62.8084 35.1103 62.6624 35.0312 62.5368 34.9262C62.4112 34.8212 62.3066 34.6925 62.231 34.5473C62.1547 34.402 62.108 34.2432 62.0935 34.0799C62.0698 33.8486 62.0606 33.6159 62.0659 33.3834C62.0659 31.144 62.0659 28.9047 62.0659 26.6654L62.1613 26.6722ZM76.016 20.1744C76.0232 19.0291 75.6911 17.9073 75.0604 16.9512C74.4297 15.9951 73.53 15.2476 72.4739 14.8036C71.4183 14.3596 70.2543 14.239 69.1304 14.457C68.0058 14.6751 66.9713 15.2221 66.1584 16.0286C65.3449 16.8351 64.7899 17.8648 64.5623 18.9874C64.3354 20.1099 64.4459 21.2746 64.8813 22.334C65.3167 23.3933 66.0565 24.2996 67.0075 24.9379C67.9584 25.5763 69.0778 25.918 70.2227 25.9197C70.981 25.9237 71.732 25.7782 72.4337 25.4914C73.1348 25.2047 73.7734 24.7824 74.3113 24.2488C74.8493 23.7151 75.2768 23.0805 75.5694 22.3814C75.8621 21.6822 76.0133 20.9323 76.016 20.1744Z" fill="white"/>
<path d="M18.2472 46.8994C18.1387 47.1146 18.0234 47.3265 17.9268 47.5468C17.0083 49.6382 16.0926 51.7284 15.1796 53.8174C14.9661 54.3106 14.717 54.714 14.0967 54.7258C13.4391 54.7411 13.1985 54.3157 12.9731 53.7988C12.0545 51.6854 11.1088 49.5805 10.1801 47.4739C10.0969 47.2582 9.95111 47.0723 9.76151 46.9401C9.74789 47.1536 9.72422 47.3655 9.72251 47.579C9.71067 49.6721 9.69706 51.7651 9.70219 53.8496C9.70219 54.3581 9.61571 54.7089 8.98528 54.7072C8.39379 54.7072 8.21419 54.4326 8.21583 53.8869C8.22773 50.9889 8.21583 48.0925 8.22603 45.1962C8.22603 44.081 9.03783 43.4269 9.86489 43.876C10.1613 44.069 10.3923 44.3473 10.5275 44.6742C11.5766 46.9842 12.5918 49.3094 13.6307 51.6227C13.752 51.831 13.8958 52.0254 14.0594 52.2024C14.2281 52.0347 14.3755 51.8468 14.4984 51.6431C15.5457 49.3325 16.5834 47.0163 17.6116 44.6946C17.8506 44.1573 18.1896 43.737 18.8268 43.7472C19.464 43.7573 19.9334 44.2556 19.9385 44.986C19.9589 47.9875 19.9385 50.9906 19.9487 53.992C19.9487 54.5411 19.6505 54.7241 19.1386 54.7225C18.6268 54.7208 18.4352 54.475 18.4387 53.9733C18.4505 51.838 18.4387 49.7026 18.4387 47.5672C18.4387 47.3502 18.4166 47.1316 18.4064 46.9147L18.2472 46.8994Z" fill="white"/>
<path d="M26.0823 20.57C26.0823 23.146 26.1891 25.7289 26.0568 28.2981C25.8619 32.0944 23.5537 34.6026 19.8235 35.3263C18.7355 35.5382 18.022 34.9365 18.1287 33.8993C18.1897 33.2825 18.549 32.9926 19.1456 32.8587C19.9015 32.6893 20.7183 32.5774 21.3708 32.2012C22.9436 31.2877 23.8096 29.8997 23.8096 27.988C23.7791 23.1495 23.7842 18.3092 23.7825 13.4707C23.7825 12.3894 24.5247 11.7996 25.401 12.1843C26.006 12.4487 26.1755 12.9826 26.1721 13.5927C26.1619 15.5361 26.1495 17.4799 26.1348 19.4243C26.1348 19.804 26.1348 20.1853 26.1348 20.565L26.0823 20.57Z" fill="white"/>
<path d="M29.8894 0C31.6468 0.0186444 32.8908 1.37785 32.7705 3.1438C32.601 5.60965 31.3045 7.33158 28.9302 8.01113C27.3913 8.45011 25.7982 8.68903 24.2255 9.01615C23.8747 9.08902 23.6781 8.92631 23.7611 8.56027C24.1645 6.77225 24.439 4.93688 25.0271 3.2116C25.7813 0.989743 27.7659 0.115247 29.8894 0Z" fill="white"/>
<path d="M70.4387 52.4702C70.2309 52.4352 70.0191 52.4227 69.8086 52.4329C69.6482 52.4851 69.4976 52.5636 69.3628 52.6651C69.4811 52.7854 69.5883 52.9955 69.7218 53.0142C70.39 53.1108 71.0661 53.1565 71.7369 53.221C72.0742 53.2356 72.411 53.2718 72.7437 53.3294C72.9943 53.3792 73.2297 53.4849 73.4336 53.6385C73.6375 53.7922 73.8039 53.9899 73.9203 54.2169C74.0373 54.4438 74.1011 54.6942 74.107 54.9493C74.1136 55.2044 74.0623 55.4577 73.9571 55.6903C73.4625 56.8766 72.432 57.302 71.2844 57.2274C70.2098 57.1562 69.151 56.8037 68.0948 56.5376C67.9258 56.4969 67.7055 56.2529 67.7121 56.1139C67.7219 56.0042 67.7581 55.8985 67.8173 55.8053C67.8758 55.7123 67.956 55.6345 68.0507 55.5784C68.4019 55.4513 68.7768 55.4027 69.149 55.436C69.8593 55.5208 70.561 55.697 71.266 55.8275C71.4521 55.8662 71.6422 55.8833 71.8322 55.8783C72.3011 55.8529 72.4965 55.5394 72.5201 55.1191C72.5451 54.6683 72.2031 54.6378 71.8723 54.6107C71.1134 54.5581 70.3473 54.5259 69.5962 54.4412C69.2194 54.4081 68.8511 54.307 68.5104 54.1429C67.6627 53.6989 67.549 52.8871 68.2461 52.2295C68.6084 51.8905 68.6709 51.6076 68.3763 51.1991C67.6068 50.128 67.7982 49.0179 68.4151 47.979C69.051 46.9198 70.098 46.6453 71.2778 46.769C72.1795 46.8639 73.0844 46.9283 73.9808 47.0605C74.1163 47.0798 74.2458 47.1267 74.3629 47.1981C74.4793 47.2695 74.5799 47.3639 74.6588 47.4757C74.7246 47.6011 74.5082 47.9943 74.3201 48.1129C73.8657 48.4011 73.652 48.7908 73.7315 49.2823C74.0557 51.2855 72.4524 52.5956 70.4387 52.4702ZM72.3708 49.5891C72.3702 49.3881 72.3288 49.1893 72.2498 49.0045C72.1709 48.8197 72.0558 48.6525 71.9118 48.5128C71.7671 48.3732 71.5961 48.2639 71.4087 48.1914C71.2213 48.119 71.0214 48.0848 70.8201 48.0909C70.6195 48.0945 70.4222 48.1375 70.2387 48.2174C70.0546 48.2973 69.8889 48.4127 69.7495 48.5569C69.6107 48.7009 69.5009 48.8711 69.4279 49.0575C69.3542 49.244 69.3187 49.443 69.322 49.6433C69.3253 49.8436 69.3687 50.0412 69.4483 50.2249C69.5285 50.4087 69.6436 50.5748 69.7876 50.7139C69.9323 50.853 70.102 50.9624 70.2887 51.0357C70.4748 51.1091 70.6741 51.145 70.8747 51.1415C71.0746 51.14 71.2732 51.0985 71.4574 51.0194C71.6415 50.9404 71.8086 50.8254 71.948 50.6812C72.0874 50.5369 72.1966 50.3664 72.2689 50.1794C72.3419 49.9925 72.3761 49.7929 72.3708 49.5925V49.5891Z" fill="white"/>
<path d="M91.4639 57.3725C90.6629 57.1251 89.7185 56.8488 88.7879 56.5251C88.6991 56.4842 88.6215 56.4219 88.5623 56.3439C88.5031 56.2659 88.4643 56.1744 88.4492 56.0777C88.4663 55.9709 88.5078 55.8695 88.5702 55.7813C88.6327 55.6931 88.7149 55.6206 88.8103 55.5693C89.1226 55.4562 89.4567 55.418 89.7862 55.4574C90.5813 55.5659 91.3626 55.776 92.159 55.8642C92.4813 55.8943 92.8029 55.797 93.0541 55.593C93.4875 55.1659 93.2895 54.71 92.6812 54.6473C91.9453 54.5744 91.1995 54.5778 90.4695 54.4659C89.971 54.4105 89.489 54.2542 89.0523 54.0067C88.3591 53.5627 88.3407 52.8017 88.9543 52.2458C89.3035 51.9289 89.441 51.6611 89.124 51.229C88.7899 50.7511 88.6117 50.1817 88.613 49.5987C88.615 49.0157 88.7971 48.4474 89.1338 47.9716C89.8119 46.9836 90.7911 46.6548 91.9558 46.7853C92.8555 46.8836 93.7591 46.9548 94.6555 47.0751C94.9113 47.1124 95.2756 47.2649 95.3486 47.4547C95.4216 47.6445 95.2046 48.0191 95.0099 48.1445C94.8034 48.2584 94.6377 48.4341 94.5364 48.6469C94.4358 48.8597 94.4036 49.0989 94.445 49.3308C94.7844 51.6255 92.7608 52.6356 91.0081 52.5C90.6944 52.4763 90.1611 52.1831 90.1118 52.7034C90.0624 53.2237 90.6201 53.0661 90.9595 53.1051C91.6368 53.1847 92.3149 53.2136 92.9791 53.2949C94.1267 53.4322 94.6739 53.8846 94.7857 54.7372C94.8462 55.2249 94.735 55.7185 94.4707 56.133C94.2069 56.5475 93.8064 56.857 93.3388 57.0081C92.7983 57.1759 92.2215 57.225 91.4639 57.3725ZM93.0758 49.6308C93.0929 49.4199 93.0659 49.2078 92.9969 49.0078C92.9278 48.8078 92.8173 48.6245 92.674 48.4694C92.5299 48.3143 92.355 48.1908 92.161 48.1069C91.9663 48.0229 91.7572 47.9803 91.5454 47.9817C91.3337 47.9832 91.1245 48.0286 90.9319 48.1151C90.7385 48.2017 90.5655 48.3274 90.4241 48.4845C90.2821 48.6415 90.1742 48.8263 90.1078 49.0271C90.0414 49.228 90.0171 49.4405 90.0374 49.6512C90.073 50.0307 90.2499 50.3831 90.5333 50.6387C90.8161 50.8944 91.1844 51.0348 91.5658 51.0322C91.9473 51.0297 92.3136 50.8844 92.5931 50.625C92.8726 50.3656 93.0449 50.0109 93.0758 49.6308Z" fill="white"/>
<path d="M27.4736 49.2045C27.4736 47.6623 27.4888 46.1217 27.4651 44.5795C27.4567 44.0321 27.655 43.8101 28.204 43.8389C29.3904 43.9016 30.5767 43.8524 31.741 44.0084C32.4875 44.0818 33.1844 44.4156 33.7094 44.9514C34.2343 45.4872 34.5538 46.1908 34.612 46.9386C34.7815 48.4859 33.9832 49.9129 32.4765 50.4468C31.8088 50.6823 31.0225 50.6162 30.2869 50.6162C28.7955 50.6366 28.8735 50.5213 28.8786 52.0314C28.8786 52.6652 28.8684 53.2991 28.8786 53.9312C28.8887 54.4668 28.6718 54.7989 28.1108 54.7888C27.577 54.7888 27.4702 54.399 27.4719 53.9549L27.4736 49.2045ZM28.8548 47.242C28.8322 47.7063 28.8384 48.1716 28.8735 48.6351C28.8972 48.8198 29.126 49.118 29.2769 49.1265C30.0137 49.1926 30.755 49.1926 31.4919 49.1265C31.9532 49.0907 32.3839 48.8821 32.6981 48.5425C33.0123 48.2029 33.1868 47.7572 33.1867 47.2945C33.2053 46.3726 32.5511 45.6184 31.541 45.4201C31.2912 45.3796 31.0383 45.3604 30.7852 45.3625C28.8819 45.3235 28.8802 45.3252 28.8548 47.242Z" fill="white"/>
<path d="M66.1364 52.0204C66.1364 52.717 66.1495 53.4135 66.1364 54.1101C66.1226 54.6897 65.8681 54.9015 65.3801 54.6185C64.7192 54.2372 64.1937 54.3083 63.5163 54.6185C62.4772 55.1015 61.4263 54.849 60.5333 54.1677C59.2639 53.1999 59.3622 51.4018 60.7028 50.5138C61.6131 49.9104 62.6449 49.8833 63.6886 49.8765C64.028 49.8765 64.3515 49.7443 64.6823 49.6732C64.5462 49.3342 64.4686 48.9529 64.2634 48.6563C63.8399 48.0547 63.1586 47.9614 62.2569 48.197C61.8189 48.3043 61.3671 48.3392 60.9179 48.3004C60.8143 48.2655 60.7213 48.2046 60.6478 48.1237C60.5742 48.0427 60.5226 47.9443 60.4977 47.8377C60.4858 47.6852 60.7095 47.4497 60.8857 47.3581C61.3165 47.136 61.7663 46.9522 62.23 46.809C63.9892 46.2752 65.5682 47.126 65.9582 48.9241C66.1732 49.9223 66.1397 50.9747 66.2173 52.0018L66.1364 52.0204ZM62.7469 53.4051C63.1737 53.2457 63.8057 53.0661 64.3653 52.7695C64.6008 52.6424 64.8533 52.1899 64.7922 51.9695C64.731 51.813 64.6323 51.6737 64.5054 51.5633C64.3785 51.453 64.2272 51.3749 64.0635 51.3357C63.4196 51.2796 62.7705 51.3306 62.1431 51.4866C61.6144 51.6255 60.9567 51.9136 61.1146 52.6356C61.2691 53.3271 61.9741 53.261 62.7482 53.4084L62.7469 53.4051Z" fill="white"/>
<path d="M41.9868 52.0536C41.9868 52.7095 42.002 53.3636 41.9868 54.0178C41.9715 54.672 41.6648 54.9296 41.1241 54.5838C40.5174 54.1958 40.053 54.2941 39.4429 54.5838C38.299 55.1194 36.8702 54.7415 36.0229 53.806C35.0365 52.7162 35.5365 50.7808 37.0397 50.2775C37.8956 49.9911 38.8583 50.0249 39.7717 49.8995C40.0287 49.8503 40.2827 49.7869 40.5326 49.7097C40.4933 49.4499 40.4233 49.1956 40.3242 48.9522C39.9005 48.1675 39.1582 47.9353 38.2024 48.1879C37.805 48.3132 37.3904 48.3756 36.9736 48.3726C36.7584 48.3607 36.5585 48.0776 36.35 47.9184C36.5042 47.7201 36.6194 47.4303 36.8211 47.3421C37.4095 47.0591 38.0305 46.8497 38.6701 46.7185C40.1818 46.4761 41.4275 47.3608 41.797 48.8454C41.8723 49.1092 41.9194 49.3801 41.9376 49.6538C41.9563 50.4554 41.9376 51.2571 41.9376 52.0587L41.9868 52.0536ZM38.4532 53.4704C39.0514 53.2382 39.6751 53.0518 40.2344 52.7485C40.4564 52.6281 40.6937 52.2129 40.6445 51.996C40.5852 51.7367 40.2412 51.3774 39.9954 51.357C39.3341 51.2905 38.6665 51.33 38.0176 51.474C37.4855 51.6028 36.9042 51.8943 36.9432 52.6163C36.9686 53.0705 37.5991 53.3603 38.4532 53.4738V53.4704Z" fill="white"/>
<path d="M80.1576 50.6835C80.1576 49.6056 80.1458 48.5278 80.1576 47.4499C80.1576 46.789 80.466 46.5907 81.0487 46.8974C81.2625 47.0281 81.5045 47.106 81.7544 47.1249C82.0043 47.1438 82.2549 47.103 82.4863 47.0059C84.8302 46.0992 86.5638 47.1483 86.769 49.6514C86.8893 51.1225 86.8314 52.6071 86.8538 54.0849C86.8538 54.651 86.4941 54.7103 86.0449 54.7171C85.5957 54.7239 85.3451 54.5476 85.3504 54.051C85.3655 52.7207 85.3504 51.3885 85.3504 50.0582C85.3504 49.2939 85.1689 48.6058 84.4047 48.2736C84.0588 48.1098 83.6747 48.0437 83.2939 48.0826C82.9138 48.1215 82.5508 48.2636 82.2456 48.4939C81.7373 48.86 81.5676 49.3837 81.5676 49.9819C81.5676 51.2925 81.5676 52.6031 81.5676 53.9138C81.5676 54.3357 81.5676 54.7374 80.9678 54.7408C80.4016 54.7408 80.1609 54.4628 80.1609 53.9223C80.1596 52.841 80.1589 51.7614 80.1576 50.6835Z" fill="white"/>
<path d="M5.53443 49.0825C5.53443 50.4383 5.52252 51.7941 5.53443 53.1398C5.56494 55.9311 2.63636 57.2072 0.450116 56.1293C0.233184 56.0225 -0.0447522 55.6412 0.00609067 55.4853C0.0715794 55.3542 0.164005 55.2385 0.277318 55.1456C0.390632 55.0528 0.522287 54.9849 0.663655 54.9464C0.948378 54.8667 1.28733 54.9464 1.59916 54.9956C3.23292 55.226 4.07859 54.5176 4.07523 52.8873C4.07523 50.1621 4.04807 47.4352 4.03794 44.71C4.03794 43.9559 4.20742 43.8101 4.92939 43.8406C5.48188 43.8643 5.58526 44.1897 5.58355 44.644C5.58355 46.1235 5.58355 47.603 5.58355 49.0825H5.53443Z" fill="white"/>
<path d="M43.5371 51.2057C43.5371 49.2619 44.1235 48.006 45.5285 47.2603C47.0113 46.4722 48.5163 46.6349 49.9602 47.3993C50.1535 47.501 50.345 47.9077 50.289 48.0976C50.2331 48.2874 49.8586 48.5127 49.6331 48.5043C49.1349 48.4839 48.6417 48.3229 48.1451 48.2263C46.9147 47.989 45.842 48.4789 45.3132 49.5144C45.0525 50.0384 44.9697 50.633 45.0774 51.2082C45.185 51.7835 45.4772 52.308 45.9098 52.7022C46.1724 52.9507 46.4907 53.1326 46.838 53.2329C47.1853 53.3331 47.5516 53.3488 47.9062 53.2785C48.4655 53.1734 49.018 53.0039 49.5823 52.9632C49.8077 52.9463 50.1857 53.153 50.2602 53.3428C50.3348 53.5326 50.1789 53.9835 50.001 54.075C48.557 54.8105 47.0554 54.9901 45.5606 54.2292C44.1777 53.5344 43.5727 52.3378 43.5371 51.2057Z" fill="white"/>
<path d="M53.3244 49.2626C53.3244 50.8252 53.3108 52.3895 53.3328 53.9537C53.3328 54.452 53.2057 54.6841 52.6549 54.6841C52.1041 54.6841 51.9058 54.5249 51.9092 53.9571C51.9318 50.8297 51.9318 47.7023 51.9092 44.5749C51.9092 44.0224 52.099 43.8359 52.6498 43.8359C53.2006 43.8359 53.3277 44.08 53.3277 44.5698C53.3142 46.1341 53.3244 47.6983 53.3244 49.2626Z" fill="white"/>
<path d="M57.7487 54.8519C57.4097 54.618 57.0013 54.4333 56.7403 54.1197C55.9302 53.1469 55.1845 52.1216 54.4016 51.1251C54.2762 50.9952 54.2061 50.8217 54.2061 50.6412C54.2061 50.4607 54.2762 50.2873 54.4016 50.1574C55.0795 49.2676 55.7336 48.3609 56.398 47.461C56.5664 47.2152 56.7982 47.0197 57.0689 46.8952C57.3396 46.7708 57.639 46.7221 57.9351 46.7543C58.1126 46.7634 58.2812 46.8349 58.4113 46.956C58.4656 47.0204 58.3622 47.2695 58.2724 47.3932C57.6453 48.2694 57.0234 49.1473 56.3607 49.9964C55.9963 50.4642 56.0218 50.8438 56.3793 51.2979C57.0403 52.1199 57.686 52.9571 58.308 53.8079C58.452 54.0045 58.5809 54.3163 58.5198 54.518C58.4724 54.6621 58.1029 54.7095 57.7487 54.8519Z" fill="white"/>
<path d="M77.6794 50.7272C77.6794 51.8254 77.6643 52.9304 77.6794 54.0184C77.6893 54.515 77.4847 54.6844 77.0014 54.6844C76.5187 54.6844 76.2543 54.5471 76.2609 54.0065C76.2878 51.8135 76.2944 49.6188 76.2997 47.424C76.2997 46.9885 76.4457 46.7461 76.9284 46.7716C77.3795 46.7919 77.6998 46.8614 77.6827 47.4393C77.6557 48.5325 77.6794 49.6307 77.6794 50.7272Z" fill="white"/>
<path d="M77.9916 44.7755C77.9916 45.0385 77.8877 45.2906 77.7016 45.4765C77.5155 45.6625 77.2636 45.767 77.0005 45.767C76.7375 45.767 76.4856 45.6625 76.2995 45.4765C76.1134 45.2906 76.0088 45.0385 76.0088 44.7755C76.0101 44.6439 76.0371 44.5137 76.089 44.3928C76.141 44.2718 76.2166 44.1624 76.3113 44.0708C76.406 43.9793 76.5178 43.9076 76.6408 43.8598C76.7631 43.812 76.894 43.7892 77.0255 43.7926C77.284 43.7953 77.5306 43.9002 77.7121 44.0844C77.893 44.2687 77.9936 44.5172 77.9916 44.7755Z" fill="white"/>
</svg>
