<svg width="30" height="30" viewBox="0 0 30 30" fill="none" xmlns="http://www.w3.org/2000/svg">
<path d="M13.0851 15.7043V15.5703C13.1582 15.3875 13.2313 15.217 13.3166 15.0464C13.9909 13.6213 14.104 11.9946 13.6333 10.4898C13.6088 10.275 13.5183 10.0729 13.3743 9.91151C13.2303 9.75009 13.0399 9.63718 12.8292 9.58828C11.9229 9.52519 11.0239 9.78884 10.2951 10.3315V10.5508C10.3755 11.5293 10.351 12.5136 10.222 13.4869C10.1529 13.9238 10.185 14.3707 10.316 14.7932C10.447 15.2157 10.6733 15.6024 10.9774 15.9236C11.2014 16.1619 11.4711 16.3527 11.7704 16.4846C12.0697 16.6165 12.3925 16.6867 12.7196 16.6912C12.8236 16.3559 12.9456 16.0264 13.0851 15.7043ZM12.1835 10.4533C12.1151 10.3757 12.0762 10.2765 12.0739 10.1731C12.0901 10.112 12.1294 10.0595 12.1835 10.0269C12.3633 9.93356 12.5693 9.90351 12.7683 9.9416C13.0729 9.9416 13.3775 10.1365 13.3531 10.3558C13.3077 10.4765 13.2257 10.5801 13.1188 10.6521C13.0118 10.7241 12.8851 10.7611 12.7561 10.7579H12.683C12.4829 10.7263 12.3033 10.6168 12.1835 10.4533Z" fill="white"/>
<path d="M9.60055 13.4016C9.71033 12.4718 9.7348 11.5338 9.67365 10.5995V10.2583C9.62564 8.24707 10.2902 6.28358 11.5499 4.71492C10.3316 4.32505 7.40755 3.49658 5.6166 4.83675C4.5201 5.61648 4.0084 7.07848 4.11805 9.16183C4.36175 10.9818 4.76952 12.776 5.33639 14.5225C6.16485 17.2272 7.10297 18.9329 7.90707 19.2131C8.0289 19.2131 8.40659 19.3715 8.95484 18.7136C9.73457 17.7876 10.4534 16.9957 10.7823 16.6424L10.5509 16.4109C10.1693 16.0178 9.88466 15.5411 9.71969 15.0187C9.55471 14.4963 9.51392 13.9426 9.60055 13.4016ZM13.8647 17.544C13.6698 17.4709 13.5723 17.4221 13.353 17.678C13.2225 17.8091 13.1043 17.9518 12.9997 18.1044C12.5733 18.6283 12.3905 18.811 11.16 19.0669C10.9934 19.0945 10.83 19.1395 10.6727 19.2009C10.8082 19.2958 10.9615 19.3621 11.1235 19.3958C11.6687 19.5802 12.2586 19.5851 12.8068 19.4097C13.3549 19.2343 13.8324 18.8878 14.1693 18.4212C14.2008 18.3545 14.2171 18.2817 14.2171 18.208C14.2171 18.1342 14.2008 18.0614 14.1693 17.9948C14.1296 17.8109 14.0205 17.6494 13.8647 17.544ZM21.528 10.4533C21.586 10.1355 21.6186 9.81369 21.6255 9.49078C20.8214 9.39332 19.8955 9.4055 19.53 9.92938C18.8233 10.9406 20.2122 13.4382 20.7483 14.4981C20.8671 14.6856 20.9729 14.881 21.0651 15.0829C21.115 15.2139 21.1762 15.3402 21.2478 15.4606C21.5665 14.6336 21.6343 13.7309 21.4428 12.8656C21.3844 12.4417 21.3559 12.0142 21.3575 11.5863C21.3846 11.2048 21.4416 10.8259 21.528 10.4533ZM20.8458 10.2583C20.7403 10.3659 20.6041 10.4382 20.4559 10.4655H20.3828C20.267 10.4659 20.1537 10.4312 20.058 10.366C19.9623 10.3007 19.8886 10.2079 19.8467 10.1C19.8467 9.92938 20.0904 9.80755 20.3828 9.75882C20.6752 9.71008 20.9676 9.75882 20.992 9.94157C20.9864 10.0622 20.9339 10.1758 20.8458 10.2583Z" fill="white"/>
<path d="M20.7116 5.94541C21.5143 6.83792 22.0872 7.91266 22.3807 9.07653C22.3873 9.13727 22.3873 9.19853 22.3807 9.25927C22.3845 9.69223 22.3478 10.1246 22.2711 10.5507C22.213 10.8974 22.1764 11.2473 22.1614 11.5985C22.1589 12.0062 22.1875 12.4134 22.2467 12.8168C22.4928 13.9347 22.3376 15.1036 21.8081 16.1185L21.8934 16.216C24.5981 11.964 25.5484 7.02973 24.6834 5.94541C24.1293 5.2488 23.4226 4.68878 22.6178 4.30855C21.8129 3.92832 20.9315 3.73805 20.0415 3.75241C19.3744 3.74269 18.7082 3.80808 18.0557 3.94734C19.0783 4.40792 19.9856 5.09046 20.7116 5.94541Z" fill="white"/>
<path d="M26.3769 17.0568C26.2917 16.8131 25.9262 16.0212 24.586 16.3014C24.185 16.3883 23.7775 16.4413 23.3677 16.4598C24.4681 14.6 25.3123 12.6001 25.8774 10.5143C26.3282 8.74772 26.6815 6.38416 25.7434 5.17801C25.0544 4.30397 24.1721 3.60155 23.1659 3.12592C22.1597 2.65029 21.0569 2.41439 19.9441 2.43676C18.9295 2.42953 17.9194 2.57324 16.947 2.86317C16.3635 2.76071 15.7728 2.70368 15.1805 2.69261C14.1318 2.67105 13.0966 2.93196 12.1834 3.44797C11.4792 3.21484 10.7583 3.03563 10.0269 2.91191C9.15817 2.69041 8.25352 2.64747 7.3677 2.78568C6.48189 2.92389 5.63332 3.24038 4.87336 3.71601C3.36262 4.77596 2.66817 6.62782 2.79001 9.22287C3.02272 11.1524 3.43051 13.0568 4.00834 14.9125C4.35372 16.0729 4.80646 17.1987 5.36069 18.2751C5.75782 19.2651 6.52153 20.0637 7.49277 20.5046C7.84505 20.6194 8.22156 20.6381 8.58348 20.5588C8.9454 20.4796 9.27964 20.3053 9.55176 20.0539C9.87785 20.4087 10.3018 20.6588 10.7701 20.7727C11.7171 21.0336 12.7238 20.9736 13.6332 20.6021V21.589C13.6236 22.5603 13.7507 23.5283 14.0109 24.4642C14.0143 24.517 14.0143 24.5699 14.0109 24.6226C14.1733 25.1885 14.4701 25.7068 14.8759 26.1333C15.3666 26.5925 16.0196 26.8379 16.6912 26.8156C16.9783 26.8167 17.2646 26.784 17.544 26.7181C18.0736 26.6536 18.5847 26.4834 19.0472 26.2176C19.5098 25.9519 19.9142 25.5959 20.2365 25.1709C21.0618 23.6848 21.4463 21.9943 21.3452 20.2975V19.9808H21.5523C22.5517 20.05 23.5534 19.883 24.4763 19.4934C25.0246 19.2132 26.8034 18.2751 26.3769 17.0568ZM24.1718 18.8477C23.475 19.1283 22.7299 19.269 21.9788 19.2619C21.6536 19.271 21.3289 19.2299 21.0163 19.1401C20.8944 20.2853 20.6264 22.4174 20.468 23.3068C20.4213 24.0244 20.1191 24.7014 19.6162 25.2155C19.1134 25.7295 18.4431 26.0464 17.7268 26.109C17.4624 26.1652 17.1929 26.1938 16.9227 26.1943C16.3922 26.1819 15.8803 25.9967 15.4647 25.6669C15.0491 25.337 14.7525 24.8805 14.62 24.3668C14.3063 22.7379 14.1917 21.0769 14.2789 19.4203C13.6858 19.9564 12.9095 20.2442 12.1103 20.2244C11.7236 20.2173 11.3391 20.1641 10.965 20.066C10.8554 20.066 9.90507 19.7858 9.91726 19.1767C9.92944 18.5675 10.7214 18.4578 11.0138 18.3969C12.0615 18.1776 12.1346 18.0923 12.4636 17.6781C12.5357 17.5768 12.613 17.4792 12.6951 17.3857C12.2224 17.368 11.7599 17.243 11.3427 17.0202C11.0625 17.3248 10.2949 18.1533 9.46647 19.1401C9.3159 19.364 9.11536 19.5499 8.88068 19.6831C8.646 19.8163 8.38358 19.8932 8.11412 19.9077C7.97275 19.9285 7.82908 19.9285 7.68771 19.9077C6.61557 19.4934 5.60436 17.7268 4.67842 14.6201C4.10213 12.8221 3.69426 10.9745 3.46009 9.10104C3.33826 6.76184 3.94742 5.10491 5.25104 4.22771C7.59024 2.57077 11.3427 3.85002 12.1955 4.15461C13.0633 3.57991 14.0922 3.29812 15.1317 3.35051C15.7073 3.35137 16.2804 3.42506 16.8374 3.56981C17.8177 3.23593 18.8477 3.07114 19.8832 3.08247C20.8891 3.05482 21.8877 3.26041 22.8008 3.68315C23.7139 4.10589 24.5167 4.73429 25.1464 5.51914C25.9871 6.59127 25.4266 9.17414 25.1464 10.2585C24.5221 12.5968 23.5311 14.8215 22.2102 16.8496C22.4052 16.9837 23.0022 17.2273 24.6469 16.8496C25.2073 16.7278 25.5363 16.8496 25.6459 17.1542C25.914 17.8243 24.7931 18.5309 24.1718 18.8233V18.8477Z" fill="white"/>
<path d="M21.2357 16.5571C20.9252 16.1904 20.6707 15.7799 20.4803 15.3388C20.4803 15.2535 20.3341 15.0464 20.2001 14.8149C19.4935 13.5965 18.0193 10.8918 18.9818 9.52731C19.3058 9.18276 19.7167 8.9319 20.1712 8.80112C20.6257 8.67034 21.1071 8.66447 21.5646 8.78412C21.251 7.92019 20.7846 7.11963 20.1879 6.42056C19.5791 5.67046 18.8127 5.06338 17.9432 4.64231C17.0737 4.22123 16.1222 3.99646 15.1562 3.98389C14.5861 3.94796 14.0149 4.03245 13.4796 4.23186C12.9444 4.43127 12.4571 4.74114 12.0495 5.14131C11.0121 6.36335 10.4195 7.90082 10.3682 9.50294L10.5509 9.40547C11.0574 9.13225 11.6116 8.95856 12.1835 8.89377C12.4201 8.83896 12.6655 8.83354 12.9044 8.87786C13.1432 8.92217 13.3704 9.01527 13.5716 9.15134C13.7728 9.2874 13.9439 9.4635 14.074 9.66864C14.2041 9.87378 14.2905 10.1036 14.3277 10.3436C14.8286 11.9913 14.7028 13.766 13.9744 15.3266C13.8942 15.4799 13.825 15.6386 13.7673 15.8017V15.9357C13.6455 16.2647 13.5358 16.5693 13.4627 16.8251C13.6974 16.7804 13.9403 16.8102 14.1572 16.9104C14.3404 16.9976 14.5028 17.1233 14.6331 17.2789C14.7635 17.4344 14.8588 17.6163 14.9125 17.812V18.0069C14.9181 18.0432 14.9181 18.0802 14.9125 18.1166C14.7811 20.1103 14.871 22.1125 15.1806 24.0864C15.2354 24.3442 15.3454 24.5872 15.503 24.7985C15.6606 25.0098 15.8621 25.1846 16.0935 25.3107C16.325 25.4369 16.581 25.5115 16.844 25.5294C17.1071 25.5472 17.3708 25.508 17.6172 25.4144C18.1974 25.3752 18.7421 25.1215 19.1453 24.7025C19.5485 24.2836 19.7812 23.7295 19.7981 23.1483C19.9808 22.0761 20.3463 19.0669 20.395 18.4211C20.395 17.1297 21.0286 16.8739 21.4184 16.7642L21.2357 16.5571Z" fill="white"/>
<path d="M21.9297 17.4586L21.8323 17.3855H21.6861C21.3693 17.4708 21.0769 17.5561 21.1135 18.3602C21.473 18.5028 21.8625 18.5531 22.2465 18.5064C22.8226 18.4819 23.3906 18.3625 23.9278 18.153C24.2801 17.9941 24.605 17.7803 24.8903 17.5195C23.9284 17.8568 22.877 17.8352 21.9297 17.4586Z" fill="white"/>
</svg>
