<svg width="144" height="24" viewBox="0 0 144 24" fill="none" xmlns="http://www.w3.org/2000/svg">
<g clip-path="url(#clip0_3119_1858)">
<mask id="mask0_3119_1858" style="mask-type:luminance" maskUnits="userSpaceOnUse" x="0" y="0" width="145" height="24">
<path d="M144.001 0.444824H0V23.5272H144.001V0.444824Z" fill="white"/>
</mask>
<g mask="url(#mask0_3119_1858)">
<path d="M6.71878 17.3936C6.11771 17.3936 5.51283 17.4282 4.91556 17.3936C3.14087 17.2726 1.72186 16.4907 0.702322 15.0097C0.474065 14.6793 0.158314 14.3777 0.0403817 14.0127C-0.161245 13.3884 0.420813 12.5297 1.14933 12.255C1.71997 12.036 2.44087 12.3837 2.78135 13.0695C3.14657 13.8052 3.49276 14.5506 3.85797 15.2882C4.0036 15.5938 4.22782 15.8544 4.50721 16.0425C4.7866 16.2308 5.1109 16.3398 5.44625 16.3582C6.35251 16.4467 7.26546 16.4389 8.17012 16.3351C8.70224 16.255 9.1965 16.0096 9.58432 15.6331C9.97222 15.2565 10.2345 14.7674 10.3347 14.2336C10.5078 13.081 10.0438 12.011 8.91386 11.4693C7.49677 10.7912 6.02071 10.2284 4.55035 9.66939C3.352 9.2122 2.25066 8.63586 1.37188 7.6754C0.420809 6.65541 0.287664 4.32912 1.12651 3.21488C2.24497 1.72616 3.62781 0.732986 5.59463 0.779159C6.47722 0.798337 7.36171 0.669633 8.2443 0.686902C9.53968 0.713806 10.7514 1.0711 11.7538 1.92785C12.0812 2.22152 12.3571 2.569 12.5697 2.95557C12.9502 3.63753 12.8075 4.34249 12.2559 4.72859C11.7405 5.09171 10.9415 4.95719 10.4698 4.38284C10.1472 4.03363 9.87853 3.63734 9.67279 3.20724C9.12117 1.82414 7.91903 1.62436 6.71118 1.59746C5.58892 1.57246 4.5085 1.83369 3.87319 2.96711C3.65083 3.32159 3.55216 3.74105 3.59282 4.1587C3.63348 4.57635 3.81117 4.96828 4.09764 5.27231C4.62263 5.8612 5.26158 6.3352 5.97505 6.66496C7.55573 7.37573 9.20865 7.90972 10.8122 8.58596C13.2831 9.64058 14.5956 11.7095 13.2964 14.5909C13.1773 14.85 13.0152 15.0865 12.8171 15.2901C11.4589 16.6829 9.88582 17.5838 7.85816 17.4263C7.47773 17.3975 7.09731 17.4263 6.71688 17.4263L6.71878 17.3936Z" fill="white"/>
<path d="M65.3794 1.03897C66.6825 1.12732 67.3824 1.77083 67.8884 2.94261C68.712 4.84443 70.9869 9.49319 72.1397 11.6504C72.201 11.7651 72.2927 11.8604 72.4045 11.9254C72.5164 11.9904 72.644 12.0226 72.7731 12.0184C72.9021 12.0142 73.0274 11.9738 73.1349 11.9016C73.2424 11.8295 73.3279 11.7285 73.3818 11.6101L73.4046 11.564C73.7622 10.7956 74.0533 9.98873 74.4165 9.22033C75.2135 7.53565 77.5722 2.56613 78.0306 1.81891C78.0596 1.77201 78.0956 1.72993 78.1371 1.69403C78.2294 1.62059 78.3386 1.57214 78.4546 1.55315C78.5705 1.53406 78.6894 1.54524 78.7999 1.58532C78.9104 1.62549 79.009 1.69339 79.0864 1.78265C79.1638 1.8719 79.2174 1.97952 79.2423 2.0955C79.2635 2.18612 79.28 2.27783 79.2917 2.37017C79.3164 2.56232 79.1794 2.79282 79.0863 2.99069C78.4909 4.23546 73.1478 17.9166 69.2142 22.5443C69.1863 22.5756 69.1564 22.6051 69.1248 22.6326C67.8998 23.6738 65.9862 23.8351 64.7651 22.9649C64.1146 22.5039 63.8635 21.8642 64.1298 21.3436C64.4379 20.7328 65.4404 20.3082 66.0605 20.5234C68.1984 21.2668 69.6117 20.5464 70.462 18.3661C70.8424 17.3941 70.7378 16.5508 70.2718 15.6364C68.9916 13.0911 64.8107 4.64074 64.008 2.95797C63.8178 2.57377 63.6752 1.89572 63.8749 1.6325C64.1183 1.31746 65.2844 1.03125 65.3794 1.03897Z" fill="white"/>
<path d="M22.4031 0.963474C24.174 1.00956 24.3052 1.15553 24.9367 2.7864C26.0247 5.59296 27.1831 8.37071 28.2997 11.1638C28.606 11.9322 28.8304 12.7313 29.1785 13.4689C29.1899 13.4939 29.2032 13.517 29.2165 13.54C29.2854 13.6385 29.3793 13.7163 29.4884 13.7653C29.5975 13.8143 29.7176 13.8326 29.8362 13.8182C29.9547 13.8039 30.0672 13.7573 30.1617 13.6837C30.2562 13.6101 30.3292 13.5119 30.373 13.3998L30.4035 13.3191C30.8143 12.1665 31.1643 10.9832 31.5999 9.83253C32.0545 8.62039 32.6195 7.44861 33.0436 6.22693C33.3822 5.25103 33.4773 4.23676 32.842 3.29549C32.7194 3.11061 32.624 2.90874 32.5586 2.69615C32.26 1.73569 32.8077 0.713705 33.7208 0.517742C34.4398 0.366043 35.4023 1.14789 35.467 2.02764C35.5388 2.6317 35.4989 3.24404 35.349 3.83339C34.9096 5.24912 34.3675 6.63413 33.8463 8.02305C33.4926 8.96814 33.1045 9.89788 32.7336 10.8372C32.0222 12.6275 31.288 14.4102 30.6146 16.216C30.3483 16.9286 30.044 17.4511 29.1861 17.4933C28.235 17.5414 27.3676 17.4454 26.9339 16.4772C26.1484 14.7138 25.4236 12.9234 24.6609 11.1504C23.9362 9.46568 23.1944 7.78864 22.4583 6.10968C21.8876 4.80538 21.2922 3.51254 20.7463 2.1967C20.3658 1.27078 20.6227 0.934662 21.6403 0.919301C21.8971 0.909667 22.1501 0.951931 22.4031 0.963474Z" fill="white"/>
<path d="M48.5897 10.8354C48.5897 12.5527 48.5897 14.2694 48.5897 15.9855C48.5897 17.1919 48.371 17.4128 47.1518 17.4704C46.9292 17.482 46.7085 17.4896 46.486 17.482C45.2249 17.4474 44.9643 17.1689 44.9472 15.8798C44.9167 11.431 44.8888 6.98125 44.8635 2.531C44.8635 1.91057 44.7076 1.12108 45.5216 0.932848C46.37 0.740702 47.3001 0.598547 48.0287 1.33432C48.9245 2.23715 48.8751 2.20451 49.811 1.24597C50.4881 0.55628 51.4373 0.431395 52.3674 0.446756C53.853 0.469843 55.0837 0.973109 55.7741 2.41575C56.1546 3.22259 55.8312 4.40592 55.0722 4.84202C54.781 5.00362 54.4411 5.05161 54.1171 4.9769C53.7931 4.90219 53.5076 4.70995 53.3147 4.43664C53.0617 4.07171 52.8525 3.66824 52.5995 3.31285C51.481 1.7127 50.2979 2.06045 49.1985 3.5319C48.7667 4.10815 48.6545 5.01489 48.6164 5.78329C48.5308 7.46407 48.5879 9.15075 48.5897 10.8354Z" fill="white"/>
<path d="M133.475 7.65999C135.395 7.65999 136.519 8.65317 136.498 10.382C136.487 11.9515 135.039 12.9196 133.529 13.0137C131.891 13.1175 130.747 11.8976 130.622 10.3897C130.496 8.88176 131.853 7.35651 133.475 7.65999ZM133.532 8.58209C132.323 8.57246 131.665 9.20834 131.678 10.3724C131.678 11.0601 132.881 12.2396 133.549 12.2223C134.12 12.207 135.431 10.8777 135.427 10.3225C135.419 9.4273 134.507 8.58782 133.532 8.58209Z" fill="white"/>
<path d="M143.915 9.39064C143.915 10.2109 143.961 11.0351 143.888 11.8495C143.866 12.128 143.563 12.5757 143.352 12.5987C142.965 12.6242 142.584 12.4937 142.292 12.2356C141.901 11.8514 141.684 11.2752 141.322 10.841C141.132 10.6124 140.789 10.5106 140.516 10.3512C140.37 10.6356 140.243 10.9294 140.135 11.2309C140.086 11.4019 140.219 11.6344 140.155 11.79C140.029 12.015 139.876 12.2234 139.699 12.4104C139.491 12.2489 139.294 12.073 139.108 11.8841C139.04 11.8073 139.067 11.6401 139.067 11.5152C139.067 10.6637 139.067 9.81201 139.067 8.96035C139.067 8.48208 139.021 7.88655 139.612 7.80775C139.899 7.7694 140.293 8.13051 140.563 8.39373C141.161 8.98344 141.689 9.64422 142.287 10.234C142.427 10.3704 142.82 10.4414 142.947 10.3454C143.075 10.2494 143.105 9.89972 143.085 9.67113C143.057 9.32919 142.856 8.98344 142.895 8.66259C142.931 8.41863 143.234 8.21313 143.418 7.99026C143.609 8.2054 143.845 8.39373 143.946 8.63959C144.047 8.88546 143.963 9.13904 143.963 9.39263L143.915 9.39064Z" fill="white"/>
<path d="M92.4313 9.24451C92.3854 10.205 92.389 11.031 92.2792 11.8436C92.2405 12.1298 91.9633 12.5505 91.7275 12.6004C91.5511 12.6236 91.372 12.6071 91.2028 12.5523C91.0327 12.4976 90.8779 12.4058 90.7474 12.2835C90.3289 11.8206 90.0706 11.2173 89.6825 10.7237C89.5908 10.612 89.4777 10.5204 89.3498 10.4543C89.2219 10.3882 89.082 10.3491 88.9388 10.3395C88.8057 10.3395 88.6193 10.7544 88.5735 11.0042C88.5279 11.2539 88.6743 11.5804 88.6116 11.8475C88.5488 12.1144 88.3224 12.2835 88.1685 12.4986C87.9551 12.3462 87.7563 12.1739 87.575 11.9838C87.4913 11.8801 87.5159 11.6784 87.5159 11.5209C87.5159 10.6084 87.4741 9.69215 87.5465 8.78351C87.575 8.43385 87.8678 8.10345 88.0409 7.76343C88.3396 7.95557 88.6877 8.08809 88.9311 8.33977C89.5474 8.95256 90.103 9.6268 90.715 10.2453C90.841 10.3721 91.2118 10.4625 91.2856 10.3875C91.4386 10.206 91.5214 9.97455 91.5178 9.73633C91.5178 9.42702 91.3108 9.10045 91.3621 8.81232C91.4134 8.52419 91.678 8.27442 91.849 8.00738C92.065 8.22588 92.2567 8.46811 92.4196 8.7297C92.4664 8.89758 92.47 9.07463 92.4313 9.24451Z" fill="white"/>
<path d="M109.446 10.1231C109.446 10.0924 109.446 10.0597 109.446 10.029C109.241 7.24932 110.036 7.64697 112.084 7.69305C113.264 7.71805 113.775 8.70731 113.442 9.84646C113.323 10.2576 113.442 10.7475 113.485 11.1912C113.513 11.4352 113.711 11.6714 113.702 11.9058C113.692 12.1401 113.553 12.436 113.387 12.507C113.222 12.5781 112.91 12.4148 112.774 12.2573C112.41 11.8328 112.101 11.3564 111.776 10.8973C111.451 10.4382 111.318 10.0481 111.991 9.77347C112.391 9.61023 112.689 9.19722 112.354 8.89755C112.065 8.63823 111.495 8.55943 111.08 8.62087C110.983 8.63342 110.892 8.67232 110.815 8.7334C110.739 8.79439 110.68 8.87528 110.645 8.96745C110.611 9.05961 110.602 9.1595 110.619 9.25648C110.636 9.35346 110.679 9.44381 110.743 9.51798C111.428 10.4324 110.578 11.1988 110.542 12.0383C110.542 12.1728 110.085 12.4436 109.994 12.3899C109.759 12.2496 109.488 11.9807 109.448 11.7309C109.364 11.2047 109.424 10.6571 109.424 10.1173L109.446 10.1231Z" fill="white"/>
<path d="M95.3271 9.91159C95.2956 9.50013 95.3019 9.08648 95.3487 8.67637C95.3982 8.41706 95.6412 8.19419 95.7987 7.95605C95.9688 8.18274 96.2406 8.39206 96.282 8.63992C96.3261 9.11374 96.3315 9.59056 96.2973 10.0653C96.2973 10.192 96.2973 10.3208 96.2973 10.4495C96.3261 11.264 96.9876 12.0842 97.6077 12.0765C98.2278 12.0688 99.063 10.9469 99.0234 10.242C98.9703 9.70545 98.9703 9.16492 99.0234 8.62838C99.0576 8.38634 99.3754 8.18465 99.5635 7.9656C99.7426 8.18083 100.054 8.38824 100.073 8.61684C100.146 9.40769 100.149 10.2034 100.085 10.995C99.9667 12.3128 98.2584 13.3405 96.9939 12.916C95.3919 12.3685 95.2947 12.1937 95.3271 9.91159Z" fill="white"/>
<path d="M122.169 7.67501C122.608 7.65384 123.048 7.65965 123.486 7.69228C123.585 7.71991 123.677 7.76845 123.756 7.83462C123.836 7.90088 123.899 7.98332 123.945 8.07648C123.987 8.16101 123.812 8.46068 123.681 8.49913C122.54 8.88333 122.685 9.82461 122.729 10.7102C122.741 11.0252 122.893 11.3652 122.811 11.6456C122.729 11.9261 122.431 12.1336 122.241 12.3738C122.02 12.1509 121.651 11.9511 121.607 11.6975C121.535 11.1633 121.545 10.621 121.636 10.0896C121.74 9.3636 121.561 8.86606 120.833 8.58557C120.623 8.50486 120.495 8.21482 120.329 8.01886C120.567 7.89597 120.793 7.70574 121.042 7.66547C121.422 7.62848 121.803 7.62266 122.183 7.64811L122.169 7.67501Z" fill="white"/>
<path d="M102.642 8.02899C102.919 7.91183 103.192 7.71005 103.475 7.69468C104.291 7.64669 105.109 7.64669 105.927 7.69468C106.151 7.70814 106.362 7.95409 106.577 8.09234C106.405 8.24985 106.25 8.5188 106.062 8.5438C105.192 8.66287 105.008 9.21422 105.046 9.96535C105.106 10.5306 105.117 11.1 105.08 11.6673C105.04 11.9823 104.751 12.2685 104.574 12.5663C104.384 12.2763 104.129 12.0073 104.055 11.6923C103.969 11.335 104.055 10.9393 104.072 10.5608C104.129 9.50234 104.188 8.44773 102.573 8.3652L102.642 8.02899Z" fill="white"/>
<path d="M126.927 10.2511C126.901 9.67927 126.908 9.10647 126.95 8.53558C126.975 8.31853 127.26 8.13411 127.426 7.93433C127.595 8.12647 127.904 8.31852 127.913 8.51067C127.966 9.65427 127.972 10.7979 127.93 11.9415C127.93 12.1509 127.616 12.3488 127.449 12.5524C127.275 12.3603 126.979 12.1682 126.95 11.9587C126.907 11.3906 126.9 10.8202 126.927 10.2511Z" fill="white"/>
<path d="M116.432 10.1877C116.405 9.62105 116.414 9.05325 116.457 8.48763C116.481 8.29557 116.783 8.1227 116.959 7.94019C117.104 8.1207 117.364 8.29557 117.374 8.4819C117.427 9.61523 117.451 10.7525 117.413 11.8858C117.413 12.1202 117.089 12.345 116.913 12.5755C116.742 12.3469 116.457 12.1337 116.424 11.8877C116.379 11.3223 116.37 10.7543 116.4 10.1877H116.432Z" fill="white"/>
</g>
</g>
<defs>
<clipPath id="clip0_3119_1858">
<rect width="144.001" height="24.0002" fill="white"/>
</clipPath>
</defs>
</svg>
