<svg width="30" height="30" viewBox="0 0 30 30" fill="none" xmlns="http://www.w3.org/2000/svg">
<path d="M14.6113 4.27515C14.1715 4.27515 13.728 4.36408 13.3126 4.53952L4.24331 8.34925C3.73161 8.56368 3.74501 9.28493 4.25549 9.49936L13.3747 13.169C14.1727 13.4979 15.067 13.4979 15.8662 13.169L24.9854 9.49936C25.4959 9.29712 25.4959 8.56368 24.9976 8.34925L15.9028 4.53952C15.4945 4.36516 15.0552 4.27523 14.6113 4.27515ZM26.194 10.5544C26.1166 10.5554 26.0401 10.5711 25.9686 10.6007L15.8041 14.5981C15.6887 14.6452 15.5902 14.726 15.5213 14.8298C15.4525 14.9337 15.4164 15.0558 15.4179 15.1804V24.3533C15.4197 24.453 15.445 24.5509 15.4918 24.6389C15.5386 24.727 15.6055 24.8028 15.6871 24.8601C15.769 24.9155 15.8632 24.95 15.9615 24.9609C16.0598 24.9717 16.1592 24.9584 16.2512 24.9222L26.417 20.9115C26.532 20.8681 26.6308 20.7903 26.6999 20.6887C26.769 20.5871 26.8051 20.4666 26.8032 20.3437V11.1697C26.8035 11.0889 26.7877 11.0088 26.7568 10.9341C26.7258 10.8594 26.6803 10.7917 26.6229 10.7348C26.5094 10.6203 26.3552 10.5554 26.194 10.5544ZM3.12244 10.5946C3.03209 10.5912 2.94203 10.6068 2.85808 10.6404C2.77413 10.6739 2.69817 10.7248 2.63511 10.7896C2.51625 10.8976 2.44487 11.0483 2.43652 11.2087V19.8235C2.43652 20.2792 2.96041 20.5838 3.3588 20.3803L13.0506 15.6483C13.5234 15.4217 13.4868 14.7126 12.9885 14.5225L3.33322 10.6385C3.26612 10.6115 3.19475 10.5966 3.12244 10.5946Z" fill="white"/>
</svg>
