<svg width="100" height="27" viewBox="0 0 100 27" fill="none" xmlns="http://www.w3.org/2000/svg">
<mask id="path-1-inside-1_3230_859" fill="white">
<path d="M11.3682 10.6626C11.3482 10.9262 11.3461 11.1908 11.362 11.4547C11.3659 11.5118 11.3802 11.5826 11.3888 11.6602C11.3978 11.739 11.3997 11.8184 11.3944 11.8975C11.3869 12.0676 11.3254 12.2307 11.2187 12.3632C10.9904 12.6178 10.6777 12.6873 10.3935 12.6948C10.1093 12.7022 9.83369 12.6297 9.56543 12.5658C9.8405 12.5875 10.119 12.6104 10.3815 12.5658C10.644 12.5213 10.8951 12.3986 11.0092 12.2097C11.063 12.1145 11.0846 12.0044 11.0709 11.8959C11.0647 11.8379 11.0537 11.7807 11.0378 11.7247C11.0224 11.6676 10.9995 11.6071 10.9807 11.5255C10.9171 11.2436 10.8733 10.9575 10.8494 10.6695L11.3682 10.6626Z"/>
</mask>
<path d="M11.3682 10.6626C11.3482 10.9262 11.3461 11.1908 11.362 11.4547C11.3659 11.5118 11.3802 11.5826 11.3888 11.6602C11.3978 11.739 11.3997 11.8184 11.3944 11.8975C11.3869 12.0676 11.3254 12.2307 11.2187 12.3632C10.9904 12.6178 10.6777 12.6873 10.3935 12.6948C10.1093 12.7022 9.83369 12.6297 9.56543 12.5658C9.8405 12.5875 10.119 12.6104 10.3815 12.5658C10.644 12.5213 10.8951 12.3986 11.0092 12.2097C11.063 12.1145 11.0846 12.0044 11.0709 11.8959C11.0647 11.8379 11.0537 11.7807 11.0378 11.7247C11.0224 11.6676 10.9995 11.6071 10.9807 11.5255C10.9171 11.2436 10.8733 10.9575 10.8494 10.6695L11.3682 10.6626Z" fill="#7E7F82"/>
<path d="M11.3682 10.6626L12.0346 10.7133L12.09 9.98466L11.3594 9.99436L11.3682 10.6626ZM11.362 11.4547L10.6948 11.4948L10.6952 11.5008L11.362 11.4547ZM11.3888 11.6602L10.7245 11.7334L10.7249 11.7368L11.3888 11.6602ZM11.3944 11.8975L10.7276 11.8531L10.7271 11.8606L10.7268 11.8682L11.3944 11.8975ZM11.2187 12.3632L11.7163 12.8093L11.7281 12.7962L11.7392 12.7824L11.2187 12.3632ZM10.3935 12.6948L10.411 13.3628L10.411 13.3628L10.3935 12.6948ZM9.56543 12.5658L9.61787 11.8996L9.41059 13.216L9.56543 12.5658ZM10.3815 12.5658L10.4932 13.2247L10.4934 13.2247L10.3815 12.5658ZM11.0092 12.2097L11.5813 12.5552L11.5863 12.5469L11.5911 12.5384L11.0092 12.2097ZM11.0709 11.8959L10.4063 11.9672L10.4079 11.9796L11.0709 11.8959ZM11.0378 11.7247L10.3924 11.8985L10.3949 11.9072L11.0378 11.7247ZM10.9807 11.5255L10.3287 11.6725L10.3295 11.6759L10.9807 11.5255ZM10.8494 10.6695L10.8406 10.0012L10.1243 10.0107L10.1834 10.7246L10.8494 10.6695ZM11.3682 10.6626L10.7019 10.6119C10.6795 10.9058 10.6772 11.2007 10.6949 11.4948L11.362 11.4547L12.0291 11.4147C12.015 11.1809 12.0169 10.9467 12.0346 10.7133L11.3682 10.6626ZM11.362 11.4547L10.6952 11.5008C10.6993 11.5596 10.7079 11.6168 10.7126 11.6481C10.7185 11.6877 10.7219 11.7101 10.7245 11.7334L11.3888 11.6602L12.053 11.5869C12.047 11.5326 12.039 11.4809 12.0346 11.4514C12.029 11.4137 12.0285 11.407 12.0287 11.4087L11.362 11.4547ZM11.3888 11.6602L10.7249 11.7368C10.7293 11.7751 10.7302 11.814 10.7276 11.8531L11.3944 11.8975L12.0612 11.942C12.0692 11.8228 12.0664 11.7028 12.0526 11.5836L11.3888 11.6602ZM11.3944 11.8975L10.7268 11.8682C10.7256 11.896 10.7155 11.9225 10.6982 11.944L11.2187 12.3632L11.7392 12.7824C11.9353 12.5389 12.0483 12.2391 12.0621 11.9269L11.3944 11.8975ZM11.2187 12.3632L10.7211 11.9171C10.6698 11.9743 10.5776 12.0214 10.3761 12.0267L10.3935 12.6948L10.411 13.3628C10.7778 13.3533 11.3111 13.2612 11.7163 12.8093L11.2187 12.3632ZM10.3935 12.6948L10.3761 12.0267C10.1984 12.0313 10.0186 11.9868 9.72027 11.9157L9.56543 12.5658L9.41059 13.216C9.64874 13.2727 10.0202 13.373 10.411 13.3628L10.3935 12.6948ZM9.56543 12.5658L9.51299 13.2321C9.76868 13.2522 10.1338 13.2857 10.4932 13.2247L10.3815 12.5658L10.2698 11.907C10.1041 11.935 9.91232 11.9228 9.61787 11.8996L9.56543 12.5658ZM10.3815 12.5658L10.4934 13.2247C10.8416 13.1656 11.322 12.9846 11.5813 12.5552L11.0092 12.2097L10.4371 11.8643C10.458 11.8297 10.4696 11.8342 10.4313 11.855C10.3956 11.8745 10.3393 11.8951 10.2696 11.907L10.3815 12.5658ZM11.0092 12.2097L11.5911 12.5384C11.7158 12.3177 11.7656 12.063 11.7339 11.8122L11.0709 11.8959L10.4079 11.9796C10.4036 11.9458 10.4103 11.9112 10.4274 11.881L11.0092 12.2097ZM11.0709 11.8959L11.7354 11.8246C11.7252 11.7297 11.7071 11.6352 11.6806 11.5421L11.0378 11.7247L10.3949 11.9072C10.4002 11.9261 10.4042 11.9461 10.4064 11.9672L11.0709 11.8959ZM11.0378 11.7247L11.6831 11.5509C11.6763 11.5256 11.6694 11.5027 11.6638 11.4847C11.6611 11.4757 11.6583 11.4667 11.6559 11.4592C11.6534 11.4512 11.6513 11.4444 11.6492 11.4376C11.6412 11.4115 11.6361 11.3933 11.6318 11.3751L10.9807 11.5255L10.3295 11.6759C10.3442 11.7393 10.3599 11.7922 10.3718 11.8309C10.3861 11.8775 10.3889 11.8852 10.3925 11.8985L11.0378 11.7247ZM10.9807 11.5255L11.6326 11.3786C11.5759 11.1269 11.5368 10.8715 11.5155 10.6143L10.8494 10.6695L10.1834 10.7246C10.2098 11.0435 10.2584 11.3602 10.3287 11.6725L10.9807 11.5255ZM10.8494 10.6695L10.8583 11.3377L11.3771 11.3308L11.3682 10.6626L11.3594 9.99436L10.8406 10.0012L10.8494 10.6695Z" fill="#7E7F82" mask="url(#path-1-inside-1_3230_859)"/>
<path d="M10.0781 19.2522C10.9847 19.2522 11.7197 19.9872 11.7197 20.8938C11.7197 21.8004 10.9847 22.5354 10.0781 22.5354C9.17157 22.5353 8.43652 21.8003 8.43652 20.8938C8.43658 19.9873 9.17162 19.2523 10.0781 19.2522Z" fill="#7E7F82" stroke="#7E7F82" stroke-width="0.6683"/>
<path d="M3.29688 8.81763C3.33011 8.81764 3.36229 8.83129 3.38574 8.85474C3.40891 8.87807 3.42177 8.90969 3.42188 8.94263V12.345C3.42191 12.886 3.57423 13.418 3.86914 13.9553L4.00391 14.1858C4.96363 15.7323 6.72609 16.6829 8.59961 16.6829H11.0859C12.9593 16.6828 14.7208 15.7327 15.6807 14.1848C16.0637 13.5691 16.2636 12.9633 16.2637 12.345V9.01978C16.2637 8.98669 16.2772 8.95447 16.3008 8.93091C16.3241 8.9077 16.3557 8.89484 16.3887 8.89478C16.4218 8.89478 16.4541 8.90747 16.4775 8.93091C16.5009 8.95434 16.5137 8.9866 16.5137 9.01978V12.3411C16.5137 12.9878 16.3183 13.6299 15.8945 14.3137C15.7293 14.5779 15.5411 14.8278 15.332 15.0588L14.8271 15.6165H15.627L15.667 15.6067C15.7939 15.5745 15.9265 15.5683 16.0557 15.5901V15.5911C16.5481 15.6757 17.0507 15.6744 17.542 15.5901C17.2734 15.9679 16.9233 16.4079 16.5361 16.7405L16.3398 16.8967L16.335 16.9006C16.2919 16.9335 16.2537 16.9718 16.2188 17.0129C16.0675 17.1229 15.9153 17.2387 15.7646 17.3655C15.5894 17.5073 15.4282 17.6654 15.2822 17.8372L14.6084 18.6301L15.6172 18.3772C15.6199 18.3765 15.6235 18.3761 15.6367 18.3733C15.6473 18.3711 15.6662 18.367 15.6865 18.3616L15.6855 18.3606C15.6949 18.3583 15.7026 18.3577 15.7061 18.3567C15.7112 18.3552 15.7133 18.3542 15.7148 18.3538C15.7277 18.351 15.7392 18.3489 15.7471 18.3469C15.753 18.3454 15.7568 18.3438 15.7598 18.343C15.765 18.3422 15.7702 18.3421 15.7754 18.3411L15.7764 18.342C16.1053 18.2721 16.953 18.1945 17.792 18.9719C18.0575 19.2732 18.2438 19.6361 18.334 20.0276L18.335 20.0305C18.6924 21.5233 19.0324 23.7869 19.2119 25.0569V25.0579C19.2215 25.1278 19.2162 25.1989 19.1963 25.2668C19.1863 25.3008 19.1731 25.3336 19.1562 25.3645L19.0967 25.4514C19.0507 25.505 18.9936 25.5483 18.9297 25.5784C18.8975 25.5935 18.8635 25.6046 18.8291 25.6125L18.7246 25.6262L9.82324 25.7473H9.63086L7.7998 25.7229L8.46484 24.8674C8.53347 24.7791 8.58385 24.6779 8.61328 24.5706C8.64281 24.4628 8.65063 24.3501 8.63672 24.2395V24.2385C8.62263 24.1281 8.5876 24.0211 8.53223 23.9241H8.53125C8.5092 23.8854 8.48369 23.8492 8.45605 23.8147C8.87967 24.0503 9.34945 24.191 9.83301 24.2268L10.0801 24.2366C10.9658 24.2354 11.8151 23.8823 12.4414 23.2561C13.0676 22.63 13.4205 21.7813 13.4219 20.8958V20.8948C13.4219 20.234 13.2254 19.5878 12.8584 19.0383C12.4914 18.489 11.9697 18.0609 11.3594 17.8079C10.7489 17.5549 10.0769 17.4886 9.42871 17.6174C8.78045 17.7463 8.18416 18.0642 7.7168 18.5315C7.24954 18.9987 6.93171 19.5944 6.80273 20.2424C6.67378 20.8906 6.73935 21.5625 6.99219 22.1731C7.21311 22.7065 7.56804 23.1726 8.02051 23.5266L8.01758 23.5256C7.93659 23.5034 7.85302 23.493 7.76953 23.4954L7.68652 23.5022C7.57569 23.5162 7.46879 23.5516 7.37207 23.6067C7.29922 23.6482 7.23302 23.7006 7.17578 23.761L7.12109 23.8245L5.66699 25.7024L0.958984 25.6409C0.888181 25.6399 0.818189 25.6241 0.753906 25.594C0.689835 25.564 0.632981 25.5207 0.586914 25.467C0.540707 25.4131 0.506264 25.3495 0.486328 25.2815C0.466478 25.2136 0.461017 25.1425 0.470703 25.0725C0.650102 23.803 0.99157 21.5382 1.34863 20.0422V20.0393C1.43999 19.6423 1.6302 19.2748 1.90137 18.9709C2.70914 18.2192 3.52571 18.2644 3.88281 18.3303C3.95351 18.3521 4.02492 18.3714 4.09766 18.385L4.13672 18.3918L4.17578 18.3909H4.89648L4.42578 17.8401C4.31624 17.7118 4.19801 17.5909 4.07227 17.4788L3.94434 17.3694C3.78419 17.2346 3.6213 17.1121 3.46094 16.9963L3.45703 16.9934L3.38086 16.9397C3.36923 16.9296 3.35798 16.9193 3.3457 16.9104H3.34668C2.88242 16.5663 2.4558 16.041 2.14258 15.5999C2.70566 15.6968 3.28281 15.6837 3.8418 15.5588C3.8993 15.5469 3.95823 15.5424 4.0166 15.5461L4.02734 15.5471H4.77734L4.29199 14.9924C4.10714 14.7813 3.93966 14.5556 3.79102 14.3176H3.79004C3.36627 13.6338 3.17191 12.9916 3.17188 12.345V8.94263C3.17198 8.90965 3.18481 8.87807 3.20801 8.85474C3.23148 8.83127 3.26363 8.81763 3.29688 8.81763Z" fill="#7E7F82" stroke="#7E7F82" stroke-width="0.6683"/>
<mask id="path-5-inside-2_3230_859" fill="white">
<path d="M13.1948 13.6235C13.172 13.5979 13.1443 13.5772 13.1134 13.5623C13.0825 13.5475 13.0491 13.5389 13.0148 13.5371C12.9807 13.5352 12.9464 13.5401 12.9141 13.5515C12.8819 13.5629 12.8521 13.5806 12.8267 13.6035C12.3416 14.0378 10.6632 14.2683 9.23488 14.0971C8.38968 13.9955 7.74825 13.7633 7.49088 13.4694L7.56794 13.4551C7.78139 13.4142 7.99024 13.3516 8.19113 13.2685C7.97647 13.2339 7.75887 13.2214 7.54167 13.2308C7.32835 13.2381 7.11563 13.2584 6.90479 13.2919L6.74219 13.3176L6.79926 13.4608C6.85232 13.5887 6.91334 13.7131 6.97843 13.8363C7.04526 13.9612 7.12158 14.0809 7.20672 14.1941C7.20011 14.0909 7.18694 13.9882 7.16729 13.8866C7.63129 14.3431 8.4924 14.5337 9.17092 14.6153C9.52479 14.6567 9.88072 14.677 10.237 14.6764C11.4262 14.6764 12.6532 14.4578 13.1731 13.9916C13.2248 13.9456 13.256 13.881 13.2601 13.812C13.2642 13.743 13.2407 13.6751 13.1948 13.6235Z"/>
</mask>
<path d="M13.1948 13.6235C13.172 13.5979 13.1443 13.5772 13.1134 13.5623C13.0825 13.5475 13.0491 13.5389 13.0148 13.5371C12.9807 13.5352 12.9464 13.5401 12.9141 13.5515C12.8819 13.5629 12.8521 13.5806 12.8267 13.6035C12.3416 14.0378 10.6632 14.2683 9.23488 14.0971C8.38968 13.9955 7.74825 13.7633 7.49088 13.4694L7.56794 13.4551C7.78139 13.4142 7.99024 13.3516 8.19113 13.2685C7.97647 13.2339 7.75887 13.2214 7.54167 13.2308C7.32835 13.2381 7.11563 13.2584 6.90479 13.2919L6.74219 13.3176L6.79926 13.4608C6.85232 13.5887 6.91334 13.7131 6.97843 13.8363C7.04526 13.9612 7.12158 14.0809 7.20672 14.1941C7.20011 14.0909 7.18694 13.9882 7.16729 13.8866C7.63129 14.3431 8.4924 14.5337 9.17092 14.6153C9.52479 14.6567 9.88072 14.677 10.237 14.6764C11.4262 14.6764 12.6532 14.4578 13.1731 13.9916C13.2248 13.9456 13.256 13.881 13.2601 13.812C13.2642 13.743 13.2407 13.6751 13.1948 13.6235Z" fill="#7E7F82"/>
<path d="M13.1948 13.6235L13.6943 13.1795L13.6933 13.1784L13.1948 13.6235ZM13.0148 13.5371L12.9783 14.2044L12.9784 14.2044L13.0148 13.5371ZM12.9141 13.5515L12.6923 12.9211L12.6911 12.9215L12.9141 13.5515ZM12.8267 13.6035L13.2724 14.1014L13.2738 14.1002L12.8267 13.6035ZM9.23488 14.0971L9.15513 14.7606L9.15534 14.7606L9.23488 14.0971ZM7.49088 13.4694L7.36948 12.8122L6.21405 13.0256L6.98809 13.9096L7.49088 13.4694ZM7.56794 13.4551L7.68934 14.1123L7.6939 14.1114L7.56794 13.4551ZM8.19113 13.2685L8.4465 13.8861L10.6271 12.9844L8.29753 12.6088L8.19113 13.2685ZM7.54167 13.2308L7.56427 13.8988L7.57085 13.8985L7.54167 13.2308ZM6.90479 13.2919L7.00897 13.9521L7.00959 13.952L6.90479 13.2919ZM6.74219 13.3176L6.638 12.6575L5.81168 12.7879L6.12137 13.565L6.74219 13.3176ZM6.79926 13.4608L6.17838 13.7082L6.18202 13.717L6.79926 13.4608ZM6.97843 13.8363L6.38749 14.1485L6.38917 14.1516L6.97843 13.8363ZM7.20672 14.1941L6.6725 14.5957L8.01672 16.3841L7.87365 14.1514L7.20672 14.1941ZM7.16729 13.8866L7.63599 13.4102L6.10267 11.9016L6.51115 14.0135L7.16729 13.8866ZM9.17092 14.6153L9.09113 15.2788L9.09332 15.2791L9.17092 14.6153ZM10.237 14.6764V14.0081L10.2357 14.0081L10.237 14.6764ZM13.1731 13.9916L12.7288 13.4924L12.727 13.494L13.1731 13.9916ZM13.1948 13.6235L13.6933 13.1784C13.6116 13.0869 13.5128 13.0128 13.4029 12.96L13.1134 13.5623L12.824 14.1647C12.7758 14.1415 12.7323 14.109 12.6962 14.0685L13.1948 13.6235ZM13.1134 13.5623L13.4029 12.96C13.2923 12.9068 13.1728 12.8764 13.0513 12.8698L13.0148 13.5371L12.9784 14.2044C12.9254 14.2015 12.8728 14.1882 12.824 14.1647L13.1134 13.5623ZM13.0148 13.5371L13.0514 12.8698C12.9289 12.863 12.8068 12.8808 12.6923 12.9211L12.9141 13.5515L13.136 14.1819C13.086 14.1995 13.0325 14.2073 12.9783 14.2044L13.0148 13.5371ZM12.9141 13.5515L12.6911 12.9215C12.5766 12.9621 12.4706 13.0248 12.3795 13.1068L12.8267 13.6035L13.2738 14.1002C13.2337 14.1363 13.1871 14.1638 13.1372 14.1815L12.9141 13.5515ZM12.8267 13.6035L12.3809 13.1056C12.3631 13.1215 12.2722 13.1823 12.0564 13.2519C11.8554 13.3168 11.5956 13.3738 11.2935 13.4153C10.6884 13.4984 9.96912 13.512 9.31442 13.4335L9.23488 14.0971L9.15534 14.7606C9.929 14.8534 10.763 14.8373 11.4755 14.7394C11.8321 14.6904 12.1722 14.619 12.467 14.5239C12.7469 14.4335 13.0477 14.3026 13.2724 14.1014L12.8267 13.6035ZM9.23488 14.0971L9.31463 13.4336C8.92867 13.3872 8.60851 13.313 8.36909 13.2267C8.11378 13.1346 8.01319 13.0514 7.99367 13.0291L7.49088 13.4694L6.98809 13.9096C7.22594 14.1812 7.57475 14.3611 7.91579 14.484C8.27273 14.6127 8.69588 14.7054 9.15513 14.7606L9.23488 14.0971ZM7.49088 13.4694L7.61228 14.1265L7.68934 14.1123L7.56794 13.4551L7.44654 12.7979L7.36948 12.8122L7.49088 13.4694ZM7.56794 13.4551L7.6939 14.1114C7.95177 14.062 8.20396 13.9864 8.4465 13.8861L8.19113 13.2685L7.93575 12.651C7.77651 12.7168 7.61102 12.7664 7.44198 12.7988L7.56794 13.4551ZM8.19113 13.2685L8.29753 12.6088C8.03787 12.5669 7.77485 12.5517 7.5125 12.5632L7.54167 13.2308L7.57085 13.8985C7.7429 13.891 7.91507 13.901 8.08473 13.9283L8.19113 13.2685ZM7.54167 13.2308L7.51908 12.5629C7.27827 12.5711 7.03809 12.5941 6.79998 12.6319L6.90479 13.2919L7.00959 13.952C7.19318 13.9228 7.37844 13.9051 7.56427 13.8988L7.54167 13.2308ZM6.90479 13.2919L6.8006 12.6318L6.638 12.6575L6.74219 13.3176L6.84638 13.9777L7.00897 13.9521L6.90479 13.2919ZM6.74219 13.3176L6.12137 13.565L6.17844 13.7082L6.79926 13.4608L7.42008 13.2134L7.36301 13.0702L6.74219 13.3176ZM6.79926 13.4608L6.18202 13.717C6.24553 13.87 6.31648 14.014 6.3875 14.1485L6.97843 13.8363L7.56936 13.5242C7.51019 13.4122 7.45912 13.3073 7.41651 13.2046L6.79926 13.4608ZM6.97843 13.8363L6.38917 14.1516C6.47211 14.3066 6.56683 14.4551 6.6725 14.5957L7.20672 14.1941L7.74095 13.7926C7.67633 13.7066 7.61841 13.6158 7.56769 13.521L6.97843 13.8363ZM7.20672 14.1941L7.87365 14.1514C7.86523 14.0199 7.84846 13.8891 7.82343 13.7597L7.16729 13.8866L6.51115 14.0135C6.52542 14.0872 6.53498 14.1619 6.53979 14.2369L7.20672 14.1941ZM7.16729 13.8866L6.69859 14.363C7.03667 14.6956 7.48016 14.8981 7.88446 15.0279C8.29749 15.1604 8.72794 15.2351 9.09113 15.2788L9.17092 14.6153L9.25072 13.9518C8.93538 13.9139 8.59602 13.8525 8.29287 13.7552C7.98098 13.6551 7.76192 13.5341 7.63599 13.4102L7.16729 13.8866ZM9.17092 14.6153L9.09332 15.2791C9.47338 15.3235 9.85565 15.3454 10.2382 15.3447L10.237 14.6764L10.2357 14.0081C9.9058 14.0087 9.57619 13.9898 9.24852 13.9515L9.17092 14.6153ZM10.237 14.6764V15.3447C10.8684 15.3447 11.5213 15.287 12.0978 15.1619C12.651 15.0418 13.2275 14.8404 13.6193 14.4891L13.1731 13.9916L12.727 13.494C12.5988 13.6089 12.3018 13.7499 11.8143 13.8557C11.35 13.9565 10.7948 14.0081 10.237 14.0081V14.6764ZM13.1731 13.9916L13.6174 14.4908C13.8014 14.3271 13.9127 14.0971 13.9273 13.8514L13.2601 13.812L12.593 13.7726C12.5993 13.665 12.6482 13.5641 12.7288 13.4924L13.1731 13.9916ZM13.2601 13.812L13.9273 13.8514C13.9418 13.6054 13.858 13.3637 13.6943 13.1795L13.1948 13.6235L12.6952 14.0674C12.6233 13.9865 12.5866 13.8805 12.593 13.7726L13.2601 13.812Z" fill="#7E7F82" mask="url(#path-5-inside-2_3230_859)"/>
<path d="M16.7803 5.99414C17.1881 6.08389 18.5277 6.46711 19.1797 7.74023C19.3002 7.97617 19.3146 8.17877 19.2656 8.36133C19.2143 8.5521 19.0848 8.7538 18.8623 8.96094C18.4681 9.32793 17.8371 9.66144 17.0703 9.94141L16.7334 10.0576C16.4439 10.152 16.1433 10.2416 15.8369 10.3193C15.631 10.3715 15.4228 10.4198 15.2139 10.4639L14.5859 10.584C13.3863 10.7881 12.3437 10.6718 11.4023 10.5225H11.4033C11.2309 10.4944 11.0722 10.4658 10.9033 10.4375H10.9023C10.4441 10.3611 10.1246 10.3166 9.76465 10.3066C9.40798 10.2968 9.01981 10.3206 8.42285 10.3711C7.49916 10.4496 5.60119 10.68 3.82031 10.3027H3.82129C3.51521 10.2369 3.21873 10.1622 2.93457 10.0723L2.93164 10.0713C1.93406 9.76341 1.11298 9.31258 0.647461 8.70801H0.646484C0.349449 8.32167 0.303749 8.02465 0.349609 7.79785C0.398342 7.55708 0.565103 7.32216 0.830078 7.09961C1.36473 6.65075 2.16317 6.36357 2.53516 6.24902L2.53809 6.24805C2.54475 6.33271 2.56546 6.41557 2.60254 6.49219C2.64244 6.57456 2.69851 6.64859 2.76758 6.70898C2.83344 6.76657 2.91029 6.81001 2.99316 6.83887V6.83984C2.9956 6.84074 2.99918 6.84205 3.00391 6.84375V6.84277C3.16781 6.90191 4.73127 7.4481 7.0957 7.70508C7.68563 7.76955 8.27802 7.80954 8.87109 7.82617L9.46484 7.83496C11.4554 7.83496 13.8618 7.55961 16.3311 6.6416L16.3242 6.60547L16.3379 6.63867C16.4617 6.58884 16.5671 6.50427 16.6426 6.39648L16.708 6.28125C16.7488 6.18888 16.7648 6.08942 16.7627 5.99023L16.7803 5.99414ZM11.5645 0.447266C12.3209 0.29822 13.0359 0.243417 13.7842 0.620117V0.621094C14.4496 0.956984 15.0705 1.82578 15.5684 2.86816C15.9968 3.76531 16.3066 4.73037 16.4648 5.44043C16.4364 5.42118 16.4074 5.4026 16.376 5.3877C16.2554 5.33043 16.1217 5.31046 15.9912 5.32812L15.8623 5.35742L15.8535 5.36133C12.5601 6.58516 9.36785 6.57364 7.26367 6.34863H7.26465C4.9847 6.10296 3.46887 5.55884 3.45996 5.55566L3.45898 5.55664C3.37788 5.52595 3.29188 5.51016 3.20508 5.51172C3.15929 5.51255 3.1138 5.51747 3.06934 5.52734L2.93945 5.57031C2.92385 5.57727 2.90953 5.58665 2.89453 5.59473C3.03969 5.14438 3.28474 4.41277 3.5918 3.65723C3.82177 3.09137 4.08157 2.51887 4.35352 2.04297C4.63201 1.55563 4.89861 1.21455 5.12598 1.06055C5.67197 0.692431 6.3021 0.557199 6.99512 0.543945C7.69504 0.530567 8.42812 0.64072 9.18164 0.741211C9.60087 0.797054 10.0127 0.756882 10.4062 0.688477C10.7801 0.623473 11.2081 0.517484 11.5645 0.447266Z" fill="#7E7F82" stroke="#7E7F82" stroke-width="0.6683"/>
<path d="M31.7725 0.834961L34.585 14.4541H32.666L32.2734 12.4258H33.0479L32.4365 11.8486L32.0215 11.457L31.54 11.0029L31.9639 10.6396L32.2861 10.3623L32.9697 9.77539H31.9912L31.0859 3.82715L31.0654 3.41016L31.0488 3.09375H30.2295L30.2129 3.41016L30.1904 3.8291L29.2256 9.77539H28.5225L28.9766 10.3223L29.207 10.5996L29.541 11.0029L29.1221 11.4785L28.7764 11.8711L28.2871 12.4258H28.9082L28.5605 14.4541H26.7188L29.5518 0.834961H31.7725ZM31.417 10.4434L31.4941 10.959L31.2666 10.7441L31.4629 11.7578H29.7021V11.7568L29.9014 10.5957L29.7383 10.7793L29.7939 10.4434H31.417Z" fill="#7E7F82" stroke="#7E7F82" stroke-width="0.6683"/>
<path d="M38.1416 0.834961V11.9551C38.1411 12.1634 38.1806 12.3702 38.2578 12.5635L38.2598 12.5684C38.3457 12.7731 38.4931 12.9455 38.6807 13.0615L38.7637 13.1074L38.7715 13.1113C39.032 13.2338 39.318 13.2903 39.6055 13.2793V13.2803C39.6068 13.2803 39.6081 13.2793 39.6094 13.2793C39.6133 13.2791 39.6172 13.2805 39.6211 13.2803L39.6201 13.2793C39.9595 13.278 40.2652 13.2308 40.5029 13.1025L40.502 13.1016C40.7298 12.9841 40.9077 12.7888 41.001 12.5498C41.0749 12.3618 41.1138 12.1619 41.1162 11.96V0.834961H42.96V12.7373C42.96 13.2058 42.8251 13.5399 42.5859 13.7793C42.3261 14.0392 41.9495 14.2419 41.4326 14.3701C40.8345 14.5094 40.2215 14.576 39.6074 14.5684H39.5996C39.1487 14.5737 38.6986 14.5378 38.2549 14.4609L37.8135 14.3711C37.3038 14.2431 36.9311 14.0405 36.6719 13.7803C36.4333 13.5408 36.298 13.2056 36.2969 12.7363V0.834961H38.1416Z" fill="#7E7F82" stroke="#7E7F82" stroke-width="0.6683"/>
<path d="M51.4111 0.834961V2.12598H48.9688V14.4541H47.125V2.12598H44.6826V0.834961H51.4111Z" fill="#7E7F82" stroke="#7E7F82" stroke-width="0.6683"/>
<path d="M55.0781 0.834961V6.29688H58.0498V0.834961H59.8936V14.4541H58.0498V7.58691H55.0781V14.4541H53.2344V0.834961H55.0781Z" fill="#7E7F82" stroke="#7E7F82" stroke-width="0.6683"/>
<path d="M68.6514 0.834961V2.12598H64.1123V6.29688H68.1074L67.8955 7.58691H64.1123V13.1641H68.6514V14.4541H62.2686V0.834961H68.6514Z" fill="#7E7F82" stroke="#7E7F82" stroke-width="0.6683"/>
<path d="M72.5615 0.834961L75.2393 9.5127V9.93359H75.9307V0.834961H77.7734V14.4541H75.7676L73.1562 6.62109L73.1387 6.49219L73.0977 6.20508H72.4502V14.4541H70.6309V0.834961H72.5615Z" fill="#7E7F82" stroke="#7E7F82" stroke-width="0.6683"/>
<path d="M86.3213 0.834961V2.12598H83.8789V14.4541H82.0352V2.12598H79.5928V0.834961H86.3213Z" fill="#7E7F82" stroke="#7E7F82" stroke-width="0.6683"/>
<path d="M89.9844 0.834961V14.4541H88.1406V0.834961H89.9844Z" fill="#7E7F82" stroke="#7E7F82" stroke-width="0.6683"/>
<path d="M95.5029 0.669434H95.5039C96.7051 0.669434 97.5486 0.888677 98.0859 1.2749C98.5239 1.58973 98.7952 2.10402 98.8477 2.88428L98.8564 3.23486V5.98682L97.0596 6.20654V3.84229C97.0596 3.34082 96.9844 2.90758 96.7959 2.58057H96.7949C96.5553 2.16411 96.0635 2.03304 95.5264 2.03369C94.9912 2.0338 94.5048 2.18524 94.291 2.64111L94.2871 2.65088C94.1474 2.97632 94.0715 3.32509 94.0635 3.67822L94.0645 3.82959V11.7134C94.0538 12.0745 94.1522 12.4307 94.3467 12.7349L94.3506 12.7397C94.5668 13.0632 94.9331 13.1995 95.3477 13.228L95.5273 13.2339C96.0373 13.2338 96.4999 13.113 96.7568 12.7456L96.7617 12.7397C96.9422 12.4687 97.0445 12.1537 97.0586 11.8296L97.0596 11.6899V9.43994L98.8564 9.23779V12.2983C98.8564 13.031 98.5888 13.5781 98.0566 13.979C97.5149 14.387 96.7025 14.6147 95.5732 14.6147C94.4044 14.6147 93.5912 14.4112 93.0791 14.0571L92.9805 13.9849L92.8037 13.8286C92.4173 13.4473 92.2202 12.9466 92.2207 12.2993V3.22021C92.2208 2.24837 92.4883 1.62814 92.9463 1.26611C93.4252 0.888072 94.2522 0.665849 95.5029 0.669434Z" fill="#7E7F82" stroke="#7E7F82" stroke-width="0.6683"/>
<path d="M26.3075 18.439H26.1904V18.556L26.1918 25.6821V25.7991H26.3089H28.5035C28.9363 25.7991 29.2692 25.7145 29.4356 25.4937C29.5893 25.2899 29.6542 24.9721 29.6542 24.5671V19.6626C29.6741 19.3497 29.5937 19.0386 29.4244 18.7747L29.4195 18.7676C29.2466 18.5371 28.9504 18.439 28.5727 18.439H26.3075ZM28.8313 19.8066L28.8309 19.8159V24.4018C28.8309 24.7124 28.7753 24.883 28.7024 24.9587C28.6311 25.0327 28.4681 25.0895 28.1662 25.0895H27.007V19.1404H28.2583L28.2661 19.1401C28.3434 19.135 28.4209 19.1467 28.4933 19.1744C28.5636 19.2012 28.6275 19.2426 28.6808 19.2957C28.7923 19.4415 28.846 19.6235 28.8313 19.8066Z" fill="#7E7F82" stroke="#7E7F82" stroke-width="0.234037"/>
<path d="M35.3496 18.439H35.2324L35.2326 18.5562L35.2434 25.6823L35.2436 25.7991H35.3605H38.5334H38.6504V25.6821V25.2215V25.1045H38.5334H36.0641V22.0179H38.2502H38.3462L38.3649 21.9239L38.457 21.4632L38.485 21.3233H38.3423H36.0573V19.1445H38.5225H38.6395V19.0275V18.556V18.439H38.5225H35.3496Z" fill="#7E7F82" stroke="#7E7F82" stroke-width="0.234037"/>
<path d="M44.2217 19.0234V19.1404H44.3387H45.487V25.6821V25.7991H45.6041H46.1893H46.3063V25.6821V19.1445H47.4763H47.5933V19.0275V18.556V18.439H47.4763H44.3387H44.2217V18.556V19.0234Z" fill="#7E7F82" stroke="#7E7F82" stroke-width="0.234037"/>
<path d="M53.2861 18.439H53.1689L53.1691 18.5561L53.1758 25.6822L53.176 25.7991H53.2928H56.4644H56.5814V25.6821V25.2215V25.1045H56.4644H53.9952V22.0179H56.1812H56.2771L56.296 21.9239L56.3881 21.4632L56.4161 21.3233H56.2733H53.9883V19.1445H56.4576H56.5746V19.0275V18.556V18.439H56.4576H53.2861Z" fill="#7E7F82" stroke="#7E7F82" stroke-width="0.234037"/>
<path d="M62.6087 25.5398L62.61 25.5407C62.9063 25.762 63.3347 25.8634 63.8762 25.8634C64.4016 25.8634 64.8239 25.7648 65.1286 25.5524L65.1308 25.5509C65.2863 25.437 65.4105 25.2857 65.492 25.1112C65.573 24.9378 65.6091 24.7468 65.5973 24.5558V22.9339V22.7969L65.4621 22.8182L64.8768 22.9103L64.778 22.9259V23.026V24.4173L64.778 24.4213C64.7813 24.5168 64.7645 24.612 64.7289 24.7007C64.6932 24.7894 64.6394 24.8697 64.5709 24.9364C64.4434 25.0617 64.2165 25.1389 63.86 25.1389C63.5212 25.1389 63.304 25.0627 63.1787 24.9374C63.1124 24.8717 63.0599 24.7927 63.0254 24.7059C62.9907 24.6192 62.9743 24.5264 62.9771 24.433L62.9772 24.4295V19.8666L62.9771 19.8618C62.9684 19.6517 63.0329 19.4452 63.1597 19.2775C63.2637 19.1487 63.4805 19.0638 63.86 19.0638C64.2656 19.0638 64.4926 19.1481 64.5958 19.2725C64.7248 19.4445 64.7894 19.6565 64.7782 19.8714L64.778 19.8775V21.3677V21.5046L64.9132 21.4833L65.4985 21.3912L65.5973 21.3757V21.2756V19.7582C65.5973 19.2887 65.4571 18.9138 65.1556 18.6772C64.8605 18.4458 64.3975 18.342 63.8369 18.342C63.275 18.342 62.842 18.4516 62.5651 18.6933C62.287 18.936 62.1565 19.2954 62.1565 19.7461V24.5463C62.1448 24.7356 62.1796 24.9249 62.2579 25.0977C62.3367 25.2716 62.4572 25.4235 62.6087 25.5398Z" fill="#7E7F82" stroke="#7E7F82" stroke-width="0.234037"/>
<path d="M71.1738 19.0234V19.1404H71.2908H72.4376V25.6821V25.7991H72.5545H73.1413H73.2583V25.6821V19.1445H74.4284H74.5454V19.0275V18.556V18.439H74.4284H71.2908H71.1738V18.556V19.0234Z" fill="#7E7F82" stroke="#7E7F82" stroke-width="0.234037"/>
<path d="M80.2361 18.439H80.1191V18.556V25.6821V25.7991H80.2361H80.8229H80.9398V25.6821V18.556V18.439H80.8229H80.2361Z" fill="#7E7F82" stroke="#7E7F82" stroke-width="0.234037"/>
<path d="M88.0185 25.7022L88.0379 25.7944L88.1321 25.795L88.765 25.7991L88.8605 25.7997L88.8799 25.7063L90.3849 18.5802L90.415 18.439H90.2706H89.6612H89.5643L89.5462 18.5339L88.4482 24.2363L87.3281 18.5335L87.3094 18.439H87.2132H86.6278H86.4834L86.5135 18.5802L88.0185 25.7022Z" fill="#7E7F82" stroke="#7E7F82" stroke-width="0.234037"/>
<path d="M96.0798 18.439H95.9629V18.556V25.6821V25.7991H96.0798H99.2529H99.3699V25.6821V25.2215V25.1045H99.2529H96.7836V22.0179H98.9763H99.0725L99.0912 21.9239L99.1834 21.4632L99.2115 21.3233H99.0685H96.7836V19.1445H99.2529H99.3699V19.0275V18.556V18.439H99.2529H96.0798Z" fill="#7E7F82" stroke="#7E7F82" stroke-width="0.234037"/>
</svg>
