<svg width="99" height="50" viewBox="0 0 99 50" fill="none" xmlns="http://www.w3.org/2000/svg">
<path d="M24.8189 13.4829C24.8579 13.4784 24.897 13.4745 24.9362 13.4712C27.9853 13.2221 30.8097 15.0418 32.0974 17.7674C33.2528 20.2129 32.7728 23.3854 31.0016 25.4137C30.2146 26.3151 29.234 27.0904 28.381 27.9286C26.7456 29.6329 25.1717 31.3529 23.4 32.9233C22.2688 34.0365 21.2624 35.5952 19.7397 36.1959C18.5528 36.6642 17.2231 36.5357 16.065 36.0504C15.3339 35.744 14.9374 35.3945 14.3411 34.8714C13.5723 34.0227 12.7499 33.1463 11.9636 32.362C9.99835 30.4021 7.57852 28.677 6.77007 25.8932C6.43993 24.7564 6.27018 23.4602 6.63428 22.2834C6.84526 21.6423 7.20881 21.0104 7.48137 20.4003C8.31626 18.5312 10.3525 17.339 12.3557 17.2069C12.8306 17.1756 13.355 17.0452 13.8367 17.0743C14.7566 17.1298 15.7438 17.4424 16.5656 17.8554C17.1042 18.1393 17.5252 18.5735 18.0897 18.8535C19.0063 17.8465 19.9757 17.0212 20.9567 16.0953C22.1463 14.9726 23.0395 13.6924 24.8189 13.4829ZM18.1674 25.5039C17.8225 25.08 17.4199 24.6423 17.0517 24.2265C16.2669 23.34 15.0885 21.8557 13.8278 21.7133C13.2724 21.6506 12.6594 21.8164 12.2265 22.1792C11.79 22.5447 11.518 23.0697 11.4709 23.637C11.3434 25.2198 12.8932 26.1061 13.8712 27.1009C14.8257 28.1563 16.029 29.8219 17.2498 30.5589C19.02 31.6275 20.797 29.1462 21.936 27.9311L25.0002 24.6676C25.7176 23.8906 26.8849 22.8034 27.4402 21.9862C27.6545 21.6656 27.7761 21.2919 27.7914 20.9066C27.8412 19.6581 26.8857 18.6121 25.6202 18.5986C25.5995 18.5985 25.5788 18.5984 25.5581 18.5984C23.8541 18.9724 22.4935 21.1755 21.2253 22.2984C20.9262 22.5631 20.5757 23.2236 20.2588 23.5185C19.6094 24.1553 18.8503 24.9131 18.1674 25.5039Z" fill="white"/>
<path d="M87.0815 18.6592C87.1733 18.6477 87.3728 18.6442 87.4655 18.6478C88.7908 18.6994 90.238 18.7612 91.1997 19.8023C91.9198 20.5825 92.4219 21.3921 92.398 22.4685C92.3668 23.8728 91.7652 24.3378 90.8645 25.2282C91.0587 25.4113 91.3319 25.6359 91.5461 25.8067C92.9518 26.9303 93.2807 29.2382 92.0662 30.6241C91.0377 31.7981 89.8271 32.0451 88.3223 32.1483C87.6256 32.1637 86.9966 32.1801 86.3238 32.1062C84.2174 31.8753 82.2291 30.19 82.6121 27.9071C82.8058 26.7539 83.7402 25.909 84.6336 25.2531C84.536 25.1884 84.4418 25.1187 84.3516 25.0441C81.7861 22.8943 83.0186 19.6199 86.0061 18.8048C86.3755 18.704 86.701 18.6857 87.0815 18.6592ZM88.2584 30.3475C88.8005 30.2174 90.1189 29.7779 90.2731 29.2849C91.0752 26.7147 88.7439 26.1143 87.142 26.317C85.809 26.4807 84.8063 27.1201 84.9337 28.6122C85.0566 30.0488 86.961 30.5393 88.1516 30.3656C88.1872 30.3605 88.2228 30.3545 88.2584 30.3475ZM87.7988 24.3664C88.2975 24.3831 89.3002 24.0426 89.6183 23.6752C90.9459 22.1417 89.2904 20.3009 87.5773 20.5563C86.8317 20.6734 86.1169 20.6986 85.6241 21.357C85.0166 22.1688 85.1454 23.3316 85.9622 23.9366C86.3262 24.2062 87.3221 24.3527 87.7988 24.3664Z" fill="white"/>
<path d="M77.0973 21.9777C77.7867 21.9202 79.0241 22.1144 79.596 22.5125C80.2835 23.0291 80.8026 24.0348 80.9451 24.8856C81.2135 26.4893 81.0154 28.2159 81.0954 29.8431C81.1173 30.2925 81.1081 30.7641 81.0544 31.2073C81.0144 31.5382 80.8958 31.7312 80.7163 31.9975C80.5426 32.0457 80.3576 32.0645 80.1786 32.0845C79.8497 32.1214 79.4198 32.1327 79.1544 31.8987C79.0193 31.7791 78.9583 31.5728 78.928 31.4009C78.8299 30.8364 78.8773 30.2113 78.8782 29.6387C78.8802 28.5083 78.9036 27.3729 78.8743 26.2429C78.8582 25.6226 78.7353 24.9003 78.2581 24.4609C77.8809 24.1141 77.1534 23.9738 76.6499 23.9986C76.2464 24.0185 75.9243 24.2298 75.636 24.4999C75.2534 24.8581 74.946 25.3323 74.807 25.8392C74.4605 27.1007 75.0909 31.1592 74.4337 31.86C74.2819 32.022 74.077 32.0816 73.8604 32.0859C73.5544 32.0919 72.948 32.1316 72.7201 31.9023C72.2512 31.4307 72.4249 28.2048 72.4278 27.3714C72.4234 26.5798 72.4439 25.8395 72.1624 25.087C71.7306 23.9319 70.7323 23.7826 69.6876 24.204C69.0972 24.4413 68.6434 24.9301 68.4502 25.5368C67.9457 27.0818 68.7357 30.3175 68.0877 31.8323C67.772 32.01 67.6286 32.0367 67.2807 32.0825C66.3512 32.2232 66.194 31.8949 66.1711 31.0248C66.1043 28.4857 66.1623 25.9387 66.157 23.3982C66.156 22.8547 66.1433 22.032 66.8981 22.1027C67.5998 22.1683 68.056 22.6575 68.4971 23.1491C69.1997 22.1362 70.7767 21.8746 71.9321 22.0814C73.0163 22.2756 73.4935 22.7185 74.1004 23.612C74.7796 22.8111 76.0414 22.1408 77.0973 21.9777Z" fill="white"/>
<path d="M46.4099 18.2099C46.7277 18.1619 47.0279 18.1862 47.3488 18.1992C47.751 18.4392 48.0326 18.8188 48.0641 19.2883C48.1521 20.5978 48.1642 21.9799 48.2207 23.2921C49.1185 22.1048 50.8004 21.8155 52.1939 22.0715C55.4255 22.679 54.8029 26.743 54.8678 29.1453C54.8907 29.9925 54.9956 31.0587 54.6067 31.8041C53.9378 32.1661 53.7372 32.1789 53.0405 31.8624C52.6677 31.1574 52.7858 30.5247 52.7823 29.7561C52.7784 28.8424 52.8141 27.9316 52.7706 27.0179C52.7087 25.9718 52.5174 24.5203 51.3942 24.1349C50.8814 23.959 50.1105 23.9187 49.6367 24.2101C47.2788 25.6611 48.4551 29.3886 48.0951 31.6328C48.0127 32.1435 46.7587 32.186 46.3357 32.0025C45.9442 31.882 45.9267 31.148 45.9236 30.7478C45.9004 27.754 45.9142 24.7365 45.9087 21.7425C45.9078 21.2749 45.8668 18.5971 45.9553 18.3755C46.0751 18.2509 46.2363 18.2426 46.4099 18.2099Z" fill="white"/>
<path d="M57.5296 18.0538C58.4684 18.027 58.9427 18.6237 58.9919 19.5125C59.1115 21.6592 59.0114 23.8 59.1266 25.9512C59.8668 25.3858 60.4777 24.8735 61.0656 24.1226C61.5833 23.4623 62.059 22.5967 62.8192 22.1933C63.0637 22.0638 63.3384 22.0757 63.6072 22.0764C63.8732 22.2205 64.061 22.3575 64.3064 22.531C64.3226 22.7933 64.3128 23.0083 64.3025 23.2688C63.7951 24.2431 61.9634 25.6703 61.5277 26.788C61.3945 27.1297 62.6163 28.3579 62.8666 28.6372C63.4584 29.2912 64.0308 29.9625 64.5826 30.6503C64.7514 30.8683 64.9534 31.072 64.9295 31.3468C64.7173 31.854 63.8083 32.2473 63.3794 32.0224C62.4187 31.4436 61.6468 30.3689 60.8802 29.5341C60.4772 29.0952 59.4252 28.1847 59.191 27.7673C59.1476 28.9842 59.029 30.2169 59.0563 31.4437C59.031 32.2067 57.4969 32.2639 57.1988 31.827C56.8387 31.2992 56.9426 29.8641 56.9426 29.2286L56.9431 26.3555C56.9426 23.7871 56.9021 21.0772 56.9778 18.5191C57.1651 18.2569 57.2466 18.2091 57.5296 18.0538Z" fill="white"/>
<path d="M39.879 21.9722C40.624 21.9049 42.0299 22.0897 42.6899 22.4487C43.6853 22.9903 44.247 23.6964 44.5936 24.7462C44.5272 25.0883 44.2246 25.8952 43.7885 25.8614C43.15 25.8119 42.6989 25.115 42.264 24.7109C41.0404 23.5739 39.3731 23.7364 38.3105 25.0126C36.5086 27.0483 37.7901 30.528 40.7063 30.3025C41.6665 30.2283 42.1321 29.8786 42.7552 29.1737C43.0978 28.703 43.1394 28.5996 43.676 28.3917C44.1123 28.5872 44.5438 28.9239 44.5455 29.4197C44.5513 31.1303 42.4595 32.1134 41.0273 32.2434C39.5575 32.3767 38.3154 32.0901 37.1686 31.2227C36.0122 30.348 35.5853 28.9363 35.4028 27.5676C35.2606 26.3347 35.5953 24.759 36.4243 23.7873C37.4652 22.5673 38.305 22.1424 39.879 21.9722Z" fill="white"/>
</svg>
