<svg width="30" height="30" viewBox="0 0 30 30" fill="none" xmlns="http://www.w3.org/2000/svg">
<path d="M20.8335 10.4776V7.5536C21.5645 7.1881 22.1737 6.4571 22.1737 5.60427V5.48243C22.1737 4.2641 21.199 3.28943 19.9807 3.28943H19.8588C18.6405 3.28943 17.6658 4.2641 17.6658 5.48243V5.60427C17.6658 6.4571 18.1532 7.1881 19.006 7.5536V10.4776C17.9095 10.5994 16.813 11.0868 15.9602 11.8178L7.91916 5.60427C8.28466 4.2641 7.43183 2.8021 6.09166 2.55843C4.75149 2.31477 3.41133 2.92393 3.04583 4.2641C2.68033 5.60427 3.53316 7.06627 4.87333 7.43177C5.48249 7.5536 6.21349 7.5536 6.82266 7.1881L14.62 13.2798C13.158 15.4728 13.158 18.2749 14.7418 20.4679L12.3052 22.9046C12.0615 22.9046 11.9397 22.7828 11.696 22.7828C10.5995 22.7828 9.62483 23.7574 9.62483 24.8539C9.62483 25.9504 10.5995 26.8033 11.696 26.8033C12.7925 26.8033 13.7672 25.8286 13.7672 24.7321C13.7672 24.4884 13.7672 24.3666 13.6453 24.1229L15.9602 21.8081C18.7623 23.8793 22.7828 23.3919 24.854 20.5898C26.9252 17.7876 26.4378 13.7671 23.6357 11.6959C22.9047 11.0868 21.93 10.5994 20.8335 10.4776ZM19.8588 19.9806C18.0313 19.9806 16.5693 18.5186 16.5693 16.6911C16.5693 14.8636 18.0313 13.4016 19.8588 13.4016C21.6863 13.4016 23.1483 14.8636 23.1483 16.6911C23.1483 18.5186 21.6863 19.9806 19.8588 19.9806Z" fill="white"/>
</svg>
