<svg width="96" height="58" viewBox="0 0 96 58" fill="none" xmlns="http://www.w3.org/2000/svg">
<path d="M44.5892 14.3803C45.1756 13.9549 45.806 13.4193 46.5043 12.999C50.7581 10.4383 55.9357 13.2278 56.0831 18.1884C56.1678 21.0695 56.122 23.9371 56.1187 26.8114C56.1187 27.7096 55.6391 28.2316 54.912 28.2146C54.1849 28.1977 53.7375 27.6841 53.741 26.7792C53.7511 24.1794 53.7833 21.5796 53.7918 18.9832C53.7918 17.6274 53.5325 16.3665 52.4445 15.4242C50.1819 13.4702 46.8212 14.4277 45.9789 17.3004C45.7902 18.0354 45.6985 18.7921 45.706 19.551C45.6654 21.8762 45.679 24.2014 45.6637 26.5266C45.6586 26.8435 45.6263 27.1593 45.5671 27.4706C45.4637 28.035 45.0909 28.2858 44.5282 28.2875C43.9655 28.2892 43.5893 28.0401 43.4706 27.4791C43.4001 27.1488 43.3649 26.8119 43.3656 26.4741C43.3571 24.1709 43.3656 21.866 43.3656 19.5629C43.3656 18.2799 43.2368 17.0207 42.4114 15.9547C41.9469 15.3312 41.3066 14.861 40.5727 14.6043C39.8388 14.3476 39.045 14.3162 38.2931 14.5142C36.6272 14.9718 35.5189 16.2445 35.3409 17.9325C35.2945 18.4158 35.2736 18.9012 35.2782 19.3866C35.2782 21.861 35.2968 24.3336 35.3036 26.8063C35.3036 27.3452 35.1748 27.9062 34.6257 28.0503C34.2342 28.1536 33.6529 28.0858 33.3546 27.8468C33.0563 27.6079 32.9394 27.0775 32.9326 26.6707C32.897 24.3251 32.9089 21.9779 32.9326 19.6323C32.9326 18.8951 33.0072 18.1562 33.0479 17.419C33.2309 14.0803 37.3678 10.562 41.8166 12.6177C42.7927 13.0736 43.6537 13.7803 44.5892 14.3803Z" fill="#7E7F82"/>
<path d="M62.1613 26.6722C62.1613 24.3503 62.0896 22.0234 62.1777 19.7049C62.298 16.5561 63.8725 14.2512 66.6793 12.8751C69.5486 11.4667 72.3686 11.8124 74.9834 13.5699C78.7123 16.0816 79.468 21.1608 76.7295 24.8892C74.4244 28.0263 70.4707 29.1109 66.8891 27.5483C66.3163 27.2992 65.8283 26.8704 65.2864 26.5315C65.0681 26.4205 64.8418 26.3281 64.6084 26.2552C64.5406 26.5043 64.413 26.7535 64.413 27.0009C64.413 29.3261 64.4453 31.6496 64.4492 33.9732C64.4492 34.7273 64.0691 35.1595 63.4489 35.2104C63.2858 35.2253 63.1214 35.2079 62.9649 35.1591C62.8084 35.1103 62.6624 35.0312 62.5368 34.9262C62.4112 34.8212 62.3066 34.6925 62.231 34.5473C62.1547 34.402 62.108 34.2432 62.0935 34.0799C62.0698 33.8486 62.0606 33.6159 62.0659 33.3834C62.0659 31.144 62.0659 28.9047 62.0659 26.6654L62.1613 26.6722ZM76.016 20.1744C76.0232 19.0291 75.6911 17.9073 75.0604 16.9512C74.4297 15.9951 73.53 15.2476 72.4739 14.8036C71.4183 14.3596 70.2543 14.239 69.1304 14.457C68.0058 14.6751 66.9713 15.2221 66.1584 16.0286C65.3449 16.8351 64.7899 17.8648 64.5623 18.9874C64.3354 20.1099 64.4459 21.2746 64.8813 22.334C65.3167 23.3933 66.0565 24.2996 67.0075 24.9379C67.9584 25.5763 69.0778 25.918 70.2227 25.9197C70.981 25.9237 71.732 25.7782 72.4337 25.4914C73.1348 25.2047 73.7734 24.7824 74.3113 24.2488C74.8493 23.7151 75.2768 23.0805 75.5694 22.3814C75.8621 21.6822 76.0133 20.9323 76.016 20.1744Z" fill="#7E7F82"/>
<path d="M18.0606 47.0117C17.9522 47.227 17.8369 47.4388 17.7403 47.6591C16.8218 49.7505 15.906 51.8407 14.9931 53.9297C14.7796 54.4229 14.5304 54.8263 13.9101 54.8381C13.2526 54.8534 13.0119 54.428 12.7866 53.9111C11.8679 51.7978 10.9223 49.6928 9.99358 47.5862C9.91038 47.3705 9.76458 47.1846 9.57498 47.0524C9.56137 47.266 9.53769 47.4778 9.53598 47.6913C9.52415 49.7844 9.51053 51.8774 9.51566 53.9619C9.51566 54.4704 9.42918 54.8212 8.79876 54.8195C8.20727 54.8195 8.02766 54.545 8.02931 53.9992C8.04121 51.1012 8.02931 48.2048 8.0395 45.3085C8.0395 44.1933 8.8513 43.5392 9.67836 43.9883C9.97477 44.1813 10.2058 44.4596 10.341 44.7865C11.39 47.0965 12.4052 49.4217 13.4441 51.735C13.5655 51.9433 13.7092 52.1377 13.8729 52.3147C14.0416 52.147 14.189 51.9591 14.3118 51.7554C15.3592 49.4448 16.3969 47.1286 17.4251 44.8069C17.6641 44.2696 18.003 43.8493 18.6402 43.8595C19.2775 43.8697 19.7469 44.3679 19.752 45.0983C19.7724 48.0998 19.752 51.1029 19.7622 54.1043C19.7622 54.6534 19.4639 54.8364 18.9521 54.8348C18.4402 54.8331 18.2487 54.5873 18.2521 54.0857C18.264 51.9503 18.2521 49.8149 18.2521 47.6795C18.2521 47.4625 18.2301 47.2439 18.2199 47.027L18.0606 47.0117Z" fill="#7E7F82"/>
<path d="M26.0832 20.57C26.0832 23.146 26.19 25.7289 26.0578 28.2981C25.8629 32.0944 23.5546 34.6026 19.8244 35.3263C18.7364 35.5382 18.0229 34.9365 18.1297 33.8993C18.1907 33.2825 18.55 32.9926 19.1465 32.8587C19.9024 32.6893 20.7193 32.5774 21.3718 32.2012C22.9445 31.2877 23.8105 29.8997 23.8105 27.988C23.7801 23.1495 23.7851 18.3092 23.7834 13.4707C23.7834 12.3894 24.5257 11.7996 25.402 12.1843C26.007 12.4487 26.1764 12.9826 26.1731 13.5927C26.1629 15.5361 26.1504 17.4799 26.1358 19.4243C26.1358 19.804 26.1358 20.1853 26.1358 20.565L26.0832 20.57Z" fill="#7E7F82"/>
<path d="M30.1765 -0.154785C31.934 -0.136141 33.1779 1.22306 33.0576 2.98901C32.8881 5.45487 31.5916 7.17679 29.2173 7.85634C27.6784 8.29532 26.0853 8.53425 24.5126 8.86136C24.1618 8.93423 23.9652 8.77153 24.0482 8.40548C24.4516 6.61746 24.7261 4.78209 25.3142 3.05681C26.0684 0.834958 28.053 -0.0395386 30.1765 -0.154785Z" fill="#71BC45"/>
<path d="M70.4377 52.4702C70.2299 52.4352 70.0181 52.4227 69.8077 52.4329C69.6472 52.4851 69.4966 52.5636 69.3618 52.6651C69.4802 52.7854 69.5874 52.9955 69.7209 53.0142C70.389 53.1108 71.0651 53.1565 71.7359 53.221C72.0733 53.2356 72.41 53.2718 72.7428 53.3294C72.9933 53.3792 73.2288 53.4849 73.4326 53.6385C73.6365 53.7922 73.8029 53.9899 73.9193 54.2169C74.0364 54.4438 74.1001 54.6942 74.1061 54.9493C74.1126 55.2044 74.0613 55.4577 73.9561 55.6903C73.4616 56.8766 72.431 57.302 71.2834 57.2274C70.2088 57.1562 69.15 56.8037 68.0938 56.5376C67.9248 56.4969 67.7045 56.2529 67.7111 56.1139C67.7209 56.0042 67.7571 55.8985 67.8163 55.8053C67.8748 55.7123 67.9551 55.6345 68.0498 55.5784C68.401 55.4513 68.7758 55.4027 69.148 55.436C69.8583 55.5208 70.56 55.697 71.265 55.8275C71.4511 55.8662 71.6412 55.8833 71.8313 55.8783C72.3002 55.8529 72.4955 55.5394 72.5192 55.1191C72.5441 54.6683 72.2022 54.6378 71.8714 54.6107C71.1124 54.5581 70.3463 54.5259 69.5952 54.4412C69.2184 54.4081 68.8501 54.307 68.5095 54.1429C67.6618 53.6989 67.548 52.8871 68.2451 52.2295C68.6075 51.8905 68.6699 51.6076 68.3753 51.1991C67.6059 50.128 67.7972 49.0179 68.4141 47.979C69.0501 46.9198 70.097 46.6453 71.2769 46.769C72.1785 46.8639 73.0834 46.9283 73.9798 47.0605C74.1153 47.0798 74.2448 47.1267 74.3619 47.1981C74.4783 47.2695 74.5789 47.3639 74.6578 47.4757C74.7236 47.6011 74.5072 47.9943 74.3191 48.1129C73.8647 48.4011 73.651 48.7908 73.7306 49.2823C74.0548 51.2855 72.4514 52.5956 70.4377 52.4702ZM72.3699 49.5891C72.3692 49.3881 72.3278 49.1893 72.2489 49.0045C72.1699 48.8197 72.0549 48.6525 71.9108 48.5128C71.7661 48.3732 71.5952 48.2639 71.4077 48.1914C71.2203 48.119 71.0204 48.0848 70.8191 48.0909C70.6186 48.0945 70.4213 48.1375 70.2378 48.2174C70.0536 48.2973 69.8879 48.4127 69.7485 48.5569C69.6097 48.7009 69.4999 48.8711 69.4269 49.0575C69.3532 49.244 69.3177 49.443 69.321 49.6433C69.3243 49.8436 69.3677 50.0412 69.4473 50.2249C69.5275 50.4087 69.6426 50.5748 69.7866 50.7139C69.9313 50.853 70.101 50.9624 70.2878 51.0357C70.4739 51.1091 70.6731 51.145 70.8737 51.1415C71.0736 51.14 71.2723 51.0985 71.4564 51.0194C71.6405 50.9404 71.8076 50.8254 71.947 50.6812C72.0864 50.5369 72.1956 50.3664 72.2679 50.1794C72.3409 49.9925 72.3751 49.7929 72.3699 49.5925V49.5891Z" fill="#7E7F82"/>
<path d="M91.4639 57.3725C90.6629 57.1251 89.7185 56.8488 88.7879 56.5251C88.6991 56.4842 88.6215 56.4219 88.5623 56.3439C88.5031 56.2659 88.4643 56.1744 88.4492 56.0777C88.4663 55.9709 88.5078 55.8695 88.5702 55.7813C88.6327 55.6931 88.7149 55.6206 88.8103 55.5693C89.1226 55.4562 89.4567 55.418 89.7862 55.4574C90.5813 55.5659 91.3626 55.776 92.159 55.8642C92.4813 55.8943 92.8029 55.797 93.0541 55.593C93.4875 55.1659 93.2895 54.71 92.6812 54.6473C91.9453 54.5744 91.1995 54.5778 90.4695 54.4659C89.971 54.4105 89.489 54.2542 89.0523 54.0067C88.3591 53.5627 88.3407 52.8017 88.9543 52.2458C89.3035 51.9289 89.441 51.6611 89.124 51.229C88.7899 50.7511 88.6117 50.1817 88.613 49.5987C88.615 49.0157 88.7971 48.4474 89.1338 47.9716C89.8119 46.9836 90.7911 46.6548 91.9558 46.7853C92.8555 46.8836 93.7591 46.9548 94.6555 47.0751C94.9113 47.1124 95.2756 47.2649 95.3486 47.4547C95.4216 47.6445 95.2046 48.0191 95.0099 48.1445C94.8034 48.2584 94.6377 48.4341 94.5364 48.6469C94.4358 48.8597 94.4036 49.0989 94.445 49.3308C94.7844 51.6255 92.7608 52.6356 91.0081 52.5C90.6944 52.4763 90.1611 52.1831 90.1118 52.7034C90.0624 53.2237 90.6201 53.0661 90.9595 53.1051C91.6368 53.1847 92.3149 53.2136 92.9791 53.2949C94.1267 53.4322 94.6739 53.8846 94.7857 54.7372C94.8462 55.2249 94.735 55.7185 94.4707 56.133C94.2069 56.5475 93.8064 56.857 93.3388 57.0081C92.7983 57.1759 92.2215 57.225 91.4639 57.3725ZM93.0758 49.6308C93.0929 49.4199 93.0659 49.2078 92.9969 49.0078C92.9278 48.8078 92.8173 48.6245 92.674 48.4694C92.5299 48.3143 92.355 48.1908 92.161 48.1069C91.9663 48.0229 91.7572 47.9803 91.5454 47.9817C91.3337 47.9832 91.1245 48.0286 90.9319 48.1151C90.7385 48.2017 90.5655 48.3274 90.4241 48.4845C90.2821 48.6415 90.1742 48.8263 90.1078 49.0271C90.0414 49.228 90.0171 49.4405 90.0374 49.6512C90.073 50.0307 90.2499 50.3831 90.5333 50.6387C90.8161 50.8944 91.1844 51.0348 91.5658 51.0322C91.9473 51.0297 92.3136 50.8844 92.5931 50.625C92.8726 50.3656 93.0449 50.0109 93.0758 49.6308Z" fill="#7E7F82"/>
<path d="M27.4736 49.2045C27.4736 47.6623 27.4888 46.1217 27.4651 44.5795C27.4567 44.0321 27.655 43.8101 28.204 43.8389C29.3904 43.9016 30.5767 43.8524 31.741 44.0084C32.4875 44.0818 33.1844 44.4156 33.7094 44.9514C34.2343 45.4872 34.5538 46.1908 34.612 46.9386C34.7815 48.4859 33.9832 49.9129 32.4765 50.4468C31.8088 50.6823 31.0225 50.6162 30.2869 50.6162C28.7955 50.6366 28.8735 50.5213 28.8786 52.0314C28.8786 52.6652 28.8684 53.2991 28.8786 53.9312C28.8887 54.4668 28.6718 54.7989 28.1108 54.7888C27.577 54.7888 27.4702 54.399 27.4719 53.9549L27.4736 49.2045ZM28.8548 47.242C28.8322 47.7063 28.8384 48.1716 28.8735 48.6351C28.8972 48.8198 29.126 49.118 29.2769 49.1265C30.0137 49.1926 30.755 49.1926 31.4919 49.1265C31.9532 49.0907 32.3839 48.8821 32.6981 48.5425C33.0123 48.2029 33.1868 47.7572 33.1867 47.2945C33.2053 46.3726 32.5511 45.6184 31.541 45.4201C31.2912 45.3796 31.0383 45.3604 30.7852 45.3625C28.8819 45.3235 28.8802 45.3252 28.8548 47.242Z" fill="#7E7F82"/>
<path d="M66.1364 52.0204C66.1364 52.717 66.1495 53.4135 66.1364 54.1101C66.1226 54.6897 65.8681 54.9015 65.3801 54.6185C64.7192 54.2372 64.1937 54.3083 63.5163 54.6185C62.4772 55.1015 61.4263 54.849 60.5333 54.1677C59.2639 53.1999 59.3622 51.4018 60.7028 50.5138C61.6131 49.9104 62.6449 49.8833 63.6886 49.8765C64.028 49.8765 64.3515 49.7443 64.6823 49.6732C64.5462 49.3342 64.4686 48.9529 64.2634 48.6563C63.8399 48.0547 63.1586 47.9614 62.2569 48.197C61.8189 48.3043 61.3671 48.3392 60.9179 48.3004C60.8143 48.2655 60.7213 48.2046 60.6478 48.1237C60.5742 48.0427 60.5226 47.9443 60.4977 47.8377C60.4858 47.6852 60.7095 47.4497 60.8857 47.3581C61.3165 47.136 61.7663 46.9522 62.23 46.809C63.9892 46.2752 65.5682 47.126 65.9582 48.9241C66.1732 49.9223 66.1397 50.9747 66.2173 52.0018L66.1364 52.0204ZM62.7469 53.4051C63.1737 53.2457 63.8057 53.0661 64.3653 52.7695C64.6008 52.6424 64.8533 52.1899 64.7922 51.9695C64.731 51.813 64.6323 51.6737 64.5054 51.5633C64.3785 51.453 64.2272 51.3749 64.0635 51.3357C63.4196 51.2796 62.7705 51.3306 62.1431 51.4866C61.6144 51.6255 60.9567 51.9136 61.1146 52.6356C61.2691 53.3271 61.9741 53.261 62.7482 53.4084L62.7469 53.4051Z" fill="#7E7F82"/>
<path d="M41.9877 52.0536C41.9877 52.7095 42.003 53.3636 41.9877 54.0178C41.9725 54.672 41.6658 54.9296 41.1251 54.5838C40.5184 54.1958 40.054 54.2941 39.4439 54.5838C38.3 55.1194 36.8712 54.7415 36.0238 53.806C35.0375 52.7162 35.5374 50.7808 37.0407 50.2775C37.8966 49.9911 38.8592 50.0249 39.7727 49.8995C40.0297 49.8503 40.2836 49.7869 40.5336 49.7097C40.4943 49.4499 40.4243 49.1956 40.3252 48.9522C39.9015 48.1675 39.1592 47.9353 38.2034 48.1879C37.8059 48.3132 37.3914 48.3756 36.9746 48.3726C36.7594 48.3607 36.5594 48.0776 36.351 47.9184C36.5052 47.7201 36.6204 47.4303 36.8221 47.3421C37.4105 47.0591 38.0315 46.8497 38.6711 46.7185C40.1828 46.4761 41.4285 47.3608 41.7979 48.8454C41.8732 49.1092 41.9204 49.3801 41.9386 49.6538C41.9572 50.4554 41.9386 51.2571 41.9386 52.0587L41.9877 52.0536ZM38.4542 53.4704C39.0524 53.2382 39.6761 53.0518 40.2354 52.7485C40.4574 52.6281 40.6947 52.2129 40.6455 51.996C40.5862 51.7367 40.2421 51.3774 39.9964 51.357C39.3351 51.2905 38.6675 51.33 38.0186 51.474C37.4865 51.6028 36.9052 51.8943 36.9442 52.6163C36.9695 53.0705 37.6 53.3603 38.4542 53.4738V53.4704Z" fill="#7E7F82"/>
<path d="M80.1576 50.6835C80.1576 49.6056 80.1458 48.5278 80.1576 47.4499C80.1576 46.789 80.466 46.5907 81.0487 46.8974C81.2625 47.0281 81.5045 47.106 81.7544 47.1249C82.0043 47.1438 82.2549 47.103 82.4863 47.0059C84.8302 46.0992 86.5638 47.1483 86.769 49.6514C86.8893 51.1225 86.8314 52.6071 86.8538 54.0849C86.8538 54.651 86.4941 54.7103 86.0449 54.7171C85.5957 54.7239 85.3451 54.5476 85.3504 54.051C85.3655 52.7207 85.3504 51.3885 85.3504 50.0582C85.3504 49.2939 85.1689 48.6058 84.4047 48.2736C84.0588 48.1098 83.6747 48.0437 83.2939 48.0826C82.9138 48.1215 82.5508 48.2636 82.2456 48.4939C81.7373 48.86 81.5676 49.3837 81.5676 49.9819C81.5676 51.2925 81.5676 52.6031 81.5676 53.9138C81.5676 54.3357 81.5676 54.7374 80.9678 54.7408C80.4016 54.7408 80.1609 54.4628 80.1609 53.9223C80.1596 52.841 80.1589 51.7614 80.1576 50.6835Z" fill="#7E7F82"/>
<path d="M5.53443 49.0825C5.53443 50.4383 5.52252 51.7941 5.53443 53.1398C5.56494 55.9311 2.63636 57.2072 0.450116 56.1293C0.233184 56.0225 -0.0447522 55.6412 0.00609067 55.4853C0.0715794 55.3542 0.164005 55.2385 0.277318 55.1456C0.390632 55.0528 0.522287 54.9849 0.663655 54.9464C0.948378 54.8667 1.28733 54.9464 1.59916 54.9956C3.23292 55.226 4.07859 54.5176 4.07523 52.8873C4.07523 50.1621 4.04807 47.4352 4.03794 44.71C4.03794 43.9559 4.20742 43.8101 4.92939 43.8406C5.48188 43.8643 5.58526 44.1897 5.58355 44.644C5.58355 46.1235 5.58355 47.603 5.58355 49.0825H5.53443Z" fill="#7E7F82"/>
<path d="M43.5371 51.2057C43.5371 49.2619 44.1235 48.006 45.5285 47.2603C47.0113 46.4722 48.5163 46.6349 49.9602 47.3993C50.1535 47.501 50.345 47.9077 50.289 48.0976C50.2331 48.2874 49.8586 48.5127 49.6331 48.5043C49.1349 48.4839 48.6417 48.3229 48.1451 48.2263C46.9147 47.989 45.842 48.4789 45.3132 49.5144C45.0525 50.0384 44.9697 50.633 45.0774 51.2082C45.185 51.7835 45.4772 52.308 45.9098 52.7022C46.1724 52.9507 46.4907 53.1326 46.838 53.2329C47.1853 53.3331 47.5516 53.3488 47.9062 53.2785C48.4655 53.1734 49.018 53.0039 49.5823 52.9632C49.8077 52.9463 50.1857 53.153 50.2602 53.3428C50.3348 53.5326 50.1789 53.9835 50.001 54.075C48.557 54.8105 47.0554 54.9901 45.5606 54.2292C44.1777 53.5344 43.5727 52.3378 43.5371 51.2057Z" fill="#7E7F82"/>
<path d="M53.3253 49.2626C53.3253 50.8252 53.3118 52.3895 53.3338 53.9537C53.3338 54.452 53.2067 54.6841 52.6559 54.6841C52.1051 54.6841 51.9068 54.5249 51.9102 53.9571C51.9328 50.8297 51.9328 47.7023 51.9102 44.5749C51.9102 44.0224 52.1 43.8359 52.6508 43.8359C53.2016 43.8359 53.3287 44.08 53.3287 44.5698C53.3151 46.1341 53.3253 47.6983 53.3253 49.2626Z" fill="#7E7F82"/>
<path d="M57.7477 54.8519C57.4088 54.618 57.0004 54.4333 56.7393 54.1197C55.9292 53.1469 55.1835 52.1216 54.4006 51.1251C54.2752 50.9952 54.2051 50.8217 54.2051 50.6412C54.2051 50.4607 54.2752 50.2873 54.4006 50.1574C55.0785 49.2676 55.7327 48.3609 56.397 47.461C56.5654 47.2152 56.7973 47.0197 57.068 46.8952C57.3386 46.7708 57.638 46.7221 57.9341 46.7543C58.1116 46.7634 58.2803 46.8349 58.4104 46.956C58.4646 47.0204 58.3612 47.2695 58.2714 47.3932C57.6443 48.2694 57.0224 49.1473 56.3597 49.9964C55.9953 50.4642 56.0208 50.8438 56.3783 51.2979C57.0393 52.1199 57.685 52.9571 58.307 53.8079C58.4511 54.0045 58.5799 54.3163 58.5189 54.518C58.4714 54.6621 58.1019 54.7095 57.7477 54.8519Z" fill="#7E7F82"/>
<path d="M77.6804 50.7272C77.6804 51.8254 77.6653 52.9304 77.6804 54.0184C77.6903 54.515 77.4857 54.6844 77.0024 54.6844C76.5196 54.6844 76.2553 54.5471 76.2618 54.0065C76.2888 51.8135 76.2954 49.6188 76.3006 47.424C76.3006 46.9885 76.4466 46.7461 76.9294 46.7716C77.3805 46.7919 77.7008 46.8614 77.6837 47.4393C77.6567 48.5325 77.6804 49.6307 77.6804 50.7272Z" fill="#7E7F82"/>
<path d="M77.9926 44.7755C77.9926 45.0385 77.8887 45.2906 77.7026 45.4765C77.5164 45.6625 77.2646 45.767 77.0015 45.767C76.7384 45.767 76.4866 45.6625 76.3004 45.4765C76.1143 45.2906 76.0098 45.0385 76.0098 44.7755C76.0111 44.6439 76.038 44.5137 76.09 44.3928C76.142 44.2718 76.2176 44.1624 76.3123 44.0708C76.407 43.9793 76.5188 43.9076 76.6418 43.8598C76.7641 43.812 76.895 43.7892 77.0265 43.7926C77.285 43.7953 77.5316 43.9002 77.7131 44.0844C77.8939 44.2687 77.9946 44.5172 77.9926 44.7755Z" fill="#7E7F82"/>
</svg>
