<svg width="22" height="22" viewBox="0 0 22 22" fill="none" xmlns="http://www.w3.org/2000/svg">
<g clip-path="url(#clip0_3119_2467)">
<path d="M11 0.916992V21.0837" stroke="#2E6EFE" stroke-width="1.83333"/>
<path d="M15.5833 4.58301H8.70833C7.85743 4.58301 7.04138 4.92103 6.4397 5.52271C5.83802 6.12439 5.5 6.94044 5.5 7.79134C5.5 8.64224 5.83802 9.4583 6.4397 10.06C7.04138 10.6617 7.85743 10.9997 8.70833 10.9997H13.2917C14.1426 10.9997 14.9586 11.3377 15.5603 11.9394C16.162 12.5411 16.5 13.3571 16.5 14.208C16.5 15.0589 16.162 15.875 15.5603 16.4766C14.9586 17.0783 14.1426 17.4163 13.2917 17.4163H5.5" stroke="#2E6EFE" stroke-width="1.83333"/>
</g>
<defs>
<clipPath id="clip0_3119_2467">
<rect width="22" height="22" fill="white"/>
</clipPath>
</defs>
</svg>
