<svg width="26" height="26" viewBox="0 0 26 26" fill="none" xmlns="http://www.w3.org/2000/svg">
<path fill-rule="evenodd" clip-rule="evenodd" d="M12.9879 2.43661C11.3365 2.4372 9.70819 2.82519 8.23395 3.5694C6.7597 4.31361 5.4806 5.39329 4.49944 6.72167C3.51828 8.05004 2.86242 9.59006 2.58458 11.218C2.30674 12.8459 2.41466 14.5162 2.89967 16.0948C3.38468 17.6735 4.23325 19.1163 5.37719 20.3074C6.52113 21.4984 7.92854 22.4045 9.48629 22.9528C11.044 23.5012 12.7087 23.6764 14.3465 23.4645C15.9843 23.2526 17.5495 22.6594 18.9164 21.7326L9.73942 10.6829V18.273C9.73942 18.5961 9.61107 18.9059 9.38262 19.1344C9.15417 19.3628 8.84432 19.4912 8.52124 19.4912C8.19815 19.4912 7.8883 19.3628 7.65985 19.1344C7.4314 18.9059 7.30305 18.5961 7.30305 18.273V7.30934C7.30276 7.05869 7.3798 6.81405 7.52365 6.6088C7.6675 6.40354 7.87117 6.24765 8.10687 6.16239C8.34257 6.07713 8.59884 6.06666 8.84071 6.13239C9.08259 6.19813 9.2983 6.33687 9.45842 6.5297L21.598 21.1479C21.8027 21.3938 21.9024 21.7103 21.8757 22.0291C21.849 22.3479 21.6979 22.6434 21.4551 22.8517C19.031 24.9315 15.9258 26.0457 12.7324 25.9814C9.53906 25.9171 6.48122 24.6789 4.14281 22.5032C1.8044 20.3275 0.349247 17.3668 0.0552052 14.1863C-0.238837 11.0058 0.648833 7.82848 2.54872 5.26095C4.44861 2.69341 7.2276 0.915577 10.3551 0.26691C13.4825 -0.381757 16.7393 0.144191 19.5037 1.74433C22.268 3.34446 24.3461 5.90668 25.3412 8.94173C26.3363 11.9768 26.1787 15.272 24.8985 18.1983C24.8343 18.3449 24.7418 18.4775 24.6264 18.5884C24.511 18.6993 24.3748 18.7864 24.2257 18.8447C24.0766 18.903 23.9175 18.9313 23.7575 18.9281C23.5974 18.9249 23.4396 18.8902 23.2929 18.826C23.1463 18.7618 23.0137 18.6694 22.9028 18.5539C22.7919 18.4385 22.7048 18.3024 22.6465 18.1533C22.5882 18.0042 22.5599 17.8451 22.5631 17.685C22.5663 17.525 22.6009 17.3671 22.6651 17.2205C23.2488 15.8881 23.5486 14.4488 23.5455 12.9942C23.5455 10.1941 22.4332 7.50878 20.4532 5.52885C18.4733 3.54892 15.7879 2.43661 12.9879 2.43661ZM17.0485 6.09116C17.3716 6.09116 17.6814 6.2195 17.9099 6.44795C18.1384 6.67641 18.2667 6.98626 18.2667 7.30934V12.1821C18.2667 12.5052 18.1384 12.815 17.9099 13.0435C17.6814 13.2719 17.3716 13.4003 17.0485 13.4003C16.7254 13.4003 16.4156 13.2719 16.1871 13.0435C15.9587 12.815 15.8303 12.5052 15.8303 12.1821V7.30934C15.8303 6.98626 15.9587 6.67641 16.1871 6.44795C16.4156 6.2195 16.7254 6.09116 17.0485 6.09116Z" fill="white"/>
</svg>
