<svg width="19" height="21" viewBox="0 0 19 21" fill="none" xmlns="http://www.w3.org/2000/svg">
<path d="M17.417 13.7484V6.41511C17.4167 6.09361 17.3318 5.77785 17.1709 5.49951C17.01 5.22117 16.7788 4.99003 16.5003 4.82928L10.0837 1.16261C9.80496 1.0017 9.48881 0.916992 9.16699 0.916992C8.84518 0.916992 8.52903 1.0017 8.25033 1.16261L1.83366 4.82928C1.55523 4.99003 1.32397 5.22117 1.16308 5.49951C1.00219 5.77785 0.917322 6.09361 0.916992 6.41511V13.7484C0.917322 14.0699 1.00219 14.3857 1.16308 14.664C1.32397 14.9424 1.55523 15.1735 1.83366 15.3343L8.25033 19.0009C8.52903 19.1619 8.84518 19.2466 9.16699 19.2466C9.48881 19.2466 9.80496 19.1619 10.0837 19.0009L16.5003 15.3343C16.7788 15.1735 17.01 14.9424 17.1709 14.664C17.3318 14.3857 17.4167 14.0699 17.417 13.7484Z" stroke="#2E6EFE" stroke-width="1.83333"/>
</svg>
