<svg width="24" height="24" viewBox="0 0 24 24" fill="none" xmlns="http://www.w3.org/2000/svg">
<path d="M14.8998 5.10047C14.8998 5.10047 14.6998 5.16047 14.3598 5.27047C14.2998 5.09047 14.2198 4.86047 14.0998 4.64047C13.7198 3.91047 13.1598 3.53047 12.4798 3.52047C12.4298 3.52047 12.3898 3.52047 12.3398 3.53047C12.3198 3.51047 12.2998 3.48047 12.2798 3.46047C11.9898 3.14047 11.6098 2.99047 11.1598 3.00047C10.2898 3.03047 9.4198 3.66047 8.7098 4.78047C8.2098 5.57047 7.8398 6.56047 7.7298 7.32047C6.7298 7.63047 6.0298 7.85047 6.0098 7.85047C5.4998 8.01047 5.4898 8.03047 5.4198 8.50047C5.3698 8.86047 4.0498 19.1005 4.0498 19.1005L15.0298 21.0005V5.08047C14.9798 5.08047 14.9298 5.09047 14.8998 5.10047ZM12.3598 5.89047C11.7798 6.07047 11.1398 6.27047 10.5098 6.46047C10.6898 5.77047 11.0298 5.09047 11.4498 4.64047C11.6098 4.47047 11.8198 4.29047 12.0798 4.18047C12.3198 4.69047 12.3698 5.40047 12.3598 5.89047ZM11.1698 3.58047C11.3698 3.58047 11.5498 3.62047 11.6998 3.72047C11.4598 3.84047 11.2398 4.02047 11.0198 4.25047C10.4698 4.84047 10.0398 5.77047 9.8698 6.66047C9.3398 6.82047 8.8298 6.98047 8.3498 7.13047C8.64981 5.72047 9.8298 3.62047 11.1698 3.58047ZM9.4698 11.5705C9.5298 12.5005 11.9898 12.7105 12.1298 14.9005C12.2398 16.6205 11.2198 17.8005 9.7398 17.8905C7.9798 18.0005 6.9998 16.9605 6.9998 16.9605L7.3698 15.3705C7.3698 15.3705 8.3498 16.1105 9.1298 16.0605C9.6398 16.0305 9.81981 15.6105 9.8098 15.3205C9.7298 14.1005 7.7298 14.1705 7.6098 12.1705C7.4998 10.4805 8.6098 8.78047 11.0498 8.62047C11.9998 8.56047 12.4798 8.80047 12.4798 8.80047L11.9198 10.8905C11.9198 10.8905 11.2998 10.6105 10.5598 10.6505C9.4798 10.7205 9.4598 11.4005 9.4698 11.5705ZM12.9398 5.71047C12.9298 5.27047 12.8798 4.65047 12.6698 4.12047C13.3298 4.25047 13.6598 4.99047 13.7998 5.44047C13.5498 5.52047 13.2598 5.61047 12.9398 5.71047ZM15.3898 20.9605L19.9498 19.8305C19.9498 19.8305 17.9898 6.57047 17.9798 6.48047C17.9698 6.39047 17.8898 6.34047 17.8198 6.33047C17.7498 6.32047 16.4698 6.30047 16.4698 6.30047C16.4698 6.30047 15.6898 5.54047 15.3898 5.25047V20.9605Z" fill="white"/>
</svg>
