<svg width="18" height="18" viewBox="0 0 18 18" fill="none" xmlns="http://www.w3.org/2000/svg">
<path d="M8.3221 0.0122498C8.64154 -0.0211735 9.05509 0.0211572 9.3779 0.051478C11.284 0.223411 13.078 1.02711 14.4751 2.33499C16.2096 3.95099 17.2145 6.20138 17.26 8.57158C17.324 10.4002 16.8157 12.2031 15.8059 13.729C14.2718 16.0686 11.7169 17.5301 8.91424 17.6101C7.43856 17.679 5.79325 17.2687 4.49838 16.5611C4.00128 16.2894 3.36421 15.8254 2.94198 15.4514C1.1897 13.8992 0.186255 11.7721 0.0215846 9.44074C-0.0981595 7.74538 0.283747 6.01613 1.08195 4.51692C1.35875 3.99701 1.83969 3.34519 2.23128 2.90542C3.46612 1.51862 5.00922 0.631631 6.81206 0.210268C7.31283 0.0932261 7.81827 0.0496186 8.3221 0.0122498Z" fill="white"/>
<path d="M9.16678 3.5684C9.24765 3.55443 9.3059 3.5794 9.37797 3.61397C10.2721 4.04266 11.1502 4.53687 12.0308 4.98993L14.534 6.30612C15.052 6.57788 15.6997 6.89488 16.2024 7.18824C16.345 7.56917 16.3724 8.4659 16.3391 8.85955C16.1834 10.701 15.3708 12.5569 14.1672 13.9541C13.8322 14.343 13.4766 14.6463 13.095 14.9763C12.7663 14.7671 12.3242 14.5285 11.9742 14.3145C10.6368 13.5233 9.30471 12.7229 7.97819 11.9134C7.4039 11.5761 6.83216 11.2345 6.26299 10.8886C6.00109 10.7302 5.64779 10.5294 5.40297 10.3555C5.31961 10.0944 5.26271 9.82904 5.18968 9.56584L4.66556 7.671C4.5251 7.15888 3.96074 5.4863 4.11264 5.07512C4.29954 4.8779 8.60945 3.68944 9.16678 3.5684Z" fill="black"/>
<path d="M7.52046 6.05714C7.87245 5.98738 8.23479 6.11207 8.4693 6.38367C8.70382 6.65528 8.77437 7.03191 8.65404 7.36998C8.53371 7.70804 8.24106 7.95541 7.88768 8.01775C7.34923 8.11276 6.83467 7.75656 6.73402 7.21914C6.63336 6.68172 6.98413 6.16344 7.52046 6.05714Z" fill="white"/>
<path d="M5.47266 10.8701C5.56805 10.8789 6.29338 11.3396 6.42898 11.4184L9.93066 13.4438L11.9463 14.6056C12.2243 14.7688 12.5759 14.9512 12.8335 15.1323C12.6093 15.3492 12.3689 15.511 12.1 15.6654C11.4383 16.0575 10.8198 16.2164 10.0883 16.4265C9.71389 16.0031 9.41849 15.6136 9.06441 15.1926L6.70079 12.3734C6.48596 12.1107 6.26813 11.8505 6.0473 11.5929C5.88121 11.3998 5.58535 11.084 5.47266 10.8701Z" fill="black"/>
<path d="M5.70605 11.6514C5.72339 11.6625 6.47378 12.6021 6.5549 12.7001L9.11058 15.8173C9.1926 15.9173 9.68991 16.4898 9.68935 16.5698C9.08872 16.5895 8.42042 16.6247 7.82673 16.5489C7.54223 16.5126 7.11437 16.3922 6.83516 16.31C6.58922 15.3548 6.36866 14.3587 6.1328 13.3978C5.99001 12.816 5.83906 12.2352 5.70605 11.6514Z" fill="black"/>
</svg>
