<svg width="30" height="30" viewBox="0 0 30 30" fill="none" xmlns="http://www.w3.org/2000/svg">
<path d="M7.30986 18.275C7.30986 18.9213 7.05314 19.541 6.59617 19.998C6.13921 20.455 5.51943 20.7117 4.87319 20.7117C4.22695 20.7117 3.60717 20.455 3.15021 19.998C2.69324 19.541 2.43652 18.9213 2.43652 18.275C2.43652 17.6288 2.69324 17.009 3.15021 16.552C3.60717 16.0951 4.22695 15.8384 4.87319 15.8384H7.30986V18.275ZM8.52819 18.275C8.52819 17.6288 8.78491 17.009 9.24187 16.552C9.69884 16.0951 10.3186 15.8384 10.9649 15.8384C11.6111 15.8384 12.2309 16.0951 12.6878 16.552C13.1448 17.009 13.4015 17.6288 13.4015 18.275V24.3667C13.4015 25.0129 13.1448 25.6327 12.6878 26.0897C12.2309 26.5466 11.6111 26.8034 10.9649 26.8034C10.3186 26.8034 9.69884 26.5466 9.24187 26.0897C8.78491 25.6327 8.52819 25.0129 8.52819 24.3667V18.275ZM10.9649 8.52836C10.3186 8.52836 9.69884 8.27164 9.24187 7.81468C8.78491 7.35772 8.52819 6.73794 8.52819 6.0917C8.52819 5.44545 8.78491 4.82568 9.24187 4.36871C9.69884 3.91175 10.3186 3.65503 10.9649 3.65503C11.6111 3.65503 12.2309 3.91175 12.6878 4.36871C13.1448 4.82568 13.4015 5.44545 13.4015 6.0917V8.52836H10.9649ZM10.9649 9.7467C11.6111 9.7467 12.2309 10.0034 12.6878 10.4604C13.1448 10.9173 13.4015 11.5371 13.4015 12.1834C13.4015 12.8296 13.1448 13.4494 12.6878 13.9063C12.2309 14.3633 11.6111 14.62 10.9649 14.62H4.87319C4.22695 14.62 3.60717 14.3633 3.15021 13.9063C2.69324 13.4494 2.43652 12.8296 2.43652 12.1834C2.43652 11.5371 2.69324 10.9173 3.15021 10.4604C3.60717 10.0034 4.22695 9.7467 4.87319 9.7467H10.9649ZM20.7115 12.1834C20.7115 11.5371 20.9682 10.9173 21.4252 10.4604C21.8822 10.0034 22.5019 9.7467 23.1482 9.7467C23.7944 9.7467 24.4142 10.0034 24.8712 10.4604C25.3281 10.9173 25.5849 11.5371 25.5849 12.1834C25.5849 12.8296 25.3281 13.4494 24.8712 13.9063C24.4142 14.3633 23.7944 14.62 23.1482 14.62H20.7115V12.1834ZM19.4932 12.1834C19.4932 12.8296 19.2365 13.4494 18.7795 13.9063C18.3225 14.3633 17.7028 14.62 17.0565 14.62C16.4103 14.62 15.7905 14.3633 15.3335 13.9063C14.8766 13.4494 14.6199 12.8296 14.6199 12.1834V6.0917C14.6199 5.44545 14.8766 4.82568 15.3335 4.36871C15.7905 3.91175 16.4103 3.65503 17.0565 3.65503C17.7028 3.65503 18.3225 3.91175 18.7795 4.36871C19.2365 4.82568 19.4932 5.44545 19.4932 6.0917V12.1834ZM17.0565 21.93C17.7028 21.93 18.3225 22.1867 18.7795 22.6437C19.2365 23.1007 19.4932 23.7204 19.4932 24.3667C19.4932 25.0129 19.2365 25.6327 18.7795 26.0897C18.3225 26.5466 17.7028 26.8034 17.0565 26.8034C16.4103 26.8034 15.7905 26.5466 15.3335 26.0897C14.8766 25.6327 14.6199 25.0129 14.6199 24.3667V21.93H17.0565ZM17.0565 20.7117C16.4103 20.7117 15.7905 20.455 15.3335 19.998C14.8766 19.541 14.6199 18.9213 14.6199 18.275C14.6199 17.6288 14.8766 17.009 15.3335 16.552C15.7905 16.0951 16.4103 15.8384 17.0565 15.8384H23.1482C23.7944 15.8384 24.4142 16.0951 24.8712 16.552C25.3281 17.009 25.5849 17.6288 25.5849 18.275C25.5849 18.9213 25.3281 19.541 24.8712 19.998C24.4142 20.455 23.7944 20.7117 23.1482 20.7117H17.0565Z" fill="white"/>
</svg>
