<svg width="144" height="24" viewBox="0 0 144 24" fill="none" xmlns="http://www.w3.org/2000/svg">
<path d="M6.71878 16.948C6.11771 16.948 5.51283 16.9826 4.91556 16.948C3.14087 16.827 1.72186 16.0452 0.702322 14.5641C0.474065 14.2337 0.158314 13.9321 0.0403817 13.5671C-0.161245 12.9429 0.420813 12.0841 1.14933 11.8094C1.71997 11.5905 2.44087 11.9381 2.78135 12.6239C3.14657 13.3597 3.49276 14.105 3.85797 14.8427C4.0036 15.1483 4.22782 15.4088 4.50721 15.597C4.7866 15.7852 5.1109 15.8942 5.44625 15.9127C6.35251 16.0011 7.26546 15.9934 8.17012 15.8896C8.70224 15.8094 9.1965 15.564 9.58432 15.1875C9.97222 14.811 10.2345 14.3219 10.3347 13.7881C10.5078 12.6355 10.0438 11.5655 8.91386 11.0238C7.49677 10.3456 6.02071 9.78282 4.55035 9.22383C3.352 8.76665 2.25066 8.1903 1.37188 7.22984C0.420809 6.20986 0.287664 3.88357 1.12651 2.76932C2.24497 1.2806 3.62781 0.287429 5.59463 0.333602C6.47722 0.35278 7.36171 0.224076 8.2443 0.241345C9.53968 0.268249 10.7514 0.625548 11.7538 1.4823C12.0812 1.77597 12.3571 2.12345 12.5697 2.51001C12.9502 3.19197 12.8075 3.89693 12.2559 4.28304C11.7405 4.64615 10.9415 4.51163 10.4698 3.93728C10.1472 3.58808 9.87853 3.19179 9.67279 2.76169C9.12117 1.37858 7.91903 1.17881 6.71118 1.1519C5.58892 1.12691 4.5085 1.38813 3.87319 2.52155C3.65083 2.87603 3.55216 3.2955 3.59282 3.71315C3.63348 4.13079 3.81117 4.52272 4.09764 4.82675C4.62263 5.41564 5.26158 5.88964 5.97505 6.2194C7.55573 6.93018 9.20865 7.46416 10.8122 8.1404C13.2831 9.19502 14.5956 11.2639 13.2964 14.1454C13.1773 14.4044 13.0152 14.6409 12.8171 14.8446C11.4589 16.2373 9.88582 17.1382 7.85816 16.9807C7.47773 16.9519 7.09731 16.9807 6.71688 16.9807L6.71878 16.948Z" fill="#F5E0A2"/>
<path d="M65.3785 0.593415C66.6815 0.681762 67.3814 1.32528 67.8874 2.49705C68.711 4.39888 70.986 9.04763 72.1387 11.2049C72.2 11.3196 72.2917 11.4148 72.4036 11.4798C72.5154 11.5448 72.6431 11.5771 72.7721 11.5729C72.9011 11.5686 73.0265 11.5283 73.1339 11.4561C73.2415 11.3839 73.327 11.2829 73.3808 11.1645L73.4036 11.1184C73.7612 10.35 74.0523 9.54318 74.4155 8.77478C75.2126 7.09009 77.5712 2.12058 78.0296 1.37336C78.0587 1.32646 78.0946 1.28437 78.1362 1.24847C78.2284 1.17503 78.3377 1.12659 78.4536 1.10759C78.5695 1.0885 78.6884 1.09968 78.7989 1.13976C78.9094 1.17994 79.008 1.24784 79.0854 1.33709C79.1628 1.42635 79.2164 1.53396 79.2413 1.64994C79.2625 1.74056 79.279 1.83227 79.2907 1.92462C79.3154 2.11676 79.1785 2.34726 79.0853 2.54513C78.49 3.7899 73.1468 17.471 69.2132 22.0987C69.1853 22.1301 69.1554 22.1595 69.1238 22.1871C67.8988 23.2282 65.9852 23.3896 64.7641 22.5194C64.1136 22.0584 63.8625 21.4187 64.1288 20.898C64.437 20.2872 65.4394 19.8627 66.0595 20.0778C68.1975 20.8212 69.6107 20.1008 70.461 17.9206C70.8414 16.9485 70.7368 16.1052 70.2708 15.1908C68.9906 12.6456 64.8097 4.19519 64.007 2.51241C63.8169 2.12821 63.6742 1.45016 63.8739 1.18694C64.1174 0.871907 65.2834 0.585689 65.3785 0.593415Z" fill="#F5E0A2"/>
<path d="M22.4021 0.517918C24.173 0.564 24.3042 0.709972 24.9357 2.34085C26.0238 5.14741 27.1822 7.92515 28.2987 10.7183C28.605 11.4867 28.8294 12.2858 29.1775 13.0234C29.1889 13.0484 29.2022 13.0715 29.2155 13.0944C29.2844 13.193 29.3784 13.2708 29.4874 13.3198C29.5965 13.3688 29.7167 13.387 29.8352 13.3727C29.9537 13.3583 30.0662 13.3118 30.1607 13.2381C30.2552 13.1645 30.3282 13.0664 30.3721 12.9542L30.4025 12.8736C30.8133 11.721 31.1633 10.5377 31.599 9.38697C32.0535 8.17483 32.6185 7.00306 33.0427 5.78138C33.3812 4.80547 33.4764 3.79121 32.8411 2.84993C32.7184 2.66506 32.623 2.46319 32.5576 2.25059C32.259 1.29013 32.8068 0.268148 33.7198 0.0721851C34.4388 -0.0795134 35.4013 0.702337 35.466 1.58208C35.5378 2.18615 35.4979 2.79849 35.348 3.38783C34.9086 4.80356 34.3666 6.18857 33.8454 7.57749C33.4916 8.52258 33.1035 9.45232 32.7326 10.3917C32.0212 12.182 31.287 13.9646 30.6136 15.7704C30.3473 16.4831 30.043 17.0055 29.1851 17.0478C28.234 17.0959 27.3667 16.9998 26.9329 16.0316C26.1474 14.2682 25.4226 12.4778 24.6599 10.7048C23.9352 9.02013 23.1934 7.34308 22.4573 5.66413C21.8866 4.35983 21.2912 3.06698 20.7453 1.75114C20.3649 0.825223 20.6217 0.489106 21.6394 0.473745C21.8961 0.46411 22.1491 0.506374 22.4021 0.517918Z" fill="#F5E0A2"/>
<path d="M48.5897 10.3899C48.5897 12.1072 48.5897 13.8239 48.5897 15.54C48.5897 16.7463 48.371 16.9673 47.1518 17.0249C46.9292 17.0364 46.7085 17.0441 46.486 17.0364C45.2249 17.0018 44.9643 16.7233 44.9472 15.4343C44.9167 10.9854 44.8888 6.53569 44.8635 2.08544C44.8635 1.46501 44.7076 0.675528 45.5216 0.487291C46.37 0.295145 47.3001 0.15299 48.0287 0.888761C48.9245 1.79159 48.8751 1.75896 49.811 0.800411C50.4881 0.110724 51.4373 -0.0141612 52.3674 0.00119955C53.853 0.0242861 55.0837 0.527553 55.7741 1.97019C56.1546 2.77704 55.8312 3.96036 55.0722 4.39646C54.781 4.55807 54.4411 4.60606 54.1171 4.53134C53.7931 4.45663 53.5076 4.26439 53.3147 3.99108C53.0617 3.62615 52.8525 3.22268 52.5995 2.8673C51.481 1.26714 50.2979 1.61489 49.1985 3.08634C48.7667 3.6626 48.6545 4.56934 48.6164 5.33774C48.5308 7.01851 48.5879 8.70519 48.5897 10.3899Z" fill="#F5E0A2"/>
<path d="M133.476 7.21444C135.396 7.21444 136.52 8.20761 136.499 9.93647C136.488 11.5059 135.04 12.4741 133.529 12.5682C131.892 12.6719 130.748 11.4521 130.623 9.9441C130.497 8.43621 131.854 6.91095 133.476 7.21444ZM133.533 8.13654C132.323 8.1269 131.666 8.76278 131.679 9.92683C131.679 10.6145 132.881 11.794 133.55 11.7768C134.121 11.7614 135.432 10.4321 135.428 9.87693C135.42 8.98174 134.508 8.14226 133.533 8.13654Z" fill="#F5E0A2"/>
<path d="M143.916 8.94508C143.916 9.76538 143.962 10.5895 143.889 11.404C143.867 11.6825 143.564 12.1301 143.353 12.1531C142.966 12.1786 142.585 12.0481 142.293 11.7901C141.902 11.4059 141.685 10.8296 141.323 10.3954C141.133 10.1668 140.79 10.065 140.517 9.90562C140.371 10.19 140.244 10.4839 140.136 10.7854C140.087 10.9563 140.22 11.1888 140.156 11.3444C140.03 11.5694 139.877 11.7778 139.7 11.9649C139.492 11.8034 139.295 11.6275 139.109 11.4385C139.041 11.3617 139.068 11.1946 139.068 11.0697C139.068 10.2181 139.068 9.36645 139.068 8.5148C139.068 8.03652 139.022 7.441 139.613 7.36219C139.9 7.32384 140.294 7.68495 140.564 7.94817C141.162 8.53788 141.69 9.19867 142.288 9.78846C142.428 9.9248 142.821 9.99588 142.948 9.89981C143.075 9.80383 143.106 9.45416 143.086 9.22557C143.058 8.88363 142.857 8.53788 142.896 8.21703C142.932 7.97308 143.235 7.76757 143.419 7.5447C143.61 7.75985 143.846 7.94817 143.947 8.19404C144.047 8.4399 143.964 8.69349 143.964 8.94708L143.916 8.94508Z" fill="#F5E0A2"/>
<path d="M92.4313 8.79895C92.3854 9.75941 92.389 10.5854 92.2792 11.398C92.2405 11.6842 91.9633 12.105 91.7275 12.1549C91.5511 12.178 91.372 12.1616 91.2028 12.1068C91.0327 12.0521 90.8779 11.9603 90.7474 11.8379C90.3289 11.375 90.0706 10.7718 89.6825 10.2781C89.5908 10.1664 89.4777 10.0748 89.3498 10.0087C89.2219 9.94265 89.082 9.90356 88.9388 9.89393C88.8057 9.89393 88.6193 10.3088 88.5735 10.5586C88.5279 10.8083 88.6743 11.1349 88.6116 11.4019C88.5488 11.6689 88.3224 11.8379 88.1685 12.0531C87.9551 11.9006 87.7563 11.7283 87.575 11.5383C87.4913 11.4345 87.5159 11.2329 87.5159 11.0753C87.5159 10.1629 87.4741 9.2466 87.5465 8.33795C87.575 7.98829 87.8678 7.6579 88.0409 7.31787C88.3396 7.51002 88.6877 7.64254 88.9311 7.89421C89.5474 8.50701 90.103 9.18124 90.715 9.79976C90.841 9.92656 91.2118 10.0169 91.2856 9.94192C91.4386 9.76041 91.5214 9.529 91.5178 9.29077C91.5178 8.98146 91.3108 8.65489 91.3621 8.36676C91.4134 8.07864 91.678 7.82886 91.849 7.56182C92.065 7.78033 92.2567 8.02256 92.4196 8.28414C92.4664 8.45202 92.47 8.62908 92.4313 8.79895Z" fill="#F5E0A2"/>
<path d="M109.447 9.67758C109.447 9.64686 109.447 9.61414 109.447 9.58342C109.242 6.80376 110.037 7.20141 112.085 7.24749C113.265 7.27249 113.776 8.26175 113.443 9.4009C113.324 9.81201 113.443 10.3019 113.486 10.7456C113.513 10.9896 113.711 11.2258 113.702 11.4602C113.693 11.6946 113.554 11.9904 113.388 12.0615C113.223 12.1326 112.911 11.9692 112.775 11.8117C112.411 11.3873 112.102 10.9108 111.777 10.4517C111.452 9.99261 111.319 9.60259 111.992 9.32792C112.392 9.16468 112.69 8.75166 112.355 8.45199C112.066 8.19268 111.496 8.11387 111.081 8.17532C110.984 8.18786 110.893 8.22676 110.816 8.28784C110.74 8.34883 110.681 8.42972 110.646 8.52189C110.612 8.61405 110.603 8.71394 110.62 8.81093C110.637 8.90791 110.68 8.99825 110.744 9.07242C111.429 9.98689 110.579 10.7533 110.543 11.5928C110.543 11.7273 110.086 11.998 109.995 11.9443C109.76 11.8041 109.489 11.5351 109.449 11.2854C109.365 10.7591 109.425 10.2116 109.425 9.67176L109.447 9.67758Z" fill="#F5E0A2"/>
<path d="M95.3261 9.46604C95.2946 9.05457 95.3009 8.64092 95.3477 8.23082C95.3972 7.9715 95.6402 7.74863 95.7977 7.5105C95.9678 7.73718 96.2396 7.94651 96.281 8.19437C96.3251 8.66819 96.3305 9.14501 96.2963 9.61973C96.2963 9.74644 96.2963 9.87523 96.2963 10.0039C96.3251 10.8184 96.9866 11.6386 97.6068 11.631C98.2269 11.6233 99.0621 10.5014 99.0225 9.79643C98.9694 9.25989 98.9694 8.71936 99.0225 8.18283C99.0567 7.94078 99.3744 7.73909 99.5625 7.52004C99.7416 7.73527 100.053 7.94269 100.072 8.17128C100.145 8.96213 100.148 9.75789 100.084 10.5495C99.9657 11.8672 98.2575 12.8949 96.9929 12.4705C95.3909 11.9229 95.2937 11.7482 95.3261 9.46604Z" fill="#F5E0A2"/>
<path d="M122.168 7.22946C122.607 7.20828 123.047 7.2141 123.485 7.24673C123.584 7.27436 123.676 7.3229 123.755 7.38906C123.835 7.45532 123.898 7.53776 123.944 7.63093C123.986 7.71546 123.811 8.01513 123.68 8.05357C122.539 8.43777 122.684 9.37905 122.728 10.2646C122.74 10.5796 122.892 10.9197 122.81 11.2001C122.728 11.4806 122.43 11.6881 122.24 11.9282C122.019 11.7053 121.65 11.5056 121.606 11.252C121.534 10.7177 121.544 10.1754 121.635 9.64409C121.739 8.91805 121.56 8.4205 120.832 8.14001C120.622 8.0593 120.494 7.76926 120.328 7.5733C120.566 7.45041 120.792 7.26018 121.041 7.21991C121.421 7.18292 121.802 7.1771 122.182 7.20255L122.168 7.22946Z" fill="#F5E0A2"/>
<path d="M102.641 7.58343C102.918 7.46627 103.191 7.26449 103.474 7.24913C104.29 7.20114 105.108 7.20114 105.926 7.24913C106.15 7.26258 106.361 7.50853 106.576 7.64678C106.404 7.8043 106.249 8.07325 106.061 8.09824C105.191 8.21731 105.007 8.76866 105.045 9.51979C105.105 10.085 105.116 10.6545 105.079 11.2217C105.039 11.5368 104.75 11.823 104.573 12.1208C104.383 11.8307 104.128 11.5618 104.054 11.2467C103.968 10.8894 104.054 10.4937 104.071 10.1152C104.128 9.05679 104.187 8.00217 102.572 7.91964L102.641 7.58343Z" fill="#F5E0A2"/>
<path d="M126.926 9.80551C126.9 9.23371 126.907 8.66091 126.949 8.09002C126.974 7.87297 127.259 7.68855 127.425 7.48877C127.594 7.68092 127.903 7.87297 127.912 8.06511C127.965 9.20872 127.971 10.3523 127.929 11.4959C127.929 11.7053 127.615 11.9032 127.448 12.1068C127.274 11.9148 126.978 11.7226 126.949 11.5132C126.906 10.945 126.899 10.3747 126.926 9.80551Z" fill="#F5E0A2"/>
<path d="M116.432 9.74211C116.405 9.17549 116.414 8.60769 116.457 8.04207C116.481 7.85002 116.783 7.67714 116.959 7.49463C117.104 7.67514 117.364 7.85001 117.374 8.03634C117.427 9.16967 117.451 10.3069 117.413 11.4402C117.413 11.6747 117.089 11.8994 116.913 12.1299C116.742 11.9013 116.457 11.6881 116.424 11.4422C116.379 10.8767 116.37 10.3087 116.4 9.74211H116.432Z" fill="#F5E0A2"/>
</svg>
